<?xml version="1.0" encoding="UTF-8" standalone="no"?><!-- Generator: Gravit.io --><svg xmlns="http://www.w3.org/2000/svg" xmlns:xlink="http://www.w3.org/1999/xlink" style="isolation:isolate" viewBox="0 0 800 1270" width="800pt" height="1270pt"><defs><clipPath id="_clipPath_3kQVAeRvH3w983XBrRhRcUqp2VKczQhR"><rect width="800" height="1270"/></clipPath></defs><g clip-path="url(#_clipPath_3kQVAeRvH3w983XBrRhRcUqp2VKczQhR)"><path d=" M 800 64 C 800 30.523 757.12 0 736 0 L 64 0 C 42.912 0 0 30.523 0 64 L 0 1206 C 0 1239.477 42.912 1270 64 1270 L 746 1270 C 767.12 1270 800 1239.477 800 1206 L 800 64 Z " fill-rule="evenodd" fill="rgb(0,0,0)"/><path d=" M 796 64 C 796 30.734 756.908 4 736 4 L 64 4 C 43.123 4 4 34.331 4 67.597 L 4 1206 C 4 1239.266 43.123 1266 64 1266 L 746 1266 C 766.908 1266 796 1239.266 796 1206 L 796 64 Z " fill-rule="evenodd" fill="rgb(255,255,255)"/><path d=" M 736 121.55 C 736 91.446 699.98 64 682.24 64 L 117.76 64 C 100.046 64 64 91.446 64 121.55 L 64 1092 L 64 1148.45 C 64 1178.554 100.046 1206 117.76 1206 L 690.64 1206 C 708.38 1206 736 1178.554 736 1148.45 L 736 121.55 Z " fill-rule="evenodd" fill="rgb(0,0,0)"/><path d=" M 736 487.269 C 712.108 573.787 672.058 668.379 616.946 762.301 C 456.692 1035.404 229.377 1200.087 109.641 1129.828 C 90.594 1118.651 75.409 1102.199 64 1081.315 L 64 1081.315 L 64 782.731 C 87.892 696.214 127.942 601.621 183.054 507.699 C 343.308 234.596 570.623 69.913 690.359 140.172 C 709.406 151.349 724.591 167.801 736 188.685 L 736 487.269 L 736 487.269 Z " fill="rgb(237,28,36)"/><defs><filter id="mMmbsWgcopxNHIYBKUl4K9BGfQYiFbVE" x="-200%" y="-200%" width="400%" height="400%" filterUnits="objectBoundingBox" color-interpolation-filters="sRGB"><feGaussianBlur xmlns="http://www.w3.org/2000/svg" in="SourceGraphic" stdDeviation="0"/><feOffset xmlns="http://www.w3.org/2000/svg" dx="24" dy="24" result="pf_100_offsetBlur"/><feFlood xmlns="http://www.w3.org/2000/svg" flood-color="#000000" flood-opacity="1"/><feComposite xmlns="http://www.w3.org/2000/svg" in2="pf_100_offsetBlur" operator="in" result="pf_100_dropShadow"/><feBlend xmlns="http://www.w3.org/2000/svg" in="SourceGraphic" in2="pf_100_dropShadow" mode="normal"/></filter></defs><g filter="url(#mMmbsWgcopxNHIYBKUl4K9BGfQYiFbVE)"><path d=" M 227.506 809.705 L 227.506 809.705 Q 189.051 817.314 164.933 796.398 L 164.933 796.398 L 164.933 796.398 Q 140.814 775.482 132.865 735.311 L 132.865 735.311 L 99.1 564.669 L 149.164 552.622 L 184.152 729.444 L 184.152 729.444 Q 186.801 742.834 190.181 751.799 L 190.181 751.799 L 190.181 751.799 Q 193.56 760.763 201.031 766.064 L 201.031 766.064 L 201.031 766.064 Q 208.502 771.365 221.206 768.851 L 221.206 768.851 L 221.206 768.851 Q 233.223 766.473 237.563 758.657 L 237.563 758.657 L 237.563 758.657 Q 241.904 750.841 241.477 741.471 L 241.477 741.471 L 241.477 741.471 Q 241.05 732.1 238.264 718.023 L 238.264 718.023 L 204.228 546.008 L 249.42 532.784 L 282.438 699.649 L 282.438 699.649 Q 289.639 736.044 281.233 768.391 L 281.233 768.391 L 281.233 768.391 Q 272.827 800.737 227.506 809.705 L 227.506 809.705 L 227.506 809.705 Z  M 508.032 747.062 L 467.302 759.402 L 360.248 613.253 L 391.295 770.16 L 346.725 781.12 L 296.179 525.673 L 348.303 513.218 L 445.212 653.17 L 415.727 504.159 L 457.486 491.614 L 508.032 747.062 L 508.032 747.062 Z  M 581.571 734.651 L 536.593 743.551 L 540.5 478.399 L 611.647 461.11 L 717.814 705.552 L 663.287 718.482 L 643.079 665.038 L 581.62 677.199 L 581.571 734.651 L 581.571 734.651 Z  M 577.576 507.099 L 582.738 634.163 L 625.656 625.671 L 577.576 507.099 L 577.576 507.099 Z " fill="rgb(255,221,2)"/></g><path d=" M 228.28 813.63 C 224.63 814.35 220.94 814.9 217.23 815.27 C 213.93 815.61 210.62 815.76 207.31 815.73 C 204.32 815.71 201.32 815.52 198.35 815.17 C 195.58 814.85 192.84 814.36 190.13 813.72 C 187.54 813.1 185 812.33 182.5 811.41 C 180.06 810.52 177.68 809.47 175.37 808.28 C 173.06 807.1 170.82 805.77 168.67 804.31 C 166.45 802.8 164.33 801.17 162.31 799.42 C 160.37 797.74 158.51 795.97 156.73 794.12 C 154.92 792.24 153.19 790.28 151.56 788.24 C 149.87 786.14 148.27 783.96 146.77 781.72 C 145.2 779.37 143.73 776.95 142.36 774.48 C 141.73 773.33 141.12 772.18 140.54 771.02 C 139.93 769.82 139.35 768.61 138.79 767.39 C 136.66 762.75 134.82 757.99 133.29 753.13 C 131.53 747.53 130.08 741.84 128.94 736.09 L 94.43 561.68 L 152.28 547.76 L 188.08 728.67 C 188.94 733.03 189.95 737.37 191.11 741.67 C 191.91 744.62 192.85 747.53 193.92 750.39 C 194.42 751.71 195.02 753 195.7 754.24 C 196.32 755.38 197.03 756.46 197.82 757.49 C 198.59 758.5 199.43 759.44 200.34 760.32 C 201.28 761.22 202.28 762.05 203.35 762.8 C 204.27 763.46 205.28 764 206.34 764.41 C 207.57 764.89 208.86 765.23 210.17 765.42 C 211.61 765.63 213.07 765.71 214.52 765.64 C 216.5 765.55 218.48 765.31 220.43 764.93 C 222.34 764.55 224.21 764.01 226.02 763.31 C 227.31 762.81 228.54 762.17 229.69 761.39 C 230.63 760.76 231.49 760.02 232.26 759.2 C 232.96 758.44 233.57 757.61 234.07 756.72 C 234.69 755.6 235.23 754.44 235.69 753.25 C 236.14 752.08 236.51 750.88 236.79 749.65 C 237.08 748.4 237.28 747.12 237.39 745.84 C 237.52 744.45 237.54 743.05 237.48 741.65 C 237.45 740.89 237.4 740.12 237.34 739.36 C 237.28 738.49 237.21 737.62 237.12 736.74 C 236.87 734.2 236.55 731.66 236.16 729.14 C 235.63 725.68 235.02 722.23 234.34 718.8 L 199.59 543.2 L 252.5 527.72 L 286.36 698.87 C 287.62 705.21 288.54 711.61 289.12 718.05 C 289.66 724.02 289.86 730.02 289.72 736.02 C 289.58 741.72 289.13 747.41 288.35 753.05 C 287.58 758.56 286.5 764.02 285.1 769.4 C 284.35 772.29 283.37 775.11 282.16 777.84 C 281 780.46 279.61 782.98 278.02 785.36 C 276.42 787.76 274.62 790.02 272.63 792.12 C 270.53 794.33 268.26 796.37 265.84 798.22 C 264.76 799.04 263.66 799.82 262.53 800.57 C 261.35 801.35 260.14 802.1 258.91 802.81 C 257.95 803.36 256.98 803.89 256 804.4 C 254.98 804.93 253.94 805.44 252.89 805.93 C 249.34 807.58 245.68 808.99 241.95 810.15 C 237.46 811.56 232.9 812.72 228.28 813.63 Z  M 226.73 805.78 C 223.32 806.46 219.88 806.97 216.43 807.31 C 213.42 807.62 210.4 807.76 207.37 807.73 C 204.67 807.71 201.97 807.54 199.28 807.23 C 196.82 806.94 194.39 806.51 191.99 805.94 C 189.71 805.39 187.46 804.71 185.26 803.91 C 183.13 803.12 181.05 802.21 179.03 801.17 C 177 800.13 175.04 798.97 173.16 797.69 C 171.21 796.36 169.34 794.92 167.55 793.38 C 165.8 791.85 164.11 790.25 162.5 788.57 C 160.85 786.86 159.28 785.08 157.79 783.23 C 156.25 781.31 154.79 779.32 153.42 777.27 C 151.98 775.11 150.62 772.89 149.37 770.61 C 148.78 769.55 148.22 768.49 147.68 767.41 C 147.12 766.3 146.58 765.18 146.05 764.04 C 144.06 759.72 142.35 755.27 140.92 750.73 C 139.25 745.41 137.87 740 136.79 734.53 L 103.77 567.66 L 146.05 557.49 L 180.23 730.22 C 181.13 734.76 182.18 739.28 183.39 743.75 C 184.25 746.95 185.27 750.11 186.44 753.21 C 187.07 754.89 187.82 756.52 188.68 758.09 C 189.5 759.58 190.43 761.01 191.47 762.36 C 192.48 763.68 193.6 764.93 194.8 766.09 C 196.02 767.26 197.33 768.34 198.72 769.33 C 200.18 770.37 201.77 771.22 203.45 771.87 C 205.24 772.56 207.1 773.06 209 773.34 C 210.95 773.62 212.92 773.72 214.88 773.63 C 217.27 773.53 219.64 773.24 221.98 772.77 C 224.34 772.31 226.66 771.64 228.9 770.77 C 230.75 770.05 232.52 769.13 234.16 768.03 C 235.61 767.05 236.93 765.92 238.12 764.65 C 239.26 763.42 240.25 762.06 241.06 760.6 C 241.86 759.16 242.56 757.66 243.15 756.13 C 243.74 754.6 244.22 753.04 244.59 751.46 C 244.96 749.83 245.22 748.19 245.36 746.53 C 245.52 744.79 245.55 743.04 245.47 741.29 C 245.43 740.45 245.38 739.61 245.32 738.78 C 245.25 737.84 245.18 736.9 245.08 735.97 C 244.82 733.27 244.48 730.59 244.07 727.91 C 243.52 724.34 242.89 720.79 242.19 717.25 L 208.86 548.82 L 246.35 537.85 L 278.51 700.43 C 279.71 706.49 280.59 712.61 281.15 718.77 C 281.66 724.44 281.85 730.14 281.72 735.83 C 281.59 741.23 281.16 746.61 280.42 751.96 C 279.7 757.16 278.68 762.31 277.36 767.38 C 276.72 769.85 275.88 772.27 274.84 774.6 C 273.87 776.8 272.7 778.92 271.37 780.92 C 270.02 782.95 268.5 784.85 266.83 786.61 C 265.02 788.51 263.07 790.27 260.99 791.85 C 260.05 792.57 259.09 793.25 258.11 793.9 C 257.07 794.59 256 795.25 254.91 795.88 C 254.06 796.37 253.2 796.84 252.33 797.3 C 251.4 797.78 250.47 798.23 249.52 798.67 C 246.29 800.17 242.96 801.45 239.57 802.52 C 235.35 803.83 231.06 804.92 226.73 805.78 Z  M 512.66 749.84 L 465.75 764.05 L 367.67 630.15 L 395.96 773.13 L 343.61 786 L 291.51 522.68 L 350.03 508.69 L 437.56 635.09 L 411.1 501.37 L 460.55 486.52 L 512.66 749.84 Z  M 503.4 744.28 L 468.85 754.75 L 352.83 596.35 L 386.63 767.19 L 349.84 776.24 L 300.85 528.67 L 346.57 517.74 L 452.87 671.25 L 420.36 506.94 L 454.42 496.71 L 503.4 744.28 Z  M 585.57 737.94 L 532.52 748.43 L 536.55 475.24 L 613.97 456.43 L 723.39 708.34 L 660.79 723.19 L 640.53 669.62 L 585.62 680.49 L 585.57 737.94 Z  M 577.57 731.36 L 540.67 738.67 L 544.45 481.56 L 609.32 465.79 L 712.24 702.76 L 665.79 713.78 L 645.62 660.46 L 577.62 673.91 L 577.57 731.36 Z  M 631.18 628.66 L 578.93 638.99 L 572.65 484.3 L 631.18 628.66 Z  M 620.13 622.69 L 586.55 629.33 L 582.51 529.9 L 620.13 622.69 Z " fill-rule="evenodd" fill="rgb(255,255,255)"/><rect x="736" y="705.552" width="16" height="42.878" transform="matrix(1,0,0,1,0,0)" fill="rgb(255,255,255)"/></g></svg>