<?xml version="1.0" encoding="UTF-8" standalone="no"?><!-- Generator: Gravit.io --><svg xmlns="http://www.w3.org/2000/svg" xmlns:xlink="http://www.w3.org/1999/xlink" style="isolation:isolate" viewBox="0 0 800 1270" width="800pt" height="1270pt"><defs><clipPath id="_clipPath_6omleNlnlaRRbjd9Xte48FcABsNIlHTI"><rect width="800" height="1270"/></clipPath></defs><g clip-path="url(#_clipPath_6omleNlnlaRRbjd9Xte48FcABsNIlHTI)"><g><path d=" M 800 64 C 800 30.523 757.12 0 736 0 L 64 0 C 42.912 0 0 30.523 0 64 L 0 1206 C 0 1239.477 42.912 1270 64 1270 L 746 1270 C 767.12 1270 800 1239.477 800 1206 L 800 64 Z " fill-rule="evenodd" fill="rgb(0,0,0)"/><path d=" M 796 64 C 796 30.734 756.908 4 736 4 L 64 4 C 43.123 4 4 34.331 4 67.597 L 4 1206 C 4 1239.266 43.123 1266 64 1266 L 746 1266 C 766.908 1266 796 1239.266 796 1206 L 796 64 Z " fill-rule="evenodd" fill="rgb(255,255,255)"/><path d=" M 736 121.55 C 736 91.446 699.98 64 682.24 64 L 117.76 64 C 100.046 64 64 91.446 64 121.55 L 64 1148.45 C 64 1178.554 100.046 1206 117.76 1206 L 690.64 1206 C 708.38 1206 736 1178.554 736 1148.45 L 736 121.55 Z " fill-rule="evenodd" fill="rgb(237,28,36)"/><path d=" M 183.054 507.699 C 343.308 234.596 570.623 69.913 690.359 140.172 C 810.095 210.432 777.199 489.198 616.946 762.301 C 456.692 1035.404 229.377 1200.087 109.641 1129.828 C -10.095 1059.568 22.801 780.802 183.054 507.699 Z " fill="rgb(255,255,255)"/></g><g><defs><filter id="2WjBunWyhbrnQ2rL5TMHkAih75NuusAP" x="-200%" y="-200%" width="400%" height="400%" filterUnits="objectBoundingBox" color-interpolation-filters="sRGB"><feGaussianBlur xmlns="http://www.w3.org/2000/svg" in="SourceGraphic" stdDeviation="0"/><feOffset xmlns="http://www.w3.org/2000/svg" dx="8" dy="8" result="pf_100_offsetBlur"/><feFlood xmlns="http://www.w3.org/2000/svg" flood-color="#000000" flood-opacity="1"/><feComposite xmlns="http://www.w3.org/2000/svg" in2="pf_100_offsetBlur" operator="in" result="pf_100_dropShadow"/><feBlend xmlns="http://www.w3.org/2000/svg" in="SourceGraphic" in2="pf_100_dropShadow" mode="normal"/></filter></defs><g filter="url(#2WjBunWyhbrnQ2rL5TMHkAih75NuusAP)"><path d=" M 167.967 234.74 L 167.967 215.883 L 167.967 215.883 Q 172.465 210.001 182.845 197.891 L 182.845 197.891 L 182.845 197.891 Q 194.09 185.089 200.924 176.007 L 200.924 176.007 L 200.924 176.007 Q 207.757 166.924 212.515 156.977 L 212.515 156.977 L 212.515 156.977 Q 217.272 147.029 217.272 137.514 L 217.272 137.514 L 217.272 137.514 Q 217.272 132.151 213.899 127.567 L 213.899 127.567 L 213.899 127.567 Q 210.525 122.982 203.951 122.982 L 203.951 122.982 L 203.951 122.982 Q 197.377 122.982 192.36 129.297 L 192.36 129.297 L 192.36 129.297 Q 187.343 135.611 185.959 144.434 L 185.959 144.434 L 165.199 137.687 L 165.199 137.687 Q 166.929 128.345 172.119 120.301 L 172.119 120.301 L 172.119 120.301 Q 177.309 112.256 185.613 107.412 L 185.613 107.412 L 185.613 107.412 Q 193.917 102.568 204.47 102.568 L 204.47 102.568 L 204.47 102.568 Q 215.369 102.568 223.846 107.066 L 223.846 107.066 L 223.846 107.066 Q 232.323 111.564 237.081 119.609 L 237.081 119.609 L 237.081 119.609 Q 241.838 127.653 241.838 137.86 L 241.838 137.86 L 241.838 137.86 Q 241.838 156.544 229.036 175.228 L 229.036 175.228 L 229.036 175.228 Q 216.234 193.912 195.993 213.461 L 195.993 213.461 L 240.8 213.461 L 238.724 234.74 L 167.967 234.74 L 167.967 234.74 Z " fill="rgb(255,255,255)"/></g><defs><filter id="3FcwVLenHYYuficB6vWMp5XA4FmCf4Kp" x="-200%" y="-200%" width="400%" height="400%" filterUnits="objectBoundingBox" color-interpolation-filters="sRGB"><feGaussianBlur xmlns="http://www.w3.org/2000/svg" in="SourceGraphic" stdDeviation="0"/><feOffset xmlns="http://www.w3.org/2000/svg" dx="8" dy="8" result="pf_100_offsetBlur"/><feFlood xmlns="http://www.w3.org/2000/svg" flood-color="#000000" flood-opacity="1"/><feComposite xmlns="http://www.w3.org/2000/svg" in2="pf_100_offsetBlur" operator="in" result="pf_100_dropShadow"/><feBlend xmlns="http://www.w3.org/2000/svg" in="SourceGraphic" in2="pf_100_dropShadow" mode="normal"/></filter></defs><g filter="url(#3FcwVLenHYYuficB6vWMp5XA4FmCf4Kp)"><path d=" M 123.121 204.51 L 102.88 204.51 L 102.88 184.269 L 82.639 184.269 L 82.639 164.201 L 102.88 164.201 L 102.88 143.96 L 123.121 143.96 L 123.121 164.201 L 143.362 164.201 L 143.362 184.269 L 123.121 184.269 L 123.121 204.51 L 123.121 204.51 Z " fill="rgb(255,255,255)"/></g><path d=" M 190.79 128.05 C 191.74 126.86 192.8 125.77 193.95 124.78 C 194.93 123.94 196 123.22 197.15 122.63 C 198.19 122.09 199.3 121.68 200.45 121.4 C 201.6 121.12 202.77 120.98 203.95 120.98 C 205.2 120.98 206.45 121.11 207.68 121.36 C 208.75 121.58 209.79 121.94 210.77 122.41 C 211.7 122.86 212.56 123.42 213.35 124.08 C 214.16 124.76 214.88 125.53 215.51 126.38 C 216.14 127.23 216.7 128.13 217.19 129.06 C 217.65 129.94 218.04 130.85 218.35 131.79 C 218.66 132.7 218.89 133.64 219.04 134.59 C 219.19 135.56 219.27 136.53 219.27 137.51 C 219.27 139.11 219.18 140.71 218.99 142.3 C 218.79 143.96 218.5 145.61 218.12 147.24 C 217.7 148.98 217.19 150.71 216.59 152.4 C 215.93 154.25 215.17 156.07 214.32 157.84 C 212.71 161.21 210.93 164.49 208.99 167.68 C 206.99 170.96 204.83 174.14 202.52 177.21 C 200.23 180.26 197.86 183.26 195.43 186.2 C 191.81 190.59 188.11 194.92 184.36 199.2 C 180.91 203.23 177.49 207.28 174.12 211.36 C 172.7 213.07 171.32 214.81 169.97 216.56 L 169.97 232.74 L 236.91 232.74 L 238.6 215.46 L 195.99 215.46 C 195.18 215.46 194.44 214.96 194.14 214.21 C 193.83 213.46 194.02 212.59 194.6 212.02 C 201.29 205.57 207.68 198.81 213.75 191.79 C 218.62 186.15 223.18 180.24 227.39 174.1 C 229.56 170.93 231.52 167.62 233.25 164.19 C 234.75 161.23 236.01 158.17 237.04 155.03 C 237.96 152.18 238.67 149.27 239.15 146.32 C 239.61 143.52 239.84 140.69 239.84 137.86 C 239.84 136.21 239.74 134.57 239.53 132.94 C 239.34 131.44 239.05 129.96 238.66 128.51 C 238.29 127.12 237.83 125.76 237.27 124.44 C 236.72 123.12 236.08 121.85 235.36 120.63 C 234.62 119.38 233.8 118.19 232.9 117.05 C 232.03 115.95 231.08 114.91 230.06 113.94 C 229.02 112.96 227.92 112.05 226.76 111.22 C 225.53 110.34 224.24 109.54 222.91 108.83 C 221.62 108.15 220.3 107.55 218.93 107.04 C 217.52 106.51 216.07 106.06 214.6 105.71 C 213.03 105.33 211.44 105.05 209.83 104.87 C 208.05 104.67 206.26 104.57 204.47 104.57 C 202.76 104.57 201.06 104.67 199.36 104.88 C 197.81 105.08 196.28 105.37 194.77 105.77 C 193.34 106.15 191.93 106.62 190.56 107.19 C 189.2 107.75 187.89 108.4 186.62 109.14 C 185.31 109.91 184.04 110.75 182.82 111.66 C 181.65 112.54 180.53 113.49 179.46 114.51 C 178.4 115.52 177.4 116.6 176.47 117.73 C 175.51 118.9 174.62 120.12 173.8 121.38 C 172.16 123.93 170.77 126.62 169.65 129.43 C 168.76 131.67 168.05 133.98 167.52 136.34 L 184.41 141.83 C 184.59 141.03 184.79 140.23 185.01 139.44 C 185.41 138.02 185.91 136.62 186.5 135.25 C 187.06 133.96 187.7 132.7 188.42 131.48 C 189.14 130.29 189.93 129.14 190.79 128.05 Z  M 220.34 103.3 C 218.77 102.7 217.17 102.21 215.54 101.82 C 213.81 101.4 212.05 101.09 210.28 100.9 C 208.35 100.68 206.41 100.57 204.47 100.57 C 202.6 100.57 200.73 100.68 198.87 100.91 C 197.14 101.13 195.43 101.46 193.75 101.9 C 192.14 102.33 190.56 102.86 189.03 103.49 C 187.51 104.12 186.03 104.85 184.61 105.68 C 183.16 106.53 181.76 107.45 180.42 108.46 C 179.12 109.44 177.88 110.49 176.7 111.62 C 175.52 112.74 174.42 113.93 173.38 115.19 C 172.32 116.47 171.34 117.82 170.44 119.22 C 168.66 121.97 167.15 124.9 165.94 127.95 C 164.73 130.98 163.83 134.12 163.23 137.32 C 163.14 137.8 163.23 138.29 163.48 138.71 C 163.73 139.13 164.12 139.44 164.58 139.59 L 185.34 146.34 C 185.9 146.52 186.51 146.44 187.01 146.14 C 187.5 145.83 187.84 145.32 187.94 144.74 C 188.16 143.32 188.47 141.92 188.86 140.53 C 189.21 139.27 189.65 138.04 190.17 136.84 C 190.66 135.7 191.22 134.6 191.86 133.53 C 192.48 132.49 193.17 131.49 193.93 130.54 C 194.71 129.55 195.59 128.64 196.55 127.81 C 197.29 127.18 198.11 126.63 198.97 126.18 C 199.74 125.79 200.55 125.49 201.39 125.29 C 202.23 125.08 203.09 124.98 203.95 124.98 C 204.93 124.98 205.91 125.08 206.87 125.28 C 207.62 125.43 208.34 125.68 209.03 126.01 C 209.66 126.31 210.24 126.69 210.78 127.14 C 211.34 127.62 211.85 128.16 212.29 128.75 C 212.8 129.44 213.25 130.17 213.65 130.92 C 214.01 131.61 214.31 132.32 214.56 133.05 C 214.79 133.76 214.97 134.49 215.09 135.22 C 215.21 135.98 215.27 136.75 215.27 137.51 C 215.27 138.96 215.19 140.4 215.02 141.83 C 214.84 143.34 214.57 144.84 214.22 146.32 C 213.85 147.92 213.38 149.5 212.82 151.05 C 212.21 152.77 211.5 154.46 210.71 156.11 C 209.16 159.36 207.44 162.52 205.57 165.59 C 203.64 168.76 201.56 171.84 199.33 174.8 C 197.07 177.81 194.74 180.76 192.35 183.65 C 188.74 188.02 185.07 192.33 181.33 196.58 C 177.87 200.63 174.43 204.71 171.03 208.82 C 169.45 210.74 167.89 212.69 166.38 214.67 C 166.11 215.02 165.97 215.44 165.97 215.88 L 165.97 236.74 L 240.54 236.74 L 243.01 211.46 L 200.89 211.46 C 206.39 205.97 211.7 200.28 216.78 194.4 C 221.75 188.65 226.39 182.63 230.69 176.36 C 232.96 173.04 235.01 169.58 236.82 165.99 C 238.41 162.86 239.75 159.61 240.84 156.27 C 241.83 153.23 242.59 150.12 243.1 146.96 C 243.59 143.95 243.84 140.91 243.84 137.86 C 243.84 136.05 243.72 134.24 243.5 132.44 C 243.29 130.76 242.96 129.11 242.53 127.48 C 242.11 125.91 241.59 124.38 240.96 122.89 C 240.34 121.41 239.62 119.97 238.8 118.59 C 237.97 117.19 237.05 115.84 236.04 114.57 C 235.05 113.32 233.97 112.14 232.82 111.04 C 231.65 109.93 230.4 108.9 229.09 107.96 C 227.71 106.98 226.28 106.09 224.78 105.3 C 223.35 104.54 221.86 103.87 220.34 103.3 Z " fill-rule="evenodd" fill="rgb(0,0,0)"/><path d=" M 125.12 206.51 L 100.88 206.51 L 100.88 186.27 L 80.64 186.27 L 80.64 162.2 L 100.88 162.2 L 100.88 141.96 L 125.12 141.96 L 125.12 162.2 L 145.36 162.2 L 145.36 186.27 L 125.12 186.27 L 125.12 206.51 Z  M 121.12 202.51 L 104.88 202.51 L 104.88 182.27 L 84.64 182.27 L 84.64 166.2 L 104.88 166.2 L 104.88 145.96 L 121.12 145.96 L 121.12 166.2 L 141.36 166.2 L 141.36 182.27 L 121.12 182.27 L 121.12 202.51 Z " fill-rule="evenodd" fill="rgb(0,0,0)"/></g><g><defs><filter id="747l2yYF3PNrZZC5pLp1iQDlUOQ7m6Rp" x="-200%" y="-200%" width="400%" height="400%" filterUnits="objectBoundingBox" color-interpolation-filters="sRGB"><feGaussianBlur xmlns="http://www.w3.org/2000/svg" in="SourceGraphic" stdDeviation="0"/><feOffset xmlns="http://www.w3.org/2000/svg" dx="-8" dy="-8" result="pf_100_offsetBlur"/><feFlood xmlns="http://www.w3.org/2000/svg" flood-color="#000000" flood-opacity="1"/><feComposite xmlns="http://www.w3.org/2000/svg" in2="pf_100_offsetBlur" operator="in" result="pf_100_dropShadow"/><feBlend xmlns="http://www.w3.org/2000/svg" in="SourceGraphic" in2="pf_100_dropShadow" mode="normal"/></filter></defs><g filter="url(#747l2yYF3PNrZZC5pLp1iQDlUOQ7m6Rp)"><path d=" M 632.032 1035.26 L 632.032 1054.117 L 632.032 1054.117 Q 627.534 1059.999 617.154 1072.109 L 617.154 1072.109 L 617.154 1072.109 Q 605.909 1084.911 599.076 1093.994 L 599.076 1093.994 L 599.076 1093.994 Q 592.242 1103.076 587.485 1113.024 L 587.485 1113.024 L 587.485 1113.024 Q 582.727 1122.971 582.727 1132.486 L 582.727 1132.486 L 582.727 1132.486 Q 582.727 1137.849 586.101 1142.434 L 586.101 1142.434 L 586.101 1142.434 Q 589.474 1147.018 596.048 1147.018 L 596.048 1147.018 L 596.048 1147.018 Q 602.622 1147.018 607.639 1140.704 L 607.639 1140.704 L 607.639 1140.704 Q 612.656 1134.389 614.04 1125.566 L 614.04 1125.566 L 634.8 1132.313 L 634.8 1132.313 Q 633.07 1141.655 627.88 1149.7 L 627.88 1149.7 L 627.88 1149.7 Q 622.69 1157.744 614.386 1162.588 L 614.386 1162.588 L 614.386 1162.588 Q 606.082 1167.432 595.529 1167.432 L 595.529 1167.432 L 595.529 1167.432 Q 584.63 1167.432 576.153 1162.934 L 576.153 1162.934 L 576.153 1162.934 Q 567.676 1158.436 562.919 1150.392 L 562.919 1150.392 L 562.919 1150.392 Q 558.161 1142.347 558.161 1132.14 L 558.161 1132.14 L 558.161 1132.14 Q 558.161 1113.456 570.963 1094.772 L 570.963 1094.772 L 570.963 1094.772 Q 583.765 1076.088 604.006 1056.539 L 604.006 1056.539 L 559.199 1056.539 L 561.275 1035.26 L 632.032 1035.26 L 632.032 1035.26 Z " fill="rgb(255,255,255)"/></g><defs><filter id="VA4KPtuqRC5QjELhm2861hTuI3ZM4XXg" x="-200%" y="-200%" width="400%" height="400%" filterUnits="objectBoundingBox" color-interpolation-filters="sRGB"><feGaussianBlur xmlns="http://www.w3.org/2000/svg" in="SourceGraphic" stdDeviation="0"/><feOffset xmlns="http://www.w3.org/2000/svg" dx="-8" dy="-8" result="pf_100_offsetBlur"/><feFlood xmlns="http://www.w3.org/2000/svg" flood-color="#000000" flood-opacity="1"/><feComposite xmlns="http://www.w3.org/2000/svg" in2="pf_100_offsetBlur" operator="in" result="pf_100_dropShadow"/><feBlend xmlns="http://www.w3.org/2000/svg" in="SourceGraphic" in2="pf_100_dropShadow" mode="normal"/></filter></defs><g filter="url(#VA4KPtuqRC5QjELhm2861hTuI3ZM4XXg)"><path d=" M 676.879 1065.49 L 697.12 1065.49 L 697.12 1085.731 L 717.361 1085.731 L 717.361 1105.799 L 697.12 1105.799 L 697.12 1126.04 L 676.879 1126.04 L 676.879 1105.799 L 656.638 1105.799 L 656.638 1085.731 L 676.879 1085.731 L 676.879 1065.49 L 676.879 1065.49 Z " fill="rgb(255,255,255)"/></g><path d=" M 634.03 1033.26 L 634.03 1054.12 C 634.03 1054.56 633.89 1054.98 633.62 1055.33 C 632.11 1057.31 630.55 1059.26 628.97 1061.18 C 625.57 1065.29 622.13 1069.37 618.67 1073.42 C 614.93 1077.67 611.26 1081.98 607.65 1086.35 C 605.26 1089.24 602.93 1092.19 600.67 1095.2 C 598.44 1098.16 596.36 1101.24 594.43 1104.41 C 592.56 1107.48 590.84 1110.64 589.29 1113.89 C 588.5 1115.54 587.79 1117.23 587.18 1118.95 C 586.62 1120.5 586.15 1122.08 585.78 1123.68 C 585.43 1125.16 585.16 1126.66 584.98 1128.17 C 584.81 1129.6 584.73 1131.04 584.73 1132.49 C 584.73 1133.25 584.79 1134.02 584.91 1134.78 C 585.03 1135.51 585.21 1136.24 585.44 1136.95 C 585.69 1137.68 585.99 1138.39 586.35 1139.08 C 586.75 1139.83 587.2 1140.56 587.71 1141.25 C 588.15 1141.84 588.66 1142.38 589.22 1142.86 C 589.76 1143.31 590.34 1143.69 590.97 1143.99 C 591.66 1144.32 592.38 1144.57 593.13 1144.72 C 594.09 1144.92 595.07 1145.02 596.05 1145.02 C 596.91 1145.02 597.77 1144.92 598.61 1144.71 C 599.45 1144.51 600.26 1144.21 601.03 1143.82 C 601.89 1143.37 602.71 1142.82 603.45 1142.19 C 604.41 1141.36 605.29 1140.45 606.07 1139.46 C 606.83 1138.51 607.52 1137.51 608.14 1136.47 C 608.78 1135.4 609.34 1134.3 609.83 1133.16 C 610.35 1131.96 610.79 1130.73 611.14 1129.47 C 611.53 1128.08 611.84 1126.68 612.06 1125.26 C 612.16 1124.68 612.5 1124.17 612.99 1123.86 C 613.49 1123.56 614.1 1123.48 614.66 1123.66 L 635.42 1130.41 C 635.88 1130.56 636.27 1130.87 636.52 1131.29 C 636.77 1131.71 636.86 1132.2 636.77 1132.68 C 636.17 1135.88 635.27 1139.02 634.06 1142.05 C 632.85 1145.1 631.34 1148.03 629.56 1150.78 C 628.66 1152.18 627.68 1153.53 626.62 1154.81 C 625.58 1156.07 624.48 1157.26 623.3 1158.38 C 622.12 1159.51 620.88 1160.56 619.58 1161.54 C 618.24 1162.55 616.84 1163.47 615.39 1164.32 C 613.97 1165.15 612.49 1165.88 610.97 1166.51 C 609.44 1167.14 607.86 1167.67 606.25 1168.1 C 604.57 1168.54 602.86 1168.87 601.13 1169.09 C 599.27 1169.32 597.4 1169.43 595.53 1169.43 C 593.59 1169.43 591.65 1169.32 589.72 1169.1 C 587.95 1168.91 586.19 1168.6 584.46 1168.18 C 582.83 1167.79 581.23 1167.3 579.66 1166.7 C 578.14 1166.13 576.65 1165.46 575.22 1164.7 C 573.72 1163.91 572.29 1163.02 570.91 1162.04 C 569.6 1161.1 568.35 1160.07 567.18 1158.96 C 566.03 1157.86 564.95 1156.68 563.96 1155.43 C 562.95 1154.16 562.03 1152.81 561.2 1151.41 C 560.38 1150.03 559.66 1148.59 559.04 1147.11 C 558.41 1145.62 557.89 1144.09 557.47 1142.52 C 557.04 1140.89 556.71 1139.24 556.5 1137.56 C 556.28 1135.76 556.16 1133.95 556.16 1132.14 C 556.16 1129.09 556.41 1126.05 556.9 1123.04 C 557.41 1119.88 558.17 1116.77 559.16 1113.73 C 560.25 1110.39 561.59 1107.14 563.18 1104.01 C 564.99 1100.42 567.04 1096.96 569.31 1093.64 C 570.3 1092.2 571.31 1090.78 572.33 1089.36 C 573.41 1087.88 574.51 1086.41 575.63 1084.96 C 579.38 1080.07 583.33 1075.33 587.46 1070.76 C 591.24 1066.59 595.12 1062.51 599.11 1058.54 L 556.99 1058.54 L 559.46 1033.26 L 634.03 1033.26 Z  M 630.03 1037.26 L 630.03 1053.44 C 628.68 1055.19 627.3 1056.93 625.88 1058.64 C 622.51 1062.72 619.09 1066.77 615.64 1070.8 C 611.89 1075.08 608.19 1079.41 604.57 1083.8 C 602.14 1086.74 599.77 1089.74 597.48 1092.79 C 595.17 1095.86 593.01 1099.04 591.01 1102.32 C 589.07 1105.51 587.29 1108.79 585.68 1112.16 C 584.83 1113.93 584.07 1115.75 583.41 1117.6 C 582.81 1119.29 582.3 1121.02 581.88 1122.76 C 581.5 1124.39 581.21 1126.04 581.01 1127.7 C 580.82 1129.29 580.73 1130.89 580.73 1132.49 C 580.73 1133.47 580.81 1134.44 580.96 1135.41 C 581.11 1136.36 581.34 1137.3 581.65 1138.21 C 581.96 1139.15 582.35 1140.06 582.81 1140.94 C 583.3 1141.87 583.86 1142.77 584.49 1143.62 C 585.12 1144.47 585.84 1145.24 586.65 1145.92 C 587.44 1146.58 588.3 1147.14 589.23 1147.59 C 590.21 1148.06 591.25 1148.42 592.32 1148.64 C 593.55 1148.89 594.8 1149.02 596.05 1149.02 C 597.23 1149.02 598.4 1148.88 599.55 1148.6 C 600.7 1148.32 601.81 1147.91 602.85 1147.37 C 604 1146.78 605.07 1146.06 606.05 1145.22 C 607.2 1144.23 608.26 1143.14 609.21 1141.95 C 610.07 1140.86 610.86 1139.71 611.58 1138.52 C 612.3 1137.3 612.94 1136.04 613.5 1134.75 C 614.09 1133.38 614.59 1131.98 614.99 1130.56 C 615.21 1129.77 615.41 1128.97 615.59 1128.17 L 632.48 1133.66 C 631.95 1136.02 631.24 1138.33 630.35 1140.57 C 629.23 1143.38 627.84 1146.07 626.2 1148.62 C 625.38 1149.88 624.49 1151.1 623.53 1152.27 C 622.6 1153.4 621.6 1154.48 620.54 1155.49 C 619.47 1156.51 618.35 1157.46 617.18 1158.34 C 615.96 1159.25 614.69 1160.09 613.38 1160.86 C 612.11 1161.6 610.8 1162.25 609.44 1162.81 C 608.07 1163.38 606.66 1163.85 605.23 1164.23 C 603.72 1164.63 602.19 1164.92 600.64 1165.12 C 598.94 1165.33 597.24 1165.43 595.53 1165.43 C 593.74 1165.43 591.95 1165.33 590.17 1165.13 C 588.56 1164.95 586.97 1164.67 585.4 1164.29 C 583.93 1163.94 582.48 1163.49 581.07 1162.96 C 579.7 1162.45 578.38 1161.85 577.09 1161.17 C 575.76 1160.46 574.47 1159.66 573.24 1158.78 C 572.08 1157.95 570.98 1157.04 569.94 1156.06 C 568.92 1155.09 567.97 1154.05 567.1 1152.95 C 566.2 1151.81 565.38 1150.62 564.64 1149.37 C 563.92 1148.15 563.28 1146.88 562.73 1145.56 C 562.17 1144.24 561.71 1142.88 561.34 1141.49 C 560.95 1140.04 560.66 1138.56 560.47 1137.06 C 560.26 1135.43 560.16 1133.79 560.16 1132.14 C 560.16 1129.31 560.39 1126.48 560.85 1123.68 C 561.33 1120.73 562.04 1117.82 562.96 1114.97 C 563.99 1111.83 565.25 1108.77 566.75 1105.81 C 568.48 1102.38 570.44 1099.07 572.61 1095.9 C 573.58 1094.49 574.56 1093.1 575.57 1091.71 C 576.63 1090.26 577.7 1088.82 578.8 1087.39 C 582.49 1082.59 586.37 1077.94 590.43 1073.45 C 595.24 1068.12 600.23 1062.96 605.4 1057.98 C 605.98 1057.41 606.17 1056.54 605.86 1055.79 C 605.56 1055.04 604.82 1054.54 604.01 1054.54 L 561.4 1054.54 L 563.09 1037.26 L 630.03 1037.26 Z " fill-rule="evenodd" fill="rgb(0,0,0)"/><path d=" M 674.88 1063.49 L 699.12 1063.49 L 699.12 1083.73 L 719.36 1083.73 L 719.36 1107.8 L 699.12 1107.8 L 699.12 1128.04 L 674.88 1128.04 L 674.88 1107.8 L 654.64 1107.8 L 654.64 1083.73 L 674.88 1083.73 L 674.88 1063.49 Z  M 678.88 1067.49 L 695.12 1067.49 L 695.12 1087.73 L 715.36 1087.73 L 715.36 1103.8 L 695.12 1103.8 L 695.12 1124.04 L 678.88 1124.04 L 678.88 1103.8 L 658.64 1103.8 L 658.64 1087.73 L 678.88 1087.73 L 678.88 1067.49 Z " fill-rule="evenodd" fill="rgb(0,0,0)"/></g><g><defs><filter id="PPSxFjKXRT7jTBJ2SuEFB4z0z5mxLEg3" x="-200%" y="-200%" width="400%" height="400%" filterUnits="objectBoundingBox" color-interpolation-filters="sRGB"><feGaussianBlur xmlns="http://www.w3.org/2000/svg" in="SourceGraphic" stdDeviation="0"/><feOffset xmlns="http://www.w3.org/2000/svg" dx="16" dy="16" result="pf_100_offsetBlur"/><feFlood xmlns="http://www.w3.org/2000/svg" flood-color="#000000" flood-opacity="1"/><feComposite xmlns="http://www.w3.org/2000/svg" in2="pf_100_offsetBlur" operator="in" result="pf_100_dropShadow"/><feBlend xmlns="http://www.w3.org/2000/svg" in="SourceGraphic" in2="pf_100_dropShadow" mode="normal"/></filter></defs><g filter="url(#PPSxFjKXRT7jTBJ2SuEFB4z0z5mxLEg3)"><path d=" M 520 482.631 C 520 475.936 516.576 470.5 512.352 470.5 L 367.641 470.5 C 363.424 470.5 360 475.936 360 482.631 L 360 712.369 C 360 719.064 363.424 724.5 367.641 724.5 L 512.352 724.5 C 516.576 724.5 520 719.064 520 712.369 L 520 482.631 Z " fill-rule="evenodd" fill="rgb(237,28,36)"/></g><path d=" M 524 712.36 C 524.01 714.3 523.76 716.23 523.27 718.11 C 522.82 719.84 522.12 721.5 521.17 723.03 C 520.27 724.53 519.05 725.82 517.61 726.83 C 516.08 727.89 514.27 728.47 512.41 728.5 C 512.39 728.5 512.37 728.5 512.35 728.5 L 367.64 728.5 C 367.62 728.5 367.6 728.5 367.58 728.5 C 365.72 728.47 363.91 727.89 362.38 726.83 C 360.94 725.82 359.73 724.53 358.82 723.03 C 357.88 721.5 357.18 719.83 356.73 718.09 C 356.24 716.22 355.99 714.3 356 712.36 L 356 482.64 C 355.99 480.7 356.24 478.78 356.73 476.91 C 357.18 475.17 357.88 473.5 358.82 471.97 C 359.73 470.47 360.94 469.18 362.38 468.17 C 363.91 467.11 365.72 466.53 367.58 466.5 C 367.6 466.5 367.62 466.5 367.64 466.5 L 512.35 466.5 C 512.37 466.5 512.39 466.5 512.41 466.5 C 514.27 466.53 516.08 467.11 517.61 468.17 C 519.05 469.18 520.27 470.47 521.17 471.97 C 522.12 473.5 522.82 475.16 523.27 476.91 C 523.76 478.78 524.01 480.7 524 482.64 L 524 712.36 Z  M 516 712.38 C 516 713.63 515.85 714.88 515.53 716.08 C 515.28 717.07 514.88 718 514.34 718.86 C 514.01 719.42 513.57 719.89 513.05 720.26 C 512.83 720.41 512.58 720.49 512.31 720.5 L 367.68 720.5 C 367.42 720.49 367.17 720.41 366.95 720.26 C 366.43 719.89 365.99 719.42 365.65 718.86 C 365.12 718 364.72 717.07 364.47 716.08 C 364.15 714.88 364 713.63 364 712.38 C 364 712.38 364 712.37 364 712.37 L 364 482.63 C 364 482.63 364 482.62 364 482.62 C 364 481.37 364.15 480.12 364.47 478.92 C 364.72 477.93 365.12 477 365.65 476.14 C 365.99 475.58 366.43 475.11 366.95 474.74 C 367.17 474.59 367.42 474.51 367.68 474.5 L 512.31 474.5 C 512.58 474.51 512.83 474.59 513.05 474.74 C 513.57 475.11 514.01 475.58 514.34 476.14 C 514.88 477 515.28 477.93 515.53 478.92 C 515.85 480.12 516 481.37 516 482.62 C 516 482.62 516 482.63 516 482.63 L 516 712.37 C 516 712.37 516 712.38 516 712.38 Z " fill-rule="evenodd" fill="rgb(0,0,0)"/><defs><filter id="VuRJysG45nBwub0Gnk6vmFdIBX3mbez7" x="-200%" y="-200%" width="400%" height="400%" filterUnits="objectBoundingBox" color-interpolation-filters="sRGB"><feGaussianBlur xmlns="http://www.w3.org/2000/svg" in="SourceGraphic" stdDeviation="0"/><feOffset xmlns="http://www.w3.org/2000/svg" dx="16" dy="16" result="pf_100_offsetBlur"/><feFlood xmlns="http://www.w3.org/2000/svg" flood-color="#000000" flood-opacity="1"/><feComposite xmlns="http://www.w3.org/2000/svg" in2="pf_100_offsetBlur" operator="in" result="pf_100_dropShadow"/><feBlend xmlns="http://www.w3.org/2000/svg" in="SourceGraphic" in2="pf_100_dropShadow" mode="normal"/></filter></defs><g filter="url(#VuRJysG45nBwub0Gnk6vmFdIBX3mbez7)"><path d=" M 440 557.631 C 440 550.936 436.576 545.5 432.352 545.5 L 287.641 545.5 C 283.424 545.5 280 550.936 280 557.631 L 280 787.369 C 280 794.064 283.424 799.5 287.641 799.5 L 432.352 799.5 C 436.576 799.5 440 794.064 440 787.369 L 440 557.631 Z " fill-rule="evenodd" fill="rgb(237,28,36)"/></g><path d=" M 444 787.36 C 444.01 789.3 443.76 791.23 443.27 793.11 C 442.82 794.84 442.12 796.5 441.17 798.03 C 440.27 799.53 439.05 800.82 437.61 801.83 C 436.08 802.89 434.27 803.47 432.41 803.5 C 432.39 803.5 432.37 803.5 432.35 803.5 L 287.64 803.5 C 287.62 803.5 287.6 803.5 287.58 803.5 C 285.72 803.47 283.91 802.89 282.38 801.83 C 280.94 800.82 279.73 799.53 278.82 798.03 C 277.88 796.5 277.18 794.83 276.73 793.09 C 276.24 791.22 275.99 789.3 276 787.36 L 276 557.64 C 275.99 555.7 276.24 553.78 276.73 551.91 C 277.18 550.17 277.88 548.5 278.82 546.97 C 279.73 545.47 280.94 544.18 282.38 543.17 C 283.91 542.11 285.72 541.53 287.58 541.5 C 287.6 541.5 287.62 541.5 287.64 541.5 L 432.35 541.5 C 432.37 541.5 432.39 541.5 432.41 541.5 C 434.27 541.53 436.08 542.11 437.61 543.17 C 439.05 544.18 440.27 545.47 441.17 546.97 C 442.12 548.5 442.82 550.16 443.27 551.91 C 443.76 553.78 444.01 555.7 444 557.64 L 444 787.36 Z  M 436 787.38 C 436 788.63 435.85 789.88 435.53 791.08 C 435.28 792.07 434.88 793 434.34 793.86 C 434.01 794.42 433.57 794.89 433.05 795.26 C 432.83 795.41 432.58 795.49 432.31 795.5 L 287.68 795.5 C 287.42 795.49 287.17 795.41 286.95 795.26 C 286.43 794.89 285.99 794.42 285.65 793.86 C 285.12 793 284.72 792.07 284.47 791.08 C 284.15 789.88 284 788.63 284 787.38 C 284 787.38 284 787.37 284 787.37 L 284 557.63 C 284 557.63 284 557.62 284 557.62 C 284 556.37 284.15 555.12 284.47 553.92 C 284.72 552.93 285.12 552 285.65 551.14 C 285.99 550.58 286.43 550.11 286.95 549.74 C 287.17 549.59 287.42 549.51 287.68 549.5 L 432.31 549.5 C 432.58 549.51 432.83 549.59 433.05 549.74 C 433.57 550.11 434.01 550.58 434.34 551.14 C 434.88 552 435.28 552.93 435.53 553.92 C 435.85 555.12 436 556.37 436 557.62 C 436 557.62 436 557.63 436 557.63 L 436 787.37 C 436 787.37 436 787.38 436 787.38 Z " fill-rule="evenodd" fill="rgb(0,0,0)"/></g></g></svg>