<?xml version="1.0" encoding="UTF-8" standalone="no"?><!-- Generator: Gravit.io --><svg xmlns="http://www.w3.org/2000/svg" xmlns:xlink="http://www.w3.org/1999/xlink" style="isolation:isolate" viewBox="0 0 800 1270" width="800pt" height="1270pt"><defs><clipPath id="_clipPath_IvyFuvcQQLRPOylrutCSunGu5Ui9jCIz"><rect width="800" height="1270"/></clipPath></defs><g clip-path="url(#_clipPath_IvyFuvcQQLRPOylrutCSunGu5Ui9jCIz)"><path d=" M 800 64 C 800 30.523 757.12 0 736 0 L 64 0 C 42.912 0 0 30.523 0 64 L 0 1206 C 0 1239.477 42.912 1270 64 1270 L 746 1270 C 767.12 1270 800 1239.477 800 1206 L 800 64 Z " fill-rule="evenodd" fill="rgb(0,0,0)"/><path d=" M 796 64 C 796 30.734 756.908 4 736 4 L 64 4 C 43.123 4 4 34.331 4 67.597 L 4 1206 C 4 1239.266 43.123 1266 64 1266 L 746 1266 C 766.908 1266 796 1239.266 796 1206 L 796 64 Z " fill-rule="evenodd" fill="rgb(255,255,255)"/><path d=" M 736 121.55 C 736 91.446 699.98 64 682.24 64 L 117.76 64 C 100.046 64 64 91.446 64 121.55 L 64 1148.45 C 64 1178.554 100.046 1206 117.76 1206 L 690.64 1206 C 708.38 1206 736 1178.554 736 1148.45 L 736 121.55 Z " fill-rule="evenodd" fill="rgb(255,51,51)"/><path d=" M 183.054 507.699 C 343.308 234.596 570.623 69.913 690.359 140.172 C 810.095 210.432 777.199 489.198 616.946 762.301 C 456.692 1035.404 229.377 1200.087 109.641 1129.828 C -10.095 1059.568 22.801 780.802 183.054 507.699 Z " fill="rgb(255,255,255)"/><defs><filter id="TWdUCDPOUrJDX4BrlK6WWkDHobNaNM9s" x="-200%" y="-200%" width="400%" height="400%" filterUnits="objectBoundingBox" color-interpolation-filters="sRGB"><feGaussianBlur xmlns="http://www.w3.org/2000/svg" in="SourceGraphic" stdDeviation="0"/><feOffset xmlns="http://www.w3.org/2000/svg" dx="8" dy="8" result="pf_100_offsetBlur"/><feFlood xmlns="http://www.w3.org/2000/svg" flood-color="#000000" flood-opacity="1"/><feComposite xmlns="http://www.w3.org/2000/svg" in2="pf_100_offsetBlur" operator="in" result="pf_100_dropShadow"/><feBlend xmlns="http://www.w3.org/2000/svg" in="SourceGraphic" in2="pf_100_dropShadow" mode="normal"/></filter></defs><g filter="url(#TWdUCDPOUrJDX4BrlK6WWkDHobNaNM9s)"><path d=" M 139.779 237.162 L 139.779 237.162 Q 119.365 237.162 111.32 217.613 L 111.32 217.613 L 111.32 217.613 Q 103.276 198.064 103.276 173.498 L 103.276 173.498 L 103.276 173.498 Q 103.276 154.122 107.947 137.947 L 107.947 137.947 L 107.947 137.947 Q 112.618 121.771 121.787 112.17 L 121.787 112.17 L 121.787 112.17 Q 130.956 102.568 143.931 102.568 L 143.931 102.568 L 143.931 102.568 Q 155.695 102.568 163.566 110.872 L 163.566 110.872 L 163.566 110.872 Q 171.438 119.176 173.514 134.054 L 173.514 134.054 L 154.657 138.379 L 154.657 138.379 Q 154.484 137.687 153.532 133.276 L 153.532 133.276 L 153.532 133.276 Q 152.581 128.864 149.899 125.923 L 149.899 125.923 L 149.899 125.923 Q 147.218 122.982 143.239 122.982 L 143.239 122.982 L 143.239 122.982 Q 128.015 122.982 128.015 162.599 L 128.015 162.599 L 128.015 162.599 Q 132.167 159.485 137.443 157.669 L 137.443 157.669 L 137.443 157.669 Q 142.72 155.852 147.91 155.852 L 147.91 155.852 L 147.91 155.852 Q 156.56 155.852 163.22 160.783 L 163.22 160.783 L 163.22 160.783 Q 169.881 165.713 173.427 174.104 L 173.427 174.104 L 173.427 174.104 Q 176.974 182.494 176.974 192.355 L 176.974 192.355 L 176.974 192.355 Q 176.974 203.6 172.389 213.894 L 172.389 213.894 L 172.389 213.894 Q 167.805 224.187 159.328 230.675 L 159.328 230.675 L 159.328 230.675 Q 150.851 237.162 139.779 237.162 L 139.779 237.162 L 139.779 237.162 Z  M 140.125 216.748 L 140.125 216.748 Q 147.045 216.748 150.072 210.174 L 150.072 210.174 L 150.072 210.174 Q 153.1 203.6 153.1 195.469 L 153.1 195.469 L 153.1 195.469 Q 153.1 187.338 149.813 181.889 L 149.813 181.889 L 149.813 181.889 Q 146.526 176.439 139.606 176.439 L 139.606 176.439 L 139.606 176.439 Q 137.011 176.439 134.416 177.304 L 134.416 177.304 L 134.416 177.304 Q 131.821 178.169 128.188 180.245 L 128.188 180.245 L 128.188 180.245 Q 127.842 186.819 127.842 189.587 L 127.842 189.587 L 127.842 189.587 Q 127.842 203.427 130.783 210.088 L 130.783 210.088 L 130.783 210.088 Q 133.724 216.748 140.125 216.748 L 140.125 216.748 L 140.125 216.748 Z " fill="rgb(255,255,255)"/></g><defs><filter id="IzLjhJuLx4Pck3T3ctW84WNnzDOUUasA" x="-200%" y="-200%" width="400%" height="400%" filterUnits="objectBoundingBox" color-interpolation-filters="sRGB"><feGaussianBlur xmlns="http://www.w3.org/2000/svg" in="SourceGraphic" stdDeviation="0"/><feOffset xmlns="http://www.w3.org/2000/svg" dx="8" dy="8" result="pf_100_offsetBlur"/><feFlood xmlns="http://www.w3.org/2000/svg" flood-color="#000000" flood-opacity="1"/><feComposite xmlns="http://www.w3.org/2000/svg" in2="pf_100_offsetBlur" operator="in" result="pf_100_dropShadow"/><feBlend xmlns="http://www.w3.org/2000/svg" in="SourceGraphic" in2="pf_100_dropShadow" mode="normal"/></filter></defs><g filter="url(#IzLjhJuLx4Pck3T3ctW84WNnzDOUUasA)"><path d=" M 163.307 273.808 L 114.694 273.808 L 114.694 253.74 L 163.307 253.74 L 163.307 273.808 L 163.307 273.808 Z " fill="rgb(255,255,255)"/></g><defs><filter id="iipnpnYdK6nTXkKgv8QlJndYN9MRYo5X" x="-200%" y="-200%" width="400%" height="400%" filterUnits="objectBoundingBox" color-interpolation-filters="sRGB"><feGaussianBlur xmlns="http://www.w3.org/2000/svg" in="SourceGraphic" stdDeviation="0"/><feOffset xmlns="http://www.w3.org/2000/svg" dx="8" dy="8" result="pf_100_offsetBlur"/><feFlood xmlns="http://www.w3.org/2000/svg" flood-color="#000000" flood-opacity="1"/><feComposite xmlns="http://www.w3.org/2000/svg" in2="pf_100_offsetBlur" operator="in" result="pf_100_dropShadow"/><feBlend xmlns="http://www.w3.org/2000/svg" in="SourceGraphic" in2="pf_100_dropShadow" mode="normal"/></filter></defs><g filter="url(#iipnpnYdK6nTXkKgv8QlJndYN9MRYo5X)"><path d=" M 660.221 1032.838 L 660.221 1032.838 Q 680.635 1032.838 688.68 1052.387 L 688.68 1052.387 L 688.68 1052.387 Q 696.724 1071.936 696.724 1096.502 L 696.724 1096.502 L 696.724 1096.502 Q 696.724 1115.878 692.053 1132.054 L 692.053 1132.054 L 692.053 1132.054 Q 687.382 1148.229 678.213 1157.831 L 678.213 1157.831 L 678.213 1157.831 Q 669.044 1167.432 656.069 1167.432 L 656.069 1167.432 L 656.069 1167.432 Q 644.305 1167.432 636.434 1159.128 L 636.434 1159.128 L 636.434 1159.128 Q 628.562 1150.824 626.486 1135.946 L 626.486 1135.946 L 645.343 1131.621 L 645.343 1131.621 Q 645.516 1132.313 646.468 1136.725 L 646.468 1136.725 L 646.468 1136.725 Q 647.419 1141.136 650.101 1144.077 L 650.101 1144.077 L 650.101 1144.077 Q 652.782 1147.018 656.761 1147.018 L 656.761 1147.018 L 656.761 1147.018 Q 671.985 1147.018 671.985 1107.401 L 671.985 1107.401 L 671.985 1107.401 Q 667.833 1110.515 662.557 1112.332 L 662.557 1112.332 L 662.557 1112.332 Q 657.28 1114.148 652.09 1114.148 L 652.09 1114.148 L 652.09 1114.148 Q 643.44 1114.148 636.78 1109.218 L 636.78 1109.218 L 636.78 1109.218 Q 630.119 1104.287 626.573 1095.897 L 626.573 1095.897 L 626.573 1095.897 Q 623.026 1087.506 623.026 1077.645 L 623.026 1077.645 L 623.026 1077.645 Q 623.026 1066.4 627.611 1056.107 L 627.611 1056.107 L 627.611 1056.107 Q 632.195 1045.813 640.672 1039.326 L 640.672 1039.326 L 640.672 1039.326 Q 649.149 1032.838 660.221 1032.838 L 660.221 1032.838 L 660.221 1032.838 Z  M 659.875 1053.252 L 659.875 1053.252 Q 652.955 1053.252 649.928 1059.826 L 649.928 1059.826 L 649.928 1059.826 Q 646.9 1066.4 646.9 1074.531 L 646.9 1074.531 L 646.9 1074.531 Q 646.9 1082.662 650.187 1088.112 L 650.187 1088.112 L 650.187 1088.112 Q 653.474 1093.561 660.394 1093.561 L 660.394 1093.561 L 660.394 1093.561 Q 662.989 1093.561 665.584 1092.696 L 665.584 1092.696 L 665.584 1092.696 Q 668.179 1091.831 671.812 1089.755 L 671.812 1089.755 L 671.812 1089.755 Q 672.158 1083.181 672.158 1080.413 L 672.158 1080.413 L 672.158 1080.413 Q 672.158 1066.573 669.217 1059.913 L 669.217 1059.913 L 669.217 1059.913 Q 666.276 1053.252 659.875 1053.252 L 659.875 1053.252 L 659.875 1053.252 Z " fill="rgb(255,255,255)"/></g><defs><filter id="LoAeEdYhDRrr6cBpZlaN7FNfPIgQkD97" x="-200%" y="-200%" width="400%" height="400%" filterUnits="objectBoundingBox" color-interpolation-filters="sRGB"><feGaussianBlur xmlns="http://www.w3.org/2000/svg" in="SourceGraphic" stdDeviation="0"/><feOffset xmlns="http://www.w3.org/2000/svg" dx="8" dy="8" result="pf_100_offsetBlur"/><feFlood xmlns="http://www.w3.org/2000/svg" flood-color="#000000" flood-opacity="1"/><feComposite xmlns="http://www.w3.org/2000/svg" in2="pf_100_offsetBlur" operator="in" result="pf_100_dropShadow"/><feBlend xmlns="http://www.w3.org/2000/svg" in="SourceGraphic" in2="pf_100_dropShadow" mode="normal"/></filter></defs><g filter="url(#LoAeEdYhDRrr6cBpZlaN7FNfPIgQkD97)"><path d=" M 636.693 996.192 L 685.306 996.192 L 685.306 1016.26 L 636.693 1016.26 L 636.693 996.192 L 636.693 996.192 Z " fill="rgb(255,255,255)"/></g><defs><filter id="UzWs4xBI3LYNAaXdpnpUmWAiVi654B6h" x="-200%" y="-200%" width="400%" height="400%" filterUnits="objectBoundingBox" color-interpolation-filters="sRGB"><feGaussianBlur xmlns="http://www.w3.org/2000/svg" in="SourceGraphic" stdDeviation="0"/><feOffset xmlns="http://www.w3.org/2000/svg" dx="16" dy="16" result="pf_100_offsetBlur"/><feFlood xmlns="http://www.w3.org/2000/svg" flood-color="#000000" flood-opacity="1"/><feComposite xmlns="http://www.w3.org/2000/svg" in2="pf_100_offsetBlur" operator="in" result="pf_100_dropShadow"/><feBlend xmlns="http://www.w3.org/2000/svg" in="SourceGraphic" in2="pf_100_dropShadow" mode="normal"/></filter></defs><g filter="url(#UzWs4xBI3LYNAaXdpnpUmWAiVi654B6h)"><path d=" M 401.047 814.27 L 401.047 814.27 Q 347.357 814.27 326.2 762.855 L 326.2 762.855 L 326.2 762.855 Q 305.042 711.44 305.042 646.83 L 305.042 646.83 L 305.042 646.83 Q 305.042 595.87 317.328 553.328 L 317.328 553.328 L 317.328 553.328 Q 329.612 510.785 353.727 485.533 L 353.727 485.533 L 353.727 485.533 Q 377.843 460.28 411.968 460.28 L 411.968 460.28 L 411.968 460.28 Q 442.907 460.28 463.61 482.12 L 463.61 482.12 L 463.61 482.12 Q 484.312 503.96 489.773 543.09 L 489.773 543.09 L 440.178 554.465 L 440.178 554.465 Q 439.722 552.645 437.22 541.043 L 437.22 541.043 L 437.22 541.043 Q 434.718 529.44 427.665 521.705 L 427.665 521.705 L 427.665 521.705 Q 420.612 513.97 410.148 513.97 L 410.148 513.97 L 410.148 513.97 Q 370.107 513.97 370.107 618.165 L 370.107 618.165 L 370.107 618.165 Q 381.028 609.975 394.905 605.198 L 394.905 605.198 L 394.905 605.198 Q 408.782 600.42 422.433 600.42 L 422.433 600.42 L 422.433 600.42 Q 445.183 600.42 462.7 613.388 L 462.7 613.388 L 462.7 613.388 Q 480.218 626.355 489.545 648.423 L 489.545 648.423 L 489.545 648.423 Q 498.873 670.49 498.873 696.425 L 498.873 696.425 L 498.873 696.425 Q 498.873 726 486.815 753.073 L 486.815 753.073 L 486.815 753.073 Q 474.757 780.145 452.463 797.208 L 452.463 797.208 L 452.463 797.208 Q 430.167 814.27 401.047 814.27 L 401.047 814.27 L 401.047 814.27 Z  M 401.958 760.58 L 401.958 760.58 Q 420.157 760.58 428.12 743.29 L 428.12 743.29 L 428.12 743.29 Q 436.083 726 436.083 704.615 L 436.083 704.615 L 436.083 704.615 Q 436.083 683.23 427.438 668.898 L 427.438 668.898 L 427.438 668.898 Q 418.792 654.565 400.593 654.565 L 400.593 654.565 L 400.593 654.565 Q 393.768 654.565 386.943 656.84 L 386.943 656.84 L 386.943 656.84 Q 380.117 659.115 370.563 664.575 L 370.563 664.575 L 370.563 664.575 Q 369.653 681.865 369.653 689.145 L 369.653 689.145 L 369.653 689.145 Q 369.653 725.545 377.388 743.063 L 377.388 743.063 L 377.388 743.063 Q 385.122 760.58 401.958 760.58 L 401.958 760.58 L 401.958 760.58 Z " fill="rgb(255,51,51)"/></g><defs><filter id="Q0zPUamZh4sZETZQh0axNNVoBS7vt5c1" x="-200%" y="-200%" width="400%" height="400%" filterUnits="objectBoundingBox" color-interpolation-filters="sRGB"><feGaussianBlur xmlns="http://www.w3.org/2000/svg" in="SourceGraphic" stdDeviation="0"/><feOffset xmlns="http://www.w3.org/2000/svg" dx="16" dy="16" result="pf_100_offsetBlur"/><feFlood xmlns="http://www.w3.org/2000/svg" flood-color="#000000" flood-opacity="1"/><feComposite xmlns="http://www.w3.org/2000/svg" in2="pf_100_offsetBlur" operator="in" result="pf_100_dropShadow"/><feBlend xmlns="http://www.w3.org/2000/svg" in="SourceGraphic" in2="pf_100_dropShadow" mode="normal"/></filter></defs><g filter="url(#Q0zPUamZh4sZETZQh0axNNVoBS7vt5c1)"><path d=" M 462.927 900.033 L 335.072 900.033 L 335.072 847.253 L 462.927 847.253 L 462.927 900.033 L 462.927 900.033 Z " fill="rgb(255,51,51)"/></g><path d=" M 156.17 135.98 L 171.25 132.52 C 170.92 130.59 170.49 128.68 169.97 126.79 C 169.41 124.76 168.69 122.78 167.82 120.87 C 167.07 119.21 166.19 117.62 165.18 116.11 C 164.27 114.73 163.25 113.44 162.11 112.25 C 160.92 110.99 159.6 109.85 158.18 108.84 C 156.88 107.92 155.48 107.14 154 106.51 C 152.51 105.88 150.95 105.4 149.36 105.09 C 147.57 104.74 145.75 104.57 143.93 104.57 C 141.94 104.57 139.95 104.76 138 105.15 C 136.2 105.51 134.44 106.05 132.76 106.78 C 131.06 107.51 129.43 108.42 127.92 109.5 C 126.23 110.7 124.66 112.05 123.23 113.55 C 121.86 114.98 120.59 116.51 119.43 118.11 C 118.14 119.88 116.97 121.72 115.9 123.63 C 114.7 125.79 113.64 128.02 112.7 130.31 C 111.62 132.99 110.67 135.72 109.87 138.5 C 108.35 143.76 107.23 149.13 106.51 154.56 C 105.69 160.84 105.28 167.17 105.28 173.5 C 105.28 177.67 105.46 181.85 105.84 186.01 C 106.17 189.78 106.7 193.54 107.41 197.26 C 108.06 200.71 108.88 204.12 109.88 207.49 C 110.81 210.67 111.91 213.79 113.17 216.85 C 113.84 218.49 114.62 220.08 115.5 221.62 C 116.24 222.93 117.09 224.18 118.02 225.36 C 118.85 226.42 119.77 227.42 120.75 228.34 C 121.67 229.2 122.66 229.99 123.7 230.7 C 124.73 231.4 125.82 232.02 126.96 232.55 C 128.14 233.11 129.37 233.57 130.62 233.94 C 132 234.34 133.4 234.64 134.82 234.83 C 136.46 235.05 138.12 235.16 139.78 235.16 C 141.52 235.16 143.26 235.03 144.98 234.76 C 146.57 234.51 148.13 234.12 149.65 233.61 C 151.15 233.11 152.59 232.49 153.98 231.75 C 155.43 230.97 156.81 230.08 158.11 229.09 C 159.43 228.08 160.69 226.98 161.87 225.82 C 163.05 224.65 164.15 223.42 165.17 222.11 C 166.22 220.78 167.18 219.37 168.06 217.91 C 168.99 216.35 169.82 214.74 170.56 213.08 C 171.3 211.43 171.94 209.75 172.5 208.03 C 173.05 206.36 173.51 204.66 173.87 202.94 C 174.24 201.22 174.51 199.48 174.69 197.74 C 174.88 195.95 174.97 194.15 174.97 192.36 C 174.97 189.24 174.67 186.13 174.08 183.06 C 173.53 180.26 172.7 177.52 171.58 174.88 C 171.02 173.53 170.36 172.22 169.63 170.96 C 168.96 169.81 168.22 168.7 167.4 167.65 C 166.63 166.65 165.78 165.7 164.88 164.82 C 163.99 163.94 163.03 163.13 162.03 162.39 C 161.03 161.65 159.96 160.98 158.85 160.41 C 157.78 159.85 156.67 159.39 155.52 159.01 C 154.35 158.63 153.15 158.34 151.93 158.16 C 150.6 157.95 149.25 157.85 147.91 157.85 C 146.31 157.85 144.71 157.99 143.14 158.26 C 141.42 158.56 139.74 158.99 138.09 159.56 C 136.44 160.13 134.84 160.82 133.29 161.63 C 130.63 163.02 128.19 164.81 126.06 166.93 C 125.97 162.77 126.01 158.61 126.19 154.46 C 126.29 152.28 126.44 150.1 126.65 147.92 C 126.9 145.4 127.25 142.88 127.71 140.38 C 128.05 138.52 128.49 136.67 129.04 134.86 C 129.65 132.84 130.44 130.87 131.39 128.99 C 132.09 127.62 132.97 126.34 134 125.19 C 134.62 124.51 135.31 123.88 136.04 123.33 C 136.73 122.81 137.47 122.38 138.24 122.03 C 139.01 121.68 139.81 121.42 140.63 121.25 C 141.49 121.07 142.36 120.98 143.24 120.98 C 144.03 120.98 144.81 121.06 145.58 121.22 C 146.31 121.36 147.02 121.59 147.7 121.89 C 148.38 122.19 149.03 122.56 149.63 123 C 150.26 123.47 150.85 123.99 151.38 124.58 C 152.38 125.67 153.22 126.9 153.88 128.23 C 154.6 129.7 155.14 131.25 155.49 132.85 C 155.71 133.9 155.94 134.94 156.17 135.98 Z  M 139.78 239.16 C 141.73 239.16 143.68 239.01 145.61 238.71 C 147.41 238.42 149.19 237.99 150.93 237.41 C 152.63 236.84 154.28 236.12 155.87 235.27 C 157.51 234.4 159.07 233.39 160.54 232.26 C 162 231.15 163.38 229.95 164.68 228.66 C 165.98 227.38 167.19 226.02 168.32 224.58 C 169.47 223.11 170.53 221.57 171.49 219.96 C 172.5 218.26 173.41 216.51 174.22 214.71 C 175.01 212.93 175.7 211.12 176.31 209.27 C 176.9 207.47 177.39 205.63 177.78 203.77 C 178.18 201.92 178.48 200.04 178.67 198.15 C 178.87 196.23 178.97 194.29 178.97 192.36 C 178.97 188.98 178.65 185.61 178.01 182.3 C 177.41 179.22 176.49 176.21 175.27 173.32 C 174.63 171.82 173.91 170.36 173.09 168.95 C 172.33 167.65 171.49 166.39 170.56 165.19 C 169.67 164.05 168.71 162.97 167.68 161.96 C 166.65 160.96 165.56 160.03 164.41 159.18 C 163.24 158.31 161.99 157.53 160.7 156.86 C 159.43 156.2 158.12 155.65 156.76 155.21 C 155.38 154.76 153.97 154.42 152.53 154.2 C 151 153.97 149.46 153.85 147.91 153.85 C 146.08 153.85 144.25 154.01 142.45 154.32 C 140.53 154.66 138.64 155.14 136.79 155.78 C 134.95 156.41 133.16 157.18 131.44 158.08 C 130.97 158.33 130.51 158.58 130.05 158.85 C 130.08 157.44 130.13 156.04 130.19 154.64 C 130.28 152.52 130.43 150.42 130.63 148.32 C 130.87 145.9 131.21 143.49 131.64 141.1 C 131.96 139.38 132.36 137.68 132.87 136.01 C 133.41 134.22 134.11 132.48 134.96 130.81 C 135.5 129.74 136.18 128.75 136.98 127.87 C 137.42 127.37 137.91 126.93 138.44 126.53 C 138.89 126.19 139.38 125.9 139.89 125.67 C 140.39 125.45 140.91 125.28 141.44 125.17 C 142.03 125.04 142.64 124.98 143.24 124.98 C 143.76 124.98 144.28 125.03 144.79 125.14 C 145.24 125.23 145.67 125.36 146.09 125.55 C 146.5 125.73 146.89 125.96 147.26 126.23 C 147.68 126.53 148.07 126.88 148.42 127.27 C 149.17 128.09 149.8 129.01 150.29 130.01 C 150.87 131.18 151.3 132.42 151.58 133.7 C 151.89 135.17 152.22 136.64 152.54 138.12 C 152.6 138.37 152.65 138.62 152.72 138.86 C 152.84 139.37 153.16 139.81 153.61 140.08 C 154.06 140.36 154.59 140.45 155.1 140.33 L 173.96 136 C 174.45 135.89 174.88 135.6 175.16 135.19 C 175.44 134.78 175.56 134.27 175.49 133.78 C 175.12 131.06 174.56 128.37 173.83 125.72 C 173.21 123.5 172.42 121.32 171.47 119.21 C 170.62 117.37 169.64 115.59 168.52 113.9 C 167.48 112.33 166.31 110.86 165.02 109.5 C 163.64 108.04 162.12 106.73 160.49 105.58 C 158.95 104.49 157.3 103.57 155.57 102.83 C 153.82 102.09 151.99 101.53 150.12 101.16 C 148.08 100.77 146.01 100.57 143.93 100.57 C 141.68 100.57 139.43 100.79 137.22 101.23 C 135.15 101.64 133.12 102.27 131.18 103.1 C 129.22 103.95 127.35 105 125.61 106.24 C 123.71 107.58 121.95 109.11 120.34 110.79 C 118.85 112.35 117.46 114.01 116.19 115.76 C 114.81 117.65 113.55 119.63 112.41 121.68 C 111.13 123.99 109.99 126.37 109 128.81 C 107.86 131.61 106.87 134.48 106.03 137.39 C 104.45 142.85 103.29 148.41 102.55 154.04 C 101.7 160.49 101.28 166.99 101.28 173.5 C 101.28 177.79 101.47 182.09 101.85 186.37 C 102.2 190.27 102.74 194.16 103.48 198.01 C 104.16 201.59 105.01 205.13 106.04 208.62 C 107.01 211.93 108.16 215.18 109.47 218.37 C 110.21 220.17 111.06 221.91 112.02 223.6 C 112.87 225.08 113.82 226.5 114.88 227.83 C 115.84 229.05 116.88 230.19 118.01 231.25 C 119.08 232.26 120.23 233.18 121.45 234.01 C 122.66 234.83 123.94 235.56 125.26 236.18 C 126.63 236.82 128.04 237.35 129.5 237.78 C 131.07 238.24 132.67 238.58 134.29 238.8 C 136.11 239.04 137.94 239.16 139.78 239.16 Z  M 140.12 218.75 C 138.93 218.75 137.74 218.58 136.6 218.25 C 135.53 217.94 134.52 217.46 133.61 216.84 C 132.64 216.18 131.79 215.37 131.07 214.45 C 130.22 213.36 129.51 212.16 128.95 210.9 C 128.68 210.27 128.43 209.63 128.21 208.98 C 127.95 208.22 127.72 207.44 127.52 206.66 C 127.38 206.1 127.24 205.52 127.13 204.95 C 126.99 204.3 126.87 203.65 126.76 203 C 126.46 201.13 126.24 199.24 126.11 197.34 C 125.93 194.76 125.84 192.17 125.84 189.59 C 125.84 188.64 125.86 187.69 125.89 186.75 C 125.99 184.18 126.11 181.62 126.25 179.06 C 127.8 178.13 129.4 177.28 131.03 176.51 C 131.93 176.09 132.85 175.72 133.78 175.41 C 134.74 175.09 135.72 174.84 136.72 174.68 C 137.67 174.52 138.64 174.44 139.61 174.44 C 140.91 174.44 142.21 174.59 143.49 174.88 C 144.6 175.14 145.68 175.55 146.68 176.1 C 147.65 176.64 148.55 177.3 149.33 178.08 C 150.18 178.91 150.91 179.84 151.53 180.86 C 152.09 181.79 152.58 182.76 153 183.77 C 153.44 184.85 153.82 185.96 154.11 187.09 C 154.44 188.36 154.68 189.65 154.84 190.95 C 155.01 192.45 155.1 193.96 155.1 195.47 C 155.1 198.28 154.81 201.08 154.25 203.83 C 153.74 206.3 152.95 208.71 151.89 211.01 C 151.32 212.25 150.6 213.4 149.74 214.46 C 148.99 215.37 148.1 216.17 147.11 216.82 C 146.13 217.45 145.07 217.93 143.94 218.24 C 142.7 218.58 141.41 218.75 140.12 218.75 Z  M 140.12 214.75 C 139.31 214.75 138.5 214.63 137.71 214.41 C 137.05 214.21 136.43 213.92 135.86 213.53 C 135.24 213.11 134.69 212.59 134.23 212 C 133.58 211.16 133.04 210.25 132.61 209.28 C 132.38 208.76 132.18 208.24 132 207.7 C 131.77 207.03 131.57 206.35 131.4 205.67 C 131.27 205.16 131.15 204.65 131.04 204.14 C 130.92 203.55 130.81 202.95 130.71 202.35 C 130.42 200.6 130.22 198.84 130.1 197.07 C 129.93 194.58 129.84 192.08 129.84 189.59 C 129.84 188.69 129.86 187.79 129.89 186.89 C 129.96 185.08 130.04 183.27 130.13 181.45 C 130.99 180.99 131.86 180.54 132.74 180.13 C 133.49 179.77 134.26 179.46 135.05 179.2 C 135.81 178.95 136.58 178.76 137.37 178.62 C 138.11 178.5 138.86 178.44 139.61 178.44 C 140.61 178.44 141.61 178.55 142.58 178.78 C 143.34 178.96 144.08 179.24 144.76 179.61 C 145.41 179.97 146 180.41 146.53 180.93 C 147.13 181.52 147.66 182.19 148.1 182.92 C 148.56 183.68 148.96 184.48 149.3 185.3 C 149.68 186.21 149.99 187.15 150.24 188.1 C 150.52 189.19 150.73 190.3 150.86 191.42 C 151.02 192.76 151.1 194.12 151.1 195.47 C 151.1 198.01 150.84 200.53 150.33 203.02 C 149.88 205.2 149.19 207.32 148.26 209.34 C 147.83 210.27 147.29 211.13 146.64 211.93 C 146.15 212.52 145.57 213.04 144.93 213.46 C 144.3 213.87 143.61 214.18 142.89 214.38 C 141.99 214.62 141.06 214.75 140.12 214.75 Z " fill-rule="evenodd" fill="rgb(0,0,0)"/><path d=" M 165.31 275.81 L 112.69 275.81 L 112.69 251.74 L 165.31 251.74 L 165.31 275.81 Z  M 161.31 271.81 L 116.69 271.81 L 116.69 255.74 L 161.31 255.74 L 161.31 271.81 Z " fill-rule="evenodd" fill="rgb(0,0,0)"/><path d=" M 660.22 1030.84 C 662.06 1030.84 663.89 1030.96 665.71 1031.2 C 667.33 1031.42 668.93 1031.76 670.5 1032.22 C 671.96 1032.65 673.37 1033.18 674.74 1033.82 C 676.06 1034.44 677.34 1035.17 678.55 1035.99 C 679.77 1036.82 680.92 1037.74 681.99 1038.75 C 683.12 1039.81 684.16 1040.95 685.12 1042.17 C 686.18 1043.5 687.13 1044.92 687.98 1046.4 C 688.94 1048.09 689.79 1049.83 690.53 1051.63 C 691.84 1054.82 692.99 1058.07 693.96 1061.38 C 694.99 1064.87 695.84 1068.41 696.52 1071.99 C 697.26 1075.84 697.8 1079.73 698.15 1083.63 C 698.53 1087.91 698.72 1092.21 698.72 1096.5 C 698.72 1103.01 698.3 1109.51 697.45 1115.96 C 696.71 1121.59 695.55 1127.15 693.98 1132.61 C 693.13 1135.52 692.14 1138.39 691 1141.19 C 690.01 1143.63 688.87 1146.01 687.59 1148.32 C 686.45 1150.37 685.19 1152.35 683.81 1154.24 C 682.54 1155.99 681.15 1157.65 679.66 1159.21 C 678.05 1160.89 676.29 1162.42 674.39 1163.76 C 672.65 1165 670.78 1166.05 668.82 1166.9 C 666.88 1167.73 664.85 1168.36 662.78 1168.77 C 660.57 1169.21 658.32 1169.43 656.07 1169.43 C 653.99 1169.43 651.92 1169.23 649.88 1168.84 C 648.01 1168.47 646.18 1167.91 644.43 1167.17 C 642.7 1166.43 641.05 1165.51 639.51 1164.42 C 637.88 1163.27 636.36 1161.96 634.98 1160.5 C 633.69 1159.14 632.52 1157.67 631.48 1156.1 C 630.36 1154.41 629.38 1152.63 628.53 1150.79 C 627.58 1148.68 626.79 1146.5 626.17 1144.28 C 625.44 1141.63 624.88 1138.94 624.51 1136.22 C 624.44 1135.73 624.56 1135.22 624.84 1134.81 C 625.12 1134.4 625.55 1134.11 626.04 1134 L 644.9 1129.67 C 645.41 1129.55 645.94 1129.64 646.39 1129.92 C 646.84 1130.19 647.16 1130.63 647.28 1131.14 C 647.35 1131.38 647.4 1131.63 647.46 1131.88 C 647.78 1133.36 648.11 1134.83 648.42 1136.3 C 648.7 1137.58 649.13 1138.82 649.71 1139.99 C 650.2 1140.99 650.83 1141.91 651.58 1142.73 C 651.93 1143.12 652.32 1143.47 652.74 1143.77 C 653.11 1144.04 653.5 1144.27 653.91 1144.45 C 654.33 1144.64 654.76 1144.77 655.21 1144.86 C 655.72 1144.97 656.24 1145.02 656.76 1145.02 C 657.36 1145.02 657.95 1144.96 658.54 1144.84 C 659.06 1144.73 659.58 1144.57 660.07 1144.35 C 660.57 1144.12 661.05 1143.84 661.5 1143.52 C 662.02 1143.13 662.51 1142.7 662.94 1142.22 C 663.14 1142.01 663.32 1141.79 663.5 1141.57 C 663.7 1141.32 663.89 1141.06 664.07 1140.8 C 664.66 1139.94 665.17 1139.04 665.59 1138.1 C 666.2 1136.76 666.71 1135.39 667.13 1133.99 C 667.37 1133.18 667.59 1132.37 667.79 1131.56 C 668.02 1130.59 668.22 1129.62 668.4 1128.64 C 668.54 1127.93 668.66 1127.22 668.77 1126.51 C 668.89 1125.71 669 1124.91 669.1 1124.1 C 669.39 1121.72 669.6 1119.33 669.73 1116.93 C 669.83 1115 669.91 1113.08 669.95 1111.15 C 669.49 1111.42 669.03 1111.67 668.56 1111.92 C 666.84 1112.82 665.05 1113.59 663.21 1114.22 C 661.36 1114.86 659.47 1115.34 657.55 1115.68 C 655.75 1115.99 653.92 1116.15 652.09 1116.15 C 650.54 1116.15 649 1116.03 647.47 1115.8 C 646.03 1115.58 644.62 1115.24 643.24 1114.79 C 641.88 1114.35 640.57 1113.8 639.3 1113.14 C 638.01 1112.47 636.76 1111.69 635.59 1110.83 C 634.44 1109.97 633.35 1109.04 632.32 1108.04 C 631.29 1107.03 630.33 1105.95 629.44 1104.81 C 628.51 1103.61 627.67 1102.35 626.91 1101.05 C 626.09 1099.64 625.37 1098.18 624.73 1096.68 C 623.51 1093.79 622.59 1090.78 621.99 1087.7 C 621.35 1084.39 621.03 1081.02 621.03 1077.65 C 621.03 1075.71 621.13 1073.77 621.33 1071.85 C 621.52 1069.96 621.82 1068.08 622.22 1066.23 C 622.61 1064.37 623.1 1062.53 623.69 1060.73 C 624.3 1058.88 624.99 1057.07 625.78 1055.29 C 626.59 1053.49 627.5 1051.74 628.51 1050.04 C 629.47 1048.43 630.53 1046.89 631.68 1045.42 C 632.81 1043.98 634.02 1042.62 635.32 1041.34 C 636.62 1040.05 638 1038.85 639.46 1037.74 C 640.93 1036.61 642.49 1035.6 644.13 1034.73 C 645.72 1033.88 647.37 1033.16 649.07 1032.59 C 650.81 1032.01 652.59 1031.58 654.39 1031.29 C 656.32 1030.99 658.27 1030.84 660.22 1030.84 Z  M 643.83 1134.02 C 644.06 1135.06 644.29 1136.1 644.51 1137.15 C 644.86 1138.75 645.4 1140.3 646.12 1141.77 C 646.78 1143.1 647.62 1144.33 648.62 1145.42 C 649.15 1146.01 649.74 1146.53 650.37 1147 C 650.97 1147.44 651.62 1147.81 652.3 1148.11 C 652.98 1148.41 653.69 1148.64 654.42 1148.78 C 655.19 1148.94 655.97 1149.02 656.76 1149.02 C 657.63 1149.02 658.49 1148.93 659.34 1148.76 C 660.15 1148.59 660.94 1148.34 661.69 1148 C 662.46 1147.66 663.19 1147.24 663.87 1146.74 C 664.6 1146.2 665.28 1145.59 665.89 1144.93 C 666.15 1144.64 666.4 1144.35 666.64 1144.05 C 666.89 1143.73 667.13 1143.4 667.36 1143.06 C 668.09 1142.02 668.71 1140.91 669.24 1139.75 C 669.91 1138.25 670.49 1136.71 670.96 1135.14 C 671.23 1134.26 671.47 1133.38 671.68 1132.49 C 671.92 1131.45 672.14 1130.42 672.34 1129.37 C 672.48 1128.62 672.6 1127.87 672.72 1127.11 C 672.85 1126.27 672.96 1125.44 673.07 1124.6 C 673.37 1122.12 673.59 1119.63 673.73 1117.14 C 673.98 1112.46 674.05 1107.77 673.93 1103.08 C 671.81 1105.19 669.37 1106.98 666.71 1108.37 C 665.16 1109.18 663.56 1109.87 661.91 1110.44 C 660.26 1111.01 658.58 1111.44 656.86 1111.74 C 655.29 1112.01 653.69 1112.15 652.09 1112.15 C 650.75 1112.15 649.4 1112.05 648.07 1111.84 C 646.85 1111.66 645.65 1111.37 644.48 1110.99 C 643.33 1110.61 642.22 1110.15 641.15 1109.59 C 640.04 1109.02 638.97 1108.35 637.97 1107.61 C 636.97 1106.87 636.01 1106.06 635.12 1105.18 C 634.22 1104.3 633.37 1103.35 632.6 1102.35 C 631.78 1101.3 631.04 1100.19 630.37 1099.04 C 629.64 1097.78 628.98 1096.47 628.42 1095.12 C 627.3 1092.48 626.47 1089.74 625.92 1086.94 C 625.33 1083.87 625.03 1080.76 625.03 1077.65 C 625.03 1075.85 625.12 1074.05 625.31 1072.26 C 625.49 1070.52 625.76 1068.78 626.13 1067.06 C 626.49 1065.34 626.95 1063.64 627.5 1061.97 C 628.06 1060.25 628.7 1058.57 629.44 1056.92 C 630.18 1055.26 631.01 1053.65 631.94 1052.09 C 632.82 1050.63 633.78 1049.22 634.83 1047.89 C 635.85 1046.58 636.95 1045.35 638.13 1044.18 C 639.31 1043.02 640.57 1041.92 641.89 1040.91 C 643.19 1039.92 644.57 1039.03 646.02 1038.25 C 647.41 1037.51 648.85 1036.89 650.35 1036.39 C 651.87 1035.88 653.43 1035.49 655.02 1035.24 C 656.74 1034.97 658.48 1034.84 660.22 1034.84 C 661.88 1034.84 663.54 1034.95 665.18 1035.17 C 666.6 1035.36 668 1035.66 669.38 1036.06 C 670.63 1036.43 671.86 1036.89 673.04 1037.45 C 674.18 1037.98 675.27 1038.6 676.3 1039.3 C 677.34 1040.01 678.33 1040.8 679.25 1041.66 C 680.23 1042.58 681.15 1043.58 681.98 1044.64 C 682.91 1045.82 683.76 1047.07 684.5 1048.38 C 685.38 1049.92 686.16 1051.51 686.83 1053.15 C 688.09 1056.21 689.19 1059.33 690.12 1062.51 C 691.12 1065.88 691.94 1069.29 692.59 1072.74 C 693.3 1076.46 693.83 1080.22 694.16 1083.99 C 694.54 1088.15 694.72 1092.33 694.72 1096.5 C 694.72 1102.83 694.31 1109.16 693.49 1115.44 C 692.77 1120.87 691.65 1126.24 690.13 1131.5 C 689.33 1134.28 688.38 1137.01 687.3 1139.69 C 686.36 1141.98 685.3 1144.21 684.1 1146.37 C 683.03 1148.28 681.86 1150.12 680.57 1151.89 C 679.41 1153.49 678.14 1155.02 676.77 1156.45 C 675.34 1157.95 673.77 1159.3 672.08 1160.5 C 670.57 1161.58 668.94 1162.49 667.24 1163.22 C 665.56 1163.95 663.8 1164.49 662 1164.85 C 660.05 1165.24 658.06 1165.43 656.07 1165.43 C 654.25 1165.43 652.43 1165.26 650.64 1164.91 C 649.05 1164.6 647.49 1164.12 646 1163.49 C 644.52 1162.86 643.12 1162.08 641.82 1161.16 C 640.4 1160.15 639.08 1159.01 637.89 1157.75 C 636.75 1156.56 635.73 1155.27 634.82 1153.89 C 633.81 1152.38 632.93 1150.79 632.18 1149.13 C 631.31 1147.22 630.59 1145.24 630.03 1143.21 C 629.51 1141.32 629.08 1139.41 628.75 1137.48 L 643.83 1134.02 Z  M 659.88 1051.25 C 661.07 1051.25 662.26 1051.42 663.4 1051.75 C 664.47 1052.06 665.48 1052.54 666.39 1053.16 C 667.36 1053.82 668.21 1054.63 668.93 1055.55 C 669.78 1056.64 670.49 1057.84 671.05 1059.1 C 671.32 1059.73 671.57 1060.37 671.79 1061.02 C 672.05 1061.78 672.28 1062.56 672.48 1063.34 C 672.62 1063.9 672.76 1064.48 672.87 1065.05 C 673.01 1065.7 673.13 1066.35 673.24 1067 C 673.54 1068.87 673.76 1070.76 673.89 1072.66 C 674.07 1075.24 674.16 1077.83 674.16 1080.41 C 674.16 1081.36 674.14 1082.31 674.11 1083.25 C 674.01 1085.82 673.89 1088.38 673.75 1090.94 C 672.2 1091.87 670.6 1092.72 668.97 1093.49 C 668.07 1093.91 667.15 1094.28 666.22 1094.59 C 665.26 1094.91 664.28 1095.16 663.28 1095.32 C 662.33 1095.48 661.36 1095.56 660.39 1095.56 C 659.09 1095.56 657.79 1095.41 656.51 1095.12 C 655.4 1094.86 654.32 1094.45 653.32 1093.9 C 652.35 1093.36 651.45 1092.7 650.67 1091.92 C 649.82 1091.09 649.09 1090.16 648.47 1089.14 C 647.91 1088.21 647.42 1087.24 647 1086.23 C 646.56 1085.15 646.18 1084.04 645.89 1082.91 C 645.56 1081.64 645.32 1080.35 645.16 1079.05 C 644.99 1077.55 644.9 1076.04 644.9 1074.53 C 644.9 1071.72 645.19 1068.92 645.75 1066.17 C 646.26 1063.7 647.05 1061.29 648.11 1058.99 C 648.68 1057.75 649.4 1056.6 650.26 1055.54 C 651.01 1054.63 651.9 1053.83 652.89 1053.18 C 653.87 1052.55 654.93 1052.07 656.06 1051.76 C 657.3 1051.42 658.59 1051.25 659.88 1051.25 Z  M 659.88 1055.25 C 660.69 1055.25 661.5 1055.37 662.29 1055.6 C 662.95 1055.79 663.57 1056.08 664.14 1056.47 C 664.76 1056.89 665.31 1057.41 665.77 1058 C 666.42 1058.84 666.96 1059.75 667.39 1060.72 C 667.62 1061.24 667.82 1061.76 668 1062.3 C 668.23 1062.97 668.43 1063.65 668.6 1064.33 C 668.73 1064.84 668.85 1065.35 668.96 1065.86 C 669.08 1066.45 669.19 1067.05 669.29 1067.65 C 669.58 1069.4 669.78 1071.16 669.9 1072.93 C 670.07 1075.42 670.16 1077.92 670.16 1080.41 C 670.16 1081.31 670.14 1082.21 670.11 1083.11 C 670.04 1084.92 669.96 1086.73 669.87 1088.55 C 669.01 1089.01 668.14 1089.46 667.26 1089.87 C 666.51 1090.23 665.74 1090.54 664.95 1090.8 C 664.19 1091.05 663.42 1091.24 662.63 1091.38 C 661.89 1091.5 661.14 1091.56 660.39 1091.56 C 659.39 1091.56 658.39 1091.45 657.42 1091.22 C 656.66 1091.04 655.92 1090.76 655.24 1090.39 C 654.59 1090.03 654 1089.59 653.47 1089.07 C 652.87 1088.48 652.34 1087.81 651.9 1087.08 C 651.44 1086.32 651.04 1085.52 650.7 1084.7 C 650.32 1083.79 650.01 1082.85 649.76 1081.9 C 649.48 1080.81 649.27 1079.7 649.14 1078.58 C 648.98 1077.24 648.9 1075.88 648.9 1074.53 C 648.9 1071.99 649.16 1069.47 649.67 1066.98 C 650.12 1064.8 650.81 1062.68 651.74 1060.66 C 652.17 1059.73 652.71 1058.87 653.36 1058.07 C 653.85 1057.48 654.43 1056.96 655.07 1056.54 C 655.7 1056.13 656.39 1055.82 657.11 1055.62 C 658.01 1055.38 658.94 1055.25 659.88 1055.25 Z " fill-rule="evenodd" fill="rgb(0,0,0)"/><path d=" M 634.69 994.19 L 687.31 994.19 L 687.31 1018.26 L 634.69 1018.26 L 634.69 994.19 Z  M 638.69 998.19 L 683.31 998.19 L 683.31 1014.26 L 638.69 1014.26 L 638.69 998.19 Z " fill-rule="evenodd" fill="rgb(0,0,0)"/><path d=" M 483.16 751.45 C 485.11 747.07 486.83 742.6 488.31 738.05 C 489.76 733.61 490.98 729.1 491.95 724.53 C 492.92 719.96 493.65 715.35 494.13 710.71 C 494.63 705.96 494.87 701.2 494.87 696.42 C 494.87 692.16 494.67 687.89 494.26 683.64 C 493.88 679.65 493.3 675.69 492.52 671.76 C 491.78 667.99 490.84 664.26 489.71 660.59 C 488.61 656.99 487.33 653.45 485.86 649.98 C 484.34 646.39 482.6 642.89 480.65 639.52 C 478.87 636.44 476.88 633.48 474.69 630.67 C 472.62 628 470.36 625.47 467.94 623.1 C 465.55 620.76 463.01 618.59 460.32 616.6 C 457.63 614.61 454.78 612.83 451.8 611.29 C 448.92 609.79 445.93 608.54 442.85 607.53 C 439.7 606.51 436.47 605.74 433.19 605.24 C 429.63 604.69 426.03 604.42 422.43 604.42 C 418.15 604.42 413.88 604.79 409.66 605.52 C 405.09 606.31 400.59 607.47 396.21 608.98 C 391.81 610.49 387.52 612.34 383.4 614.5 C 377.15 617.77 371.36 621.85 366.18 626.64 C 366.01 616.7 366.14 606.75 366.57 596.82 C 366.82 591.1 367.22 585.39 367.78 579.69 C 368.43 573.08 369.35 566.49 370.54 559.95 C 371.43 555.1 372.58 550.3 374 545.58 C 375.58 540.33 377.63 535.23 380.12 530.34 C 381.91 526.83 384.16 523.56 386.79 520.63 C 388.37 518.88 390.1 517.29 391.98 515.88 C 393.71 514.59 395.57 513.49 397.53 512.6 C 399.46 511.73 401.47 511.08 403.54 510.65 C 405.71 510.2 407.93 509.97 410.15 509.97 C 412.13 509.97 414.11 510.17 416.06 510.56 C 417.89 510.93 419.67 511.49 421.37 512.24 C 423.08 513 424.7 513.93 426.2 515.04 C 427.8 516.21 429.28 517.54 430.62 519.01 C 431.88 520.39 433.04 521.85 434.09 523.39 C 435.17 524.96 436.14 526.6 437 528.3 C 437.91 530.1 438.7 531.97 439.36 533.87 C 440.08 535.94 440.67 538.06 441.13 540.2 C 441.81 543.36 442.5 546.51 443.19 549.67 L 485.26 540.02 C 484.36 534.5 483.16 529.04 481.67 523.65 C 480.18 518.25 478.27 512.98 475.96 507.89 C 473.95 503.48 471.59 499.23 468.92 495.19 C 466.48 491.52 463.74 488.07 460.71 484.87 C 459.06 483.13 457.33 481.47 455.52 479.9 C 453.82 478.43 452.04 477.04 450.2 475.75 C 448.42 474.51 446.59 473.36 444.69 472.31 C 442.83 471.27 440.92 470.33 438.96 469.49 C 436.98 468.65 434.96 467.91 432.91 467.28 C 430.79 466.63 428.64 466.09 426.47 465.66 C 424.17 465.2 421.86 464.86 419.53 464.64 C 417.02 464.4 414.49 464.28 411.97 464.28 C 409.23 464.28 406.49 464.41 403.76 464.68 C 401.2 464.93 398.65 465.31 396.13 465.82 C 393.7 466.31 391.3 466.92 388.94 467.66 C 386.61 468.39 384.33 469.23 382.09 470.2 C 379.84 471.16 377.65 472.25 375.51 473.45 C 373.31 474.68 371.17 476.03 369.11 477.48 C 366.93 479 364.84 480.64 362.83 482.38 C 360.67 484.25 358.6 486.23 356.62 488.3 C 352.98 492.11 349.6 496.15 346.5 500.41 C 343.09 505.1 339.97 509.99 337.16 515.06 C 333.97 520.78 331.14 526.7 328.67 532.77 C 325.8 539.86 323.29 547.09 321.17 554.44 C 320.39 557.15 319.65 559.87 318.95 562.6 C 318.23 565.39 317.56 568.2 316.93 571.01 C 314.31 582.69 312.38 594.5 311.14 606.4 C 309.74 619.83 309.04 633.33 309.04 646.83 C 309.04 657.85 309.54 668.87 310.52 679.85 C 311.41 689.82 312.8 699.73 314.67 709.57 C 316.4 718.67 318.57 727.69 321.19 736.59 C 323.66 744.98 326.57 753.24 329.9 761.33 C 331.69 765.69 333.76 769.92 336.09 774.01 C 338.09 777.51 340.34 780.85 342.83 784.01 C 345.07 786.84 347.51 789.51 350.14 791.98 C 352.61 794.3 355.25 796.42 358.05 798.32 C 360.83 800.21 363.75 801.87 366.79 803.29 C 369.96 804.77 373.25 806.02 376.61 807 C 380.29 808.08 384.04 808.88 387.84 809.39 C 392.22 809.98 396.63 810.27 401.05 810.27 C 405.7 810.27 410.34 809.91 414.93 809.19 C 419.18 808.52 423.35 807.5 427.42 806.13 C 431.42 804.8 435.29 803.12 439 801.14 C 442.86 799.07 446.55 796.69 450.03 794.03 C 453.55 791.34 456.89 788.43 460.03 785.32 C 463.17 782.23 466.1 778.94 468.82 775.47 C 471.61 771.91 474.18 768.17 476.5 764.28 C 478.97 760.14 481.2 755.85 483.16 751.45 Z  M 435.84 553.5 C 435.98 554.15 436.14 554.79 436.3 555.44 C 436.55 556.45 437.19 557.33 438.09 557.87 C 438.98 558.42 440.05 558.6 441.07 558.36 L 490.67 546.99 C 491.64 546.77 492.5 546.18 493.07 545.36 C 493.63 544.54 493.87 543.53 493.73 542.54 C 492.74 535.44 491.29 528.42 489.39 521.52 C 487.78 515.72 485.73 510.06 483.24 504.58 C 481.06 499.78 478.5 495.16 475.58 490.77 C 472.9 486.71 469.86 482.9 466.51 479.37 C 464.69 477.44 462.76 475.6 460.76 473.86 C 458.85 472.21 456.86 470.65 454.79 469.2 C 452.79 467.8 450.72 466.5 448.59 465.32 C 446.48 464.14 444.31 463.08 442.09 462.14 C 439.86 461.18 437.58 460.35 435.26 459.64 C 432.88 458.91 430.47 458.3 428.03 457.81 C 425.47 457.3 422.89 456.92 420.29 456.67 C 417.52 456.41 414.75 456.28 411.97 456.28 C 408.97 456.28 405.97 456.43 402.99 456.72 C 400.15 456.99 397.33 457.41 394.54 457.98 C 391.85 458.52 389.18 459.21 386.55 460.02 C 383.97 460.83 381.42 461.77 378.93 462.85 C 376.42 463.93 373.98 465.13 371.6 466.47 C 369.16 467.84 366.79 469.32 364.51 470.93 C 362.11 472.61 359.81 474.42 357.59 476.33 C 355.24 478.37 352.98 480.52 350.83 482.77 C 346.95 486.84 343.34 491.16 340.03 495.71 C 336.43 500.66 333.14 505.82 330.16 511.17 C 326.82 517.18 323.85 523.39 321.26 529.76 C 318.28 537.11 315.68 544.6 313.48 552.22 C 312.68 555.01 311.92 557.81 311.2 560.62 C 310.46 563.49 309.77 566.37 309.12 569.26 C 306.44 581.24 304.46 593.36 303.18 605.57 C 301.76 619.28 301.04 633.05 301.04 646.83 C 301.04 658.09 301.55 669.35 302.55 680.56 C 303.47 690.79 304.89 700.97 306.81 711.06 C 308.59 720.43 310.83 729.7 313.52 738.84 C 316.07 747.51 319.07 756.03 322.5 764.38 C 324.42 769.05 326.64 773.59 329.15 777.98 C 331.34 781.82 333.81 785.49 336.55 788.96 C 339.03 792.11 341.74 795.07 344.66 797.81 C 347.43 800.42 350.41 802.8 353.56 804.94 C 356.68 807.06 359.97 808.93 363.4 810.53 C 366.94 812.19 370.6 813.58 374.36 814.68 C 378.43 815.87 382.58 816.75 386.78 817.32 C 391.51 817.95 396.28 818.27 401.05 818.27 C 406.11 818.27 411.17 817.88 416.18 817.09 C 420.86 816.35 425.47 815.23 429.97 813.72 C 434.38 812.24 438.67 810.39 442.77 808.19 C 447.02 805.92 451.07 803.31 454.89 800.38 C 458.67 797.49 462.27 794.36 465.66 791.02 C 469.03 787.68 472.19 784.14 475.11 780.41 C 478.12 776.58 480.87 772.56 483.37 768.38 C 486.01 763.97 488.38 759.4 490.47 754.7 C 492.53 750.07 494.35 745.35 495.92 740.53 C 497.46 735.82 498.74 731.04 499.77 726.19 C 500.8 721.35 501.58 716.46 502.09 711.54 C 502.61 706.52 502.87 701.47 502.87 696.42 C 502.87 691.9 502.66 687.38 502.23 682.88 C 501.82 678.63 501.2 674.4 500.37 670.2 C 499.57 666.17 498.57 662.18 497.36 658.24 C 496.18 654.38 494.8 650.58 493.23 646.87 C 491.58 642.97 489.69 639.17 487.57 635.51 C 485.61 632.12 483.42 628.86 481.01 625.76 C 478.71 622.8 476.22 620 473.54 617.38 C 470.89 614.79 468.06 612.38 465.08 610.17 C 462.04 607.93 458.84 605.92 455.48 604.18 C 452.22 602.49 448.82 601.07 445.33 599.93 C 441.76 598.77 438.11 597.9 434.4 597.33 C 430.44 596.72 426.44 596.42 422.43 596.42 C 417.69 596.42 412.96 596.83 408.29 597.64 C 403.3 598.5 398.39 599.77 393.6 601.42 C 388.82 603.06 384.17 605.06 379.69 607.41 C 377.81 608.39 375.97 609.44 374.17 610.56 C 374.24 606.09 374.37 601.63 374.56 597.17 C 374.81 591.59 375.2 586.03 375.75 580.48 C 376.37 574.08 377.26 567.71 378.41 561.38 C 379.24 556.83 380.33 552.32 381.66 547.88 C 383.11 543.09 384.98 538.44 387.25 533.97 C 388.72 531.08 390.57 528.39 392.74 525.98 C 393.96 524.62 395.32 523.38 396.78 522.28 C 398.04 521.34 399.39 520.54 400.83 519.89 C 402.22 519.27 403.67 518.79 405.17 518.48 C 406.81 518.14 408.47 517.97 410.15 517.97 C 411.6 517.97 413.06 518.11 414.48 518.4 C 415.74 518.65 416.97 519.04 418.14 519.56 C 419.32 520.08 420.43 520.73 421.47 521.49 C 422.64 522.35 423.73 523.32 424.71 524.4 C 425.72 525.51 426.65 526.68 427.49 527.91 C 428.37 529.19 429.16 530.52 429.86 531.91 C 430.61 533.39 431.26 534.92 431.8 536.49 C 432.41 538.26 432.92 540.06 433.31 541.89 C 434.15 545.76 434.99 549.63 435.84 553.5 Z  M 401.96 764.58 C 400.38 764.58 398.81 764.47 397.26 764.26 C 395.81 764.05 394.39 763.74 392.99 763.33 C 391.66 762.93 390.36 762.43 389.11 761.83 C 387.86 761.24 386.66 760.55 385.52 759.77 C 384.36 758.97 383.26 758.09 382.23 757.13 C 381.13 756.1 380.11 755 379.17 753.83 C 378.13 752.53 377.18 751.16 376.33 749.73 C 375.36 748.1 374.49 746.41 373.73 744.68 C 373.02 743.06 372.38 741.42 371.81 739.74 C 371.14 737.77 370.55 735.77 370.03 733.75 C 369.65 732.27 369.31 730.79 369 729.3 C 368.65 727.61 368.34 725.92 368.06 724.23 C 367.86 723.01 367.68 721.79 367.51 720.56 C 367.33 719.23 367.16 717.9 367.01 716.57 C 366.56 712.53 366.23 708.49 366.03 704.44 C 365.78 699.34 365.65 694.24 365.65 689.15 C 365.65 688.49 365.66 687.84 365.67 687.18 C 365.68 686.3 365.7 685.42 365.72 684.54 C 365.78 682.08 365.86 679.62 365.96 677.17 C 366.17 672.18 366.41 667.19 366.68 662.2 C 370.55 659.92 374.52 657.81 378.58 655.89 C 380.89 654.8 383.26 653.85 385.68 653.05 C 388.13 652.23 390.65 651.6 393.2 651.18 C 395.64 650.77 398.12 650.57 400.59 650.57 C 402.35 650.57 404.11 650.66 405.86 650.86 C 407.45 651.04 409.02 651.32 410.57 651.7 C 412 652.05 413.4 652.49 414.78 653.01 C 416.09 653.52 417.37 654.11 418.6 654.79 C 419.82 655.46 420.98 656.2 422.1 657.03 C 423.22 657.86 424.29 658.77 425.29 659.74 C 426.34 660.76 427.31 661.85 428.21 662.99 C 429.17 664.22 430.06 665.5 430.86 666.83 C 432.31 669.23 433.57 671.74 434.65 674.33 C 435.8 677.12 436.76 679.98 437.52 682.9 C 438.37 686.18 439 689.52 439.4 692.89 C 439.85 696.78 440.08 700.7 440.08 704.61 C 440.08 708.4 439.89 712.19 439.51 715.96 C 439.16 719.46 438.62 722.93 437.89 726.37 C 437.2 729.62 436.33 732.83 435.29 735.98 C 434.28 739.04 433.1 742.04 431.75 744.96 C 430.98 746.63 430.11 748.25 429.14 749.81 C 428.27 751.21 427.3 752.55 426.24 753.81 C 425.27 754.97 424.22 756.06 423.09 757.06 C 422.01 758.03 420.85 758.91 419.64 759.7 C 418.43 760.49 417.17 761.18 415.86 761.77 C 414.52 762.38 413.13 762.89 411.72 763.29 C 410.2 763.72 408.66 764.04 407.1 764.24 C 405.4 764.47 403.68 764.58 401.96 764.58 Z  M 401.96 756.58 C 400.75 756.58 399.55 756.5 398.36 756.33 C 397.32 756.19 396.29 755.96 395.28 755.66 C 394.35 755.38 393.43 755.03 392.54 754.61 C 391.67 754.19 390.83 753.71 390.04 753.16 C 389.21 752.6 388.43 751.97 387.7 751.29 C 386.88 750.52 386.11 749.7 385.41 748.82 C 384.6 747.82 383.87 746.75 383.21 745.64 C 382.41 744.29 381.68 742.89 381.05 741.45 C 380.43 740.05 379.88 738.63 379.39 737.19 C 378.79 735.4 378.25 733.59 377.78 731.76 C 377.44 730.41 377.12 729.04 376.84 727.67 C 376.51 726.1 376.22 724.52 375.96 722.93 C 375.77 721.78 375.59 720.63 375.44 719.48 C 375.26 718.21 375.1 716.94 374.96 715.67 C 374.53 711.81 374.21 707.93 374.02 704.04 C 373.78 699.08 373.65 694.11 373.65 689.15 C 373.65 688.53 373.66 687.91 373.67 687.29 C 373.68 686.44 373.69 685.59 373.71 684.74 C 373.77 682.32 373.85 679.91 373.95 677.5 C 374.1 674 374.27 670.49 374.44 666.98 C 376.92 665.62 379.44 664.33 382 663.12 C 384.02 662.17 386.09 661.34 388.21 660.63 C 390.27 659.95 392.38 659.42 394.52 659.07 C 396.52 658.73 398.56 658.57 400.59 658.57 C 402.05 658.57 403.51 658.65 404.96 658.81 C 406.21 658.95 407.45 659.17 408.67 659.47 C 409.77 659.74 410.85 660.08 411.91 660.48 C 412.88 660.86 413.83 661.3 414.75 661.8 C 415.65 662.3 416.51 662.85 417.33 663.46 C 418.17 664.08 418.97 664.75 419.71 665.48 C 420.5 666.25 421.24 667.07 421.92 667.93 C 422.68 668.9 423.38 669.91 424.01 670.96 C 425.25 673.02 426.34 675.17 427.25 677.38 C 428.27 679.83 429.11 682.35 429.78 684.91 C 430.54 687.84 431.1 690.82 431.45 693.82 C 431.87 697.4 432.08 701.01 432.08 704.61 C 432.08 708.14 431.91 711.66 431.55 715.16 C 431.23 718.37 430.73 721.55 430.06 724.71 C 429.43 727.67 428.64 730.6 427.69 733.48 C 426.78 736.25 425.71 738.97 424.49 741.62 C 423.86 742.98 423.14 744.31 422.35 745.59 C 421.68 746.67 420.93 747.7 420.12 748.67 C 419.39 749.53 418.6 750.34 417.76 751.1 C 416.98 751.79 416.15 752.43 415.27 753 C 414.41 753.56 413.5 754.06 412.56 754.48 C 411.58 754.93 410.56 755.3 409.53 755.6 C 408.39 755.92 407.23 756.16 406.06 756.31 C 404.7 756.49 403.33 756.58 401.96 756.58 Z " fill-rule="evenodd" fill="rgb(0,0,0)"/><path d=" M 466.93 904.03 L 331.07 904.03 L 331.07 843.25 L 466.93 843.25 L 466.93 904.03 Z  M 458.93 896.03 L 339.07 896.03 L 339.07 851.25 L 458.93 851.25 L 458.93 896.03 Z " fill-rule="evenodd" fill="rgb(0,0,0)"/></g></svg>