<?xml version="1.0" encoding="UTF-8" standalone="no"?><!-- Generator: Gravit.io --><svg xmlns="http://www.w3.org/2000/svg" xmlns:xlink="http://www.w3.org/1999/xlink" style="isolation:isolate" viewBox="0 0 800 1270" width="800pt" height="1270pt"><defs><clipPath id="_clipPath_acOgrJVYjFyCuFjO215ouYRFZhRfjnWp"><rect width="800" height="1270"/></clipPath></defs><g clip-path="url(#_clipPath_acOgrJVYjFyCuFjO215ouYRFZhRfjnWp)"><path d=" M 800 64 C 800 30.523 757.12 0 736 0 L 64 0 C 42.912 0 0 30.523 0 64 L 0 1206 C 0 1239.477 42.912 1270 64 1270 L 746 1270 C 767.12 1270 800 1239.477 800 1206 L 800 64 Z " fill-rule="evenodd" fill="rgb(0,0,0)"/><path d=" M 796 64 C 796 30.734 756.908 4 736 4 L 64 4 C 43.123 4 4 34.331 4 67.597 L 4 1206 C 4 1239.266 43.123 1266 64 1266 L 746 1266 C 766.908 1266 796 1239.266 796 1206 L 796 64 Z " fill-rule="evenodd" fill="rgb(255,255,255)"/><path d=" M 735 121.55 C 735 91.446 698.98 64 681.24 64 L 116.76 64 C 99.046 64 63 91.446 63 121.55 L 63 1148.45 C 63 1178.554 99.046 1206 116.76 1206 L 689.64 1206 C 707.38 1206 735 1178.554 735 1148.45 L 735 121.55 Z " fill-rule="evenodd" fill="rgb(0,114,188)"/><path d=" M 183.054 507.699 C 343.308 234.596 570.623 69.913 690.359 140.172 C 810.095 210.432 777.199 489.198 616.946 762.301 C 456.692 1035.404 229.377 1200.087 109.641 1129.828 C -10.095 1059.568 22.801 780.802 183.054 507.699 Z " fill="rgb(255,255,255)"/><defs><filter id="7dVrNm9q8cPrnil410bIRSDG3ab7udRR" x="-200%" y="-200%" width="400%" height="400%" filterUnits="objectBoundingBox" color-interpolation-filters="sRGB"><feGaussianBlur xmlns="http://www.w3.org/2000/svg" in="SourceGraphic" stdDeviation="0"/><feOffset xmlns="http://www.w3.org/2000/svg" dx="8" dy="8" result="pf_100_offsetBlur"/><feFlood xmlns="http://www.w3.org/2000/svg" flood-color="#000000" flood-opacity="1"/><feComposite xmlns="http://www.w3.org/2000/svg" in2="pf_100_offsetBlur" operator="in" result="pf_100_dropShadow"/><feBlend xmlns="http://www.w3.org/2000/svg" in="SourceGraphic" in2="pf_100_dropShadow" mode="normal"/></filter></defs><g filter="url(#7dVrNm9q8cPrnil410bIRSDG3ab7udRR)"><path d=" M 165.902 233.702 L 141.509 235.778 L 141.509 202.216 L 98.086 202.216 L 98.086 182.84 L 140.471 104.99 L 165.902 104.99 L 165.902 182.84 L 182.164 182.84 L 180.088 202.216 L 165.902 202.216 L 165.902 233.702 L 165.902 233.702 Z  M 141.509 137.341 L 118.327 182.84 L 141.509 182.84 L 141.509 137.341 L 141.509 137.341 Z " fill="rgb(255,255,255)"/></g><defs><filter id="rVC3sEWv7KPT1Wh65ZVOc3vbTgW6heTr" x="-200%" y="-200%" width="400%" height="400%" filterUnits="objectBoundingBox" color-interpolation-filters="sRGB"><feGaussianBlur xmlns="http://www.w3.org/2000/svg" in="SourceGraphic" stdDeviation="0"/><feOffset xmlns="http://www.w3.org/2000/svg" dx="-8" dy="-8" result="pf_100_offsetBlur"/><feFlood xmlns="http://www.w3.org/2000/svg" flood-color="#000000" flood-opacity="1"/><feComposite xmlns="http://www.w3.org/2000/svg" in2="pf_100_offsetBlur" operator="in" result="pf_100_dropShadow"/><feBlend xmlns="http://www.w3.org/2000/svg" in="SourceGraphic" in2="pf_100_dropShadow" mode="normal"/></filter></defs><g filter="url(#rVC3sEWv7KPT1Wh65ZVOc3vbTgW6heTr)"><path d=" M 634.098 1036.298 L 658.491 1034.222 L 658.491 1067.784 L 701.914 1067.784 L 701.914 1087.16 L 659.529 1165.01 L 634.098 1165.01 L 634.098 1087.16 L 617.836 1087.16 L 619.912 1067.784 L 634.098 1067.784 L 634.098 1036.298 L 634.098 1036.298 Z  M 658.491 1132.659 L 681.673 1087.16 L 658.491 1087.16 L 658.491 1132.659 L 658.491 1132.659 Z " fill="rgb(255,255,255)"/></g><defs><filter id="Qju7n5pQkdf4lPzIHpST9OLsNGk2qxpA" x="-200%" y="-200%" width="400%" height="400%" filterUnits="objectBoundingBox" color-interpolation-filters="sRGB"><feGaussianBlur xmlns="http://www.w3.org/2000/svg" in="SourceGraphic" stdDeviation="0"/><feOffset xmlns="http://www.w3.org/2000/svg" dx="16" dy="16" result="pf_100_offsetBlur"/><feFlood xmlns="http://www.w3.org/2000/svg" flood-color="#000000" flood-opacity="1"/><feComposite xmlns="http://www.w3.org/2000/svg" in2="pf_100_offsetBlur" operator="in" result="pf_100_dropShadow"/><feBlend xmlns="http://www.w3.org/2000/svg" in="SourceGraphic" in2="pf_100_dropShadow" mode="normal"/></filter></defs><g filter="url(#Qju7n5pQkdf4lPzIHpST9OLsNGk2qxpA)"><path d=" M 469.752 805.17 L 405.597 810.63 L 405.597 722.36 L 291.393 722.36 L 291.393 671.4 L 402.867 466.65 L 469.752 466.65 L 469.752 671.4 L 512.523 671.4 L 507.062 722.36 L 469.752 722.36 L 469.752 805.17 L 469.752 805.17 Z  M 405.597 551.735 L 344.627 671.4 L 405.597 671.4 L 405.597 551.735 L 405.597 551.735 Z " fill="rgb(0,114,188)"/></g><path d=" M 167.9 235.54 L 139.51 237.96 L 139.51 204.22 L 96.09 204.22 L 96.09 182.33 L 139.28 102.99 L 167.9 102.99 L 167.9 180.84 L 184.39 180.84 L 181.88 204.22 L 167.9 204.22 L 167.9 235.54 Z  M 163.9 231.86 L 143.51 233.6 L 143.51 200.22 L 100.09 200.22 L 100.09 183.35 L 141.66 106.99 L 163.9 106.99 L 163.9 184.84 L 179.94 184.84 L 178.29 200.22 L 163.9 200.22 L 163.9 231.86 Z  M 143.51 184.84 L 115.06 184.84 L 143.51 129.01 L 143.51 184.84 Z  M 139.51 180.84 L 121.59 180.84 L 139.51 145.67 L 139.51 180.84 Z " fill-rule="evenodd" fill="rgb(0,0,0)"/><path d=" M 632.1 1034.46 L 660.49 1032.04 L 660.49 1065.78 L 703.91 1065.78 L 703.91 1087.67 L 660.72 1167.01 L 632.1 1167.01 L 632.1 1089.16 L 615.61 1089.16 L 618.12 1065.78 L 632.1 1065.78 L 632.1 1034.46 Z  M 636.1 1038.13 L 656.49 1036.4 L 656.49 1069.78 L 699.91 1069.78 L 699.91 1086.65 L 658.34 1163.01 L 636.1 1163.01 L 636.1 1085.16 L 620.06 1085.16 L 621.71 1069.78 L 636.1 1069.78 L 636.1 1038.13 Z  M 656.49 1085.16 L 684.94 1085.16 L 656.49 1140.99 L 656.49 1085.16 Z  M 660.49 1089.16 L 678.41 1089.16 L 660.49 1124.33 L 660.49 1089.16 Z " fill-rule="evenodd" fill="rgb(0,0,0)"/><path d=" M 473.75 808.84 L 401.6 814.98 L 401.6 726.36 L 287.39 726.36 L 287.39 670.38 L 400.49 462.65 L 473.75 462.65 L 473.75 667.4 L 516.97 667.4 L 510.66 726.36 L 473.75 726.36 L 473.75 808.84 Z  M 465.75 801.5 L 409.6 806.28 L 409.6 718.36 L 295.39 718.36 L 295.39 672.42 L 405.24 470.65 L 465.75 470.65 L 465.75 675.4 L 508.07 675.4 L 503.47 718.36 L 465.75 718.36 L 465.75 801.5 Z  M 409.6 675.4 L 338.1 675.4 L 409.6 535.07 L 409.6 675.4 Z  M 401.6 667.4 L 351.15 667.4 L 401.6 568.4 L 401.6 667.4 Z " fill-rule="evenodd" fill="rgb(0,0,0)"/></g></svg>