<?xml version="1.0" encoding="UTF-8" standalone="no"?><!-- Generator: Gravit.io --><svg xmlns="http://www.w3.org/2000/svg" xmlns:xlink="http://www.w3.org/1999/xlink" style="isolation:isolate" viewBox="0 0 800 1270" width="800pt" height="1270pt"><defs><clipPath id="_clipPath_LvUnJJ5ZGpOZK6cDrNdLk6HtFumMtwLT"><rect width="800" height="1270"/></clipPath></defs><g clip-path="url(#_clipPath_LvUnJJ5ZGpOZK6cDrNdLk6HtFumMtwLT)"><path d=" M 800 64 C 800 30.523 757.12 0 736 0 L 64 0 C 42.912 0 0 30.523 0 64 L 0 1206 C 0 1239.477 42.912 1270 64 1270 L 746 1270 C 767.12 1270 800 1239.477 800 1206 L 800 64 Z " fill-rule="evenodd" fill="rgb(0,0,0)"/><path d=" M 796 64 C 796 30.734 756.908 4 736 4 L 64 4 C 43.123 4 4 34.331 4 67.597 L 4 1206 C 4 1239.266 43.123 1266 64 1266 L 746 1266 C 766.908 1266 796 1239.266 796 1206 L 796 64 Z " fill-rule="evenodd" fill="rgb(255,255,255)"/><path d=" M 736 121.55 C 736 91.446 699.98 64 682.24 64 L 117.76 64 C 100.046 64 64 91.446 64 121.55 L 64 1148.45 C 64 1178.554 100.046 1206 117.76 1206 L 690.64 1206 C 708.38 1206 736 1178.554 736 1148.45 L 736 121.55 Z " fill-rule="evenodd" fill="rgb(80,170,68)"/><path d=" M 183.054 507.699 C 343.308 234.596 570.623 69.913 690.359 140.172 C 810.095 210.432 777.199 489.198 616.946 762.301 C 456.692 1035.404 229.377 1200.087 109.641 1129.828 C -10.095 1059.568 22.801 780.802 183.054 507.699 Z " fill="rgb(255,255,255)"/><defs><filter id="IW5WJfwsj8Pe9v85AOcA9mkWHOukyUeI" x="-200%" y="-200%" width="400%" height="400%" filterUnits="objectBoundingBox" color-interpolation-filters="sRGB"><feGaussianBlur xmlns="http://www.w3.org/2000/svg" in="SourceGraphic" stdDeviation="0"/><feOffset xmlns="http://www.w3.org/2000/svg" dx="8" dy="8" result="pf_100_offsetBlur"/><feFlood xmlns="http://www.w3.org/2000/svg" flood-color="#000000" flood-opacity="1"/><feComposite xmlns="http://www.w3.org/2000/svg" in2="pf_100_offsetBlur" operator="in" result="pf_100_dropShadow"/><feBlend xmlns="http://www.w3.org/2000/svg" in="SourceGraphic" in2="pf_100_dropShadow" mode="normal"/></filter></defs><g filter="url(#IW5WJfwsj8Pe9v85AOcA9mkWHOukyUeI)"><path d=" M 154.657 163.637 L 154.657 163.637 Q 166.075 170.73 171.957 178.515 L 171.957 178.515 L 171.957 178.515 Q 177.839 186.3 177.839 198.41 L 177.839 198.41 L 177.839 198.41 Q 177.839 210.001 172.476 218.824 L 172.476 218.824 L 172.476 218.824 Q 167.113 227.647 158.03 232.405 L 158.03 232.405 L 158.03 232.405 Q 148.948 237.162 138.049 237.162 L 138.049 237.162 L 138.049 237.162 Q 128.188 237.162 119.538 233.27 L 119.538 233.27 L 119.538 233.27 Q 110.888 229.377 105.525 221.679 L 105.525 221.679 L 105.525 221.679 Q 100.162 213.98 100.162 202.908 L 100.162 202.908 L 100.162 202.908 Q 100.162 191.317 106.044 182.581 L 106.044 182.581 L 106.044 182.581 Q 111.926 173.844 121.787 168.308 L 121.787 168.308 L 121.787 168.308 Q 112.791 162.945 108.379 155.679 L 108.379 155.679 L 108.379 155.679 Q 103.968 148.413 103.968 138.552 L 103.968 138.552 L 103.968 138.552 Q 103.968 127.999 108.725 119.782 L 108.725 119.782 L 108.725 119.782 Q 113.483 111.564 121.614 107.066 L 121.614 107.066 L 121.614 107.066 Q 129.745 102.568 139.779 102.568 L 139.779 102.568 L 139.779 102.568 Q 148.775 102.568 156.473 106.374 L 156.473 106.374 L 156.473 106.374 Q 164.172 110.18 168.67 117.187 L 168.67 117.187 L 168.67 117.187 Q 173.168 124.193 173.168 133.362 L 173.168 133.362 L 173.168 133.362 Q 173.168 143.05 168.064 150.749 L 168.064 150.749 L 168.064 150.749 Q 162.961 158.447 154.657 163.637 L 154.657 163.637 L 154.657 163.637 Z  M 139.779 122.982 L 139.779 122.982 Q 134.07 122.982 130.35 126.269 L 130.35 126.269 L 130.35 126.269 Q 126.631 129.556 126.631 135.438 L 126.631 135.438 L 126.631 135.438 Q 126.631 141.666 130.61 146.597 L 130.61 146.597 L 130.61 146.597 Q 134.589 151.527 139.952 154.814 L 139.952 154.814 L 139.952 154.814 Q 152.581 146.856 152.581 135.784 L 152.581 135.784 L 152.581 135.784 Q 152.581 129.902 149.207 126.442 L 149.207 126.442 L 149.207 126.442 Q 145.834 122.982 139.779 122.982 L 139.779 122.982 L 139.779 122.982 Z  M 138.914 216.748 L 138.914 216.748 Q 145.488 216.748 149.553 213.288 L 149.553 213.288 L 149.553 213.288 Q 153.619 209.828 153.619 202.043 L 153.619 202.043 L 153.619 202.043 Q 153.619 186.127 135.627 177.823 L 135.627 177.823 L 135.627 177.823 Q 124.555 186.127 124.555 200.313 L 124.555 200.313 L 124.555 200.313 Q 124.555 216.748 138.914 216.748 L 138.914 216.748 L 138.914 216.748 Z " fill="rgb(255,255,255)"/></g><defs><filter id="m7I6jUhWfF4k6eK4oS1P2luUqkUl6g7f" x="-200%" y="-200%" width="400%" height="400%" filterUnits="objectBoundingBox" color-interpolation-filters="sRGB"><feGaussianBlur xmlns="http://www.w3.org/2000/svg" in="SourceGraphic" stdDeviation="0"/><feOffset xmlns="http://www.w3.org/2000/svg" dx="-8" dy="-8" result="pf_100_offsetBlur"/><feFlood xmlns="http://www.w3.org/2000/svg" flood-color="#000000" flood-opacity="1"/><feComposite xmlns="http://www.w3.org/2000/svg" in2="pf_100_offsetBlur" operator="in" result="pf_100_dropShadow"/><feBlend xmlns="http://www.w3.org/2000/svg" in="SourceGraphic" in2="pf_100_dropShadow" mode="normal"/></filter></defs><g filter="url(#m7I6jUhWfF4k6eK4oS1P2luUqkUl6g7f)"><path d=" M 645.343 1106.363 L 645.343 1106.363 Q 633.925 1099.27 628.043 1091.485 L 628.043 1091.485 L 628.043 1091.485 Q 622.161 1083.7 622.161 1071.59 L 622.161 1071.59 L 622.161 1071.59 Q 622.161 1059.999 627.524 1051.176 L 627.524 1051.176 L 627.524 1051.176 Q 632.887 1042.353 641.97 1037.596 L 641.97 1037.596 L 641.97 1037.596 Q 651.052 1032.838 661.951 1032.838 L 661.951 1032.838 L 661.951 1032.838 Q 671.812 1032.838 680.462 1036.731 L 680.462 1036.731 L 680.462 1036.731 Q 689.112 1040.623 694.475 1048.322 L 694.475 1048.322 L 694.475 1048.322 Q 699.838 1056.02 699.838 1067.092 L 699.838 1067.092 L 699.838 1067.092 Q 699.838 1078.683 693.956 1087.42 L 693.956 1087.42 L 693.956 1087.42 Q 688.074 1096.156 678.213 1101.692 L 678.213 1101.692 L 678.213 1101.692 Q 687.209 1107.055 691.621 1114.321 L 691.621 1114.321 L 691.621 1114.321 Q 696.032 1121.587 696.032 1131.448 L 696.032 1131.448 L 696.032 1131.448 Q 696.032 1142.001 691.275 1150.219 L 691.275 1150.219 L 691.275 1150.219 Q 686.517 1158.436 678.386 1162.934 L 678.386 1162.934 L 678.386 1162.934 Q 670.255 1167.432 660.221 1167.432 L 660.221 1167.432 L 660.221 1167.432 Q 651.225 1167.432 643.527 1163.626 L 643.527 1163.626 L 643.527 1163.626 Q 635.828 1159.82 631.33 1152.814 L 631.33 1152.814 L 631.33 1152.814 Q 626.832 1145.807 626.832 1136.638 L 626.832 1136.638 L 626.832 1136.638 Q 626.832 1126.95 631.936 1119.252 L 631.936 1119.252 L 631.936 1119.252 Q 637.039 1111.553 645.343 1106.363 L 645.343 1106.363 L 645.343 1106.363 Z  M 660.221 1147.018 L 660.221 1147.018 Q 665.93 1147.018 669.65 1143.731 L 669.65 1143.731 L 669.65 1143.731 Q 673.369 1140.444 673.369 1134.562 L 673.369 1134.562 L 673.369 1134.562 Q 673.369 1128.334 669.39 1123.404 L 669.39 1123.404 L 669.39 1123.404 Q 665.411 1118.473 660.048 1115.186 L 660.048 1115.186 L 660.048 1115.186 Q 647.419 1123.144 647.419 1134.216 L 647.419 1134.216 L 647.419 1134.216 Q 647.419 1140.098 650.793 1143.558 L 650.793 1143.558 L 650.793 1143.558 Q 654.166 1147.018 660.221 1147.018 L 660.221 1147.018 L 660.221 1147.018 Z  M 661.086 1053.252 L 661.086 1053.252 Q 654.512 1053.252 650.447 1056.712 L 650.447 1056.712 L 650.447 1056.712 Q 646.381 1060.172 646.381 1067.957 L 646.381 1067.957 L 646.381 1067.957 Q 646.381 1083.873 664.373 1092.177 L 664.373 1092.177 L 664.373 1092.177 Q 675.445 1083.873 675.445 1069.687 L 675.445 1069.687 L 675.445 1069.687 Q 675.445 1053.252 661.086 1053.252 L 661.086 1053.252 L 661.086 1053.252 Z " fill="rgb(255,255,255)"/></g><defs><filter id="Q8aj0kiu7XV9PE72bKRsRiY5vzpyLmaL" x="-200%" y="-200%" width="400%" height="400%" filterUnits="objectBoundingBox" color-interpolation-filters="sRGB"><feGaussianBlur xmlns="http://www.w3.org/2000/svg" in="SourceGraphic" stdDeviation="0"/><feOffset xmlns="http://www.w3.org/2000/svg" dx="16" dy="16" result="pf_100_offsetBlur"/><feFlood xmlns="http://www.w3.org/2000/svg" flood-color="#000000" flood-opacity="1"/><feComposite xmlns="http://www.w3.org/2000/svg" in2="pf_100_offsetBlur" operator="in" result="pf_100_dropShadow"/><feBlend xmlns="http://www.w3.org/2000/svg" in="SourceGraphic" in2="pf_100_dropShadow" mode="normal"/></filter></defs><g filter="url(#Q8aj0kiu7XV9PE72bKRsRiY5vzpyLmaL)"><path d=" M 440.178 619.895 L 440.178 619.895 Q 470.208 638.55 485.677 659.025 L 485.677 659.025 L 485.677 659.025 Q 501.148 679.5 501.148 711.35 L 501.148 711.35 L 501.148 711.35 Q 501.148 741.835 487.042 765.04 L 487.042 765.04 L 487.042 765.04 Q 472.938 788.245 449.05 800.758 L 449.05 800.758 L 449.05 800.758 Q 425.162 813.27 396.497 813.27 L 396.497 813.27 L 396.497 813.27 Q 370.563 813.27 347.813 803.033 L 347.813 803.033 L 347.813 803.033 Q 325.063 792.795 310.958 772.548 L 310.958 772.548 L 310.958 772.548 Q 296.852 752.3 296.852 723.18 L 296.852 723.18 L 296.852 723.18 Q 296.852 692.695 312.323 669.718 L 312.323 669.718 L 312.323 669.718 Q 327.792 646.74 353.727 632.18 L 353.727 632.18 L 353.727 632.18 Q 330.068 618.075 318.465 598.965 L 318.465 598.965 L 318.465 598.965 Q 306.862 579.855 306.862 553.92 L 306.862 553.92 L 306.862 553.92 Q 306.862 526.165 319.375 504.553 L 319.375 504.553 L 319.375 504.553 Q 331.887 482.94 353.273 471.11 L 353.273 471.11 L 353.273 471.11 Q 374.657 459.28 401.047 459.28 L 401.047 459.28 L 401.047 459.28 Q 424.708 459.28 444.955 469.29 L 444.955 469.29 L 444.955 469.29 Q 465.203 479.3 477.032 497.728 L 477.032 497.728 L 477.032 497.728 Q 488.863 516.155 488.863 540.27 L 488.863 540.27 L 488.863 540.27 Q 488.863 565.75 475.44 585.998 L 475.44 585.998 L 475.44 585.998 Q 462.018 606.245 440.178 619.895 L 440.178 619.895 L 440.178 619.895 Z  M 401.047 512.97 L 401.047 512.97 Q 386.032 512.97 376.25 521.615 L 376.25 521.615 L 376.25 521.615 Q 366.468 530.26 366.468 545.73 L 366.468 545.73 L 366.468 545.73 Q 366.468 562.11 376.933 575.078 L 376.933 575.078 L 376.933 575.078 Q 387.398 588.045 401.502 596.69 L 401.502 596.69 L 401.502 596.69 Q 434.718 575.76 434.718 546.64 L 434.718 546.64 L 434.718 546.64 Q 434.718 531.17 425.845 522.07 L 425.845 522.07 L 425.845 522.07 Q 416.972 512.97 401.047 512.97 L 401.047 512.97 L 401.047 512.97 Z  M 398.773 759.58 L 398.773 759.58 Q 416.063 759.58 426.755 750.48 L 426.755 750.48 L 426.755 750.48 Q 437.448 741.38 437.448 720.905 L 437.448 720.905 L 437.448 720.905 Q 437.448 679.045 390.127 657.205 L 390.127 657.205 L 390.127 657.205 Q 361.007 679.045 361.007 716.355 L 361.007 716.355 L 361.007 716.355 Q 361.007 759.58 398.773 759.58 L 398.773 759.58 L 398.773 759.58 Z " fill="rgb(80,170,68)"/></g><path d=" M 104.38 181.46 C 105.39 179.97 106.48 178.54 107.65 177.19 C 108.83 175.82 110.1 174.52 111.43 173.3 C 112.81 172.03 114.27 170.85 115.79 169.76 C 116.51 169.24 117.25 168.74 118 168.26 C 117.33 167.8 116.68 167.33 116.03 166.85 C 114.69 165.84 113.41 164.75 112.2 163.58 C 111.11 162.52 110.08 161.4 109.12 160.21 C 108.23 159.1 107.41 157.93 106.67 156.72 C 105.92 155.48 105.25 154.18 104.69 152.85 C 104.1 151.47 103.61 150.05 103.22 148.6 C 102.8 147.05 102.5 145.47 102.3 143.87 C 102.08 142.11 101.97 140.33 101.97 138.55 C 101.97 136.67 102.08 134.8 102.31 132.94 C 102.52 131.21 102.85 129.51 103.29 127.83 C 103.7 126.24 104.22 124.67 104.85 123.14 C 105.46 121.64 106.18 120.18 106.99 118.78 C 107.83 117.33 108.76 115.95 109.78 114.62 C 110.76 113.35 111.82 112.16 112.96 111.03 C 114.09 109.92 115.29 108.89 116.56 107.95 C 117.86 106.98 119.23 106.1 120.65 105.32 C 122.04 104.54 123.49 103.86 124.97 103.27 C 126.47 102.68 128 102.19 129.56 101.8 C 131.17 101.39 132.81 101.08 134.46 100.89 C 136.23 100.67 138 100.57 139.78 100.57 C 141.36 100.57 142.95 100.66 144.52 100.83 C 146.03 101 147.52 101.25 149 101.59 C 150.44 101.93 151.86 102.34 153.26 102.84 C 154.66 103.34 156.03 103.92 157.36 104.58 C 158.72 105.26 160.04 106.02 161.31 106.86 C 162.51 107.67 163.66 108.56 164.75 109.53 C 165.82 110.48 166.82 111.5 167.75 112.59 C 168.69 113.71 169.56 114.88 170.35 116.11 C 171.13 117.32 171.82 118.59 172.42 119.91 C 173.01 121.23 173.51 122.59 173.91 123.99 C 174.33 125.45 174.64 126.94 174.84 128.45 C 175.06 130.08 175.17 131.72 175.17 133.36 C 175.17 135.08 175.05 136.79 174.81 138.49 C 174.58 140.09 174.24 141.68 173.78 143.23 C 173.33 144.74 172.76 146.22 172.09 147.65 C 171.41 149.11 170.62 150.51 169.73 151.85 C 168.86 153.17 167.91 154.45 166.9 155.66 C 165.88 156.89 164.79 158.06 163.65 159.16 C 162.47 160.3 161.23 161.38 159.94 162.38 C 159.4 162.8 158.85 163.21 158.3 163.61 C 161.21 165.56 164.01 167.69 166.68 169.98 C 169.22 172.17 171.53 174.63 173.55 177.31 C 174.54 178.62 175.41 180.01 176.16 181.48 C 176.94 183.01 177.6 184.61 178.11 186.25 C 178.69 188.07 179.11 189.93 179.38 191.82 C 179.68 194 179.84 196.2 179.84 198.41 C 179.84 200.47 179.71 202.53 179.45 204.57 C 179.21 206.45 178.84 208.3 178.35 210.13 C 177.88 211.85 177.29 213.54 176.59 215.19 C 175.9 216.8 175.1 218.36 174.18 219.86 C 173.25 221.4 172.21 222.88 171.08 224.28 C 169.99 225.64 168.81 226.91 167.54 228.1 C 166.28 229.29 164.93 230.38 163.52 231.38 C 162.06 232.41 160.54 233.35 158.96 234.18 C 157.4 234.99 155.8 235.71 154.15 236.33 C 152.51 236.95 150.83 237.47 149.12 237.88 C 147.36 238.31 145.57 238.62 143.77 238.83 C 141.87 239.05 139.96 239.16 138.05 239.16 C 136.33 239.16 134.61 239.07 132.89 238.9 C 131.24 238.73 129.61 238.47 127.98 238.13 C 126.39 237.79 124.82 237.37 123.28 236.86 C 121.73 236.35 120.2 235.76 118.72 235.09 C 117.2 234.41 115.73 233.63 114.31 232.75 C 112.95 231.91 111.65 230.97 110.41 229.95 C 109.19 228.93 108.03 227.83 106.95 226.66 C 105.85 225.45 104.82 224.17 103.88 222.82 C 102.97 221.51 102.17 220.13 101.48 218.69 C 100.77 217.21 100.17 215.67 99.7 214.1 C 99.19 212.39 98.81 210.65 98.57 208.89 C 98.3 206.91 98.16 204.91 98.16 202.91 C 98.16 200.85 98.3 198.8 98.59 196.76 C 98.85 194.88 99.25 193.03 99.79 191.22 C 100.3 189.49 100.95 187.79 101.72 186.16 C 102.49 184.53 103.38 182.96 104.38 181.46 Z  M 150.7 163.61 C 155.45 166.3 159.93 169.45 164.07 173.02 C 166.4 175.02 168.51 177.27 170.36 179.72 C 171.21 180.84 171.96 182.04 172.6 183.29 C 173.28 184.63 173.85 186.02 174.3 187.45 C 174.81 189.06 175.18 190.71 175.41 192.38 C 175.7 194.38 175.84 196.39 175.84 198.41 C 175.84 200.3 175.72 202.19 175.48 204.07 C 175.27 205.76 174.94 207.43 174.49 209.08 C 174.07 210.63 173.54 212.14 172.91 213.61 C 172.3 215.05 171.58 216.45 170.77 217.79 C 169.92 219.17 168.99 220.51 167.97 221.77 C 166.99 222.98 165.93 224.12 164.8 225.18 C 163.67 226.24 162.47 227.22 161.21 228.12 C 159.9 229.05 158.53 229.89 157.1 230.63 C 155.69 231.37 154.24 232.02 152.74 232.59 C 151.25 233.15 149.73 233.62 148.18 233.99 C 146.57 234.38 144.95 234.67 143.31 234.86 C 141.57 235.06 139.81 235.16 138.05 235.16 C 136.46 235.16 134.88 235.08 133.3 234.92 C 131.79 234.76 130.3 234.53 128.82 234.21 C 127.36 233.91 125.93 233.52 124.52 233.06 C 123.11 232.59 121.72 232.06 120.36 231.45 C 119 230.83 117.69 230.14 116.42 229.35 C 115.21 228.6 114.06 227.77 112.97 226.87 C 111.88 225.97 110.86 225 109.9 223.96 C 108.92 222.88 108 221.73 107.17 220.54 C 106.38 219.4 105.68 218.21 105.08 216.97 C 104.46 215.67 103.94 214.33 103.53 212.95 C 103.08 211.44 102.75 209.9 102.53 208.34 C 102.29 206.54 102.16 204.73 102.16 202.91 C 102.16 201.03 102.29 199.16 102.55 197.31 C 102.78 195.63 103.14 193.98 103.62 192.36 C 104.08 190.82 104.65 189.32 105.34 187.86 C 106.02 186.42 106.81 185.02 107.7 183.7 C 108.62 182.34 109.61 181.04 110.68 179.8 C 111.76 178.55 112.91 177.36 114.13 176.25 C 115.4 175.09 116.73 174.01 118.12 173.01 C 120.62 171.22 123.27 169.66 126.06 168.36 C 123.38 167.03 120.83 165.45 118.44 163.65 C 117.23 162.74 116.07 161.76 114.98 160.7 C 114 159.76 113.09 158.76 112.24 157.7 C 111.45 156.73 110.74 155.71 110.09 154.64 C 109.43 153.56 108.86 152.44 108.37 151.28 C 107.85 150.07 107.43 148.83 107.09 147.56 C 106.72 146.19 106.44 144.79 106.27 143.38 C 106.07 141.78 105.97 140.16 105.97 138.55 C 105.97 136.84 106.07 135.12 106.28 133.42 C 106.47 131.88 106.76 130.35 107.16 128.84 C 107.53 127.42 107.99 126.02 108.55 124.66 C 109.1 123.33 109.73 122.03 110.46 120.78 C 111.2 119.49 112.04 118.25 112.95 117.06 C 113.81 115.94 114.75 114.88 115.76 113.89 C 116.76 112.9 117.83 111.99 118.95 111.16 C 120.11 110.3 121.32 109.51 122.58 108.82 C 123.83 108.13 125.12 107.52 126.44 106.99 C 127.78 106.47 129.15 106.03 130.54 105.68 C 131.99 105.31 133.46 105.04 134.94 104.86 C 136.55 104.66 138.16 104.57 139.78 104.57 C 141.22 104.57 142.65 104.65 144.08 104.81 C 145.43 104.96 146.77 105.18 148.1 105.49 C 149.39 105.79 150.66 106.16 151.91 106.61 C 153.17 107.06 154.39 107.58 155.59 108.17 C 156.79 108.76 157.96 109.44 159.08 110.19 C 160.14 110.89 161.14 111.67 162.09 112.52 C 163.02 113.35 163.89 114.24 164.7 115.19 C 165.53 116.16 166.3 117.19 166.99 118.27 C 167.66 119.32 168.26 120.41 168.77 121.55 C 169.29 122.7 169.72 123.88 170.07 125.09 C 170.43 126.36 170.7 127.66 170.88 128.98 C 171.07 130.43 171.17 131.89 171.17 133.36 C 171.17 134.89 171.06 136.42 170.85 137.94 C 170.65 139.34 170.35 140.73 169.94 142.09 C 169.55 143.41 169.06 144.7 168.47 145.95 C 167.87 147.23 167.18 148.47 166.4 149.64 C 165.6 150.84 164.74 152 163.82 153.1 C 162.9 154.22 161.91 155.28 160.87 156.29 C 159.79 157.33 158.66 158.31 157.48 159.22 C 155.35 160.88 153.08 162.35 150.7 163.61 Z  M 129.05 147.85 C 128.32 146.95 127.67 145.99 127.1 144.98 C 126.56 144.02 126.1 143.02 125.73 141.99 C 125.37 140.96 125.09 139.9 124.91 138.83 C 124.72 137.71 124.63 136.57 124.63 135.44 C 124.63 134.31 124.73 133.18 124.94 132.06 C 125.12 131.09 125.41 130.14 125.8 129.23 C 126.16 128.38 126.62 127.57 127.16 126.83 C 127.71 126.07 128.33 125.38 129.03 124.77 C 129.71 124.16 130.45 123.62 131.24 123.16 C 132.03 122.69 132.86 122.3 133.72 121.98 C 134.64 121.65 135.58 121.4 136.54 121.25 C 137.61 121.07 138.69 120.98 139.78 120.98 C 140.95 120.98 142.11 121.08 143.26 121.28 C 144.25 121.45 145.22 121.72 146.16 122.09 C 147.01 122.42 147.82 122.84 148.58 123.34 C 149.33 123.84 150.02 124.41 150.64 125.05 C 151.26 125.69 151.82 126.39 152.3 127.14 C 152.79 127.91 153.2 128.72 153.52 129.56 C 153.87 130.49 154.13 131.44 154.3 132.41 C 154.49 133.53 154.58 134.65 154.58 135.78 C 154.58 136.77 154.51 137.76 154.37 138.74 C 154.23 139.69 154.02 140.64 153.75 141.56 C 153.47 142.5 153.12 143.42 152.71 144.3 C 152.27 145.23 151.78 146.13 151.22 146.98 C 150.1 148.72 148.76 150.31 147.25 151.71 C 145.02 153.78 142.58 155.6 139.97 157.15 C 137.71 155.86 135.58 154.34 133.62 152.62 C 131.97 151.17 130.44 149.57 129.05 147.85 Z  M 139.78 124.98 C 140.72 124.98 141.66 125.06 142.59 125.22 C 143.31 125.34 144.01 125.54 144.69 125.81 C 145.28 126.04 145.85 126.33 146.38 126.68 C 146.88 127.02 147.35 127.4 147.78 127.84 C 148.21 128.28 148.59 128.77 148.93 129.29 C 149.27 129.83 149.56 130.4 149.79 131 C 150.04 131.67 150.23 132.37 150.35 133.08 C 150.5 133.97 150.58 134.88 150.58 135.78 C 150.58 136.58 150.52 137.38 150.41 138.17 C 150.3 138.93 150.13 139.68 149.91 140.42 C 149.69 141.17 149.41 141.9 149.08 142.61 C 148.73 143.37 148.32 144.1 147.86 144.81 C 146.92 146.27 145.8 147.6 144.52 148.79 C 143.09 150.12 141.56 151.34 139.94 152.43 C 138.65 151.58 137.43 150.64 136.27 149.62 C 134.78 148.31 133.41 146.88 132.17 145.34 C 131.57 144.61 131.04 143.83 130.58 143.01 C 130.15 142.25 129.79 141.46 129.5 140.65 C 129.21 139.84 129 139.01 128.86 138.16 C 128.71 137.26 128.63 136.35 128.63 135.44 C 128.63 134.55 128.71 133.67 128.87 132.8 C 129 132.11 129.2 131.44 129.48 130.8 C 129.73 130.22 130.03 129.68 130.4 129.17 C 130.77 128.66 131.2 128.19 131.67 127.77 C 132.17 127.33 132.71 126.94 133.28 126.6 C 133.86 126.26 134.46 125.97 135.09 125.74 C 135.77 125.49 136.47 125.31 137.19 125.19 C 138.05 125.05 138.91 124.98 139.78 124.98 Z  M 138.91 214.75 C 139.95 214.75 140.99 214.67 142.02 214.51 C 142.86 214.38 143.68 214.18 144.48 213.9 C 145.19 213.66 145.87 213.35 146.52 212.98 C 147.14 212.63 147.72 212.22 148.26 211.76 C 148.78 211.32 149.24 210.81 149.62 210.24 C 150.07 209.57 150.44 208.84 150.72 208.08 C 151.01 207.27 151.22 206.44 151.35 205.59 C 151.53 204.42 151.62 203.23 151.62 202.04 C 151.62 200.85 151.53 199.66 151.36 198.48 C 151.2 197.4 150.96 196.34 150.63 195.3 C 150.32 194.3 149.92 193.32 149.45 192.38 C 148.97 191.41 148.42 190.49 147.8 189.61 C 147.16 188.71 146.46 187.86 145.7 187.07 C 144.84 186.17 143.92 185.34 142.95 184.56 C 141.83 183.66 140.64 182.83 139.41 182.09 C 138.26 181.4 137.09 180.75 135.88 180.16 C 134.56 181.24 133.34 182.44 132.24 183.74 C 131.02 185.17 129.98 186.74 129.15 188.42 C 128.3 190.12 127.67 191.92 127.26 193.78 C 126.79 195.93 126.55 198.12 126.55 200.31 C 126.55 201.57 126.63 202.83 126.79 204.09 C 126.9 205.03 127.09 205.96 127.35 206.87 C 127.59 207.7 127.9 208.52 128.29 209.29 C 128.61 209.92 128.99 210.51 129.43 211.06 C 129.88 211.62 130.4 212.12 130.97 212.55 C 131.58 213 132.23 213.38 132.93 213.68 C 133.73 214.03 134.56 214.28 135.42 214.43 C 136.57 214.64 137.74 214.75 138.91 214.75 Z  M 138.91 218.75 C 140.16 218.75 141.4 218.65 142.63 218.46 C 143.7 218.3 144.76 218.04 145.79 217.68 C 146.72 217.36 147.63 216.95 148.49 216.46 C 149.33 215.99 150.12 215.43 150.85 214.81 C 151.65 214.13 152.35 213.34 152.94 212.47 C 153.57 211.53 154.09 210.51 154.48 209.45 C 154.86 208.39 155.14 207.3 155.3 206.2 C 155.51 204.82 155.62 203.43 155.62 202.04 C 155.62 200.66 155.52 199.27 155.32 197.9 C 155.13 196.61 154.84 195.35 154.45 194.11 C 154.07 192.9 153.6 191.73 153.03 190.59 C 152.46 189.44 151.8 188.34 151.06 187.29 C 150.31 186.24 149.48 185.24 148.59 184.3 C 147.61 183.28 146.56 182.32 145.45 181.44 C 144.19 180.43 142.86 179.5 141.48 178.67 C 139.52 177.48 137.49 176.44 135.39 175.53 C 133.09 177.12 131.01 179.01 129.19 181.14 C 127.76 182.82 126.54 184.67 125.56 186.64 C 124.57 188.64 123.83 190.75 123.35 192.93 C 122.82 195.35 122.55 197.83 122.55 200.31 C 122.55 201.74 122.64 203.16 122.82 204.57 C 122.96 205.72 123.19 206.86 123.5 207.97 C 123.81 209.04 124.22 210.08 124.71 211.08 C 125.16 211.97 125.69 212.8 126.32 213.57 C 126.97 214.39 127.73 215.12 128.57 215.75 C 129.43 216.39 130.36 216.93 131.35 217.36 C 132.42 217.82 133.55 218.16 134.7 218.37 C 136.09 218.62 137.5 218.75 138.91 218.75 Z " fill-rule="evenodd" fill="rgb(0,0,0)"/><path d=" M 641.7 1106.39 C 638.79 1104.44 635.99 1102.31 633.32 1100.02 C 630.78 1097.83 628.47 1095.37 626.45 1092.69 C 625.46 1091.38 624.59 1089.99 623.84 1088.52 C 623.06 1086.99 622.4 1085.39 621.89 1083.75 C 621.31 1081.93 620.89 1080.07 620.62 1078.18 C 620.32 1076 620.16 1073.8 620.16 1071.59 C 620.16 1069.53 620.29 1067.47 620.55 1065.43 C 620.79 1063.55 621.16 1061.7 621.65 1059.87 C 622.12 1058.15 622.71 1056.46 623.41 1054.81 C 624.1 1053.2 624.9 1051.64 625.82 1050.14 C 626.75 1048.6 627.79 1047.12 628.92 1045.72 C 630.01 1044.36 631.19 1043.09 632.46 1041.9 C 633.72 1040.71 635.07 1039.62 636.48 1038.62 C 637.94 1037.59 639.46 1036.65 641.04 1035.82 C 642.6 1035.01 644.2 1034.29 645.85 1033.67 C 647.49 1033.05 649.17 1032.53 650.88 1032.12 C 652.64 1031.69 654.43 1031.38 656.23 1031.17 C 658.13 1030.95 660.04 1030.84 661.95 1030.84 C 663.67 1030.84 665.39 1030.93 667.11 1031.1 C 668.76 1031.27 670.39 1031.53 672.02 1031.87 C 673.61 1032.21 675.18 1032.63 676.72 1033.14 C 678.27 1033.65 679.8 1034.24 681.28 1034.91 C 682.8 1035.59 684.27 1036.37 685.69 1037.25 C 687.05 1038.09 688.35 1039.03 689.59 1040.05 C 690.81 1041.07 691.97 1042.17 693.05 1043.34 C 694.15 1044.55 695.18 1045.83 696.12 1047.18 C 697.03 1048.49 697.83 1049.87 698.52 1051.31 C 699.23 1052.79 699.83 1054.33 700.3 1055.9 C 700.81 1057.61 701.19 1059.35 701.43 1061.11 C 701.7 1063.09 701.84 1065.09 701.84 1067.09 C 701.84 1069.15 701.7 1071.2 701.41 1073.24 C 701.15 1075.12 700.75 1076.97 700.21 1078.78 C 699.7 1080.51 699.05 1082.21 698.28 1083.84 C 697.51 1085.47 696.62 1087.04 695.62 1088.54 C 694.61 1090.03 693.52 1091.46 692.35 1092.81 C 691.17 1094.18 689.9 1095.48 688.57 1096.7 C 687.19 1097.97 685.73 1099.15 684.21 1100.24 C 683.49 1100.76 682.75 1101.26 682 1101.74 C 682.67 1102.2 683.32 1102.67 683.97 1103.15 C 685.31 1104.16 686.59 1105.25 687.8 1106.42 C 688.89 1107.48 689.92 1108.6 690.88 1109.79 C 691.77 1110.9 692.59 1112.07 693.33 1113.28 C 694.08 1114.52 694.75 1115.82 695.31 1117.15 C 695.9 1118.53 696.39 1119.95 696.78 1121.4 C 697.2 1122.95 697.5 1124.53 697.7 1126.13 C 697.92 1127.89 698.03 1129.67 698.03 1131.45 C 698.03 1133.33 697.92 1135.2 697.69 1137.06 C 697.48 1138.79 697.15 1140.49 696.71 1142.17 C 696.3 1143.76 695.78 1145.33 695.15 1146.86 C 694.54 1148.36 693.82 1149.82 693.01 1151.22 C 692.17 1152.67 691.24 1154.05 690.22 1155.38 C 689.24 1156.65 688.18 1157.84 687.04 1158.97 C 685.91 1160.08 684.71 1161.11 683.44 1162.05 C 682.14 1163.02 680.77 1163.9 679.35 1164.68 C 677.96 1165.46 676.51 1166.14 675.03 1166.73 C 673.53 1167.32 672 1167.81 670.44 1168.2 C 668.83 1168.61 667.19 1168.92 665.54 1169.11 C 663.77 1169.33 662 1169.43 660.22 1169.43 C 658.64 1169.43 657.05 1169.34 655.48 1169.17 C 653.97 1169 652.48 1168.75 651 1168.41 C 649.56 1168.07 648.14 1167.66 646.74 1167.16 C 645.34 1166.66 643.97 1166.08 642.64 1165.42 C 641.28 1164.74 639.96 1163.98 638.69 1163.14 C 637.49 1162.33 636.34 1161.44 635.25 1160.47 C 634.18 1159.52 633.18 1158.5 632.25 1157.41 C 631.31 1156.29 630.44 1155.12 629.65 1153.89 C 628.87 1152.68 628.18 1151.41 627.58 1150.09 C 626.99 1148.77 626.49 1147.41 626.09 1146.01 C 625.67 1144.55 625.36 1143.06 625.16 1141.55 C 624.94 1139.92 624.83 1138.28 624.83 1136.64 C 624.83 1134.92 624.95 1133.21 625.19 1131.51 C 625.42 1129.91 625.76 1128.32 626.22 1126.77 C 626.67 1125.26 627.24 1123.78 627.91 1122.35 C 628.59 1120.89 629.38 1119.49 630.27 1118.15 C 631.14 1116.83 632.09 1115.55 633.1 1114.34 C 634.12 1113.11 635.21 1111.94 636.35 1110.84 C 637.53 1109.7 638.77 1108.62 640.06 1107.62 C 640.6 1107.2 641.15 1106.79 641.7 1106.39 Z  M 649.3 1106.39 C 644.55 1103.7 640.07 1100.55 635.93 1096.98 C 633.6 1094.98 631.49 1092.73 629.64 1090.28 C 628.79 1089.16 628.04 1087.96 627.4 1086.71 C 626.72 1085.37 626.15 1083.98 625.7 1082.55 C 625.19 1080.94 624.82 1079.29 624.59 1077.62 C 624.3 1075.62 624.16 1073.61 624.16 1071.59 C 624.16 1069.7 624.28 1067.81 624.52 1065.93 C 624.73 1064.24 625.06 1062.57 625.51 1060.92 C 625.93 1059.37 626.46 1057.86 627.09 1056.39 C 627.7 1054.95 628.42 1053.55 629.23 1052.21 C 630.08 1050.83 631.01 1049.49 632.03 1048.23 C 633.01 1047.02 634.07 1045.88 635.2 1044.82 C 636.33 1043.76 637.53 1042.78 638.79 1041.88 C 640.1 1040.95 641.47 1040.11 642.9 1039.37 C 644.31 1038.63 645.76 1037.98 647.26 1037.41 C 648.75 1036.85 650.27 1036.38 651.82 1036.01 C 653.43 1035.62 655.05 1035.33 656.69 1035.14 C 658.43 1034.94 660.19 1034.84 661.95 1034.84 C 663.54 1034.84 665.12 1034.92 666.7 1035.08 C 668.21 1035.24 669.7 1035.47 671.18 1035.79 C 672.64 1036.09 674.07 1036.48 675.48 1036.94 C 676.89 1037.41 678.28 1037.94 679.64 1038.55 C 681 1039.17 682.31 1039.86 683.58 1040.65 C 684.79 1041.4 685.94 1042.23 687.03 1043.13 C 688.12 1044.03 689.14 1045 690.1 1046.04 C 691.08 1047.12 692 1048.27 692.83 1049.46 C 693.62 1050.6 694.32 1051.79 694.92 1053.03 C 695.54 1054.33 696.06 1055.67 696.47 1057.05 C 696.92 1058.56 697.25 1060.1 697.47 1061.66 C 697.71 1063.46 697.84 1065.27 697.84 1067.09 C 697.84 1068.97 697.71 1070.84 697.45 1072.69 C 697.22 1074.37 696.86 1076.02 696.38 1077.64 C 695.92 1079.18 695.35 1080.68 694.66 1082.14 C 693.98 1083.58 693.19 1084.98 692.3 1086.3 C 691.38 1087.66 690.39 1088.96 689.32 1090.2 C 688.24 1091.45 687.09 1092.64 685.87 1093.75 C 684.6 1094.91 683.27 1095.99 681.88 1096.99 C 679.38 1098.78 676.73 1100.34 673.94 1101.64 C 676.62 1102.97 679.17 1104.55 681.56 1106.35 C 682.77 1107.26 683.93 1108.25 685.02 1109.3 C 686 1110.24 686.91 1111.24 687.76 1112.3 C 688.55 1113.27 689.26 1114.29 689.91 1115.36 C 690.57 1116.44 691.14 1117.56 691.63 1118.72 C 692.15 1119.93 692.57 1121.17 692.91 1122.44 C 693.28 1123.81 693.56 1125.21 693.73 1126.62 C 693.93 1128.22 694.03 1129.84 694.03 1131.45 C 694.03 1133.16 693.93 1134.88 693.72 1136.58 C 693.53 1138.12 693.24 1139.65 692.84 1141.16 C 692.47 1142.58 692.01 1143.98 691.45 1145.34 C 690.9 1146.67 690.27 1147.97 689.54 1149.22 C 688.8 1150.51 687.96 1151.75 687.05 1152.94 C 686.19 1154.06 685.25 1155.12 684.24 1156.11 C 683.24 1157.1 682.17 1158.01 681.05 1158.84 C 679.89 1159.7 678.68 1160.49 677.42 1161.18 C 676.17 1161.87 674.88 1162.48 673.56 1163.01 C 672.22 1163.53 670.85 1163.97 669.46 1164.32 C 668.01 1164.69 666.54 1164.96 665.06 1165.14 C 663.45 1165.34 661.84 1165.43 660.22 1165.43 C 658.78 1165.43 657.35 1165.35 655.92 1165.19 C 654.57 1165.04 653.23 1164.82 651.9 1164.51 C 650.61 1164.21 649.34 1163.84 648.09 1163.39 C 646.83 1162.94 645.61 1162.42 644.41 1161.83 C 643.21 1161.24 642.04 1160.56 640.92 1159.81 C 639.86 1159.11 638.86 1158.33 637.91 1157.48 C 636.98 1156.65 636.11 1155.76 635.3 1154.81 C 634.47 1153.84 633.7 1152.81 633.01 1151.73 C 632.34 1150.68 631.74 1149.59 631.23 1148.45 C 630.71 1147.3 630.28 1146.12 629.93 1144.91 C 629.57 1143.64 629.3 1142.34 629.12 1141.02 C 628.93 1139.57 628.83 1138.11 628.83 1136.64 C 628.83 1135.11 628.94 1133.58 629.15 1132.06 C 629.35 1130.66 629.65 1129.27 630.06 1127.91 C 630.45 1126.59 630.94 1125.3 631.53 1124.05 C 632.13 1122.77 632.82 1121.53 633.6 1120.36 C 634.4 1119.16 635.26 1118 636.18 1116.9 C 637.1 1115.78 638.09 1114.72 639.13 1113.71 C 640.21 1112.67 641.34 1111.69 642.52 1110.78 C 644.65 1109.12 646.92 1107.65 649.3 1106.39 Z  M 660.22 1145.02 C 661.09 1145.02 661.95 1144.95 662.81 1144.81 C 663.53 1144.69 664.23 1144.51 664.91 1144.26 C 665.54 1144.03 666.14 1143.74 666.72 1143.4 C 667.29 1143.06 667.83 1142.67 668.33 1142.23 C 668.8 1141.81 669.23 1141.34 669.6 1140.83 C 669.97 1140.32 670.27 1139.78 670.52 1139.2 C 670.8 1138.56 671 1137.89 671.13 1137.2 C 671.29 1136.33 671.37 1135.45 671.37 1134.56 C 671.37 1133.65 671.29 1132.74 671.14 1131.84 C 671 1130.99 670.79 1130.16 670.5 1129.35 C 670.21 1128.54 669.85 1127.75 669.42 1126.99 C 668.96 1126.17 668.43 1125.39 667.83 1124.66 C 666.59 1123.12 665.22 1121.69 663.73 1120.38 C 662.57 1119.36 661.35 1118.42 660.06 1117.57 C 658.4 1118.69 656.83 1119.95 655.36 1121.33 C 654.07 1122.54 652.94 1123.91 652 1125.4 C 651.57 1126.09 651.18 1126.81 650.85 1127.54 C 650.53 1128.24 650.27 1128.95 650.05 1129.68 C 649.84 1130.41 649.69 1131.14 649.58 1131.89 C 649.47 1132.66 649.42 1133.44 649.42 1134.22 C 649.42 1135.12 649.5 1136.03 649.65 1136.92 C 649.77 1137.63 649.96 1138.33 650.21 1139 C 650.44 1139.6 650.73 1140.17 651.07 1140.71 C 651.41 1141.23 651.79 1141.72 652.23 1142.16 C 652.65 1142.6 653.12 1142.98 653.62 1143.32 C 654.15 1143.67 654.72 1143.96 655.31 1144.19 C 655.99 1144.46 656.69 1144.66 657.41 1144.78 C 658.34 1144.94 659.28 1145.02 660.22 1145.02 Z  M 660.22 1149.02 C 661.31 1149.02 662.39 1148.93 663.46 1148.76 C 664.42 1148.6 665.36 1148.35 666.28 1148.02 C 667.14 1147.7 667.97 1147.31 668.76 1146.84 C 669.55 1146.38 670.29 1145.84 670.97 1145.23 C 671.67 1144.62 672.29 1143.93 672.84 1143.17 C 673.38 1142.43 673.84 1141.62 674.2 1140.77 C 674.59 1139.86 674.88 1138.91 675.06 1137.94 C 675.27 1136.82 675.37 1135.69 675.37 1134.56 C 675.37 1133.43 675.28 1132.29 675.09 1131.17 C 674.91 1130.1 674.63 1129.04 674.27 1128.01 C 673.9 1126.98 673.44 1125.98 672.9 1125.02 C 672.33 1124.01 671.68 1123.05 670.95 1122.15 C 669.56 1120.43 668.03 1118.83 666.38 1117.38 C 664.42 1115.66 662.29 1114.14 660.03 1112.85 C 657.36 1114.43 654.88 1116.29 652.62 1118.41 C 651.09 1119.85 649.74 1121.49 648.62 1123.27 C 648.09 1124.11 647.62 1124.99 647.2 1125.89 C 646.81 1126.76 646.48 1127.65 646.21 1128.57 C 645.95 1129.47 645.75 1130.4 645.62 1131.33 C 645.49 1132.29 645.42 1133.25 645.42 1134.22 C 645.42 1135.35 645.51 1136.47 645.7 1137.59 C 645.87 1138.56 646.13 1139.51 646.48 1140.44 C 646.8 1141.28 647.21 1142.09 647.7 1142.86 C 648.18 1143.61 648.74 1144.31 649.36 1144.95 C 649.98 1145.59 650.67 1146.16 651.42 1146.66 C 652.18 1147.16 652.99 1147.58 653.84 1147.91 C 654.78 1148.28 655.75 1148.55 656.74 1148.72 C 657.89 1148.92 659.05 1149.02 660.22 1149.02 Z  M 661.09 1051.25 C 662.52 1051.25 663.94 1051.38 665.35 1051.64 C 666.52 1051.86 667.66 1052.2 668.74 1052.68 C 669.71 1053.11 670.62 1053.64 671.47 1054.28 C 672.29 1054.9 673.04 1055.63 673.68 1056.43 C 674.32 1057.21 674.86 1058.06 675.31 1058.97 C 675.81 1059.99 676.22 1061.05 676.53 1062.15 C 676.84 1063.25 677.06 1064.37 677.19 1065.5 C 677.36 1066.89 677.45 1068.29 677.45 1069.69 C 677.45 1072.17 677.18 1074.65 676.65 1077.07 C 676.17 1079.25 675.43 1081.36 674.44 1083.36 C 673.46 1085.33 672.24 1087.18 670.81 1088.86 C 668.99 1090.99 666.91 1092.88 664.61 1094.47 C 662.48 1093.55 660.42 1092.48 658.44 1091.28 C 657.03 1090.43 655.69 1089.48 654.41 1088.45 C 653.29 1087.55 652.23 1086.57 651.25 1085.52 C 650.35 1084.57 649.52 1083.54 648.77 1082.46 C 648.06 1081.43 647.42 1080.34 646.87 1079.21 C 646.33 1078.1 645.87 1076.94 645.51 1075.76 C 645.13 1074.54 644.86 1073.29 644.67 1072.03 C 644.48 1070.68 644.38 1069.32 644.38 1067.96 C 644.38 1066.56 644.49 1065.17 644.7 1063.79 C 644.87 1062.68 645.15 1061.58 645.53 1060.53 C 645.92 1059.47 646.44 1058.46 647.07 1057.52 C 647.65 1056.65 648.35 1055.87 649.15 1055.19 C 649.88 1054.57 650.67 1054.01 651.51 1053.54 C 652.37 1053.05 653.28 1052.64 654.21 1052.32 C 655.24 1051.96 656.3 1051.7 657.37 1051.54 C 658.6 1051.35 659.84 1051.25 661.09 1051.25 Z  M 661.09 1055.25 C 662.27 1055.25 663.46 1055.36 664.63 1055.58 C 665.49 1055.73 666.33 1055.99 667.14 1056.34 C 667.82 1056.64 668.46 1057.02 669.05 1057.47 C 669.62 1057.9 670.13 1058.39 670.57 1058.94 C 671.02 1059.5 671.41 1060.1 671.72 1060.74 C 672.12 1061.54 672.44 1062.37 672.68 1063.23 C 672.93 1064.13 673.11 1065.05 673.22 1065.98 C 673.37 1067.21 673.45 1068.45 673.45 1069.69 C 673.45 1071.88 673.21 1074.07 672.74 1076.22 C 672.33 1078.08 671.7 1079.88 670.85 1081.58 C 670.02 1083.26 668.98 1084.83 667.76 1086.26 C 666.66 1087.56 665.44 1088.76 664.12 1089.84 C 662.89 1089.23 661.68 1088.57 660.51 1087.86 C 659.26 1087.1 658.06 1086.26 656.92 1085.34 C 655.95 1084.55 655.02 1083.69 654.16 1082.78 C 653.4 1081.97 652.69 1081.1 652.06 1080.19 C 651.46 1079.32 650.93 1078.41 650.47 1077.46 C 650.02 1076.53 649.64 1075.57 649.33 1074.58 C 649.02 1073.56 648.78 1072.52 648.63 1071.46 C 648.47 1070.3 648.38 1069.13 648.38 1067.96 C 648.38 1066.76 648.47 1065.57 648.65 1064.39 C 648.78 1063.54 649 1062.71 649.29 1061.9 C 649.57 1061.14 649.93 1060.42 650.38 1059.76 C 650.77 1059.19 651.22 1058.68 651.74 1058.24 C 652.28 1057.78 652.86 1057.37 653.48 1057.02 C 654.13 1056.65 654.81 1056.34 655.52 1056.1 C 656.32 1055.82 657.14 1055.62 657.98 1055.49 C 659.01 1055.33 660.05 1055.25 661.09 1055.25 Z " fill-rule="evenodd" fill="rgb(0,0,0)"/><path d=" M 432.36 619.86 C 437.97 616.75 443.33 613.22 448.39 609.29 C 451.53 606.84 454.53 604.24 457.39 601.47 C 460.16 598.79 462.79 595.96 465.25 593 C 467.7 590.05 469.99 586.98 472.11 583.79 C 474.19 580.64 476.05 577.34 477.65 573.92 C 479.22 570.58 480.54 567.12 481.59 563.57 C 482.67 559.94 483.48 556.23 484.01 552.47 C 484.58 548.43 484.86 544.35 484.86 540.27 C 484.86 536.36 484.6 532.45 484.08 528.57 C 483.61 525.05 482.89 521.57 481.91 518.16 C 480.99 514.93 479.83 511.76 478.44 508.69 C 477.07 505.64 475.47 502.7 473.67 499.89 C 471.82 497.01 469.78 494.26 467.56 491.66 C 465.39 489.11 463.06 486.72 460.56 484.5 C 458.03 482.24 455.34 480.16 452.52 478.28 C 449.53 476.27 446.41 474.47 443.18 472.88 C 440 471.3 436.73 469.91 433.38 468.72 C 430.05 467.53 426.66 466.53 423.21 465.74 C 419.68 464.92 416.1 464.31 412.5 463.91 C 408.7 463.49 404.87 463.28 401.05 463.28 C 396.75 463.28 392.45 463.54 388.18 464.05 C 384.22 464.52 380.3 465.25 376.43 466.23 C 372.72 467.17 369.07 468.34 365.51 469.75 C 361.98 471.15 358.54 472.77 355.21 474.61 C 351.84 476.47 348.6 478.56 345.51 480.86 C 342.51 483.09 339.67 485.52 337 488.15 C 334.31 490.8 331.79 493.64 329.49 496.63 C 327.06 499.79 324.83 503.11 322.84 506.56 C 320.91 509.89 319.21 513.34 317.75 516.91 C 316.26 520.54 315.02 524.26 314.03 528.06 C 312.98 532.08 312.2 536.16 311.7 540.27 C 311.14 544.8 310.86 549.36 310.86 553.92 C 310.86 558.21 311.13 562.5 311.66 566.76 C 312.13 570.54 312.86 574.27 313.85 577.94 C 314.76 581.34 315.9 584.66 317.28 587.9 C 318.59 591 320.13 594.01 321.88 596.89 C 323.62 599.74 325.53 602.47 327.63 605.07 C 329.9 607.89 332.35 610.56 334.95 613.08 C 337.86 615.89 340.93 618.51 344.16 620.94 C 349.83 625.21 355.83 629 362.12 632.29 C 355.56 635.51 349.29 639.26 343.35 643.52 C 339.65 646.18 336.11 649.05 332.74 652.13 C 329.5 655.1 326.43 658.25 323.56 661.58 C 320.72 664.87 318.07 668.34 315.64 671.95 C 313.26 675.49 311.14 679.21 309.32 683.08 C 307.49 686.95 305.96 690.96 304.74 695.07 C 303.46 699.4 302.5 703.81 301.88 708.28 C 301.2 713.22 300.85 718.19 300.85 723.18 C 300.85 728.02 301.18 732.85 301.84 737.65 C 302.41 741.81 303.3 745.92 304.51 749.95 C 305.61 753.63 307 757.23 308.66 760.7 C 310.26 764.03 312.13 767.23 314.24 770.26 C 316.47 773.46 318.91 776.51 321.54 779.39 C 324.09 782.17 326.82 784.77 329.73 787.17 C 332.64 789.59 335.73 791.8 338.95 793.8 C 342.32 795.89 345.83 797.76 349.45 799.38 C 353.07 801.01 356.76 802.44 360.53 803.67 C 364.28 804.9 368.09 805.93 371.95 806.75 C 375.89 807.59 379.88 808.21 383.88 808.62 C 388.07 809.05 392.28 809.27 396.5 809.27 C 401.17 809.27 405.84 809 410.49 808.46 C 414.85 807.96 419.17 807.19 423.43 806.16 C 427.56 805.16 431.62 803.91 435.59 802.41 C 439.56 800.92 443.44 799.18 447.19 797.21 C 450.99 795.23 454.64 792.99 458.14 790.51 C 461.51 788.13 464.71 785.51 467.72 782.69 C 470.74 779.85 473.56 776.81 476.16 773.58 C 478.88 770.21 481.37 766.66 483.62 762.96 C 485.79 759.39 487.71 755.67 489.35 751.83 C 491.03 747.9 492.44 743.86 493.55 739.74 C 494.74 735.36 495.63 730.9 496.2 726.4 C 496.83 721.41 497.15 716.38 497.15 711.35 C 497.15 705.98 496.77 700.62 496.02 695.31 C 495.39 690.85 494.39 686.44 493.04 682.15 C 491.83 678.32 490.31 674.6 488.48 671.02 C 486.77 667.65 484.76 664.45 482.49 661.44 C 481.31 659.88 480.1 658.36 478.84 656.88 C 477.48 655.28 476.08 653.71 474.63 652.18 C 473.55 651.04 472.45 649.91 471.32 648.8 C 470.13 647.63 468.92 646.48 467.68 645.34 C 463.59 641.59 459.32 638.05 454.87 634.74 C 447.65 629.36 440.13 624.39 432.36 619.86 Z  M 447.53 619.84 C 449.49 618.48 451.41 617.07 453.3 615.6 C 456.67 612.98 459.89 610.19 462.95 607.22 C 465.93 604.34 468.75 601.3 471.4 598.12 C 474.04 594.95 476.5 591.64 478.77 588.21 C 481.08 584.73 483.12 581.09 484.89 577.32 C 486.63 573.61 488.09 569.78 489.26 565.85 C 490.46 561.84 491.35 557.74 491.93 553.59 C 492.55 549.18 492.86 544.73 492.86 540.27 C 492.86 536 492.58 531.74 492.01 527.51 C 491.49 523.61 490.69 519.75 489.61 515.97 C 488.58 512.35 487.28 508.82 485.74 505.4 C 484.2 501.99 482.42 498.71 480.4 495.57 C 478.36 492.39 476.1 489.35 473.65 486.47 C 471.25 483.65 468.65 480.99 465.88 478.53 C 463.07 476.02 460.09 473.72 456.97 471.63 C 453.69 469.43 450.27 467.45 446.73 465.7 C 443.27 463.99 439.71 462.49 436.08 461.19 C 432.45 459.89 428.76 458.81 425.01 457.94 C 421.17 457.06 417.29 456.4 413.38 455.96 C 409.29 455.51 405.17 455.28 401.05 455.28 C 396.43 455.28 391.81 455.56 387.22 456.11 C 382.93 456.62 378.67 457.41 374.47 458.47 C 370.43 459.5 366.45 460.78 362.58 462.31 C 358.72 463.83 354.96 465.6 351.34 467.61 C 347.66 469.65 344.11 471.93 340.74 474.44 C 337.44 476.89 334.32 479.56 331.39 482.44 C 328.43 485.35 325.68 488.46 323.15 491.75 C 320.5 495.19 318.09 498.8 315.91 502.55 C 313.8 506.19 311.94 509.98 310.35 513.87 C 308.72 517.83 307.37 521.9 306.29 526.04 C 305.15 530.4 304.3 534.83 303.76 539.3 C 303.16 544.15 302.86 549.03 302.86 553.92 C 302.86 558.54 303.15 563.16 303.72 567.75 C 304.24 571.89 305.04 575.99 306.12 580.02 C 307.13 583.77 308.39 587.45 309.91 591.02 C 311.38 594.48 313.1 597.83 315.05 601.04 C 316.96 604.2 319.09 607.22 321.4 610.09 C 323.88 613.17 326.55 616.09 329.39 618.83 C 332.53 621.87 335.86 624.71 339.35 627.34 C 341.54 628.98 343.78 630.56 346.06 632.08 C 343.55 633.65 341.09 635.3 338.69 637.02 C 334.73 639.86 330.94 642.94 327.34 646.23 C 323.87 649.4 320.58 652.78 317.51 656.35 C 314.45 659.89 311.61 663.61 309 667.48 C 306.39 671.36 304.08 675.44 302.09 679.67 C 300.09 683.91 298.41 688.3 297.07 692.79 C 295.67 697.5 294.63 702.31 293.96 707.18 C 293.22 712.48 292.85 717.83 292.85 723.18 C 292.85 728.38 293.21 733.58 293.91 738.73 C 294.54 743.31 295.52 747.82 296.84 752.25 C 298.07 756.33 299.61 760.31 301.45 764.15 C 303.23 767.88 305.32 771.45 307.68 774.83 C 310.11 778.33 312.77 781.65 315.64 784.79 C 318.44 787.84 321.44 790.69 324.62 793.33 C 327.82 795.98 331.2 798.41 334.74 800.6 C 338.41 802.88 342.23 804.91 346.17 806.68 C 350.04 808.42 354 809.96 358.04 811.28 C 362.06 812.59 366.15 813.69 370.29 814.57 C 374.51 815.47 378.77 816.14 383.07 816.58 C 387.53 817.04 392.01 817.27 396.5 817.27 C 401.48 817.27 406.46 816.98 411.41 816.41 C 416.09 815.87 420.73 815.04 425.31 813.93 C 429.75 812.86 434.13 811.51 438.41 809.9 C 442.69 808.29 446.86 806.42 450.91 804.3 C 455.02 802.15 458.98 799.72 462.76 797.04 C 466.43 794.45 469.92 791.6 473.2 788.52 C 476.49 785.43 479.56 782.12 482.39 778.61 C 485.33 774.96 488.03 771.12 490.46 767.12 C 492.83 763.22 494.92 759.17 496.71 754.98 C 498.53 750.71 500.06 746.32 501.28 741.84 C 502.56 737.1 503.52 732.28 504.13 727.4 C 504.81 722.08 505.15 716.72 505.15 711.35 C 505.15 705.61 504.74 699.87 503.94 694.19 C 503.25 689.29 502.15 684.46 500.67 679.74 C 499.33 675.49 497.64 671.36 495.61 667.38 C 493.68 663.6 491.43 660 488.87 656.61 C 487.6 654.94 486.29 653.3 484.94 651.7 C 483.49 649.99 481.99 648.32 480.45 646.69 C 479.3 645.48 478.13 644.28 476.94 643.1 C 475.67 641.86 474.39 640.64 473.09 639.45 C 468.8 635.51 464.31 631.8 459.64 628.32 C 455.69 625.38 451.65 622.55 447.53 619.84 Z  M 401.05 508.97 C 404.05 508.97 407.04 509.22 410 509.73 C 412.52 510.16 414.98 510.85 417.36 511.78 C 419.51 512.63 421.57 513.7 423.5 514.97 C 425.39 516.22 427.13 517.66 428.71 519.28 C 430.29 520.9 431.7 522.68 432.91 524.58 C 434.15 526.53 435.19 528.59 436.01 530.73 C 436.91 533.08 437.58 535.51 437.99 537.99 C 438.48 540.85 438.72 543.74 438.72 546.64 C 438.72 549.18 438.54 551.72 438.17 554.23 C 437.82 556.68 437.29 559.11 436.58 561.48 C 435.86 563.89 434.97 566.24 433.91 568.51 C 432.79 570.9 431.52 573.2 430.08 575.41 C 429.43 576.41 428.76 577.39 428.05 578.35 C 427.31 579.35 426.55 580.33 425.76 581.29 C 425.13 582.04 424.5 582.78 423.85 583.5 C 423.17 584.26 422.47 585 421.77 585.72 C 419.29 588.26 416.65 590.63 413.87 592.83 C 409.95 595.94 405.83 598.79 401.54 601.37 C 398.35 599.52 395.26 597.5 392.3 595.31 C 390.02 593.63 387.81 591.86 385.69 589.99 C 383.56 588.11 381.5 586.15 379.54 584.09 C 377.54 582.01 375.63 579.84 373.82 577.59 C 371.95 575.27 370.27 572.8 368.8 570.2 C 367.41 567.75 366.23 565.19 365.29 562.53 C 364.36 559.9 363.65 557.19 363.19 554.43 C 362.71 551.56 362.47 548.65 362.47 545.73 C 362.47 542.83 362.73 539.94 363.26 537.09 C 363.73 534.62 364.46 532.2 365.45 529.89 C 366.36 527.74 367.52 525.71 368.89 523.82 C 370.26 521.92 371.84 520.17 373.6 518.62 C 375.35 517.08 377.23 515.7 379.23 514.51 C 381.24 513.32 383.35 512.32 385.54 511.52 C 387.88 510.68 390.29 510.05 392.74 509.65 C 395.49 509.2 398.27 508.97 401.05 508.97 Z  M 401.05 516.97 C 403.59 516.97 406.14 517.19 408.65 517.61 C 410.63 517.95 412.56 518.49 414.43 519.23 C 416.07 519.87 417.63 520.68 419.1 521.65 C 420.5 522.58 421.8 523.66 422.98 524.86 C 424.18 526.09 425.25 527.44 426.17 528.88 C 427.11 530.37 427.91 531.95 428.54 533.6 C 429.25 535.45 429.78 537.36 430.1 539.32 C 430.51 541.74 430.72 544.19 430.72 546.64 C 430.72 548.8 430.56 550.95 430.26 553.09 C 429.96 555.16 429.51 557.2 428.91 559.2 C 428.31 561.23 427.55 563.21 426.66 565.13 C 425.7 567.18 424.6 569.16 423.37 571.06 C 422.81 571.92 422.22 572.78 421.61 573.61 C 420.96 574.49 420.29 575.35 419.59 576.19 C 419.04 576.86 418.48 577.51 417.9 578.15 C 417.29 578.82 416.67 579.48 416.04 580.13 C 413.8 582.42 411.42 584.57 408.91 586.56 C 406.51 588.46 404.03 590.25 401.48 591.94 C 399.97 590.96 398.49 589.94 397.04 588.87 C 394.95 587.33 392.92 585.7 390.97 583.98 C 389.01 582.26 387.12 580.45 385.32 578.56 C 383.48 576.64 381.72 574.64 380.05 572.57 C 378.45 570.58 377.01 568.47 375.75 566.26 C 374.6 564.21 373.62 562.07 372.83 559.86 C 372.05 557.66 371.47 555.4 371.08 553.11 C 370.67 550.67 370.47 548.2 370.47 545.73 C 370.47 543.32 370.69 540.92 371.13 538.55 C 371.48 536.66 372.04 534.81 372.8 533.04 C 373.49 531.44 374.35 529.92 375.37 528.51 C 376.4 527.08 377.58 525.78 378.9 524.61 C 380.27 523.4 381.75 522.32 383.32 521.39 C 384.89 520.46 386.55 519.67 388.28 519.04 C 390.15 518.36 392.07 517.86 394.03 517.54 C 396.35 517.16 398.7 516.97 401.05 516.97 Z  M 398.77 755.58 C 401.57 755.58 404.37 755.37 407.14 754.94 C 409.41 754.59 411.65 754.04 413.82 753.28 C 415.76 752.61 417.62 751.77 419.4 750.76 C 421.09 749.81 422.68 748.69 424.16 747.43 C 424.88 746.82 425.56 746.16 426.2 745.45 C 426.85 744.72 427.45 743.95 428.01 743.15 C 428.6 742.28 429.13 741.38 429.6 740.45 C 430.13 739.4 430.6 738.32 431 737.21 C 431.8 735.02 432.38 732.75 432.73 730.44 C 433.21 727.28 433.45 724.1 433.45 720.91 C 433.45 717.71 433.21 714.51 432.75 711.35 C 432.32 708.45 431.67 705.59 430.79 702.8 C 429.94 700.09 428.88 697.46 427.62 694.92 C 426.33 692.33 424.84 689.84 423.16 687.47 C 421.45 685.06 419.57 682.79 417.53 680.65 C 415.23 678.26 412.78 676.01 410.18 673.94 C 407.18 671.54 404.02 669.34 400.73 667.35 C 397.45 665.37 394.08 663.54 390.63 661.87 C 388.97 663.2 387.35 664.6 385.8 666.05 C 383.83 667.89 381.98 669.85 380.25 671.91 C 378.6 673.86 377.07 675.91 375.67 678.04 C 374.31 680.12 373.07 682.28 371.96 684.51 C 370.85 686.75 369.87 689.06 369.04 691.43 C 368.17 693.88 367.44 696.39 366.87 698.93 C 366.25 701.65 365.79 704.39 365.5 707.16 C 365.17 710.22 365.01 713.28 365.01 716.36 C 365.01 719.72 365.21 723.09 365.62 726.43 C 365.94 728.97 366.45 731.48 367.15 733.94 C 367.8 736.22 368.66 738.42 369.71 740.54 C 370.58 742.27 371.62 743.9 372.84 745.4 C 373.47 746.19 374.15 746.93 374.88 747.63 C 375.59 748.32 376.34 748.96 377.13 749.56 C 377.94 750.17 378.78 750.73 379.66 751.23 C 380.59 751.77 381.55 752.25 382.53 752.68 C 384.72 753.62 387.01 754.31 389.35 754.73 C 392.46 755.3 395.61 755.58 398.77 755.58 Z  M 398.77 763.58 C 401.98 763.58 405.19 763.33 408.36 762.85 C 411.11 762.42 413.81 761.75 416.44 760.84 C 418.83 760.02 421.14 758.97 423.34 757.73 C 425.47 756.52 427.48 755.11 429.35 753.53 C 430.34 752.68 431.28 751.77 432.15 750.79 C 433.04 749.8 433.86 748.76 434.61 747.66 C 435.4 746.51 436.11 745.3 436.74 744.06 C 437.41 742.72 438.01 741.35 438.52 739.94 C 439.5 737.25 440.21 734.47 440.64 731.64 C 441.18 728.09 441.45 724.5 441.45 720.91 C 441.45 717.32 441.19 713.74 440.66 710.19 C 440.18 706.87 439.43 703.6 438.43 700.41 C 437.45 697.3 436.23 694.27 434.78 691.36 C 433.3 688.39 431.6 685.54 429.68 682.84 C 427.75 680.12 425.62 677.53 423.3 675.12 C 420.76 672.47 418.05 669.99 415.18 667.69 C 411.9 665.07 408.46 662.67 404.86 660.5 C 399.97 657.54 394.88 654.91 389.65 652.6 C 386.37 654.93 383.26 657.47 380.33 660.22 C 378.13 662.27 376.06 664.45 374.13 666.75 C 372.28 668.95 370.56 671.25 368.99 673.65 C 367.44 676 366.04 678.44 364.79 680.95 C 363.54 683.49 362.43 686.09 361.49 688.76 C 360.52 691.51 359.71 694.32 359.06 697.16 C 358.38 700.18 357.87 703.24 357.54 706.31 C 357.19 709.65 357.01 713 357.01 716.36 C 357.01 720.05 357.23 723.74 357.68 727.41 C 358.05 730.36 358.64 733.28 359.46 736.14 C 360.24 738.89 361.28 741.56 362.55 744.11 C 363.68 746.36 365.04 748.48 366.62 750.43 C 367.45 751.47 368.35 752.45 369.31 753.38 C 370.26 754.29 371.26 755.15 372.31 755.95 C 373.38 756.75 374.5 757.49 375.66 758.16 C 376.86 758.86 378.1 759.48 379.37 760.03 C 382.12 761.21 384.99 762.07 387.93 762.61 C 391.51 763.25 395.14 763.58 398.77 763.58 Z " fill-rule="evenodd" fill="rgb(0,0,0)"/></g></svg>