<?xml version="1.0" encoding="UTF-8" standalone="no"?><!-- Generator: Gravit.io --><svg xmlns="http://www.w3.org/2000/svg" xmlns:xlink="http://www.w3.org/1999/xlink" style="isolation:isolate" viewBox="0 0 800 1270" width="800pt" height="1270pt"><defs><clipPath id="_clipPath_kn0oMvvRHF3zRdjI3PL56LAXBlpeyI4a"><rect width="800" height="1270"/></clipPath></defs><g clip-path="url(#_clipPath_kn0oMvvRHF3zRdjI3PL56LAXBlpeyI4a)"><path d=" M 800 64 C 800 30.523 757.12 0 736 0 L 64 0 C 42.912 0 0 30.523 0 64 L 0 1206 C 0 1239.477 42.912 1270 64 1270 L 746 1270 C 767.12 1270 800 1239.477 800 1206 L 800 64 Z " fill-rule="evenodd" fill="rgb(0,0,0)"/><path d=" M 796 64 C 796 30.734 756.908 4 736 4 L 64 4 C 43.123 4 4 34.331 4 67.597 L 4 1206 C 4 1239.266 43.123 1266 64 1266 L 746 1266 C 766.908 1266 796 1239.266 796 1206 L 796 64 Z " fill-rule="evenodd" fill="rgb(255,255,255)"/><path d=" M 735 121.55 C 735 91.446 698.98 64 681.24 64 L 116.76 64 C 99.046 64 63 91.446 63 121.55 L 63 1148.45 C 63 1178.554 99.046 1206 116.76 1206 L 689.64 1206 C 707.38 1206 735 1178.554 735 1148.45 L 735 121.55 Z " fill-rule="evenodd" fill="rgb(255,222,22)"/><path d=" M 183.054 507.699 C 343.308 234.596 570.623 69.913 690.359 140.172 C 810.095 210.432 777.199 489.198 616.946 762.301 C 456.692 1035.404 229.377 1200.087 109.641 1129.828 C -10.095 1059.568 22.801 780.802 183.054 507.699 Z " fill="rgb(255,255,255)"/><defs><filter id="fI4x33JJicLvJlq76mNdOyuW1cVY7mkF" x="-200%" y="-200%" width="400%" height="400%" filterUnits="objectBoundingBox" color-interpolation-filters="sRGB"><feGaussianBlur xmlns="http://www.w3.org/2000/svg" in="SourceGraphic" stdDeviation="0"/><feOffset xmlns="http://www.w3.org/2000/svg" dx="8" dy="8" result="pf_100_offsetBlur"/><feFlood xmlns="http://www.w3.org/2000/svg" flood-color="#000000" flood-opacity="1"/><feComposite xmlns="http://www.w3.org/2000/svg" in2="pf_100_offsetBlur" operator="in" result="pf_100_dropShadow"/><feBlend xmlns="http://www.w3.org/2000/svg" in="SourceGraphic" in2="pf_100_dropShadow" mode="normal"/></filter></defs><g filter="url(#fI4x33JJicLvJlq76mNdOyuW1cVY7mkF)"><path d=" M 103.968 234.74 L 103.968 215.883 L 103.968 215.883 Q 108.466 210.001 118.846 197.891 L 118.846 197.891 L 118.846 197.891 Q 130.091 185.089 136.924 176.007 L 136.924 176.007 L 136.924 176.007 Q 143.758 166.924 148.515 156.977 L 148.515 156.977 L 148.515 156.977 Q 153.273 147.029 153.273 137.514 L 153.273 137.514 L 153.273 137.514 Q 153.273 132.151 149.899 127.567 L 149.899 127.567 L 149.899 127.567 Q 146.526 122.982 139.952 122.982 L 139.952 122.982 L 139.952 122.982 Q 133.378 122.982 128.361 129.297 L 128.361 129.297 L 128.361 129.297 Q 123.344 135.611 121.96 144.434 L 121.96 144.434 L 101.2 137.687 L 101.2 137.687 Q 102.93 128.345 108.12 120.301 L 108.12 120.301 L 108.12 120.301 Q 113.31 112.256 121.614 107.412 L 121.614 107.412 L 121.614 107.412 Q 129.918 102.568 140.471 102.568 L 140.471 102.568 L 140.471 102.568 Q 151.37 102.568 159.847 107.066 L 159.847 107.066 L 159.847 107.066 Q 168.324 111.564 173.081 119.609 L 173.081 119.609 L 173.081 119.609 Q 177.839 127.653 177.839 137.86 L 177.839 137.86 L 177.839 137.86 Q 177.839 156.544 165.037 175.228 L 165.037 175.228 L 165.037 175.228 Q 152.235 193.912 131.994 213.461 L 131.994 213.461 L 176.801 213.461 L 174.725 234.74 L 103.968 234.74 L 103.968 234.74 Z " fill="rgb(255,255,255)"/></g><defs><filter id="Ae9MXjlGPV1KduSoPNVuLRSwSJgikMK8" x="-200%" y="-200%" width="400%" height="400%" filterUnits="objectBoundingBox" color-interpolation-filters="sRGB"><feGaussianBlur xmlns="http://www.w3.org/2000/svg" in="SourceGraphic" stdDeviation="0"/><feOffset xmlns="http://www.w3.org/2000/svg" dx="-8" dy="-8" result="pf_100_offsetBlur"/><feFlood xmlns="http://www.w3.org/2000/svg" flood-color="#000000" flood-opacity="1"/><feComposite xmlns="http://www.w3.org/2000/svg" in2="pf_100_offsetBlur" operator="in" result="pf_100_dropShadow"/><feBlend xmlns="http://www.w3.org/2000/svg" in="SourceGraphic" in2="pf_100_dropShadow" mode="normal"/></filter></defs><g filter="url(#Ae9MXjlGPV1KduSoPNVuLRSwSJgikMK8)"><path d=" M 696.032 1035.26 L 696.032 1054.117 L 696.032 1054.117 Q 691.534 1059.999 681.154 1072.109 L 681.154 1072.109 L 681.154 1072.109 Q 669.909 1084.911 663.076 1093.994 L 663.076 1093.994 L 663.076 1093.994 Q 656.242 1103.076 651.485 1113.024 L 651.485 1113.024 L 651.485 1113.024 Q 646.727 1122.971 646.727 1132.486 L 646.727 1132.486 L 646.727 1132.486 Q 646.727 1137.849 650.101 1142.434 L 650.101 1142.434 L 650.101 1142.434 Q 653.474 1147.018 660.048 1147.018 L 660.048 1147.018 L 660.048 1147.018 Q 666.622 1147.018 671.639 1140.704 L 671.639 1140.704 L 671.639 1140.704 Q 676.656 1134.389 678.04 1125.566 L 678.04 1125.566 L 698.8 1132.313 L 698.8 1132.313 Q 697.07 1141.655 691.88 1149.7 L 691.88 1149.7 L 691.88 1149.7 Q 686.69 1157.744 678.386 1162.588 L 678.386 1162.588 L 678.386 1162.588 Q 670.082 1167.432 659.529 1167.432 L 659.529 1167.432 L 659.529 1167.432 Q 648.63 1167.432 640.153 1162.934 L 640.153 1162.934 L 640.153 1162.934 Q 631.676 1158.436 626.919 1150.392 L 626.919 1150.392 L 626.919 1150.392 Q 622.161 1142.347 622.161 1132.14 L 622.161 1132.14 L 622.161 1132.14 Q 622.161 1113.456 634.963 1094.772 L 634.963 1094.772 L 634.963 1094.772 Q 647.765 1076.088 668.006 1056.539 L 668.006 1056.539 L 623.199 1056.539 L 625.275 1035.26 L 696.032 1035.26 L 696.032 1035.26 Z " fill="rgb(255,255,255)"/></g><defs><filter id="oXToiLpPNBeDdGqqQJpp5vrOwacifnNw" x="-200%" y="-200%" width="400%" height="400%" filterUnits="objectBoundingBox" color-interpolation-filters="sRGB"><feGaussianBlur xmlns="http://www.w3.org/2000/svg" in="SourceGraphic" stdDeviation="0"/><feOffset xmlns="http://www.w3.org/2000/svg" dx="16" dy="16" result="pf_100_offsetBlur"/><feFlood xmlns="http://www.w3.org/2000/svg" flood-color="#000000" flood-opacity="1"/><feComposite xmlns="http://www.w3.org/2000/svg" in2="pf_100_offsetBlur" operator="in" result="pf_100_dropShadow"/><feBlend xmlns="http://www.w3.org/2000/svg" in="SourceGraphic" in2="pf_100_dropShadow" mode="normal"/></filter></defs><g filter="url(#oXToiLpPNBeDdGqqQJpp5vrOwacifnNw)"><path d=" M 306.862 807.9 L 306.862 758.305 L 306.862 758.305 Q 318.693 742.835 345.992 710.985 L 345.992 710.985 L 345.992 710.985 Q 375.568 677.315 393.54 653.428 L 393.54 653.428 L 393.54 653.428 Q 411.512 629.54 424.025 603.378 L 424.025 603.378 L 424.025 603.378 Q 436.537 577.215 436.537 552.19 L 436.537 552.19 L 436.537 552.19 Q 436.537 538.085 427.665 526.028 L 427.665 526.028 L 427.665 526.028 Q 418.792 513.97 401.502 513.97 L 401.502 513.97 L 401.502 513.97 Q 384.213 513.97 371.018 530.578 L 371.018 530.578 L 371.018 530.578 Q 357.823 547.185 354.183 570.39 L 354.183 570.39 L 299.583 552.645 L 299.583 552.645 Q 304.132 528.075 317.782 506.918 L 317.782 506.918 L 317.782 506.918 Q 331.433 485.76 353.273 473.02 L 353.273 473.02 L 353.273 473.02 Q 375.112 460.28 402.867 460.28 L 402.867 460.28 L 402.867 460.28 Q 431.532 460.28 453.828 472.11 L 453.828 472.11 L 453.828 472.11 Q 476.122 483.94 488.635 505.098 L 488.635 505.098 L 488.635 505.098 Q 501.148 526.255 501.148 553.1 L 501.148 553.1 L 501.148 553.1 Q 501.148 602.24 467.477 651.38 L 467.477 651.38 L 467.477 651.38 Q 433.808 700.52 380.573 751.935 L 380.573 751.935 L 498.417 751.935 L 492.958 807.9 L 306.862 807.9 L 306.862 807.9 Z " fill="rgb(255,222,22)"/></g><path d=" M 172.91 232.74 L 174.6 215.46 L 131.99 215.46 C 131.18 215.46 130.44 214.96 130.14 214.21 C 129.83 213.46 130.02 212.59 130.6 212.02 C 137.29 205.57 143.68 198.81 149.75 191.79 C 154.62 186.15 159.18 180.24 163.39 174.1 C 165.56 170.93 167.52 167.62 169.25 164.19 C 170.75 161.23 172.01 158.17 173.04 155.03 C 173.96 152.18 174.67 149.27 175.15 146.32 C 175.61 143.52 175.84 140.69 175.84 137.86 C 175.84 136.21 175.74 134.57 175.53 132.94 C 175.34 131.44 175.05 129.96 174.66 128.51 C 174.29 127.12 173.83 125.76 173.27 124.44 C 172.72 123.12 172.08 121.85 171.36 120.63 C 170.62 119.38 169.8 118.19 168.9 117.05 C 168.03 115.95 167.08 114.91 166.06 113.94 C 165.02 112.96 163.92 112.05 162.76 111.22 C 161.53 110.34 160.24 109.54 158.91 108.83 C 157.62 108.15 156.3 107.55 154.93 107.04 C 153.52 106.51 152.07 106.06 150.6 105.71 C 149.03 105.33 147.44 105.05 145.83 104.87 C 144.05 104.67 142.26 104.57 140.47 104.57 C 138.76 104.57 137.06 104.67 135.36 104.88 C 133.81 105.08 132.28 105.37 130.77 105.77 C 129.34 106.15 127.93 106.62 126.56 107.19 C 125.2 107.75 123.89 108.4 122.62 109.14 C 121.31 109.91 120.04 110.75 118.82 111.66 C 117.65 112.54 116.53 113.49 115.46 114.51 C 114.4 115.52 113.4 116.6 112.47 117.73 C 111.51 118.9 110.62 120.12 109.8 121.38 C 108.16 123.93 106.77 126.62 105.65 129.43 C 104.76 131.67 104.05 133.98 103.52 136.34 L 120.41 141.83 C 120.59 141.03 120.79 140.23 121.01 139.44 C 121.41 138.02 121.91 136.62 122.5 135.25 C 123.06 133.96 123.7 132.7 124.42 131.48 C 125.14 130.29 125.93 129.14 126.79 128.05 C 127.74 126.86 128.8 125.77 129.95 124.78 C 130.93 123.94 132 123.22 133.15 122.63 C 134.19 122.09 135.3 121.68 136.45 121.4 C 137.6 121.12 138.77 120.98 139.95 120.98 C 141.2 120.98 142.45 121.11 143.68 121.36 C 144.75 121.58 145.79 121.94 146.77 122.41 C 147.7 122.86 148.56 123.42 149.35 124.08 C 150.16 124.76 150.88 125.53 151.51 126.38 C 152.14 127.23 152.7 128.13 153.19 129.06 C 153.65 129.94 154.04 130.85 154.35 131.79 C 154.66 132.7 154.89 133.64 155.04 134.59 C 155.19 135.56 155.27 136.53 155.27 137.51 C 155.27 139.11 155.18 140.71 154.99 142.3 C 154.79 143.96 154.5 145.61 154.12 147.24 C 153.7 148.98 153.19 150.71 152.59 152.4 C 151.93 154.25 151.17 156.07 150.32 157.84 C 148.71 161.21 146.93 164.49 144.99 167.68 C 142.99 170.96 140.83 174.14 138.52 177.21 C 136.23 180.26 133.86 183.26 131.43 186.2 C 127.81 190.59 124.11 194.92 120.36 199.2 C 116.91 203.23 113.49 207.28 110.12 211.36 C 108.7 213.07 107.32 214.81 105.97 216.56 L 105.97 232.74 L 172.91 232.74 Z  M 156.34 103.3 C 154.77 102.7 153.17 102.21 151.54 101.82 C 149.81 101.4 148.05 101.09 146.28 100.9 C 144.35 100.68 142.41 100.57 140.47 100.57 C 138.6 100.57 136.73 100.68 134.87 100.91 C 133.14 101.13 131.43 101.46 129.75 101.9 C 128.14 102.33 126.56 102.86 125.03 103.49 C 123.51 104.12 122.03 104.85 120.61 105.68 C 119.16 106.53 117.76 107.45 116.42 108.46 C 115.12 109.44 113.88 110.49 112.7 111.62 C 111.52 112.74 110.42 113.93 109.38 115.19 C 108.32 116.47 107.34 117.82 106.44 119.22 C 104.66 121.97 103.15 124.9 101.94 127.95 C 100.73 130.98 99.83 134.12 99.23 137.32 C 99.14 137.8 99.23 138.29 99.48 138.71 C 99.73 139.13 100.12 139.44 100.58 139.59 L 121.34 146.34 C 121.9 146.52 122.51 146.44 123.01 146.14 C 123.5 145.83 123.84 145.32 123.94 144.74 C 124.16 143.32 124.47 141.92 124.86 140.53 C 125.21 139.27 125.65 138.04 126.17 136.84 C 126.66 135.7 127.22 134.6 127.86 133.53 C 128.48 132.49 129.17 131.49 129.93 130.54 C 130.71 129.55 131.59 128.64 132.55 127.81 C 133.29 127.18 134.11 126.63 134.97 126.18 C 135.74 125.79 136.55 125.49 137.39 125.29 C 138.23 125.08 139.09 124.98 139.95 124.98 C 140.93 124.98 141.91 125.08 142.87 125.28 C 143.62 125.43 144.34 125.68 145.03 126.01 C 145.66 126.31 146.24 126.69 146.78 127.14 C 147.34 127.62 147.85 128.16 148.29 128.75 C 148.8 129.44 149.25 130.17 149.65 130.92 C 150.01 131.61 150.31 132.32 150.56 133.05 C 150.79 133.76 150.97 134.49 151.09 135.22 C 151.21 135.98 151.27 136.75 151.27 137.51 C 151.27 138.96 151.19 140.4 151.02 141.83 C 150.84 143.34 150.57 144.84 150.22 146.32 C 149.85 147.92 149.38 149.5 148.82 151.05 C 148.21 152.77 147.5 154.46 146.71 156.11 C 145.16 159.36 143.44 162.52 141.57 165.59 C 139.64 168.76 137.56 171.84 135.33 174.8 C 133.07 177.81 130.74 180.76 128.35 183.65 C 124.74 188.02 121.07 192.33 117.33 196.58 C 113.87 200.63 110.43 204.71 107.03 208.82 C 105.45 210.74 103.89 212.69 102.38 214.67 C 102.11 215.02 101.97 215.44 101.97 215.88 L 101.97 236.74 L 176.54 236.74 L 179.01 211.46 L 136.89 211.46 C 142.39 205.97 147.7 200.28 152.78 194.4 C 157.75 188.65 162.39 182.63 166.69 176.36 C 168.96 173.04 171.01 169.58 172.82 165.99 C 174.41 162.86 175.75 159.61 176.84 156.27 C 177.83 153.23 178.59 150.12 179.1 146.96 C 179.59 143.95 179.84 140.91 179.84 137.86 C 179.84 136.05 179.72 134.24 179.5 132.44 C 179.29 130.76 178.96 129.11 178.53 127.48 C 178.11 125.91 177.59 124.38 176.96 122.89 C 176.34 121.41 175.62 119.97 174.8 118.59 C 173.97 117.19 173.05 115.84 172.04 114.57 C 171.05 113.32 169.97 112.14 168.82 111.04 C 167.65 109.93 166.4 108.9 165.09 107.96 C 163.71 106.98 162.28 106.09 160.78 105.3 C 159.35 104.54 157.86 103.87 156.34 103.3 Z " fill-rule="evenodd" fill="rgb(0,0,0)"/><path d=" M 698.03 1033.26 L 698.03 1054.12 C 698.03 1054.56 697.89 1054.98 697.62 1055.33 C 696.11 1057.31 694.55 1059.26 692.97 1061.18 C 689.57 1065.29 686.13 1069.37 682.67 1073.42 C 678.93 1077.67 675.26 1081.98 671.65 1086.35 C 669.26 1089.24 666.93 1092.19 664.67 1095.2 C 662.44 1098.16 660.36 1101.24 658.43 1104.41 C 656.56 1107.48 654.84 1110.64 653.29 1113.89 C 652.5 1115.54 651.79 1117.23 651.18 1118.95 C 650.62 1120.5 650.15 1122.08 649.78 1123.68 C 649.43 1125.16 649.16 1126.66 648.98 1128.17 C 648.81 1129.6 648.73 1131.04 648.73 1132.49 C 648.73 1133.25 648.79 1134.02 648.91 1134.78 C 649.03 1135.51 649.21 1136.24 649.44 1136.95 C 649.69 1137.68 649.99 1138.39 650.35 1139.08 C 650.75 1139.83 651.2 1140.56 651.71 1141.25 C 652.15 1141.84 652.66 1142.38 653.22 1142.86 C 653.76 1143.31 654.34 1143.69 654.97 1143.99 C 655.66 1144.32 656.38 1144.57 657.13 1144.72 C 658.09 1144.92 659.07 1145.02 660.05 1145.02 C 660.91 1145.02 661.77 1144.92 662.61 1144.71 C 663.45 1144.51 664.26 1144.21 665.03 1143.82 C 665.89 1143.37 666.71 1142.82 667.45 1142.19 C 668.41 1141.36 669.29 1140.45 670.07 1139.46 C 670.83 1138.51 671.52 1137.51 672.14 1136.47 C 672.78 1135.4 673.34 1134.3 673.83 1133.16 C 674.35 1131.96 674.79 1130.73 675.14 1129.47 C 675.53 1128.08 675.84 1126.68 676.06 1125.26 C 676.16 1124.68 676.5 1124.17 676.99 1123.86 C 677.49 1123.56 678.1 1123.48 678.66 1123.66 L 699.42 1130.41 C 699.88 1130.56 700.27 1130.87 700.52 1131.29 C 700.77 1131.71 700.86 1132.2 700.77 1132.68 C 700.17 1135.88 699.27 1139.02 698.06 1142.05 C 696.85 1145.1 695.34 1148.03 693.56 1150.78 C 692.66 1152.18 691.68 1153.53 690.62 1154.81 C 689.58 1156.07 688.48 1157.26 687.3 1158.38 C 686.12 1159.51 684.88 1160.56 683.58 1161.54 C 682.24 1162.55 680.84 1163.47 679.39 1164.32 C 677.97 1165.15 676.49 1165.88 674.97 1166.51 C 673.44 1167.14 671.86 1167.67 670.25 1168.1 C 668.57 1168.54 666.86 1168.87 665.13 1169.09 C 663.27 1169.32 661.4 1169.43 659.53 1169.43 C 657.59 1169.43 655.65 1169.32 653.72 1169.1 C 651.95 1168.91 650.19 1168.6 648.46 1168.18 C 646.83 1167.79 645.23 1167.3 643.66 1166.7 C 642.14 1166.13 640.65 1165.46 639.22 1164.7 C 637.72 1163.91 636.29 1163.02 634.91 1162.04 C 633.6 1161.1 632.35 1160.07 631.18 1158.96 C 630.03 1157.86 628.95 1156.68 627.96 1155.43 C 626.95 1154.16 626.03 1152.81 625.2 1151.41 C 624.38 1150.03 623.66 1148.59 623.04 1147.11 C 622.41 1145.62 621.89 1144.09 621.47 1142.52 C 621.04 1140.89 620.71 1139.24 620.5 1137.56 C 620.28 1135.76 620.16 1133.95 620.16 1132.14 C 620.16 1129.09 620.41 1126.05 620.9 1123.04 C 621.41 1119.88 622.17 1116.77 623.16 1113.73 C 624.25 1110.39 625.59 1107.14 627.18 1104.01 C 628.99 1100.42 631.04 1096.96 633.31 1093.64 C 634.3 1092.2 635.31 1090.78 636.33 1089.36 C 637.41 1087.88 638.51 1086.41 639.63 1084.96 C 643.38 1080.07 647.33 1075.33 651.46 1070.76 C 655.24 1066.59 659.12 1062.51 663.11 1058.54 L 620.99 1058.54 L 623.46 1033.26 L 698.03 1033.26 Z  M 694.03 1037.26 L 694.03 1053.44 C 692.68 1055.19 691.3 1056.93 689.88 1058.64 C 686.51 1062.72 683.09 1066.77 679.64 1070.8 C 675.89 1075.08 672.19 1079.41 668.57 1083.8 C 666.14 1086.74 663.77 1089.74 661.48 1092.79 C 659.17 1095.86 657.01 1099.04 655.01 1102.32 C 653.07 1105.51 651.29 1108.79 649.68 1112.16 C 648.83 1113.93 648.07 1115.75 647.41 1117.6 C 646.81 1119.29 646.3 1121.02 645.88 1122.76 C 645.5 1124.39 645.21 1126.04 645.01 1127.7 C 644.82 1129.29 644.73 1130.89 644.73 1132.49 C 644.73 1133.47 644.81 1134.44 644.96 1135.41 C 645.11 1136.36 645.34 1137.3 645.65 1138.21 C 645.96 1139.15 646.35 1140.06 646.81 1140.94 C 647.3 1141.87 647.86 1142.77 648.49 1143.62 C 649.12 1144.47 649.84 1145.24 650.65 1145.92 C 651.44 1146.58 652.3 1147.14 653.23 1147.59 C 654.21 1148.06 655.25 1148.42 656.32 1148.64 C 657.55 1148.89 658.8 1149.02 660.05 1149.02 C 661.23 1149.02 662.4 1148.88 663.55 1148.6 C 664.7 1148.32 665.81 1147.91 666.85 1147.37 C 668 1146.78 669.07 1146.06 670.05 1145.22 C 671.2 1144.23 672.26 1143.14 673.21 1141.95 C 674.07 1140.86 674.86 1139.71 675.58 1138.52 C 676.3 1137.3 676.94 1136.04 677.5 1134.75 C 678.09 1133.38 678.59 1131.98 678.99 1130.56 C 679.21 1129.77 679.41 1128.97 679.59 1128.17 L 696.48 1133.66 C 695.95 1136.02 695.24 1138.33 694.35 1140.57 C 693.23 1143.38 691.84 1146.07 690.2 1148.62 C 689.38 1149.88 688.49 1151.1 687.53 1152.27 C 686.6 1153.4 685.6 1154.48 684.54 1155.49 C 683.47 1156.51 682.35 1157.46 681.18 1158.34 C 679.96 1159.25 678.69 1160.09 677.38 1160.86 C 676.11 1161.6 674.8 1162.25 673.44 1162.81 C 672.07 1163.38 670.66 1163.85 669.23 1164.23 C 667.72 1164.63 666.19 1164.92 664.64 1165.12 C 662.94 1165.33 661.24 1165.43 659.53 1165.43 C 657.74 1165.43 655.95 1165.33 654.17 1165.13 C 652.56 1164.95 650.97 1164.67 649.4 1164.29 C 647.93 1163.94 646.48 1163.49 645.07 1162.96 C 643.7 1162.45 642.38 1161.85 641.09 1161.17 C 639.76 1160.46 638.47 1159.66 637.24 1158.78 C 636.08 1157.95 634.98 1157.04 633.94 1156.06 C 632.92 1155.09 631.97 1154.05 631.1 1152.95 C 630.2 1151.81 629.38 1150.62 628.64 1149.37 C 627.92 1148.15 627.28 1146.88 626.73 1145.56 C 626.17 1144.24 625.71 1142.88 625.34 1141.49 C 624.95 1140.04 624.66 1138.56 624.47 1137.06 C 624.26 1135.43 624.16 1133.79 624.16 1132.14 C 624.16 1129.31 624.39 1126.48 624.85 1123.68 C 625.33 1120.73 626.04 1117.82 626.96 1114.97 C 627.99 1111.83 629.25 1108.77 630.75 1105.81 C 632.48 1102.38 634.44 1099.07 636.61 1095.9 C 637.58 1094.49 638.56 1093.1 639.57 1091.71 C 640.63 1090.26 641.7 1088.82 642.8 1087.39 C 646.49 1082.59 650.37 1077.94 654.43 1073.45 C 659.24 1068.12 664.23 1062.96 669.4 1057.98 C 669.98 1057.41 670.17 1056.54 669.86 1055.79 C 669.56 1055.04 668.82 1054.54 668.01 1054.54 L 625.4 1054.54 L 627.09 1037.26 L 694.03 1037.26 Z " fill-rule="evenodd" fill="rgb(0,0,0)"/><path d=" M 489.33 803.9 L 494.01 755.93 L 380.57 755.93 C 378.95 755.93 377.47 754.94 376.86 753.43 C 376.25 751.92 376.62 750.19 377.79 749.06 C 395.4 732.05 412.23 714.27 428.23 695.75 C 441.08 680.89 453.08 665.32 464.18 649.12 C 469.92 640.73 475.1 631.98 479.69 622.91 C 483.65 615.09 487 606.97 489.72 598.64 C 490.97 594.8 492.08 590.91 493.03 586.98 C 493.95 583.21 494.72 579.4 495.34 575.56 C 495.94 571.82 496.39 568.06 496.7 564.29 C 497 560.57 497.15 556.83 497.15 553.1 C 497.15 548.72 496.87 544.34 496.33 539.99 C 495.82 536.01 495.05 532.06 494.02 528.18 C 493.03 524.48 491.79 520.85 490.3 517.31 C 488.83 513.8 487.13 510.4 485.19 507.13 C 483.23 503.81 481.03 500.62 478.63 497.59 C 476.3 494.65 473.76 491.87 471.03 489.28 C 468.27 486.65 465.33 484.22 462.23 482 C 458.95 479.66 455.52 477.53 451.95 475.64 C 448.52 473.82 444.98 472.23 441.35 470.86 C 437.58 469.44 433.73 468.26 429.81 467.32 C 425.63 466.31 421.39 465.56 417.11 465.08 C 412.38 464.55 407.63 464.28 402.87 464.28 C 398.32 464.28 393.78 464.56 389.27 465.12 C 385.15 465.63 381.06 466.42 377.03 467.48 C 373.21 468.49 369.45 469.76 365.79 471.27 C 362.17 472.77 358.67 474.5 355.29 476.48 C 351.79 478.51 348.42 480.75 345.18 483.18 C 342.05 485.53 339.06 488.07 336.22 490.77 C 333.4 493.47 330.74 496.34 328.25 499.36 C 325.7 502.46 323.32 505.71 321.14 509.09 C 318.94 512.5 316.9 516.02 315.04 519.63 C 313.22 523.15 311.57 526.76 310.11 530.45 C 308.65 534.12 307.37 537.86 306.28 541.66 C 305.49 544.39 304.8 547.16 304.2 549.94 L 351.06 565.17 C 351.58 562.63 352.19 560.1 352.9 557.6 C 353.94 553.9 355.23 550.28 356.75 546.75 C 358.2 543.38 359.87 540.12 361.75 536.97 C 363.59 533.88 365.64 530.91 367.89 528.09 C 370.32 525.02 373.05 522.19 376.02 519.64 C 378.52 517.5 381.25 515.66 384.18 514.16 C 385.53 513.46 386.91 512.85 388.33 512.32 C 389.72 511.8 391.14 511.37 392.58 511.02 C 394.02 510.67 395.48 510.41 396.96 510.24 C 398.47 510.06 399.98 509.97 401.5 509.97 C 404.71 509.97 407.92 510.3 411.06 510.95 C 413.77 511.51 416.4 512.4 418.89 513.6 C 420.06 514.17 421.19 514.8 422.29 515.51 C 423.37 516.2 424.41 516.97 425.41 517.8 C 426.42 518.64 427.37 519.54 428.27 520.51 C 429.2 521.5 430.08 522.56 430.89 523.66 C 432.49 525.84 433.94 528.14 435.2 530.54 C 436.38 532.79 437.38 535.12 438.18 537.52 C 438.96 539.86 439.55 542.26 439.94 544.7 C 440.34 547.17 440.54 549.68 440.54 552.19 C 440.54 556.35 440.29 560.5 439.8 564.63 C 439.28 568.95 438.53 573.24 437.53 577.47 C 436.46 582.02 435.13 586.51 433.55 590.91 C 431.82 595.74 429.85 600.48 427.63 605.1 C 423.42 613.92 418.76 622.52 413.68 630.86 C 408.44 639.46 402.79 647.79 396.74 655.83 C 395.19 657.89 393.63 659.93 392.06 661.96 C 390.29 664.25 388.5 666.53 386.7 668.79 C 381.49 675.37 376.18 681.86 370.78 688.29 C 363.61 696.8 356.36 705.24 349.01 713.61 C 345.26 717.98 341.53 722.37 337.8 726.76 C 334.91 730.19 332.02 733.62 329.15 737.07 C 325.07 741.96 321.03 746.88 317.03 751.83 C 314.95 754.42 312.89 757.03 310.86 759.66 L 310.86 803.9 L 489.33 803.9 Z  M 496.59 811.9 L 502.83 747.93 L 390.39 747.93 C 405.63 732.86 420.27 717.2 434.29 700.98 C 447.32 685.89 459.51 670.09 470.78 653.64 C 476.72 644.97 482.08 635.9 486.83 626.52 C 490.97 618.33 494.48 609.84 497.32 601.12 C 498.64 597.09 499.8 593 500.81 588.87 C 501.77 584.89 502.59 580.88 503.24 576.83 C 503.87 572.89 504.35 568.92 504.67 564.93 C 504.99 561 505.15 557.05 505.15 553.1 C 505.15 548.38 504.85 543.67 504.26 538.99 C 503.72 534.65 502.87 530.35 501.74 526.12 C 500.66 522.06 499.3 518.09 497.68 514.22 C 496.07 510.37 494.2 506.65 492.08 503.06 C 489.93 499.42 487.53 495.93 484.9 492.62 C 482.33 489.38 479.54 486.33 476.55 483.48 C 473.52 480.6 470.29 477.93 466.88 475.5 C 463.31 472.94 459.58 470.63 455.7 468.58 C 451.97 466.6 448.12 464.86 444.17 463.37 C 440.09 461.84 435.92 460.56 431.68 459.54 C 427.18 458.46 422.61 457.65 418.01 457.13 C 412.98 456.56 407.93 456.28 402.87 456.28 C 397.99 456.28 393.12 456.58 388.29 457.18 C 383.8 457.74 379.36 458.6 375 459.75 C 370.82 460.85 366.72 462.23 362.73 463.88 C 358.78 465.51 354.95 467.41 351.26 469.56 C 347.5 471.76 343.86 474.17 340.38 476.78 C 336.99 479.32 333.76 482.06 330.7 484.99 C 327.64 487.91 324.76 491.01 322.08 494.27 C 319.32 497.61 316.77 501.11 314.42 504.75 C 312.08 508.38 309.91 512.12 307.93 515.96 C 305.99 519.72 304.24 523.56 302.67 527.49 C 301.12 531.41 299.75 535.4 298.59 539.45 C 297.41 543.55 296.43 547.71 295.65 551.92 C 295.47 552.87 295.65 553.86 296.14 554.69 C 296.64 555.52 297.42 556.15 298.35 556.45 L 352.95 574.19 C 354.06 574.56 355.28 574.41 356.27 573.8 C 357.27 573.19 357.95 572.17 358.13 571.01 C 358.73 567.22 359.55 563.47 360.59 559.78 C 361.55 556.42 362.72 553.12 364.1 549.91 C 365.41 546.87 366.92 543.92 368.62 541.07 C 370.28 538.28 372.13 535.61 374.15 533.07 C 376.27 530.4 378.64 527.93 381.23 525.71 C 383.25 523.98 385.47 522.49 387.84 521.27 C 388.91 520.72 390.01 520.24 391.13 519.81 C 392.22 519.41 393.33 519.07 394.46 518.79 C 395.59 518.52 396.74 518.32 397.89 518.18 C 399.09 518.04 400.3 517.97 401.5 517.97 C 404.17 517.97 406.83 518.24 409.44 518.78 C 411.51 519.21 413.51 519.89 415.41 520.8 C 416.29 521.23 417.14 521.7 417.96 522.23 C 418.76 522.75 419.54 523.32 420.28 523.94 C 421.04 524.57 421.75 525.25 422.43 525.97 C 423.14 526.74 423.82 527.55 424.44 528.4 C 425.81 530.26 427.04 532.22 428.12 534.27 C 429.1 536.13 429.93 538.07 430.59 540.06 C 431.23 541.98 431.72 543.96 432.04 545.97 C 432.37 548.02 432.54 550.11 432.54 552.19 C 432.54 556.03 432.31 559.87 431.86 563.69 C 431.38 567.71 430.67 571.7 429.74 575.64 C 428.74 579.9 427.5 584.09 426.02 588.21 C 424.38 592.78 422.51 597.27 420.42 601.65 C 416.32 610.22 411.79 618.58 406.84 626.7 C 401.74 635.07 396.24 643.19 390.34 651.02 C 388.82 653.05 387.28 655.06 385.73 657.07 C 383.98 659.33 382.22 661.58 380.44 663.82 C 375.27 670.33 370.01 676.77 364.66 683.14 C 357.52 691.62 350.29 700.03 342.97 708.36 C 339.2 712.76 335.44 717.17 331.7 721.59 C 328.79 725.03 325.89 728.48 323 731.95 C 318.9 736.87 314.83 741.82 310.81 746.81 C 308.4 749.8 306.02 752.82 303.69 755.88 C 303.15 756.57 302.86 757.43 302.86 758.3 L 302.86 811.9 L 496.59 811.9 Z " fill-rule="evenodd" fill="rgb(0,0,0)"/></g></svg>