<?xml version="1.0" encoding="UTF-8" standalone="no"?><!-- Generator: Gravit.io --><svg xmlns="http://www.w3.org/2000/svg" xmlns:xlink="http://www.w3.org/1999/xlink" style="isolation:isolate" viewBox="0 0 800 1270" width="800pt" height="1270pt"><defs><clipPath id="_clipPath_gQRckAG5kbeC0pw2pOPkY2RBGjfHxlAU"><rect width="800" height="1270"/></clipPath></defs><g clip-path="url(#_clipPath_gQRckAG5kbeC0pw2pOPkY2RBGjfHxlAU)"><path d=" M 800 64 C 800 30.523 757.12 0 736 0 L 64 0 C 42.912 0 0 30.523 0 64 L 0 1206 C 0 1239.477 42.912 1270 64 1270 L 746 1270 C 767.12 1270 800 1239.477 800 1206 L 800 64 Z " fill-rule="evenodd" fill="rgb(0,0,0)"/><path d=" M 796 64 C 796 30.734 756.908 4 736 4 L 64 4 C 43.123 4 4 34.331 4 67.597 L 4 1206 C 4 1239.266 43.123 1266 64 1266 L 746 1266 C 766.908 1266 796 1239.266 796 1206 L 796 64 Z " fill-rule="evenodd" fill="rgb(255,255,255)"/><path d=" M 735 121.55 C 735 91.446 698.98 64 681.24 64 L 116.76 64 C 99.046 64 63 91.446 63 121.55 L 63 1148.45 C 63 1178.554 99.046 1206 116.76 1206 L 689.64 1206 C 707.38 1206 735 1178.554 735 1148.45 L 735 121.55 Z " fill-rule="evenodd" fill="rgb(255,222,22)"/><path d=" M 183.054 507.699 C 343.308 234.596 570.623 69.913 690.359 140.172 C 810.095 210.432 777.199 489.198 616.946 762.301 C 456.692 1035.404 229.377 1200.087 109.641 1129.828 C -10.095 1059.568 22.801 780.802 183.054 507.699 Z " fill="rgb(255,255,255)"/><defs><filter id="JH5c3PyLJoQ5Odd2kupCG8oe3f7nnjd8" x="-200%" y="-200%" width="400%" height="400%" filterUnits="objectBoundingBox" color-interpolation-filters="sRGB"><feGaussianBlur xmlns="http://www.w3.org/2000/svg" in="SourceGraphic" stdDeviation="0"/><feOffset xmlns="http://www.w3.org/2000/svg" dx="8" dy="8" result="pf_100_offsetBlur"/><feFlood xmlns="http://www.w3.org/2000/svg" flood-color="#000000" flood-opacity="1"/><feComposite xmlns="http://www.w3.org/2000/svg" in2="pf_100_offsetBlur" operator="in" result="pf_100_dropShadow"/><feBlend xmlns="http://www.w3.org/2000/svg" in="SourceGraphic" in2="pf_100_dropShadow" mode="normal"/></filter></defs><g filter="url(#JH5c3PyLJoQ5Odd2kupCG8oe3f7nnjd8)"><path d=" M 169.794 234.74 L 113.05 234.74 L 113.05 213.461 L 129.658 213.461 L 129.658 136.649 L 111.839 140.455 L 111.839 122.29 L 141.422 104.99 L 153.878 104.99 L 153.878 213.461 L 170.832 213.461 L 169.794 234.74 L 169.794 234.74 Z " fill="rgb(255,255,255)"/></g><defs><filter id="dbvZ4nSEkRLUYhbBJ1HQRpQQkrtPfy4s" x="-200%" y="-200%" width="400%" height="400%" filterUnits="objectBoundingBox" color-interpolation-filters="sRGB"><feGaussianBlur xmlns="http://www.w3.org/2000/svg" in="SourceGraphic" stdDeviation="0"/><feOffset xmlns="http://www.w3.org/2000/svg" dx="-8" dy="-8" result="pf_100_offsetBlur"/><feFlood xmlns="http://www.w3.org/2000/svg" flood-color="#000000" flood-opacity="1"/><feComposite xmlns="http://www.w3.org/2000/svg" in2="pf_100_offsetBlur" operator="in" result="pf_100_dropShadow"/><feBlend xmlns="http://www.w3.org/2000/svg" in="SourceGraphic" in2="pf_100_dropShadow" mode="normal"/></filter></defs><g filter="url(#dbvZ4nSEkRLUYhbBJ1HQRpQQkrtPfy4s)"><path d=" M 630.206 1035.26 L 686.95 1035.26 L 686.95 1056.539 L 670.342 1056.539 L 670.342 1133.351 L 688.161 1129.545 L 688.161 1147.71 L 658.578 1165.01 L 646.122 1165.01 L 646.122 1056.539 L 629.168 1056.539 L 630.206 1035.26 L 630.206 1035.26 Z " fill="rgb(255,255,255)"/></g><defs><filter id="rp7Gl0uytAdkocDl8JMYbzQqVtXLezvE" x="-200%" y="-200%" width="400%" height="400%" filterUnits="objectBoundingBox" color-interpolation-filters="sRGB"><feGaussianBlur xmlns="http://www.w3.org/2000/svg" in="SourceGraphic" stdDeviation="0"/><feOffset xmlns="http://www.w3.org/2000/svg" dx="16" dy="16" result="pf_100_offsetBlur"/><feFlood xmlns="http://www.w3.org/2000/svg" flood-color="#000000" flood-opacity="1"/><feComposite xmlns="http://www.w3.org/2000/svg" in2="pf_100_offsetBlur" operator="in" result="pf_100_dropShadow"/><feBlend xmlns="http://www.w3.org/2000/svg" in="SourceGraphic" in2="pf_100_dropShadow" mode="normal"/></filter></defs><g filter="url(#rp7Gl0uytAdkocDl8JMYbzQqVtXLezvE)"><path d=" M 479.99 807.9 L 330.75 807.9 L 330.75 751.935 L 374.43 751.935 L 374.43 549.915 L 327.565 559.925 L 327.565 512.15 L 405.37 466.65 L 438.13 466.65 L 438.13 751.935 L 482.72 751.935 L 479.99 807.9 L 479.99 807.9 Z " fill="rgb(255,222,22)"/></g><path d=" M 171.7 236.74 L 111.05 236.74 L 111.05 211.46 L 127.66 211.46 L 127.66 139.12 L 109.84 142.93 L 109.84 121.14 L 140.88 102.99 L 155.88 102.99 L 155.88 211.46 L 172.93 211.46 L 171.7 236.74 Z  M 167.89 232.74 L 115.05 232.74 L 115.05 215.46 L 131.66 215.46 L 131.66 134.18 L 113.84 137.98 L 113.84 123.44 L 141.96 106.99 L 151.88 106.99 L 151.88 215.46 L 168.73 215.46 L 167.89 232.74 Z " fill-rule="evenodd" fill="rgb(0,0,0)"/><path d=" M 628.3 1033.26 L 688.95 1033.26 L 688.95 1058.54 L 672.34 1058.54 L 672.34 1130.88 L 690.16 1127.07 L 690.16 1148.86 L 659.12 1167.01 L 644.12 1167.01 L 644.12 1058.54 L 627.07 1058.54 L 628.3 1033.26 Z  M 632.11 1037.26 L 684.95 1037.26 L 684.95 1054.54 L 668.34 1054.54 L 668.34 1135.82 L 686.16 1132.02 L 686.16 1146.56 L 658.04 1163.01 L 648.12 1163.01 L 648.12 1054.54 L 631.27 1054.54 L 632.11 1037.26 Z " fill-rule="evenodd" fill="rgb(0,0,0)"/><path d=" M 483.8 811.9 L 326.75 811.9 L 326.75 747.93 L 370.43 747.93 L 370.43 554.86 L 323.57 564.87 L 323.57 509.86 L 404.29 462.65 L 442.13 462.65 L 442.13 747.93 L 486.92 747.93 L 483.8 811.9 Z  M 476.18 803.9 L 334.75 803.9 L 334.75 755.93 L 378.43 755.93 L 378.43 544.97 L 331.57 554.98 L 331.57 514.44 L 406.45 470.65 L 434.13 470.65 L 434.13 755.93 L 478.52 755.93 L 476.18 803.9 Z " fill-rule="evenodd" fill="rgb(0,0,0)"/></g></svg>