<?xml version="1.0" standalone="no"?><!-- Generator: Gravit.io --><svg xmlns="http://www.w3.org/2000/svg" xmlns:xlink="http://www.w3.org/1999/xlink" style="isolation:isolate" viewBox="0 0 800 1270" width="800px" height="1270px"><defs><clipPath id="_clipPath_fQg181x6uAw4Msf8wvGy7FH7DvmEa1kA"><rect width="800" height="1270"/></clipPath></defs><g clip-path="url(#_clipPath_fQg181x6uAw4Msf8wvGy7FH7DvmEa1kA)"><path d=" M 800 64 C 800 30.523 757.12 0 736 0 L 64 0 C 42.912 0 0 30.523 0 64 L 0 1206 C 0 1239.477 42.912 1270 64 1270 L 746 1270 C 767.12 1270 800 1239.477 800 1206 L 800 64 Z " fill-rule="evenodd" fill="rgb(0,0,0)"/><path d=" M 796 64 C 796 30.734 756.908 4 736 4 L 64 4 C 43.123 4 4 34.331 4 67.597 L 4 1206 C 4 1239.266 43.123 1266 64 1266 L 746 1266 C 766.908 1266 796 1239.266 796 1206 L 796 64 Z " fill-rule="evenodd" fill="rgb(255,255,255)"/><path d=" M 736 121.55 C 736 91.446 699.98 64 682.24 64 L 117.76 64 C 100.046 64 64 91.446 64 121.55 L 64 1148.45 C 64 1178.554 100.046 1206 117.76 1206 L 690.64 1206 C 708.38 1206 736 1178.554 736 1148.45 L 736 121.55 Z " fill-rule="evenodd" fill="rgb(237,28,36)"/><path d=" M 183.054 507.699 C 343.308 234.596 570.623 69.913 690.359 140.172 C 810.095 210.432 777.199 489.198 616.946 762.301 C 456.692 1035.404 229.377 1200.087 109.641 1129.828 C -10.095 1059.568 22.801 780.802 183.054 507.699 Z " fill="rgb(255,255,255)"/><defs><filter id="HKFyQ4R5Zzcxo02qPLbv9RZfPKf2Dfkz" x="-200%" y="-200%" width="400%" height="400%" filterUnits="objectBoundingBox" color-interpolation-filters="sRGB"><feGaussianBlur xmlns="http://www.w3.org/2000/svg" in="SourceGraphic" stdDeviation="0"/><feOffset xmlns="http://www.w3.org/2000/svg" dx="8" dy="8" result="pf_100_offsetBlur"/><feFlood xmlns="http://www.w3.org/2000/svg" flood-color="#000000" flood-opacity="1"/><feComposite xmlns="http://www.w3.org/2000/svg" in2="pf_100_offsetBlur" operator="in" result="pf_100_dropShadow"/><feBlend xmlns="http://www.w3.org/2000/svg" in="SourceGraphic" in2="pf_100_dropShadow" mode="normal"/></filter></defs><g filter="url(#HKFyQ4R5Zzcxo02qPLbv9RZfPKf2Dfkz)"><path d=" M 138.827 237.162 L 138.827 237.162 Q 116.337 237.162 107.687 217.354 L 107.687 217.354 L 107.687 217.354 Q 99.037 197.545 99.037 169.519 L 99.037 169.519 L 99.037 169.519 Q 99.037 141.666 107.601 122.117 L 107.601 122.117 L 107.601 122.117 Q 116.164 102.568 138.827 102.568 L 138.827 102.568 L 138.827 102.568 Q 161.49 102.568 170.227 122.117 L 170.227 122.117 L 170.227 122.117 Q 178.963 141.666 178.963 169.346 L 178.963 169.346 L 178.963 169.346 Q 178.963 197.372 170.227 217.267 L 170.227 217.267 L 170.227 217.267 Q 161.49 237.162 138.827 237.162 L 138.827 237.162 Z  M 138.827 216.748 L 138.827 216.748 Q 144.363 216.748 147.737 212.769 L 147.737 212.769 L 147.737 212.769 Q 151.11 208.79 152.84 197.545 L 152.84 197.545 L 152.84 197.545 Q 154.57 186.3 154.57 165.021 L 154.57 165.021 L 154.57 165.021 Q 154.57 144.607 151.543 133.795 L 151.543 133.795 L 151.543 133.795 Q 148.515 122.982 138.827 122.982 L 138.827 122.982 L 138.827 122.982 Q 129.139 122.982 126.285 133.449 L 126.285 133.449 L 126.285 133.449 Q 123.43 143.915 123.43 162.945 L 123.43 162.945 L 123.43 162.945 Q 123.43 185.089 124.987 196.68 L 124.987 196.68 L 124.987 196.68 Q 126.544 208.271 129.831 212.51 L 129.831 212.51 L 129.831 212.51 Q 133.118 216.748 138.827 216.748 L 138.827 216.748 Z " fill="rgb(255,255,255)"/></g><defs><filter id="5ThFJ9BoC48xZqKUxyXyU6FwUqBO1q4M" x="-200%" y="-200%" width="400%" height="400%" filterUnits="objectBoundingBox" color-interpolation-filters="sRGB"><feGaussianBlur xmlns="http://www.w3.org/2000/svg" in="SourceGraphic" stdDeviation="0"/><feOffset xmlns="http://www.w3.org/2000/svg" dx="-8" dy="-8" result="pf_100_offsetBlur"/><feFlood xmlns="http://www.w3.org/2000/svg" flood-color="#000000" flood-opacity="1"/><feComposite xmlns="http://www.w3.org/2000/svg" in2="pf_100_offsetBlur" operator="in" result="pf_100_dropShadow"/><feBlend xmlns="http://www.w3.org/2000/svg" in="SourceGraphic" in2="pf_100_dropShadow" mode="normal"/></filter></defs><g filter="url(#5ThFJ9BoC48xZqKUxyXyU6FwUqBO1q4M)"><path d=" M 661.173 1032.838 L 661.173 1032.838 Q 683.663 1032.838 692.313 1052.647 L 692.313 1052.647 L 692.313 1052.647 Q 700.963 1072.455 700.963 1100.481 L 700.963 1100.481 L 700.963 1100.481 Q 700.963 1128.334 692.399 1147.883 L 692.399 1147.883 L 692.399 1147.883 Q 683.836 1167.432 661.173 1167.432 L 661.173 1167.432 L 661.173 1167.432 Q 638.51 1167.432 629.773 1147.883 L 629.773 1147.883 L 629.773 1147.883 Q 621.037 1128.334 621.037 1100.654 L 621.037 1100.654 L 621.037 1100.654 Q 621.037 1072.628 629.773 1052.733 L 629.773 1052.733 L 629.773 1052.733 Q 638.51 1032.838 661.173 1032.838 L 661.173 1032.838 Z  M 661.173 1053.252 L 661.173 1053.252 Q 655.637 1053.252 652.263 1057.231 L 652.263 1057.231 L 652.263 1057.231 Q 648.89 1061.21 647.16 1072.455 L 647.16 1072.455 L 647.16 1072.455 Q 645.43 1083.7 645.43 1104.979 L 645.43 1104.979 L 645.43 1104.979 Q 645.43 1125.393 648.457 1136.206 L 648.457 1136.206 L 648.457 1136.206 Q 651.485 1147.018 661.173 1147.018 L 661.173 1147.018 L 661.173 1147.018 Q 670.861 1147.018 673.715 1136.552 L 673.715 1136.552 L 673.715 1136.552 Q 676.57 1126.085 676.57 1107.055 L 676.57 1107.055 L 676.57 1107.055 Q 676.57 1084.911 675.013 1073.32 L 675.013 1073.32 L 675.013 1073.32 Q 673.456 1061.729 670.169 1057.491 L 670.169 1057.491 L 670.169 1057.491 Q 666.882 1053.252 661.173 1053.252 L 661.173 1053.252 Z " fill="rgb(255,255,255)"/></g><defs><filter id="ntR49HOGGYN46OfbB0MA1kdty9j2euC2" x="-200%" y="-200%" width="400%" height="400%" filterUnits="objectBoundingBox" color-interpolation-filters="sRGB"><feGaussianBlur xmlns="http://www.w3.org/2000/svg" in="SourceGraphic" stdDeviation="0"/><feOffset xmlns="http://www.w3.org/2000/svg" dx="16" dy="16" result="pf_100_offsetBlur"/><feFlood xmlns="http://www.w3.org/2000/svg" flood-color="#000000" flood-opacity="1"/><feComposite xmlns="http://www.w3.org/2000/svg" in2="pf_100_offsetBlur" operator="in" result="pf_100_dropShadow"/><feBlend xmlns="http://www.w3.org/2000/svg" in="SourceGraphic" in2="pf_100_dropShadow" mode="normal"/></filter></defs><g filter="url(#ntR49HOGGYN46OfbB0MA1kdty9j2euC2)"><path d=" M 398.545 814.27 L 398.545 814.27 Q 339.395 814.27 316.645 762.173 L 316.645 762.173 L 316.645 762.173 Q 293.895 710.075 293.895 636.365 L 293.895 636.365 L 293.895 636.365 Q 293.895 563.11 316.417 511.695 L 316.417 511.695 L 316.417 511.695 Q 338.94 460.28 398.545 460.28 L 398.545 460.28 L 398.545 460.28 Q 458.15 460.28 481.127 511.695 L 481.127 511.695 L 481.127 511.695 Q 504.105 563.11 504.105 635.91 L 504.105 635.91 L 504.105 635.91 Q 504.105 709.62 481.127 761.945 L 481.127 761.945 L 481.127 761.945 Q 458.15 814.27 398.545 814.27 L 398.545 814.27 Z  M 398.545 760.58 L 398.545 760.58 Q 413.105 760.58 421.977 750.115 L 421.977 750.115 L 421.977 750.115 Q 430.85 739.65 435.4 710.075 L 435.4 710.075 L 435.4 710.075 Q 439.95 680.5 439.95 624.535 L 439.95 624.535 L 439.95 624.535 Q 439.95 570.845 431.987 542.408 L 431.987 542.408 L 431.987 542.408 Q 424.025 513.97 398.545 513.97 L 398.545 513.97 L 398.545 513.97 Q 373.065 513.97 365.557 541.498 L 365.557 541.498 L 365.557 541.498 Q 358.05 569.025 358.05 619.075 L 358.05 619.075 L 358.05 619.075 Q 358.05 677.315 362.145 707.8 L 362.145 707.8 L 362.145 707.8 Q 366.24 738.285 374.885 749.433 L 374.885 749.433 L 374.885 749.433 Q 383.53 760.58 398.545 760.58 L 398.545 760.58 Z " fill="rgb(237,28,36)"/></g><path d=" M 172.05 121.3 C 172.7 122.75 173.3 124.21 173.87 125.69 C 174.46 127.24 175.01 128.8 175.51 130.37 C 175.91 131.61 176.28 132.86 176.63 134.11 C 176.99 135.42 177.33 136.73 177.64 138.05 C 178.74 142.74 179.55 147.5 180.06 152.29 C 180.66 157.96 180.96 163.65 180.96 169.35 C 180.96 174.36 180.74 179.37 180.29 184.36 C 179.9 188.68 179.29 192.98 178.46 197.24 C 177.72 200.99 176.79 204.7 175.67 208.36 C 174.65 211.67 173.45 214.91 172.06 218.07 C 171.28 219.85 170.38 221.57 169.38 223.23 C 168.47 224.71 167.46 226.13 166.35 227.46 C 165.32 228.7 164.19 229.86 162.98 230.94 C 161.81 231.98 160.57 232.92 159.25 233.77 C 157.92 234.62 156.53 235.37 155.08 236.01 C 153.56 236.69 152 237.25 150.4 237.69 C 148.64 238.18 146.85 238.54 145.03 238.77 C 142.98 239.03 140.9 239.16 138.83 239.16 C 136.77 239.16 134.71 239.03 132.67 238.77 C 130.87 238.54 129.09 238.19 127.35 237.7 C 125.76 237.26 124.2 236.7 122.7 236.03 C 121.26 235.39 119.88 234.65 118.56 233.8 C 117.26 232.95 116.02 232.01 114.86 230.97 C 113.66 229.91 112.54 228.75 111.52 227.52 C 110.41 226.19 109.41 224.77 108.51 223.29 C 107.52 221.64 106.63 219.92 105.85 218.15 C 105.21 216.68 104.6 215.18 104.04 213.67 C 103.45 212.08 102.91 210.49 102.4 208.88 C 102.01 207.62 101.64 206.35 101.3 205.08 C 100.94 203.75 100.61 202.42 100.3 201.08 C 99.22 196.34 98.42 191.54 97.92 186.71 C 97.33 181 97.04 175.26 97.04 169.52 C 97.04 164.52 97.26 159.53 97.7 154.55 C 98.08 150.27 98.69 146.01 99.51 141.79 C 100.23 138.09 101.14 134.44 102.24 130.83 C 103.23 127.59 104.41 124.42 105.77 121.31 C 106.53 119.58 107.4 117.9 108.39 116.28 C 109.27 114.82 110.27 113.43 111.36 112.12 C 112.38 110.9 113.49 109.76 114.68 108.71 C 115.84 107.68 117.08 106.75 118.39 105.91 C 119.71 105.07 121.09 104.33 122.53 103.7 C 124.05 103.03 125.61 102.47 127.21 102.03 C 128.97 101.54 130.77 101.19 132.58 100.96 C 134.65 100.7 136.74 100.57 138.83 100.57 C 140.91 100.57 142.99 100.7 145.06 100.96 C 146.88 101.18 148.67 101.54 150.44 102.03 C 152.04 102.47 153.61 103.02 155.13 103.69 C 156.57 104.32 157.97 105.06 159.29 105.9 C 160.61 106.74 161.85 107.67 163.02 108.69 C 164.23 109.75 165.35 110.89 166.38 112.11 C 167.48 113.42 168.49 114.81 169.39 116.26 C 170.39 117.88 171.28 119.56 172.05 121.3 Z  M 138.83 235.16 C 136.94 235.16 135.05 235.04 133.17 234.8 C 131.57 234.6 129.98 234.28 128.42 233.85 C 127.02 233.46 125.65 232.96 124.32 232.37 C 123.08 231.82 121.88 231.17 120.73 230.43 C 119.6 229.7 118.53 228.89 117.52 227.99 C 116.47 227.05 115.49 226.04 114.6 224.96 C 113.62 223.78 112.73 222.53 111.94 221.22 C 111.03 219.72 110.22 218.16 109.52 216.55 C 108.9 215.14 108.33 213.71 107.79 212.27 C 107.23 210.76 106.7 209.23 106.22 207.69 C 105.84 206.48 105.49 205.26 105.16 204.04 C 104.82 202.76 104.5 201.48 104.2 200.19 C 103.15 195.61 102.38 190.97 101.9 186.3 C 101.33 180.72 101.04 175.12 101.04 169.52 C 101.04 164.64 101.25 159.77 101.69 154.91 C 102.06 150.76 102.64 146.64 103.43 142.56 C 104.13 139 105.01 135.47 106.07 132 C 107.01 128.91 108.14 125.88 109.43 122.92 C 110.12 121.35 110.91 119.82 111.81 118.35 C 112.59 117.07 113.47 115.84 114.43 114.69 C 115.32 113.62 116.29 112.62 117.33 111.7 C 118.34 110.81 119.41 110.01 120.54 109.28 C 121.69 108.55 122.89 107.91 124.14 107.36 C 125.48 106.77 126.86 106.28 128.27 105.89 C 129.85 105.45 131.46 105.13 133.08 104.93 C 134.99 104.69 136.91 104.57 138.83 104.57 C 140.74 104.57 142.66 104.69 144.56 104.93 C 146.19 105.13 147.8 105.45 149.38 105.88 C 150.8 106.27 152.18 106.76 153.53 107.35 C 154.78 107.9 155.99 108.54 157.15 109.28 C 158.29 110 159.37 110.81 160.39 111.7 C 161.44 112.62 162.42 113.62 163.32 114.69 C 164.3 115.85 165.19 117.07 165.98 118.36 C 166.89 119.83 167.7 121.36 168.4 122.93 C 169.02 124.31 169.59 125.71 170.13 127.12 C 170.69 128.6 171.22 130.09 171.7 131.59 C 172.08 132.78 172.44 133.98 172.77 135.18 C 173.12 136.43 173.44 137.7 173.74 138.96 C 174.81 143.49 175.59 148.09 176.08 152.72 C 176.67 158.24 176.96 163.79 176.96 169.35 C 176.96 174.24 176.74 179.13 176.31 184.01 C 175.93 188.19 175.34 192.35 174.53 196.47 C 173.82 200.09 172.92 203.66 171.84 207.19 C 170.87 210.34 169.72 213.44 168.4 216.46 C 167.69 218.08 166.87 219.64 165.96 221.15 C 165.16 222.47 164.26 223.72 163.28 224.9 C 162.37 225.99 161.39 227.01 160.33 227.95 C 159.31 228.85 158.23 229.67 157.09 230.4 C 155.93 231.15 154.72 231.8 153.46 232.36 C 152.12 232.95 150.74 233.44 149.33 233.84 C 147.75 234.27 146.15 234.6 144.53 234.8 C 142.64 235.04 140.73 235.16 138.83 235.16 Z  M 138.83 218.75 C 137.74 218.75 136.65 218.63 135.58 218.41 C 134.62 218.21 133.68 217.89 132.79 217.46 C 131.92 217.04 131.11 216.52 130.36 215.91 C 129.58 215.27 128.87 214.54 128.25 213.74 C 127.92 213.31 127.61 212.86 127.34 212.39 C 127.01 211.83 126.71 211.26 126.44 210.68 C 126.24 210.25 126.05 209.81 125.88 209.37 C 125.68 208.87 125.5 208.36 125.33 207.84 C 124.84 206.39 124.44 204.92 124.13 203.42 C 123.67 201.28 123.3 199.12 123 196.95 C 122.87 195.91 122.74 194.87 122.63 193.83 C 122.5 192.56 122.38 191.29 122.28 190.01 C 122 186.45 121.8 182.89 121.69 179.32 C 121.52 173.86 121.43 168.4 121.43 162.95 C 121.43 160.05 121.48 157.15 121.59 154.25 C 121.68 151.92 121.83 149.6 122.02 147.28 C 122.26 144.48 122.61 141.68 123.06 138.9 C 123.38 136.89 123.82 134.89 124.35 132.92 C 124.64 131.88 124.99 130.87 125.41 129.88 C 125.76 129.03 126.19 128.21 126.67 127.43 C 127.1 126.74 127.59 126.09 128.12 125.47 C 128.62 124.9 129.17 124.38 129.76 123.9 C 130.35 123.43 130.97 123.02 131.63 122.67 C 132.29 122.3 132.99 122 133.71 121.76 C 134.49 121.5 135.29 121.31 136.1 121.19 C 137 121.05 137.91 120.98 138.83 120.98 C 139.73 120.98 140.64 121.05 141.53 121.19 C 142.34 121.31 143.14 121.51 143.91 121.77 C 144.64 122.01 145.34 122.32 146.01 122.69 C 146.68 123.06 147.31 123.48 147.9 123.96 C 148.5 124.45 149.06 124.99 149.57 125.58 C 150.12 126.21 150.62 126.88 151.06 127.6 C 151.56 128.4 152 129.24 152.37 130.11 C 152.8 131.14 153.17 132.19 153.47 133.26 C 153.74 134.23 153.99 135.21 154.2 136.2 C 154.46 137.38 154.69 138.56 154.89 139.75 C 155.03 140.61 155.16 141.47 155.28 142.33 C 155.41 143.3 155.53 144.26 155.64 145.23 C 155.95 148.05 156.17 150.87 156.3 153.7 C 156.48 157.47 156.57 161.25 156.57 165.02 C 156.57 168.12 156.54 171.23 156.48 174.33 C 156.43 176.8 156.35 179.27 156.24 181.74 C 156.1 184.95 155.88 188.16 155.6 191.35 C 155.41 193.53 155.15 195.69 154.82 197.85 C 154.57 199.46 154.28 201.06 153.94 202.64 C 153.68 203.86 153.37 205.07 153.02 206.26 C 152.53 207.93 151.9 209.56 151.16 211.13 C 150.65 212.19 150.02 213.17 149.26 214.06 C 148.62 214.81 147.91 215.5 147.13 216.1 C 146.38 216.67 145.57 217.15 144.72 217.54 C 143.84 217.94 142.92 218.24 141.97 218.43 C 140.94 218.64 139.88 218.75 138.83 218.75 Z  M 125.43 162.95 C 125.43 160.1 125.48 157.25 125.59 154.4 C 125.68 152.14 125.82 149.88 126.01 147.62 C 126.24 144.92 126.57 142.22 127.01 139.54 C 127.31 137.67 127.71 135.81 128.21 133.97 C 128.45 133.11 128.74 132.25 129.09 131.42 C 129.37 130.77 129.69 130.14 130.07 129.54 C 130.38 129.04 130.74 128.56 131.13 128.11 C 131.48 127.71 131.86 127.35 132.26 127.02 C 132.66 126.71 133.08 126.43 133.53 126.18 C 133.99 125.93 134.48 125.72 134.98 125.55 C 135.54 125.37 136.11 125.23 136.69 125.14 C 137.4 125.04 138.11 124.98 138.83 124.98 C 139.53 124.98 140.23 125.04 140.93 125.14 C 141.5 125.23 142.07 125.37 142.63 125.56 C 143.13 125.73 143.62 125.94 144.09 126.2 C 144.55 126.45 144.98 126.74 145.38 127.07 C 145.81 127.41 146.2 127.79 146.55 128.2 C 146.96 128.67 147.34 129.18 147.67 129.71 C 148.06 130.34 148.4 130.99 148.68 131.67 C 149.05 132.54 149.36 133.43 149.62 134.33 C 149.87 135.23 150.09 136.14 150.29 137.06 C 150.54 138.17 150.75 139.29 150.94 140.41 C 151.08 141.23 151.21 142.05 151.32 142.87 C 151.45 143.81 151.56 144.74 151.66 145.67 C 151.97 148.4 152.18 151.14 152.31 153.89 C 152.48 157.6 152.57 161.31 152.57 165.02 C 152.57 168.1 152.54 171.17 152.48 174.25 C 152.43 176.69 152.35 179.13 152.24 181.57 C 152.1 184.72 151.89 187.86 151.62 191 C 151.43 193.09 151.18 195.17 150.86 197.24 C 150.63 198.77 150.35 200.3 150.03 201.81 C 149.79 202.93 149.51 204.03 149.18 205.13 C 148.75 206.6 148.2 208.03 147.54 209.41 C 147.19 210.15 146.74 210.85 146.21 211.48 C 145.76 212.01 145.25 212.5 144.69 212.92 C 144.19 213.31 143.64 213.64 143.06 213.9 C 142.46 214.18 141.83 214.38 141.18 214.51 C 140.41 214.67 139.62 214.75 138.83 214.75 C 138.01 214.75 137.2 214.66 136.41 214.5 C 135.76 214.36 135.12 214.14 134.52 213.85 C 133.94 213.58 133.4 213.23 132.91 212.82 C 132.35 212.37 131.85 211.85 131.41 211.28 C 131.18 210.99 130.97 210.68 130.78 210.35 C 130.52 209.91 130.28 209.46 130.07 209 C 129.9 208.64 129.75 208.28 129.61 207.92 C 129.43 207.48 129.27 207.03 129.12 206.58 C 128.69 205.27 128.33 203.94 128.04 202.59 C 127.6 200.54 127.25 198.48 126.97 196.41 C 126.84 195.42 126.72 194.42 126.61 193.42 C 126.48 192.18 126.37 190.94 126.27 189.69 C 125.99 186.2 125.8 182.7 125.69 179.19 C 125.52 173.78 125.43 168.36 125.43 162.95 Z " fill-rule="evenodd" fill="rgb(0,0,0)"/><path d=" M 661.17 1030.84 C 663.23 1030.84 665.29 1030.97 667.33 1031.23 C 669.13 1031.46 670.91 1031.81 672.65 1032.3 C 674.24 1032.74 675.8 1033.3 677.3 1033.97 C 678.74 1034.61 680.12 1035.35 681.44 1036.2 C 682.74 1037.05 683.98 1037.99 685.14 1039.03 C 686.34 1040.09 687.46 1041.25 688.48 1042.48 C 689.59 1043.81 690.59 1045.23 691.49 1046.71 C 692.48 1048.36 693.37 1050.08 694.15 1051.85 C 694.79 1053.32 695.4 1054.82 695.96 1056.33 C 696.55 1057.92 697.09 1059.51 697.6 1061.12 C 697.99 1062.38 698.36 1063.65 698.7 1064.92 C 699.06 1066.25 699.39 1067.58 699.7 1068.92 C 700.78 1073.66 701.58 1078.46 702.08 1083.29 C 702.67 1089 702.96 1094.74 702.96 1100.48 C 702.96 1105.48 702.74 1110.47 702.3 1115.45 C 701.92 1119.73 701.31 1123.99 700.49 1128.21 C 699.77 1131.91 698.86 1135.56 697.76 1139.17 C 696.77 1142.41 695.59 1145.58 694.23 1148.69 C 693.47 1150.42 692.6 1152.1 691.61 1153.72 C 690.73 1155.18 689.73 1156.57 688.64 1157.88 C 687.62 1159.1 686.51 1160.24 685.32 1161.29 C 684.16 1162.32 682.92 1163.25 681.61 1164.09 C 680.29 1164.93 678.91 1165.67 677.47 1166.3 C 675.95 1166.97 674.39 1167.53 672.79 1167.97 C 671.03 1168.46 669.23 1168.81 667.42 1169.04 C 665.35 1169.3 663.26 1169.43 661.17 1169.43 C 659.09 1169.43 657.01 1169.3 654.94 1169.04 C 653.12 1168.82 651.33 1168.46 649.56 1167.97 C 647.96 1167.53 646.39 1166.98 644.87 1166.31 C 643.43 1165.68 642.03 1164.94 640.71 1164.1 C 639.39 1163.26 638.15 1162.33 636.98 1161.31 C 635.77 1160.25 634.65 1159.11 633.62 1157.89 C 632.52 1156.58 631.51 1155.19 630.61 1153.74 C 629.61 1152.12 628.72 1150.44 627.95 1148.7 C 627.3 1147.25 626.7 1145.79 626.13 1144.31 C 625.54 1142.76 624.99 1141.2 624.49 1139.63 C 624.09 1138.39 623.72 1137.14 623.37 1135.89 C 623.01 1134.58 622.67 1133.27 622.36 1131.95 C 621.26 1127.26 620.45 1122.5 619.94 1117.71 C 619.34 1112.04 619.04 1106.35 619.04 1100.65 C 619.04 1095.64 619.26 1090.63 619.71 1085.64 C 620.1 1081.32 620.71 1077.02 621.54 1072.76 C 622.28 1069.01 623.21 1065.3 624.33 1061.64 C 625.35 1058.33 626.55 1055.09 627.94 1051.93 C 628.72 1050.15 629.62 1048.43 630.62 1046.77 C 631.53 1045.29 632.54 1043.87 633.65 1042.54 C 634.68 1041.3 635.81 1040.14 637.02 1039.06 C 638.19 1038.02 639.43 1037.08 640.75 1036.23 C 642.08 1035.38 643.47 1034.63 644.92 1033.99 C 646.44 1033.31 648 1032.75 649.6 1032.31 C 651.36 1031.82 653.15 1031.46 654.97 1031.23 C 657.02 1030.97 659.1 1030.84 661.17 1030.84 Z  M 661.17 1034.84 C 663.06 1034.84 664.95 1034.96 666.83 1035.2 C 668.43 1035.4 670.02 1035.72 671.58 1036.15 C 672.98 1036.54 674.35 1037.04 675.68 1037.63 C 676.92 1038.18 678.12 1038.83 679.27 1039.57 C 680.4 1040.3 681.47 1041.11 682.48 1042.01 C 683.53 1042.95 684.51 1043.96 685.4 1045.04 C 686.38 1046.22 687.27 1047.47 688.06 1048.78 C 688.97 1050.28 689.78 1051.84 690.48 1053.45 C 691.1 1054.86 691.67 1056.29 692.21 1057.73 C 692.77 1059.24 693.3 1060.77 693.78 1062.31 C 694.16 1063.52 694.51 1064.74 694.84 1065.96 C 695.18 1067.24 695.5 1068.52 695.8 1069.81 C 696.85 1074.39 697.62 1079.03 698.1 1083.7 C 698.67 1089.28 698.96 1094.88 698.96 1100.48 C 698.96 1105.36 698.75 1110.23 698.31 1115.09 C 697.94 1119.24 697.36 1123.36 696.57 1127.44 C 695.87 1131 694.99 1134.53 693.93 1138 C 692.99 1141.09 691.86 1144.12 690.57 1147.08 C 689.88 1148.65 689.09 1150.18 688.19 1151.65 C 687.41 1152.93 686.53 1154.16 685.57 1155.31 C 684.68 1156.38 683.71 1157.38 682.67 1158.3 C 681.66 1159.19 680.59 1159.99 679.46 1160.72 C 678.31 1161.45 677.11 1162.09 675.86 1162.64 C 674.52 1163.23 673.14 1163.72 671.73 1164.11 C 670.15 1164.55 668.54 1164.87 666.92 1165.07 C 665.01 1165.31 663.09 1165.43 661.17 1165.43 C 659.26 1165.43 657.34 1165.31 655.44 1165.07 C 653.81 1164.87 652.2 1164.55 650.62 1164.12 C 649.2 1163.73 647.82 1163.24 646.47 1162.65 C 645.22 1162.1 644.01 1161.46 642.85 1160.72 C 641.71 1160 640.63 1159.19 639.61 1158.3 C 638.56 1157.38 637.58 1156.38 636.68 1155.31 C 635.7 1154.15 634.81 1152.93 634.02 1151.64 C 633.11 1150.17 632.3 1148.64 631.6 1147.07 C 630.98 1145.69 630.41 1144.29 629.87 1142.88 C 629.31 1141.4 628.78 1139.91 628.3 1138.41 C 627.92 1137.22 627.56 1136.02 627.23 1134.82 C 626.88 1133.57 626.56 1132.3 626.26 1131.04 C 625.19 1126.51 624.41 1121.91 623.92 1117.28 C 623.33 1111.76 623.04 1106.21 623.04 1100.65 C 623.04 1095.76 623.26 1090.87 623.69 1085.99 C 624.07 1081.81 624.66 1077.65 625.47 1073.53 C 626.18 1069.91 627.08 1066.34 628.16 1062.81 C 629.13 1059.66 630.28 1056.56 631.6 1053.54 C 632.31 1051.92 633.13 1050.36 634.04 1048.85 C 634.84 1047.53 635.74 1046.28 636.72 1045.1 C 637.63 1044.01 638.61 1042.99 639.67 1042.05 C 640.69 1041.15 641.77 1040.33 642.91 1039.6 C 644.07 1038.85 645.28 1038.2 646.54 1037.64 C 647.88 1037.05 649.26 1036.56 650.67 1036.16 C 652.25 1035.73 653.85 1035.4 655.47 1035.2 C 657.36 1034.96 659.27 1034.84 661.17 1034.84 Z  M 661.17 1051.25 C 662.26 1051.25 663.35 1051.37 664.42 1051.59 C 665.38 1051.8 666.32 1052.11 667.21 1052.54 C 668.08 1052.96 668.89 1053.48 669.64 1054.09 C 670.42 1054.73 671.13 1055.46 671.75 1056.26 C 672.08 1056.69 672.39 1057.14 672.66 1057.61 C 672.99 1058.17 673.29 1058.74 673.56 1059.32 C 673.76 1059.75 673.95 1060.19 674.12 1060.63 C 674.32 1061.13 674.5 1061.64 674.67 1062.16 C 675.16 1063.61 675.56 1065.08 675.87 1066.58 C 676.33 1068.72 676.7 1070.88 677 1073.05 C 677.13 1074.09 677.26 1075.13 677.37 1076.17 C 677.5 1077.44 677.62 1078.71 677.72 1079.99 C 678 1083.55 678.2 1087.11 678.31 1090.68 C 678.48 1096.14 678.57 1101.6 678.57 1107.06 C 678.57 1109.95 678.52 1112.85 678.41 1115.75 C 678.32 1118.08 678.17 1120.4 677.98 1122.72 C 677.74 1125.52 677.39 1128.32 676.94 1131.1 C 676.62 1133.11 676.18 1135.11 675.65 1137.08 C 675.36 1138.12 675.01 1139.13 674.59 1140.12 C 674.24 1140.97 673.81 1141.79 673.33 1142.57 C 672.9 1143.26 672.41 1143.91 671.88 1144.53 C 671.38 1145.1 670.83 1145.62 670.24 1146.1 C 669.65 1146.57 669.03 1146.98 668.37 1147.33 C 667.71 1147.7 667.01 1148 666.29 1148.24 C 665.51 1148.5 664.71 1148.69 663.9 1148.81 C 663 1148.95 662.09 1149.02 661.17 1149.02 C 660.27 1149.02 659.36 1148.95 658.47 1148.81 C 657.66 1148.69 656.86 1148.49 656.09 1148.23 C 655.36 1147.99 654.66 1147.68 653.99 1147.31 C 653.32 1146.94 652.69 1146.52 652.1 1146.04 C 651.5 1145.55 650.94 1145.01 650.43 1144.42 C 649.88 1143.79 649.38 1143.12 648.94 1142.4 C 648.44 1141.6 648 1140.76 647.63 1139.89 C 647.2 1138.86 646.83 1137.81 646.53 1136.74 C 646.26 1135.77 646.01 1134.79 645.8 1133.8 C 645.54 1132.62 645.31 1131.44 645.11 1130.25 C 644.97 1129.39 644.84 1128.53 644.72 1127.67 C 644.59 1126.7 644.47 1125.74 644.36 1124.77 C 644.05 1121.95 643.83 1119.13 643.7 1116.3 C 643.52 1112.53 643.43 1108.75 643.43 1104.98 C 643.43 1101.88 643.46 1098.77 643.52 1095.67 C 643.57 1093.2 643.65 1090.73 643.76 1088.26 C 643.9 1085.05 644.12 1081.84 644.4 1078.65 C 644.59 1076.47 644.85 1074.31 645.18 1072.15 C 645.43 1070.54 645.72 1068.95 646.06 1067.36 C 646.32 1066.14 646.63 1064.93 646.98 1063.74 C 647.47 1062.07 648.1 1060.44 648.84 1058.87 C 649.35 1057.81 649.98 1056.83 650.74 1055.94 C 651.38 1055.19 652.09 1054.5 652.87 1053.9 C 653.62 1053.33 654.43 1052.85 655.28 1052.46 C 656.16 1052.06 657.08 1051.76 658.03 1051.57 C 659.06 1051.36 660.12 1051.25 661.17 1051.25 Z  M 661.17 1055.25 C 661.99 1055.25 662.8 1055.34 663.59 1055.5 C 664.24 1055.64 664.88 1055.86 665.48 1056.15 C 666.06 1056.42 666.6 1056.77 667.09 1057.18 C 667.65 1057.63 668.15 1058.15 668.59 1058.72 C 668.82 1059.01 669.03 1059.32 669.22 1059.65 C 669.48 1060.09 669.72 1060.54 669.93 1061 C 670.1 1061.36 670.25 1061.72 670.39 1062.08 C 670.57 1062.52 670.73 1062.97 670.88 1063.42 C 671.31 1064.73 671.67 1066.06 671.96 1067.41 C 672.4 1069.46 672.75 1071.52 673.03 1073.59 C 673.16 1074.58 673.28 1075.58 673.39 1076.58 C 673.52 1077.82 673.63 1079.06 673.73 1080.31 C 674.01 1083.8 674.2 1087.3 674.31 1090.81 C 674.48 1096.22 674.57 1101.64 674.57 1107.06 C 674.57 1109.9 674.52 1112.75 674.41 1115.6 C 674.32 1117.86 674.18 1120.12 673.99 1122.38 C 673.76 1125.08 673.43 1127.78 672.99 1130.46 C 672.69 1132.33 672.29 1134.19 671.79 1136.03 C 671.55 1136.89 671.26 1137.75 670.91 1138.58 C 670.63 1139.23 670.31 1139.86 669.93 1140.46 C 669.62 1140.96 669.26 1141.44 668.87 1141.89 C 668.52 1142.29 668.14 1142.65 667.74 1142.98 C 667.34 1143.29 666.92 1143.57 666.47 1143.82 C 666.01 1144.07 665.52 1144.28 665.02 1144.45 C 664.46 1144.63 663.89 1144.77 663.3 1144.86 C 662.6 1144.96 661.89 1145.02 661.17 1145.02 C 660.47 1145.02 659.77 1144.96 659.07 1144.86 C 658.5 1144.77 657.92 1144.63 657.37 1144.44 C 656.87 1144.27 656.38 1144.06 655.91 1143.8 C 655.45 1143.55 655.02 1143.26 654.62 1142.93 C 654.19 1142.59 653.8 1142.21 653.45 1141.8 C 653.04 1141.33 652.66 1140.82 652.33 1140.29 C 651.94 1139.66 651.6 1139.01 651.32 1138.33 C 650.95 1137.46 650.64 1136.57 650.38 1135.67 C 650.13 1134.77 649.91 1133.86 649.71 1132.94 C 649.46 1131.83 649.25 1130.71 649.06 1129.59 C 648.92 1128.77 648.79 1127.95 648.68 1127.13 C 648.55 1126.2 648.44 1125.26 648.34 1124.33 C 648.03 1121.6 647.82 1118.86 647.69 1116.11 C 647.52 1112.4 647.43 1108.69 647.43 1104.98 C 647.43 1101.9 647.46 1098.83 647.52 1095.75 C 647.57 1093.31 647.65 1090.87 647.76 1088.43 C 647.9 1085.28 648.11 1082.14 648.38 1079 C 648.57 1076.91 648.82 1074.83 649.14 1072.76 C 649.37 1071.23 649.65 1069.7 649.97 1068.19 C 650.21 1067.07 650.49 1065.97 650.82 1064.87 C 651.25 1063.4 651.8 1061.97 652.46 1060.59 C 652.81 1059.85 653.26 1059.15 653.79 1058.52 C 654.24 1057.99 654.75 1057.5 655.31 1057.08 C 655.81 1056.69 656.36 1056.36 656.94 1056.1 C 657.54 1055.82 658.17 1055.62 658.82 1055.49 C 659.59 1055.33 660.38 1055.25 661.17 1055.25 Z " fill-rule="evenodd" fill="rgb(0,0,0)"/><path d=" M 398.55 818.27 C 393.18 818.27 387.83 817.93 382.51 817.26 C 377.84 816.66 373.22 815.73 368.69 814.47 C 364.57 813.32 360.54 811.87 356.63 810.14 C 352.92 808.49 349.35 806.56 345.94 804.36 C 342.55 802.18 339.35 799.73 336.34 797.06 C 333.24 794.29 330.35 791.29 327.69 788.1 C 324.82 784.64 322.22 780.98 319.9 777.14 C 317.3 772.84 314.99 768.38 312.98 763.77 C 311.29 759.91 309.71 755.99 308.24 752.03 C 306.7 747.9 305.27 743.72 303.95 739.51 C 302.92 736.21 301.96 732.9 301.06 729.56 C 300.12 726.09 299.25 722.6 298.45 719.09 C 297.84 716.42 297.26 713.75 296.73 711.06 C 296.17 708.28 295.65 705.5 295.17 702.71 C 293.42 692.49 292.13 682.21 291.3 671.87 C 290.37 660.06 289.89 648.22 289.89 636.36 C 289.89 623.26 290.48 610.17 291.64 597.12 C 292.64 585.9 294.22 574.74 296.37 563.69 C 298.26 554 300.65 544.42 303.54 534.98 C 306.12 526.51 309.2 518.2 312.75 510.09 C 314.73 505.58 317.01 501.2 319.57 496.99 C 321.86 493.21 324.44 489.61 327.28 486.22 C 329.92 483.06 332.79 480.1 335.88 477.37 C 338.88 474.71 342.09 472.3 345.47 470.14 C 348.89 467.95 352.47 466.03 356.19 464.4 C 360.12 462.67 364.18 461.23 368.32 460.08 C 372.9 458.82 377.57 457.89 382.28 457.3 C 387.68 456.62 393.11 456.28 398.55 456.28 C 403.97 456.28 409.4 456.62 414.78 457.29 C 419.5 457.88 424.17 458.81 428.75 460.07 C 432.91 461.21 436.98 462.65 440.92 464.38 C 444.66 466.01 448.26 467.93 451.7 470.11 C 455.1 472.27 458.33 474.69 461.36 477.34 C 464.47 480.07 467.37 483.03 470.04 486.19 C 472.91 489.58 475.52 493.18 477.85 496.96 C 480.45 501.17 482.76 505.55 484.78 510.06 C 486.47 513.85 488.05 517.68 489.53 521.55 C 491.07 525.59 492.5 529.67 493.82 533.79 C 494.87 537.03 495.84 540.3 496.75 543.58 C 497.7 546.99 498.58 550.43 499.39 553.88 C 500.01 556.52 500.59 559.16 501.14 561.82 C 501.7 564.56 502.23 567.31 502.72 570.07 C 504.51 580.2 505.83 590.41 506.67 600.66 C 507.63 612.39 508.11 624.15 508.11 635.91 C 508.11 649.06 507.52 662.2 506.34 675.29 C 505.32 686.61 503.72 697.87 501.53 709.02 C 499.61 718.85 497.17 728.58 494.23 738.15 C 491.58 746.8 488.42 755.28 484.79 763.55 C 482.76 768.17 480.43 772.65 477.81 776.96 C 475.47 780.82 472.85 784.49 469.96 787.95 C 467.29 791.17 464.37 794.17 461.24 796.95 C 458.22 799.64 454.98 802.1 451.57 804.29 C 448.13 806.5 444.53 808.44 440.79 810.09 C 436.85 811.84 432.79 813.29 428.64 814.45 C 424.07 815.72 419.42 816.65 414.71 817.25 C 409.35 817.93 403.95 818.27 398.55 818.27 Z  M 398.55 810.27 C 393.52 810.27 388.5 809.95 383.52 809.32 C 379.23 808.78 375 807.92 370.84 806.76 C 367.1 805.72 363.43 804.4 359.88 802.83 C 356.55 801.35 353.34 799.61 350.27 797.63 C 347.24 795.68 344.36 793.49 341.66 791.08 C 338.86 788.58 336.25 785.88 333.85 782.99 C 331.23 779.84 328.86 776.5 326.75 773.01 C 324.33 769.01 322.18 764.85 320.31 760.57 C 318.68 756.84 317.16 753.06 315.74 749.25 C 314.25 745.24 312.86 741.2 311.59 737.12 C 310.59 733.93 309.65 730.71 308.78 727.48 C 307.87 724.11 307.03 720.71 306.25 717.31 C 305.65 714.71 305.09 712.11 304.57 709.49 C 304.03 706.79 303.53 704.07 303.06 701.35 C 301.34 691.38 300.08 681.33 299.28 671.24 C 298.36 659.64 297.89 648 297.89 636.36 C 297.89 623.5 298.47 610.64 299.61 597.83 C 300.58 586.88 302.12 576 304.22 565.22 C 306.06 555.8 308.38 546.49 311.19 537.32 C 313.68 529.15 316.65 521.13 320.08 513.3 C 321.92 509.11 324.03 505.05 326.4 501.14 C 328.49 497.71 330.84 494.43 333.41 491.35 C 335.8 488.49 338.39 485.83 341.18 483.36 C 343.87 480.98 346.75 478.81 349.77 476.88 C 352.85 474.91 356.07 473.19 359.41 471.72 C 362.99 470.15 366.68 468.83 370.45 467.79 C 374.66 466.63 378.94 465.78 383.28 465.23 C 388.34 464.6 393.44 464.28 398.55 464.28 C 403.64 464.28 408.73 464.6 413.79 465.23 C 418.13 465.77 422.42 466.63 426.63 467.78 C 430.42 468.82 434.12 470.13 437.72 471.71 C 441.08 473.17 444.32 474.9 447.41 476.86 C 450.46 478.8 453.36 480.97 456.08 483.36 C 458.89 485.82 461.52 488.49 463.93 491.35 C 466.54 494.44 468.92 497.72 471.04 501.16 C 473.45 505.07 475.6 509.13 477.48 513.33 C 479.11 516.97 480.63 520.67 482.06 524.4 C 483.54 528.3 484.93 532.25 486.21 536.23 C 487.22 539.37 488.16 542.54 489.04 545.71 C 489.96 549.03 490.81 552.36 491.6 555.71 C 492.21 558.28 492.77 560.85 493.3 563.43 C 493.85 566.1 494.37 568.78 494.84 571.47 C 496.59 581.35 497.88 591.31 498.69 601.31 C 499.63 612.82 500.11 624.36 500.11 635.91 C 500.11 648.82 499.53 661.72 498.37 674.58 C 497.38 685.62 495.81 696.61 493.68 707.49 C 491.81 717.04 489.44 726.5 486.58 735.81 C 484.02 744.15 480.98 752.34 477.47 760.34 C 475.58 764.63 473.41 768.8 470.97 772.81 C 468.84 776.33 466.45 779.68 463.82 782.83 C 461.4 785.74 458.76 788.46 455.93 790.97 C 453.21 793.39 450.31 795.59 447.25 797.56 C 444.16 799.55 440.91 801.29 437.55 802.78 C 433.97 804.37 430.27 805.69 426.5 806.74 C 422.3 807.91 418.03 808.77 413.71 809.31 C 408.68 809.95 403.61 810.27 398.55 810.27 Z  M 398.55 764.58 C 395.76 764.58 392.99 764.29 390.27 763.72 C 387.83 763.2 385.46 762.39 383.21 761.31 C 382.12 760.79 381.07 760.2 380.05 759.56 C 379.02 758.9 378.04 758.19 377.1 757.42 C 376.12 756.63 375.19 755.78 374.32 754.88 C 373.4 753.93 372.53 752.93 371.72 751.88 C 370.88 750.8 370.11 749.66 369.41 748.48 C 368.57 747.05 367.8 745.59 367.1 744.09 C 366.59 742.98 366.11 741.86 365.67 740.73 C 365.16 739.42 364.68 738.09 364.24 736.76 C 363.92 735.8 363.61 734.83 363.32 733.86 C 363 732.79 362.7 731.71 362.42 730.62 C 361.57 727.45 360.85 724.24 360.23 721.01 C 359.44 716.81 358.75 712.58 358.18 708.33 C 357.82 705.62 357.49 702.9 357.21 700.18 C 356.86 696.85 356.55 693.5 356.29 690.16 C 356.09 687.75 355.92 685.34 355.76 682.92 C 355.58 680.19 355.42 677.45 355.28 674.7 C 354.87 666.81 354.58 658.92 354.4 651.02 C 354.17 640.37 354.05 629.72 354.05 619.08 C 354.05 611.46 354.19 603.85 354.48 596.25 C 354.71 590.15 355.09 584.06 355.61 577.98 C 356.24 570.64 357.14 563.32 358.32 556.05 C 359.17 550.79 360.3 545.58 361.7 540.45 C 362.43 537.77 363.33 535.14 364.41 532.59 C 365.32 530.42 366.4 528.32 367.65 526.33 C 368.74 524.57 369.98 522.91 371.34 521.35 C 372.6 519.91 374 518.57 375.5 517.37 C 376.97 516.19 378.54 515.15 380.2 514.25 C 381.9 513.33 383.67 512.56 385.5 511.95 C 387.47 511.29 389.5 510.8 391.56 510.49 C 393.87 510.14 396.21 509.97 398.55 509.97 C 400.86 509.97 403.18 510.15 405.47 510.5 C 407.52 510.81 409.55 511.31 411.52 511.97 C 413.36 512.6 415.14 513.38 416.84 514.31 C 418.52 515.24 420.12 516.31 421.61 517.51 C 423.14 518.75 424.57 520.13 425.86 521.62 C 427.26 523.23 428.53 524.96 429.66 526.77 C 430.94 528.83 432.05 530.98 433 533.21 C 434.12 535.86 435.07 538.57 435.84 541.33 C 436.55 543.87 437.19 546.44 437.75 549.02 C 438.42 552.09 439.02 555.18 439.54 558.28 C 439.92 560.53 440.26 562.77 440.57 565.03 C 440.92 567.56 441.23 570.09 441.51 572.63 C 441.71 574.45 441.9 576.26 442.07 578.08 C 442.25 580.05 442.41 582.01 442.56 583.98 C 443.03 590.02 443.36 596.06 443.57 602.11 C 443.82 609.58 443.95 617.06 443.95 624.54 C 443.95 632.69 443.87 640.84 443.71 648.99 C 443.58 655.48 443.37 661.97 443.08 668.46 C 442.71 676.88 442.15 685.29 441.41 693.68 C 440.91 699.37 440.22 705.04 439.35 710.68 C 438.71 714.88 437.94 719.07 437.05 723.22 C 436.38 726.39 435.58 729.53 434.66 732.64 C 434.05 734.72 433.37 736.78 432.62 738.82 C 432.01 740.48 431.32 742.12 430.58 743.72 C 429.75 745.49 428.83 747.21 427.8 748.87 C 426.98 750.22 426.05 751.5 425.03 752.7 C 423.41 754.61 421.59 756.34 419.61 757.87 C 417.72 759.31 415.68 760.54 413.51 761.53 C 411.29 762.54 408.96 763.29 406.57 763.78 C 403.93 764.31 401.24 764.58 398.55 764.58 Z  M 398.55 756.58 C 396.32 756.58 394.1 756.35 391.93 755.89 C 390.11 755.51 388.35 754.9 386.67 754.1 C 385.87 753.72 385.09 753.28 384.34 752.81 C 383.58 752.32 382.85 751.79 382.15 751.22 C 381.42 750.63 380.72 749.99 380.07 749.31 C 379.35 748.57 378.68 747.79 378.05 746.98 C 377.41 746.16 376.83 745.3 376.3 744.41 C 375.59 743.21 374.95 741.98 374.36 740.72 C 373.92 739.77 373.5 738.8 373.12 737.81 C 372.66 736.63 372.23 735.44 371.83 734.24 C 371.53 733.36 371.26 732.47 370.99 731.59 C 370.7 730.59 370.42 729.58 370.15 728.58 C 369.36 725.58 368.67 722.56 368.09 719.52 C 367.32 715.46 366.66 711.37 366.11 707.27 C 365.76 704.63 365.44 702 365.17 699.35 C 364.82 696.08 364.52 692.8 364.26 689.52 C 364.07 687.15 363.9 684.78 363.75 682.41 C 363.57 679.7 363.41 677 363.27 674.29 C 362.86 666.48 362.57 658.66 362.4 650.84 C 362.17 640.25 362.05 629.67 362.05 619.08 C 362.05 611.57 362.19 604.06 362.48 596.55 C 362.7 590.58 363.07 584.62 363.58 578.66 C 364.19 571.52 365.07 564.4 366.21 557.33 C 367.02 552.35 368.09 547.42 369.42 542.55 C 370.05 540.21 370.84 537.92 371.78 535.69 C 372.53 533.91 373.42 532.2 374.44 530.56 C 375.3 529.17 376.28 527.85 377.36 526.62 C 378.31 525.53 379.36 524.52 380.5 523.62 C 381.6 522.73 382.77 521.95 384.01 521.28 C 385.3 520.59 386.65 520 388.03 519.54 C 389.57 519.02 391.15 518.65 392.75 518.4 C 394.67 518.12 396.61 517.97 398.55 517.97 C 400.46 517.97 402.37 518.12 404.26 518.41 C 405.85 518.65 407.42 519.03 408.95 519.55 C 410.35 520.02 411.7 520.62 413 521.33 C 414.26 522.02 415.46 522.83 416.58 523.73 C 417.75 524.68 418.83 525.72 419.82 526.86 C 420.94 528.15 421.96 529.54 422.86 530.99 C 423.92 532.7 424.85 534.48 425.63 536.33 C 426.62 538.66 427.45 541.05 428.14 543.49 C 428.81 545.88 429.41 548.29 429.94 550.72 C 430.58 553.67 431.15 556.63 431.65 559.61 C 432.02 561.77 432.35 563.94 432.65 566.12 C 432.98 568.58 433.29 571.04 433.56 573.51 C 433.76 575.28 433.94 577.05 434.1 578.82 C 434.28 580.74 434.44 582.67 434.59 584.59 C 435.04 590.52 435.37 596.45 435.57 602.38 C 435.82 609.76 435.95 617.15 435.95 624.54 C 435.95 632.63 435.87 640.73 435.71 648.83 C 435.58 655.26 435.38 661.68 435.09 668.11 C 434.72 676.41 434.17 684.7 433.44 692.98 C 432.95 698.49 432.29 703.99 431.45 709.47 C 430.82 713.52 430.08 717.55 429.23 721.56 C 428.6 724.52 427.85 727.46 426.99 730.38 C 426.43 732.29 425.8 734.18 425.11 736.05 C 424.57 737.51 423.98 738.94 423.33 740.34 C 422.63 741.83 421.85 743.28 420.99 744.68 C 420.38 745.68 419.69 746.63 418.93 747.53 C 417.68 749 416.27 750.34 414.73 751.52 C 413.33 752.6 411.81 753.51 410.2 754.25 C 408.53 755 406.78 755.57 404.98 755.94 C 402.86 756.36 400.71 756.58 398.55 756.58 Z " fill-rule="evenodd" fill="rgb(0,0,0)"/></g></svg>