<?xml version="1.0" encoding="UTF-8" standalone="no"?><!-- Generator: Gravit.io --><svg xmlns="http://www.w3.org/2000/svg" xmlns:xlink="http://www.w3.org/1999/xlink" style="isolation:isolate" viewBox="0 0 800 1270" width="800pt" height="1270pt"><defs><clipPath id="_clipPath_EH9RQe8yoYvD2cq5q2ZWvYvDQpfIzQOM"><rect width="800" height="1270"/></clipPath></defs><g clip-path="url(#_clipPath_EH9RQe8yoYvD2cq5q2ZWvYvDQpfIzQOM)"><path d=" M 800 64 C 800 30.523 757.12 0 736 0 L 64 0 C 42.912 0 0 30.523 0 64 L 0 1206 C 0 1239.477 42.912 1270 64 1270 L 746 1270 C 767.12 1270 800 1239.477 800 1206 L 800 64 Z " fill-rule="evenodd" fill="rgb(0,0,0)"/><path d=" M 796 64 C 796 30.734 756.908 4 736 4 L 64 4 C 43.123 4 4 34.331 4 67.597 L 4 1206 C 4 1239.266 43.123 1266 64 1266 L 746 1266 C 766.908 1266 796 1239.266 796 1206 L 796 64 Z " fill-rule="evenodd" fill="rgb(255,255,255)"/><path d=" M 735 121.55 C 735 91.446 698.98 64 681.24 64 L 116.76 64 C 99.046 64 63 91.446 63 121.55 L 63 1148.45 C 63 1178.554 99.046 1206 116.76 1206 L 689.64 1206 C 707.38 1206 735 1178.554 735 1148.45 L 735 121.55 Z " fill-rule="evenodd" fill="rgb(255,222,22)"/><path d=" M 183.054 507.699 C 343.308 234.596 570.623 69.913 690.359 140.172 C 810.095 210.432 777.199 489.198 616.946 762.301 C 456.692 1035.404 229.377 1200.087 109.641 1129.828 C -10.095 1059.568 22.801 780.802 183.054 507.699 Z " fill="rgb(255,255,255)"/><defs><filter id="UsXz11nJhYhXF25mkwOGgrlNRoqQiqCR" x="-200%" y="-200%" width="400%" height="400%" filterUnits="objectBoundingBox" color-interpolation-filters="sRGB"><feGaussianBlur xmlns="http://www.w3.org/2000/svg" in="SourceGraphic" stdDeviation="0"/><feOffset xmlns="http://www.w3.org/2000/svg" dx="8" dy="8" result="pf_100_offsetBlur"/><feFlood xmlns="http://www.w3.org/2000/svg" flood-color="#000000" flood-opacity="1"/><feComposite xmlns="http://www.w3.org/2000/svg" in2="pf_100_offsetBlur" operator="in" result="pf_100_dropShadow"/><feBlend xmlns="http://www.w3.org/2000/svg" in="SourceGraphic" in2="pf_100_dropShadow" mode="normal"/></filter></defs><g filter="url(#UsXz11nJhYhXF25mkwOGgrlNRoqQiqCR)"><path d=" M 140.99 237.162 L 140.99 237.162 Q 127.323 237.162 116.337 229.118 L 116.337 229.118 L 116.337 229.118 Q 105.352 221.073 102.238 206.368 L 102.238 206.368 L 121.787 199.102 L 121.787 199.102 Q 122.998 206.022 128.101 211.385 L 128.101 211.385 L 128.101 211.385 Q 133.205 216.748 140.471 216.748 L 140.471 216.748 L 140.471 216.748 Q 147.91 216.748 152.235 210.001 L 152.235 210.001 L 152.235 210.001 Q 156.56 203.254 156.56 194.258 L 156.56 194.258 L 156.56 194.258 Q 156.56 185.089 151.889 178.602 L 151.889 178.602 L 151.889 178.602 Q 147.218 172.114 138.222 172.114 L 138.222 172.114 L 138.222 172.114 Q 134.07 172.114 130.264 174.19 L 130.264 174.19 L 130.264 174.19 Q 126.458 176.266 123.517 180.591 L 123.517 180.591 L 106.217 174.882 L 113.483 104.99 L 173.86 104.99 L 171.784 125.231 L 132.513 125.231 L 128.534 155.506 L 128.534 155.506 Q 137.703 152.046 146.18 152.046 L 146.18 152.046 L 146.18 152.046 Q 155.695 152.046 163.393 157.582 L 163.393 157.582 L 163.393 157.582 Q 171.092 163.118 175.503 172.46 L 175.503 172.46 L 175.503 172.46 Q 179.915 181.802 179.915 192.701 L 179.915 192.701 L 179.915 192.701 Q 179.915 205.33 174.898 215.451 L 174.898 215.451 L 174.898 215.451 Q 169.881 225.571 160.971 231.367 L 160.971 231.367 L 160.971 231.367 Q 152.062 237.162 140.99 237.162 L 140.99 237.162 L 140.99 237.162 Z " fill="rgb(255,255,255)"/></g><defs><filter id="x1enBMn6EIs1s77we1zj0JqDZEuLY1Tn" x="-200%" y="-200%" width="400%" height="400%" filterUnits="objectBoundingBox" color-interpolation-filters="sRGB"><feGaussianBlur xmlns="http://www.w3.org/2000/svg" in="SourceGraphic" stdDeviation="0"/><feOffset xmlns="http://www.w3.org/2000/svg" dx="-8" dy="-8" result="pf_100_offsetBlur"/><feFlood xmlns="http://www.w3.org/2000/svg" flood-color="#000000" flood-opacity="1"/><feComposite xmlns="http://www.w3.org/2000/svg" in2="pf_100_offsetBlur" operator="in" result="pf_100_dropShadow"/><feBlend xmlns="http://www.w3.org/2000/svg" in="SourceGraphic" in2="pf_100_dropShadow" mode="normal"/></filter></defs><g filter="url(#x1enBMn6EIs1s77we1zj0JqDZEuLY1Tn)"><path d=" M 659.01 1032.838 L 659.01 1032.838 Q 672.677 1032.838 683.663 1040.883 L 683.663 1040.883 L 683.663 1040.883 Q 694.648 1048.927 697.762 1063.632 L 697.762 1063.632 L 678.213 1070.898 L 678.213 1070.898 Q 677.002 1063.978 671.899 1058.615 L 671.899 1058.615 L 671.899 1058.615 Q 666.795 1053.252 659.529 1053.252 L 659.529 1053.252 L 659.529 1053.252 Q 652.09 1053.252 647.765 1059.999 L 647.765 1059.999 L 647.765 1059.999 Q 643.44 1066.746 643.44 1075.742 L 643.44 1075.742 L 643.44 1075.742 Q 643.44 1084.911 648.111 1091.399 L 648.111 1091.399 L 648.111 1091.399 Q 652.782 1097.886 661.778 1097.886 L 661.778 1097.886 L 661.778 1097.886 Q 665.93 1097.886 669.736 1095.81 L 669.736 1095.81 L 669.736 1095.81 Q 673.542 1093.734 676.483 1089.409 L 676.483 1089.409 L 693.783 1095.118 L 686.517 1165.01 L 626.14 1165.01 L 628.216 1144.769 L 667.487 1144.769 L 671.466 1114.494 L 671.466 1114.494 Q 662.297 1117.954 653.82 1117.954 L 653.82 1117.954 L 653.82 1117.954 Q 644.305 1117.954 636.607 1112.418 L 636.607 1112.418 L 636.607 1112.418 Q 628.908 1106.882 624.497 1097.54 L 624.497 1097.54 L 624.497 1097.54 Q 620.085 1088.198 620.085 1077.299 L 620.085 1077.299 L 620.085 1077.299 Q 620.085 1064.67 625.102 1054.55 L 625.102 1054.55 L 625.102 1054.55 Q 630.119 1044.429 639.029 1038.634 L 639.029 1038.634 L 639.029 1038.634 Q 647.938 1032.838 659.01 1032.838 L 659.01 1032.838 L 659.01 1032.838 Z " fill="rgb(255,255,255)"/></g><defs><filter id="E7YhOqVTB45qStnb4oq9V4AGLck7M3A3" x="-200%" y="-200%" width="400%" height="400%" filterUnits="objectBoundingBox" color-interpolation-filters="sRGB"><feGaussianBlur xmlns="http://www.w3.org/2000/svg" in="SourceGraphic" stdDeviation="0"/><feOffset xmlns="http://www.w3.org/2000/svg" dx="16" dy="16" result="pf_100_offsetBlur"/><feFlood xmlns="http://www.w3.org/2000/svg" flood-color="#000000" flood-opacity="1"/><feComposite xmlns="http://www.w3.org/2000/svg" in2="pf_100_offsetBlur" operator="in" result="pf_100_dropShadow"/><feBlend xmlns="http://www.w3.org/2000/svg" in="SourceGraphic" in2="pf_100_dropShadow" mode="normal"/></filter></defs><g filter="url(#E7YhOqVTB45qStnb4oq9V4AGLck7M3A3)"><path d=" M 404.232 814.27 L 404.232 814.27 Q 368.287 814.27 339.395 793.113 L 339.395 793.113 L 339.395 793.113 Q 310.502 771.955 302.313 733.28 L 302.313 733.28 L 353.727 714.17 L 353.727 714.17 Q 356.912 732.37 370.335 746.475 L 370.335 746.475 L 370.335 746.475 Q 383.757 760.58 402.867 760.58 L 402.867 760.58 L 402.867 760.58 Q 422.433 760.58 433.808 742.835 L 433.808 742.835 L 433.808 742.835 Q 445.183 725.09 445.183 701.43 L 445.183 701.43 L 445.183 701.43 Q 445.183 677.315 432.898 660.253 L 432.898 660.253 L 432.898 660.253 Q 420.612 643.19 396.953 643.19 L 396.953 643.19 L 396.953 643.19 Q 386.032 643.19 376.023 648.65 L 376.023 648.65 L 376.023 648.65 Q 366.013 654.11 358.278 665.485 L 358.278 665.485 L 312.778 650.47 L 331.887 466.65 L 490.682 466.65 L 485.222 519.885 L 381.938 519.885 L 371.472 599.51 L 371.472 599.51 Q 395.588 590.41 417.882 590.41 L 417.882 590.41 L 417.882 590.41 Q 442.907 590.41 463.155 604.97 L 463.155 604.97 L 463.155 604.97 Q 483.403 619.53 495.005 644.1 L 495.005 644.1 L 495.005 644.1 Q 506.608 668.67 506.608 697.335 L 506.608 697.335 L 506.608 697.335 Q 506.608 730.55 493.412 757.168 L 493.412 757.168 L 493.412 757.168 Q 480.218 783.785 456.785 799.028 L 456.785 799.028 L 456.785 799.028 Q 433.352 814.27 404.232 814.27 L 404.232 814.27 L 404.232 814.27 Z " fill="rgb(255,222,22)"/></g><path d=" M 140.99 235.16 C 142.75 235.16 144.51 235.04 146.25 234.8 C 147.88 234.57 149.48 234.23 151.06 233.76 C 152.6 233.31 154.11 232.75 155.56 232.07 C 157.06 231.38 158.5 230.59 159.88 229.69 C 161.26 228.79 162.58 227.8 163.82 226.73 C 165.06 225.66 166.22 224.51 167.3 223.29 C 168.42 222.02 169.45 220.68 170.38 219.28 C 171.39 217.76 172.3 216.19 173.11 214.56 C 173.88 213 174.56 211.4 175.14 209.75 C 175.74 208.06 176.24 206.33 176.64 204.58 C 177.06 202.72 177.38 200.83 177.58 198.94 C 177.8 196.87 177.91 194.78 177.91 192.7 C 177.91 190.94 177.82 189.18 177.63 187.42 C 177.46 185.76 177.19 184.12 176.83 182.49 C 176.48 180.9 176.04 179.34 175.52 177.81 C 174.99 176.28 174.39 174.78 173.69 173.31 C 172.98 171.8 172.18 170.34 171.29 168.92 C 170.47 167.62 169.57 166.37 168.6 165.18 C 167.66 164.05 166.66 162.97 165.59 161.97 C 164.53 160.98 163.4 160.05 162.23 159.21 C 161.04 158.35 159.78 157.59 158.48 156.92 C 157.24 156.29 155.96 155.76 154.63 155.34 C 153.31 154.91 151.96 154.59 150.58 154.38 C 149.13 154.16 147.65 154.05 146.18 154.05 C 143.51 154.05 140.85 154.3 138.23 154.82 C 135.17 155.42 132.16 156.27 129.24 157.38 C 128.58 157.63 127.84 157.51 127.29 157.07 C 126.74 156.64 126.46 155.94 126.55 155.25 L 130.76 123.23 L 169.98 123.23 L 171.64 106.99 L 115.29 106.99 L 108.37 173.49 L 122.75 178.23 C 123.58 177.16 124.48 176.16 125.46 175.23 C 126.62 174.14 127.91 173.2 129.31 172.43 C 130.69 171.68 132.17 171.09 133.7 170.69 C 135.17 170.31 136.69 170.11 138.22 170.11 C 139.88 170.11 141.53 170.29 143.15 170.63 C 144.56 170.93 145.93 171.4 147.22 172.04 C 148.44 172.64 149.59 173.4 150.62 174.29 C 151.71 175.22 152.68 176.27 153.51 177.43 C 154.32 178.56 155.04 179.75 155.65 180.99 C 156.28 182.25 156.8 183.56 157.22 184.9 C 157.67 186.33 158 187.8 158.21 189.29 C 158.44 190.93 158.56 192.59 158.56 194.26 C 158.56 195.88 158.45 197.5 158.24 199.11 C 158.05 200.58 157.74 202.04 157.34 203.46 C 156.95 204.82 156.47 206.14 155.9 207.43 C 155.33 208.69 154.67 209.91 153.92 211.08 C 153.12 212.33 152.18 213.49 151.12 214.53 C 150.19 215.44 149.14 216.23 148 216.87 C 146.9 217.48 145.72 217.95 144.49 218.26 C 143.18 218.58 141.83 218.75 140.47 218.75 C 139.15 218.75 137.83 218.62 136.54 218.36 C 135.32 218.12 134.12 217.75 132.98 217.26 C 131.83 216.76 130.73 216.14 129.71 215.41 C 128.61 214.63 127.58 213.74 126.65 212.76 C 125.73 211.8 124.88 210.77 124.1 209.68 C 123.37 208.66 122.72 207.58 122.15 206.46 C 121.59 205.37 121.12 204.23 120.73 203.07 C 120.59 202.64 120.46 202.21 120.34 201.77 L 104.58 207.63 C 105.04 209.43 105.61 211.2 106.29 212.92 C 107.07 214.91 108.04 216.81 109.18 218.62 C 110.27 220.33 111.51 221.93 112.89 223.4 C 114.3 224.91 115.85 226.28 117.52 227.5 C 119.25 228.77 121.08 229.9 122.98 230.89 C 124.79 231.83 126.67 232.61 128.6 233.25 C 130.54 233.88 132.52 234.35 134.54 234.67 C 136.67 235 138.83 235.16 140.99 235.16 Z  M 140.99 239.16 C 142.93 239.16 144.88 239.03 146.8 238.76 C 148.62 238.51 150.42 238.12 152.19 237.6 C 153.92 237.1 155.61 236.46 157.24 235.71 C 158.91 234.93 160.52 234.05 162.06 233.04 C 163.59 232.05 165.05 230.95 166.43 229.76 C 167.81 228.57 169.1 227.29 170.3 225.93 C 171.54 224.53 172.68 223.05 173.71 221.49 C 174.81 219.84 175.81 218.12 176.69 216.34 C 177.53 214.63 178.28 212.88 178.91 211.09 C 179.56 209.25 180.11 207.37 180.54 205.46 C 181 203.45 181.34 201.42 181.56 199.37 C 181.8 197.15 181.91 194.93 181.91 192.7 C 181.91 190.8 181.81 188.89 181.61 187 C 181.42 185.19 181.13 183.4 180.73 181.62 C 180.35 179.9 179.87 178.19 179.3 176.51 C 178.73 174.84 178.07 173.2 177.31 171.61 C 176.53 169.95 175.65 168.34 174.68 166.79 C 173.77 165.35 172.77 163.96 171.68 162.64 C 170.64 161.37 169.52 160.17 168.32 159.05 C 167.14 157.94 165.88 156.91 164.56 155.96 C 163.21 154.98 161.78 154.11 160.29 153.36 C 158.87 152.63 157.38 152.02 155.86 151.53 C 154.33 151.04 152.77 150.67 151.19 150.43 C 149.53 150.17 147.86 150.05 146.18 150.05 C 143.25 150.05 140.34 150.33 137.47 150.89 C 135.26 151.32 133.08 151.88 130.94 152.56 L 134.27 127.23 L 173.59 127.23 L 176.08 102.99 L 111.68 102.99 L 104.06 176.28 L 122.89 182.49 C 123.3 182.63 123.75 182.62 124.16 182.48 C 124.57 182.35 124.93 182.07 125.17 181.72 C 126.05 180.42 127.07 179.22 128.21 178.14 C 129.12 177.28 130.13 176.54 131.22 175.95 C 132.32 175.35 133.49 174.88 134.71 174.57 C 135.85 174.27 137.04 174.11 138.22 174.11 C 139.6 174.11 140.98 174.26 142.33 174.54 C 143.41 174.77 144.46 175.14 145.45 175.63 C 146.37 176.08 147.24 176.65 148.02 177.32 C 148.86 178.05 149.62 178.87 150.27 179.77 C 150.95 180.72 151.55 181.72 152.07 182.76 C 152.6 183.83 153.05 184.94 153.4 186.09 C 153.78 187.32 154.07 188.57 154.25 189.85 C 154.46 191.31 154.56 192.78 154.56 194.26 C 154.56 195.7 154.46 197.15 154.28 198.58 C 154.11 199.86 153.84 201.13 153.49 202.37 C 153.16 203.54 152.74 204.68 152.25 205.79 C 151.76 206.87 151.19 207.92 150.55 208.92 C 149.91 209.92 149.16 210.84 148.32 211.67 C 147.64 212.34 146.87 212.91 146.05 213.38 C 145.25 213.82 144.41 214.16 143.53 214.37 C 142.53 214.62 141.5 214.75 140.47 214.75 C 139.41 214.75 138.35 214.64 137.32 214.44 C 136.37 214.25 135.45 213.96 134.57 213.58 C 133.67 213.2 132.82 212.72 132.03 212.16 C 131.14 211.52 130.31 210.8 129.55 210.01 C 128.76 209.17 128.03 208.29 127.36 207.35 C 126.74 206.49 126.19 205.59 125.71 204.65 C 125.25 203.73 124.85 202.78 124.53 201.81 C 124.19 200.81 123.94 199.79 123.76 198.76 C 123.65 198.17 123.3 197.66 122.78 197.37 C 122.27 197.07 121.65 197.02 121.09 197.23 L 101.54 204.49 C 101.09 204.66 100.72 204.98 100.49 205.4 C 100.25 205.82 100.18 206.31 100.28 206.78 C 100.83 209.38 101.6 211.92 102.57 214.39 C 103.45 216.61 104.53 218.74 105.8 220.76 C 107.02 222.68 108.42 224.48 109.97 226.14 C 111.55 227.83 113.29 229.36 115.16 230.73 C 117.05 232.12 119.06 233.36 121.14 234.44 C 123.14 235.48 125.22 236.35 127.36 237.05 C 129.5 237.75 131.7 238.27 133.93 238.62 C 136.26 238.98 138.62 239.16 140.99 239.16 Z " fill-rule="evenodd" fill="rgb(0,0,0)"/><path d=" M 659.01 1034.84 C 657.25 1034.84 655.49 1034.96 653.75 1035.2 C 652.12 1035.43 650.52 1035.77 648.94 1036.24 C 647.4 1036.69 645.89 1037.25 644.44 1037.93 C 642.94 1038.62 641.5 1039.41 640.12 1040.31 C 638.74 1041.21 637.42 1042.2 636.18 1043.27 C 634.94 1044.34 633.78 1045.49 632.7 1046.71 C 631.58 1047.98 630.55 1049.32 629.62 1050.72 C 628.61 1052.24 627.7 1053.81 626.89 1055.44 C 626.12 1057 625.44 1058.6 624.86 1060.25 C 624.26 1061.94 623.76 1063.67 623.36 1065.42 C 622.94 1067.28 622.62 1069.17 622.42 1071.06 C 622.2 1073.13 622.09 1075.22 622.09 1077.3 C 622.09 1079.06 622.18 1080.82 622.37 1082.58 C 622.54 1084.24 622.81 1085.88 623.17 1087.51 C 623.52 1089.1 623.96 1090.66 624.48 1092.19 C 625.01 1093.72 625.61 1095.22 626.31 1096.69 C 627.02 1098.2 627.82 1099.66 628.71 1101.08 C 629.53 1102.38 630.43 1103.63 631.4 1104.82 C 632.34 1105.95 633.34 1107.03 634.41 1108.03 C 635.47 1109.02 636.6 1109.95 637.77 1110.79 C 638.96 1111.65 640.22 1112.41 641.52 1113.08 C 642.76 1113.71 644.04 1114.24 645.37 1114.66 C 646.69 1115.09 648.04 1115.41 649.42 1115.62 C 650.87 1115.84 652.35 1115.95 653.82 1115.95 C 656.49 1115.95 659.15 1115.7 661.77 1115.18 C 664.83 1114.58 667.84 1113.73 670.76 1112.62 C 671.42 1112.37 672.16 1112.49 672.71 1112.93 C 673.26 1113.36 673.54 1114.06 673.45 1114.75 L 669.24 1146.77 L 630.02 1146.77 L 628.36 1163.01 L 684.71 1163.01 L 691.63 1096.51 L 677.25 1091.77 C 676.42 1092.84 675.52 1093.84 674.54 1094.77 C 673.38 1095.86 672.09 1096.8 670.69 1097.57 C 669.31 1098.32 667.83 1098.91 666.3 1099.31 C 664.83 1099.69 663.31 1099.89 661.78 1099.89 C 660.12 1099.89 658.47 1099.71 656.85 1099.37 C 655.44 1099.07 654.07 1098.6 652.78 1097.96 C 651.56 1097.36 650.41 1096.6 649.38 1095.71 C 648.29 1094.78 647.32 1093.73 646.49 1092.57 C 645.68 1091.44 644.96 1090.25 644.35 1089.01 C 643.72 1087.75 643.2 1086.44 642.78 1085.1 C 642.33 1083.67 642 1082.2 641.79 1080.71 C 641.56 1079.07 641.44 1077.41 641.44 1075.74 C 641.44 1074.12 641.55 1072.5 641.76 1070.89 C 641.95 1069.42 642.26 1067.96 642.66 1066.54 C 643.05 1065.18 643.53 1063.86 644.1 1062.57 C 644.67 1061.31 645.33 1060.09 646.08 1058.92 C 646.88 1057.67 647.82 1056.51 648.88 1055.47 C 649.81 1054.56 650.86 1053.77 652 1053.13 C 653.1 1052.52 654.28 1052.05 655.51 1051.74 C 656.82 1051.42 658.17 1051.25 659.53 1051.25 C 660.85 1051.25 662.17 1051.38 663.46 1051.64 C 664.68 1051.88 665.88 1052.25 667.02 1052.74 C 668.17 1053.24 669.27 1053.86 670.29 1054.59 C 671.39 1055.37 672.42 1056.26 673.35 1057.24 C 674.27 1058.2 675.12 1059.23 675.9 1060.32 C 676.63 1061.34 677.28 1062.42 677.85 1063.54 C 678.41 1064.63 678.88 1065.77 679.27 1066.93 C 679.41 1067.36 679.54 1067.79 679.66 1068.23 L 695.42 1062.37 C 694.96 1060.57 694.39 1058.8 693.71 1057.08 C 692.93 1055.09 691.96 1053.19 690.82 1051.38 C 689.73 1049.67 688.49 1048.07 687.11 1046.6 C 685.7 1045.09 684.15 1043.72 682.48 1042.5 C 680.75 1041.23 678.92 1040.1 677.02 1039.11 C 675.21 1038.17 673.33 1037.39 671.4 1036.75 C 669.46 1036.12 667.48 1035.65 665.46 1035.33 C 663.33 1035 661.17 1034.84 659.01 1034.84 Z  M 659.01 1030.84 C 657.07 1030.84 655.12 1030.97 653.2 1031.24 C 651.38 1031.49 649.58 1031.88 647.81 1032.4 C 646.08 1032.9 644.39 1033.54 642.76 1034.29 C 641.09 1035.07 639.48 1035.95 637.94 1036.96 C 636.41 1037.95 634.95 1039.05 633.57 1040.24 C 632.19 1041.43 630.9 1042.71 629.7 1044.07 C 628.46 1045.47 627.32 1046.95 626.29 1048.51 C 625.19 1050.16 624.19 1051.88 623.31 1053.66 C 622.47 1055.37 621.72 1057.12 621.09 1058.91 C 620.44 1060.75 619.89 1062.63 619.46 1064.54 C 619 1066.55 618.66 1068.58 618.44 1070.63 C 618.2 1072.85 618.09 1075.07 618.09 1077.3 C 618.09 1079.2 618.19 1081.11 618.39 1083 C 618.58 1084.81 618.87 1086.6 619.27 1088.38 C 619.65 1090.1 620.13 1091.81 620.7 1093.49 C 621.27 1095.16 621.93 1096.8 622.69 1098.39 C 623.47 1100.05 624.35 1101.66 625.32 1103.21 C 626.23 1104.65 627.23 1106.04 628.32 1107.36 C 629.36 1108.63 630.48 1109.83 631.68 1110.95 C 632.86 1112.06 634.12 1113.09 635.44 1114.04 C 636.79 1115.02 638.22 1115.89 639.71 1116.64 C 641.13 1117.37 642.62 1117.98 644.14 1118.47 C 645.67 1118.96 647.23 1119.33 648.81 1119.57 C 650.47 1119.83 652.14 1119.95 653.82 1119.95 C 656.75 1119.95 659.66 1119.67 662.53 1119.11 C 664.74 1118.68 666.92 1118.12 669.06 1117.44 L 665.73 1142.77 L 626.41 1142.77 L 623.92 1167.01 L 688.32 1167.01 L 695.94 1093.72 L 677.11 1087.51 C 676.7 1087.37 676.25 1087.38 675.84 1087.52 C 675.43 1087.66 675.07 1087.93 674.83 1088.28 C 673.95 1089.58 672.93 1090.78 671.79 1091.86 C 670.88 1092.72 669.87 1093.46 668.78 1094.05 C 667.68 1094.65 666.51 1095.12 665.29 1095.43 C 664.15 1095.73 662.96 1095.89 661.78 1095.89 C 660.4 1095.89 659.02 1095.74 657.67 1095.46 C 656.59 1095.23 655.54 1094.86 654.55 1094.37 C 653.63 1093.92 652.76 1093.35 651.98 1092.68 C 651.14 1091.95 650.38 1091.13 649.73 1090.23 C 649.05 1089.28 648.45 1088.28 647.93 1087.24 C 647.4 1086.17 646.95 1085.06 646.6 1083.91 C 646.22 1082.68 645.93 1081.43 645.75 1080.15 C 645.54 1078.69 645.44 1077.22 645.44 1075.74 C 645.44 1074.3 645.54 1072.85 645.72 1071.42 C 645.89 1070.14 646.16 1068.87 646.51 1067.63 C 646.84 1066.46 647.26 1065.32 647.75 1064.21 C 648.24 1063.13 648.81 1062.08 649.45 1061.08 C 650.09 1060.08 650.84 1059.16 651.68 1058.33 C 652.36 1057.66 653.13 1057.09 653.95 1056.62 C 654.75 1056.18 655.59 1055.84 656.47 1055.63 C 657.47 1055.38 658.5 1055.25 659.53 1055.25 C 660.59 1055.25 661.65 1055.36 662.68 1055.56 C 663.63 1055.75 664.55 1056.04 665.43 1056.42 C 666.33 1056.8 667.18 1057.28 667.97 1057.84 C 668.86 1058.48 669.69 1059.2 670.45 1059.99 C 671.24 1060.83 671.97 1061.71 672.64 1062.65 C 673.26 1063.51 673.81 1064.41 674.29 1065.36 C 674.75 1066.27 675.15 1067.22 675.47 1068.19 C 675.81 1069.19 676.06 1070.21 676.24 1071.24 C 676.35 1071.83 676.7 1072.34 677.22 1072.63 C 677.73 1072.93 678.35 1072.98 678.91 1072.77 L 698.46 1065.51 C 698.91 1065.34 699.28 1065.02 699.51 1064.6 C 699.75 1064.18 699.82 1063.69 699.72 1063.22 C 699.17 1060.62 698.4 1058.08 697.43 1055.61 C 696.55 1053.39 695.47 1051.26 694.2 1049.24 C 692.98 1047.32 691.58 1045.52 690.03 1043.86 C 688.45 1042.17 686.71 1040.64 684.84 1039.27 C 682.95 1037.88 680.94 1036.64 678.86 1035.56 C 676.86 1034.52 674.78 1033.65 672.64 1032.95 C 670.5 1032.25 668.3 1031.73 666.07 1031.38 C 663.74 1031.02 661.38 1030.84 659.01 1030.84 Z " fill-rule="evenodd" fill="rgb(0,0,0)"/><path d=" M 404.23 810.27 C 408.92 810.27 413.6 809.95 418.25 809.3 C 422.58 808.7 426.87 807.78 431.07 806.54 C 435.19 805.34 439.2 803.83 443.09 802.03 C 447.08 800.19 450.93 798.07 454.6 795.67 C 458.28 793.29 461.78 790.65 465.1 787.79 C 468.4 784.94 471.5 781.88 474.38 778.61 C 477.35 775.24 480.1 771.67 482.59 767.93 C 485.27 763.91 487.68 759.72 489.83 755.39 C 491.89 751.24 493.69 746.97 495.24 742.6 C 496.83 738.1 498.16 733.51 499.22 728.85 C 500.34 723.91 501.18 718.91 501.72 713.88 C 502.31 708.38 502.61 702.86 502.61 697.34 C 502.61 692.65 502.36 687.97 501.86 683.32 C 501.39 678.91 500.68 674.53 499.72 670.2 C 498.79 665.99 497.63 661.84 496.23 657.76 C 494.84 653.69 493.22 649.7 491.39 645.81 C 489.49 641.79 487.35 637.89 484.99 634.12 C 482.81 630.65 480.42 627.32 477.81 624.16 C 475.32 621.13 472.64 618.27 469.78 615.59 C 466.96 612.94 463.96 610.48 460.82 608.22 C 457.64 605.93 454.29 603.89 450.8 602.11 C 447.48 600.42 444.04 599 440.51 597.86 C 436.96 596.72 433.33 595.87 429.65 595.3 C 425.76 594.71 421.82 594.41 417.88 594.41 C 414.44 594.41 411 594.58 407.57 594.91 C 403.93 595.26 400.31 595.77 396.72 596.45 C 392.84 597.19 389 598.09 385.21 599.18 C 381.05 600.36 376.94 601.72 372.88 603.25 C 371.57 603.75 370.09 603.52 368.99 602.64 C 367.89 601.77 367.32 600.38 367.51 598.99 L 378.43 515.89 L 481.61 515.89 L 486.25 470.65 L 335.49 470.65 L 317.09 647.68 L 356.73 660.76 C 357.64 659.54 358.58 658.35 359.56 657.19 C 361.04 655.46 362.61 653.81 364.28 652.26 C 365.81 650.85 367.42 649.52 369.11 648.3 C 370.7 647.14 372.37 646.08 374.11 645.14 C 375.93 644.15 377.8 643.26 379.73 642.5 C 381.57 641.76 383.45 641.15 385.37 640.65 C 387.26 640.17 389.17 639.8 391.09 639.56 C 393.04 639.31 394.99 639.19 396.95 639.19 C 399.2 639.19 401.45 639.31 403.68 639.54 C 405.71 639.75 407.72 640.07 409.71 640.52 C 411.54 640.92 413.35 641.44 415.12 642.05 C 416.81 642.64 418.46 643.33 420.06 644.12 C 421.62 644.89 423.13 645.76 424.59 646.71 C 426.04 647.67 427.43 648.71 428.75 649.84 C 430.11 651 431.4 652.24 432.6 653.56 C 433.87 654.94 435.05 656.39 436.14 657.92 C 438.23 660.82 440.08 663.88 441.67 667.08 C 443.29 670.34 444.64 673.72 445.72 677.19 C 446.87 680.9 447.72 684.69 448.27 688.53 C 448.88 692.8 449.18 697.11 449.18 701.43 C 449.18 705.64 448.91 709.84 448.35 714.01 C 447.85 717.83 447.07 721.6 446.02 725.3 C 445.03 728.8 443.78 732.23 442.29 735.55 C 440.82 738.82 439.11 741.97 437.18 744.99 C 436.09 746.68 434.92 748.31 433.66 749.86 C 432.51 751.28 431.28 752.62 429.97 753.88 C 428.76 755.05 427.47 756.14 426.12 757.15 C 424.82 758.12 423.47 759 422.06 759.79 C 420.67 760.57 419.23 761.26 417.75 761.85 C 416.26 762.44 414.72 762.94 413.17 763.34 C 411.54 763.75 409.89 764.06 408.22 764.26 C 406.45 764.47 404.66 764.58 402.87 764.58 C 399.48 764.58 396.09 764.25 392.77 763.59 C 389.64 762.97 386.6 762.02 383.67 760.76 C 380.72 759.49 377.92 757.91 375.3 756.05 C 372.47 754.03 369.83 751.75 367.44 749.23 C 365.06 746.73 362.85 744.07 360.85 741.26 C 358.96 738.62 357.27 735.84 355.8 732.95 C 354.36 730.13 353.14 727.2 352.14 724.2 C 351.63 722.66 351.18 721.1 350.78 719.53 L 306.99 735.81 C 307.51 737.96 308.08 740.09 308.72 742.2 C 309.61 745.17 310.63 748.09 311.78 750.97 C 312.87 753.67 314.07 756.33 315.39 758.92 C 316.65 761.4 318.03 763.82 319.52 766.17 C 320.97 768.46 322.52 770.68 324.18 772.83 C 325.82 774.95 327.57 777 329.4 778.96 C 331.26 780.94 333.2 782.83 335.23 784.63 C 337.33 786.48 339.5 788.23 341.76 789.89 C 346.37 793.26 351.23 796.27 356.3 798.9 C 361.11 801.39 366.11 803.49 371.26 805.17 C 376.42 806.85 381.71 808.12 387.07 808.95 C 392.75 809.83 398.49 810.27 404.23 810.27 Z  M 404.23 818.27 C 409.29 818.27 414.34 817.92 419.35 817.22 C 424.07 816.57 428.75 815.56 433.32 814.22 C 437.81 812.9 442.2 811.26 446.45 809.3 C 450.78 807.29 454.96 804.98 458.97 802.38 C 462.94 799.79 466.74 796.94 470.33 793.85 C 473.9 790.76 477.26 787.44 480.38 783.91 C 483.59 780.26 486.56 776.4 489.25 772.36 C 492.11 768.06 494.7 763.58 497 758.94 C 499.2 754.51 501.13 749.94 502.78 745.27 C 504.48 740.48 505.89 735.58 507.02 730.62 C 508.21 725.38 509.1 720.07 509.67 714.73 C 510.3 708.95 510.61 703.15 510.61 697.34 C 510.61 692.37 510.34 687.41 509.82 682.47 C 509.32 677.77 508.56 673.09 507.53 668.47 C 506.54 663.97 505.29 659.53 503.8 655.17 C 502.32 650.82 500.59 646.55 498.62 642.39 C 496.59 638.09 494.3 633.9 491.77 629.87 C 489.41 626.11 486.81 622.5 483.99 619.07 C 481.28 615.78 478.36 612.67 475.26 609.76 C 472.18 606.87 468.92 604.19 465.49 601.72 C 461.98 599.2 458.28 596.94 454.43 594.98 C 450.74 593.1 446.9 591.52 442.96 590.25 C 439.01 588.98 434.96 588.02 430.86 587.4 C 426.57 586.74 422.23 586.41 417.88 586.41 C 414.18 586.41 410.49 586.59 406.8 586.94 C 402.92 587.32 399.06 587.87 395.23 588.59 C 391.12 589.37 387.04 590.34 383.02 591.48 C 380.76 592.13 378.52 592.82 376.29 593.56 L 385.45 523.89 L 488.83 523.89 L 495.11 462.65 L 328.28 462.65 L 308.47 653.26 L 357.02 669.28 C 357.85 669.56 358.74 669.55 359.56 669.27 C 360.39 668.99 361.1 668.45 361.59 667.73 C 362.85 665.87 364.21 664.08 365.67 662.37 C 366.93 660.87 368.28 659.46 369.72 658.13 C 371.01 656.93 372.38 655.81 373.8 654.77 C 375.13 653.82 376.51 652.94 377.94 652.16 C 379.48 651.32 381.06 650.58 382.69 649.93 C 384.22 649.32 385.78 648.81 387.37 648.4 C 388.93 648 390.5 647.7 392.1 647.5 C 393.71 647.29 395.33 647.19 396.95 647.19 C 398.93 647.19 400.9 647.29 402.86 647.49 C 404.58 647.67 406.28 647.95 407.97 648.33 C 409.5 648.67 411.01 649.09 412.49 649.61 C 413.87 650.09 415.21 650.65 416.52 651.29 C 417.79 651.92 419.01 652.62 420.19 653.4 C 421.37 654.17 422.49 655.02 423.56 655.93 C 424.67 656.87 425.72 657.88 426.7 658.96 C 427.75 660.11 428.74 661.32 429.65 662.59 C 431.49 665.14 433.11 667.83 434.5 670.64 C 435.93 673.51 437.13 676.5 438.08 679.56 C 439.1 682.86 439.86 686.24 440.35 689.66 C 440.9 693.56 441.18 697.49 441.18 701.43 C 441.18 705.29 440.93 709.14 440.42 712.97 C 439.97 716.4 439.27 719.79 438.32 723.11 C 437.44 726.24 436.32 729.3 434.99 732.27 C 433.68 735.18 432.16 737.99 430.44 740.68 C 429.52 742.11 428.52 743.5 427.44 744.83 C 426.51 745.99 425.5 747.08 424.42 748.12 C 423.45 749.06 422.41 749.94 421.33 750.75 C 420.31 751.51 419.25 752.2 418.15 752.81 C 417.06 753.42 415.94 753.96 414.79 754.41 C 413.62 754.88 412.42 755.27 411.19 755.58 C 409.9 755.91 408.59 756.16 407.27 756.32 C 405.81 756.49 404.34 756.58 402.87 756.58 C 400 756.58 397.14 756.3 394.32 755.74 C 391.75 755.23 389.24 754.45 386.84 753.41 C 384.41 752.36 382.09 751.06 379.93 749.53 C 377.52 747.81 375.28 745.86 373.23 743.72 C 371.11 741.49 369.14 739.11 367.35 736.6 C 365.7 734.29 364.22 731.86 362.93 729.32 C 361.67 726.86 360.61 724.3 359.73 721.68 C 358.84 719 358.15 716.26 357.67 713.48 C 357.46 712.31 356.75 711.29 355.72 710.7 C 354.69 710.11 353.45 710.01 352.33 710.42 L 300.92 729.53 C 300.02 729.86 299.27 730.51 298.81 731.35 C 298.35 732.19 298.2 733.17 298.4 734.11 C 299.14 737.61 300.03 741.08 301.06 744.5 C 302.01 747.7 303.12 750.85 304.36 753.95 C 305.53 756.87 306.83 759.74 308.26 762.55 C 309.64 765.25 311.14 767.89 312.76 770.45 C 314.34 772.95 316.04 775.38 317.85 777.72 C 319.65 780.04 321.55 782.28 323.56 784.43 C 325.59 786.59 327.71 788.66 329.93 790.62 C 332.21 792.64 334.58 794.54 337.03 796.34 C 341.97 799.96 347.18 803.19 352.62 806 C 357.81 808.69 363.22 810.96 368.78 812.77 C 374.35 814.59 380.06 815.96 385.85 816.85 C 391.93 817.8 398.08 818.27 404.23 818.27 Z " fill-rule="evenodd" fill="rgb(0,0,0)"/></g></svg>