<?xml version="1.0" encoding="UTF-8" standalone="no"?><!-- Generator: Gravit.io --><svg xmlns="http://www.w3.org/2000/svg" xmlns:xlink="http://www.w3.org/1999/xlink" style="isolation:isolate" viewBox="0 0 800 1270" width="800pt" height="1270pt"><defs><clipPath id="_clipPath_FT4SqfuX6EAZbfmxfm0x2qElNbQSeE05"><rect width="800" height="1270"/></clipPath></defs><g clip-path="url(#_clipPath_FT4SqfuX6EAZbfmxfm0x2qElNbQSeE05)"><path d=" M 800 64 C 800 30.523 757.12 0 736 0 L 64 0 C 42.912 0 0 30.523 0 64 L 0 1206 C 0 1239.477 42.912 1270 64 1270 L 746 1270 C 767.12 1270 800 1239.477 800 1206 L 800 64 Z " fill-rule="evenodd" fill="rgb(0,0,0)"/><path d=" M 796 64 C 796 30.734 756.908 4 736 4 L 64 4 C 43.123 4 4 34.331 4 67.597 L 4 1206 C 4 1239.266 43.123 1266 64 1266 L 746 1266 C 766.908 1266 796 1239.266 796 1206 L 796 64 Z " fill-rule="evenodd" fill="rgb(255,255,255)"/><path d=" M 736 121.55 C 736 91.446 699.98 64 682.24 64 L 117.76 64 C 100.046 64 64 91.446 64 121.55 L 64 1148.45 C 64 1178.554 100.046 1206 117.76 1206 L 690.64 1206 C 708.38 1206 736 1178.554 736 1148.45 L 736 121.55 Z " fill-rule="evenodd" fill="rgb(0,114,188)"/><path d=" M 183.054 507.699 C 343.308 234.596 570.623 69.913 690.359 140.172 C 810.095 210.432 777.199 489.198 616.946 762.301 C 456.692 1035.404 229.377 1200.087 109.641 1129.828 C -10.095 1059.568 22.801 780.802 183.054 507.699 Z " fill="rgb(255,255,255)"/><defs><filter id="sVpcGTXgC665SzL82YUKQK40RaF7R9M4" x="-200%" y="-200%" width="400%" height="400%" filterUnits="objectBoundingBox" color-interpolation-filters="sRGB"><feGaussianBlur xmlns="http://www.w3.org/2000/svg" in="SourceGraphic" stdDeviation="0"/><feOffset xmlns="http://www.w3.org/2000/svg" dx="8" dy="8" result="pf_100_offsetBlur"/><feFlood xmlns="http://www.w3.org/2000/svg" flood-color="#000000" flood-opacity="1"/><feComposite xmlns="http://www.w3.org/2000/svg" in2="pf_100_offsetBlur" operator="in" result="pf_100_dropShadow"/><feBlend xmlns="http://www.w3.org/2000/svg" in="SourceGraphic" in2="pf_100_dropShadow" mode="normal"/></filter></defs><g filter="url(#sVpcGTXgC665SzL82YUKQK40RaF7R9M4)"><path d=" M 135.281 237.162 L 135.281 237.162 Q 123.517 237.162 115.645 228.945 L 115.645 228.945 L 115.645 228.945 Q 107.774 220.727 105.525 205.676 L 105.525 205.676 L 124.555 201.178 L 124.555 201.178 Q 125.593 206.195 126.458 209.05 L 126.458 209.05 L 126.458 209.05 Q 127.323 211.904 129.658 214.326 L 129.658 214.326 L 129.658 214.326 Q 131.994 216.748 136.146 216.748 L 136.146 216.748 L 136.146 216.748 Q 144.796 216.748 147.823 206.282 L 147.823 206.282 L 147.823 206.282 Q 150.851 195.815 151.197 178.688 L 151.197 178.688 L 151.197 178.688 Q 147.218 181.629 141.768 183.446 L 141.768 183.446 L 141.768 183.446 Q 136.319 185.262 131.475 185.262 L 131.475 185.262 L 131.475 185.262 Q 122.652 185.262 116.078 179.726 L 116.078 179.726 L 116.078 179.726 Q 109.504 174.19 105.957 165.108 L 105.957 165.108 L 105.957 165.108 Q 102.411 156.025 102.411 145.818 L 102.411 145.818 L 102.411 145.818 Q 102.411 134.054 106.995 124.193 L 106.995 124.193 L 106.995 124.193 Q 111.58 114.332 119.884 108.45 L 119.884 108.45 L 119.884 108.45 Q 128.188 102.568 138.914 102.568 L 138.914 102.568 L 138.914 102.568 Q 159.501 102.568 167.632 122.463 L 167.632 122.463 L 167.632 122.463 Q 175.763 142.358 175.763 167.616 L 175.763 167.616 L 175.763 167.616 Q 175.763 188.03 170.832 203.773 L 170.832 203.773 L 170.832 203.773 Q 165.902 219.516 156.733 228.339 L 156.733 228.339 L 156.733 228.339 Q 147.564 237.162 135.281 237.162 L 135.281 237.162 L 135.281 237.162 Z  M 140.125 164.848 L 140.125 164.848 Q 145.315 164.848 151.197 161.042 L 151.197 161.042 L 151.197 161.042 Q 151.543 157.755 151.543 152.392 L 151.543 152.392 L 151.543 152.392 Q 151.543 139.59 149.034 131.286 L 149.034 131.286 L 149.034 131.286 Q 146.526 122.982 139.26 122.982 L 139.26 122.982 L 139.26 122.982 Q 132.686 122.982 129.658 129.902 L 129.658 129.902 L 129.658 129.902 Q 126.631 136.822 126.631 145.126 L 126.631 145.126 L 126.631 145.126 Q 126.631 153.43 129.831 159.139 L 129.831 159.139 L 129.831 159.139 Q 133.032 164.848 140.125 164.848 L 140.125 164.848 L 140.125 164.848 Z " fill="rgb(255,255,255)"/></g><defs><filter id="ZnHOJpePvOV1bHlsj3zYY4rg4jhVPOzW" x="-200%" y="-200%" width="400%" height="400%" filterUnits="objectBoundingBox" color-interpolation-filters="sRGB"><feGaussianBlur xmlns="http://www.w3.org/2000/svg" in="SourceGraphic" stdDeviation="0"/><feOffset xmlns="http://www.w3.org/2000/svg" dx="8" dy="8" result="pf_100_offsetBlur"/><feFlood xmlns="http://www.w3.org/2000/svg" flood-color="#000000" flood-opacity="1"/><feComposite xmlns="http://www.w3.org/2000/svg" in2="pf_100_offsetBlur" operator="in" result="pf_100_dropShadow"/><feBlend xmlns="http://www.w3.org/2000/svg" in="SourceGraphic" in2="pf_100_dropShadow" mode="normal"/></filter></defs><g filter="url(#ZnHOJpePvOV1bHlsj3zYY4rg4jhVPOzW)"><path d=" M 163.307 273.808 L 114.694 273.808 L 114.694 253.74 L 163.307 253.74 L 163.307 273.808 L 163.307 273.808 Z " fill="rgb(255,255,255)"/></g><defs><filter id="6Qs9sv4ZGTX5vXeYKXIIr8nvrwEWmDru" x="-200%" y="-200%" width="400%" height="400%" filterUnits="objectBoundingBox" color-interpolation-filters="sRGB"><feGaussianBlur xmlns="http://www.w3.org/2000/svg" in="SourceGraphic" stdDeviation="0"/><feOffset xmlns="http://www.w3.org/2000/svg" dx="8" dy="8" result="pf_100_offsetBlur"/><feFlood xmlns="http://www.w3.org/2000/svg" flood-color="#000000" flood-opacity="1"/><feComposite xmlns="http://www.w3.org/2000/svg" in2="pf_100_offsetBlur" operator="in" result="pf_100_dropShadow"/><feBlend xmlns="http://www.w3.org/2000/svg" in="SourceGraphic" in2="pf_100_dropShadow" mode="normal"/></filter></defs><g filter="url(#6Qs9sv4ZGTX5vXeYKXIIr8nvrwEWmDru)"><path d=" M 664.719 1032.838 L 664.719 1032.838 Q 676.483 1032.838 684.355 1041.056 L 684.355 1041.056 L 684.355 1041.056 Q 692.226 1049.273 694.475 1064.324 L 694.475 1064.324 L 675.445 1068.822 L 675.445 1068.822 Q 674.407 1063.805 673.542 1060.951 L 673.542 1060.951 L 673.542 1060.951 Q 672.677 1058.096 670.342 1055.674 L 670.342 1055.674 L 670.342 1055.674 Q 668.006 1053.252 663.854 1053.252 L 663.854 1053.252 L 663.854 1053.252 Q 655.204 1053.252 652.177 1063.719 L 652.177 1063.719 L 652.177 1063.719 Q 649.149 1074.185 648.803 1091.312 L 648.803 1091.312 L 648.803 1091.312 Q 652.782 1088.371 658.232 1086.555 L 658.232 1086.555 L 658.232 1086.555 Q 663.681 1084.738 668.525 1084.738 L 668.525 1084.738 L 668.525 1084.738 Q 677.348 1084.738 683.922 1090.274 L 683.922 1090.274 L 683.922 1090.274 Q 690.496 1095.81 694.043 1104.893 L 694.043 1104.893 L 694.043 1104.893 Q 697.589 1113.975 697.589 1124.182 L 697.589 1124.182 L 697.589 1124.182 Q 697.589 1135.946 693.005 1145.807 L 693.005 1145.807 L 693.005 1145.807 Q 688.42 1155.668 680.116 1161.55 L 680.116 1161.55 L 680.116 1161.55 Q 671.812 1167.432 661.086 1167.432 L 661.086 1167.432 L 661.086 1167.432 Q 640.499 1167.432 632.368 1147.537 L 632.368 1147.537 L 632.368 1147.537 Q 624.237 1127.642 624.237 1102.384 L 624.237 1102.384 L 624.237 1102.384 Q 624.237 1081.97 629.168 1066.227 L 629.168 1066.227 L 629.168 1066.227 Q 634.098 1050.484 643.267 1041.661 L 643.267 1041.661 L 643.267 1041.661 Q 652.436 1032.838 664.719 1032.838 L 664.719 1032.838 L 664.719 1032.838 Z  M 659.875 1105.152 L 659.875 1105.152 Q 654.685 1105.152 648.803 1108.958 L 648.803 1108.958 L 648.803 1108.958 Q 648.457 1112.245 648.457 1117.608 L 648.457 1117.608 L 648.457 1117.608 Q 648.457 1130.41 650.966 1138.714 L 650.966 1138.714 L 650.966 1138.714 Q 653.474 1147.018 660.74 1147.018 L 660.74 1147.018 L 660.74 1147.018 Q 667.314 1147.018 670.342 1140.098 L 670.342 1140.098 L 670.342 1140.098 Q 673.369 1133.178 673.369 1124.874 L 673.369 1124.874 L 673.369 1124.874 Q 673.369 1116.57 670.169 1110.861 L 670.169 1110.861 L 670.169 1110.861 Q 666.968 1105.152 659.875 1105.152 L 659.875 1105.152 L 659.875 1105.152 Z " fill="rgb(255,255,255)"/></g><defs><filter id="C5oMhwIa2Q5Yybdg5TyE0IeCcDj4G4hg" x="-200%" y="-200%" width="400%" height="400%" filterUnits="objectBoundingBox" color-interpolation-filters="sRGB"><feGaussianBlur xmlns="http://www.w3.org/2000/svg" in="SourceGraphic" stdDeviation="0"/><feOffset xmlns="http://www.w3.org/2000/svg" dx="8" dy="8" result="pf_100_offsetBlur"/><feFlood xmlns="http://www.w3.org/2000/svg" flood-color="#000000" flood-opacity="1"/><feComposite xmlns="http://www.w3.org/2000/svg" in2="pf_100_offsetBlur" operator="in" result="pf_100_dropShadow"/><feBlend xmlns="http://www.w3.org/2000/svg" in="SourceGraphic" in2="pf_100_dropShadow" mode="normal"/></filter></defs><g filter="url(#C5oMhwIa2Q5Yybdg5TyE0IeCcDj4G4hg)"><path d=" M 636.693 996.192 L 685.306 996.192 L 685.306 1016.26 L 636.693 1016.26 L 636.693 996.192 L 636.693 996.192 Z " fill="rgb(255,255,255)"/></g><defs><filter id="kKDMfHLHpaOS7ztbj8mRrMJsbU5wyoGV" x="-200%" y="-200%" width="400%" height="400%" filterUnits="objectBoundingBox" color-interpolation-filters="sRGB"><feGaussianBlur xmlns="http://www.w3.org/2000/svg" in="SourceGraphic" stdDeviation="0"/><feOffset xmlns="http://www.w3.org/2000/svg" dx="16" dy="16" result="pf_100_offsetBlur"/><feFlood xmlns="http://www.w3.org/2000/svg" flood-color="#000000" flood-opacity="1"/><feComposite xmlns="http://www.w3.org/2000/svg" in2="pf_100_offsetBlur" operator="in" result="pf_100_dropShadow"/><feBlend xmlns="http://www.w3.org/2000/svg" in="SourceGraphic" in2="pf_100_dropShadow" mode="normal"/></filter></defs><g filter="url(#kKDMfHLHpaOS7ztbj8mRrMJsbU5wyoGV)"><path d=" M 389.218 814.27 L 389.218 814.27 Q 358.278 814.27 337.575 792.658 L 337.575 792.658 L 337.575 792.658 Q 316.872 771.045 310.958 731.46 L 310.958 731.46 L 361.007 719.63 L 361.007 719.63 Q 363.737 732.825 366.013 740.333 L 366.013 740.333 L 366.013 740.333 Q 368.287 747.84 374.43 754.21 L 374.43 754.21 L 374.43 754.21 Q 380.573 760.58 391.492 760.58 L 391.492 760.58 L 391.492 760.58 Q 414.242 760.58 422.205 733.053 L 422.205 733.053 L 422.205 733.053 Q 430.167 705.525 431.078 660.48 L 431.078 660.48 L 431.078 660.48 Q 420.612 668.215 406.28 672.993 L 406.28 672.993 L 406.28 672.993 Q 391.948 677.77 379.208 677.77 L 379.208 677.77 L 379.208 677.77 Q 356.002 677.77 338.713 663.21 L 338.713 663.21 L 338.713 663.21 Q 321.422 648.65 312.095 624.763 L 312.095 624.763 L 312.095 624.763 Q 302.768 600.875 302.768 574.03 L 302.768 574.03 L 302.768 574.03 Q 302.768 543.09 314.825 517.155 L 314.825 517.155 L 314.825 517.155 Q 326.882 491.22 348.722 475.75 L 348.722 475.75 L 348.722 475.75 Q 370.563 460.28 398.773 460.28 L 398.773 460.28 L 398.773 460.28 Q 452.917 460.28 474.303 512.605 L 474.303 512.605 L 474.303 512.605 Q 495.687 564.93 495.687 631.36 L 495.687 631.36 L 495.687 631.36 Q 495.687 685.05 482.72 726.455 L 482.72 726.455 L 482.72 726.455 Q 469.752 767.86 445.637 791.065 L 445.637 791.065 L 445.637 791.065 Q 421.523 814.27 389.218 814.27 L 389.218 814.27 L 389.218 814.27 Z  M 401.958 624.08 L 401.958 624.08 Q 415.607 624.08 431.078 614.07 L 431.078 614.07 L 431.078 614.07 Q 431.987 605.425 431.987 591.32 L 431.987 591.32 L 431.987 591.32 Q 431.987 557.65 425.39 535.81 L 425.39 535.81 L 425.39 535.81 Q 418.792 513.97 399.683 513.97 L 399.683 513.97 L 399.683 513.97 Q 382.393 513.97 374.43 532.17 L 374.43 532.17 L 374.43 532.17 Q 366.468 550.37 366.468 572.21 L 366.468 572.21 L 366.468 572.21 Q 366.468 594.05 374.885 609.065 L 374.885 609.065 L 374.885 609.065 Q 383.302 624.08 401.958 624.08 L 401.958 624.08 L 401.958 624.08 Z " fill="rgb(0,114,188)"/></g><defs><filter id="HUvUIZRmOD8gRaamavQJSLiCVQ5VTFaB" x="-200%" y="-200%" width="400%" height="400%" filterUnits="objectBoundingBox" color-interpolation-filters="sRGB"><feGaussianBlur xmlns="http://www.w3.org/2000/svg" in="SourceGraphic" stdDeviation="0"/><feOffset xmlns="http://www.w3.org/2000/svg" dx="16" dy="16" result="pf_100_offsetBlur"/><feFlood xmlns="http://www.w3.org/2000/svg" flood-color="#000000" flood-opacity="1"/><feComposite xmlns="http://www.w3.org/2000/svg" in2="pf_100_offsetBlur" operator="in" result="pf_100_dropShadow"/><feBlend xmlns="http://www.w3.org/2000/svg" in="SourceGraphic" in2="pf_100_dropShadow" mode="normal"/></filter></defs><g filter="url(#HUvUIZRmOD8gRaamavQJSLiCVQ5VTFaB)"><path d=" M 462.927 900.033 L 335.072 900.033 L 335.072 847.253 L 462.927 847.253 L 462.927 900.033 L 462.927 900.033 Z " fill="rgb(0,114,188)"/></g><path d=" M 118.73 106.82 C 120.17 105.8 121.68 104.89 123.26 104.11 C 124.81 103.33 126.42 102.69 128.07 102.17 C 129.76 101.64 131.49 101.24 133.25 100.98 C 135.12 100.71 137.02 100.57 138.91 100.57 C 140.76 100.57 142.6 100.69 144.43 100.94 C 146.07 101.16 147.68 101.5 149.26 101.97 C 150.72 102.4 152.15 102.94 153.53 103.59 C 154.86 104.22 156.15 104.96 157.37 105.79 C 158.6 106.63 159.76 107.56 160.84 108.59 C 161.98 109.67 163.04 110.83 164.01 112.06 C 165.07 113.43 166.04 114.87 166.89 116.37 C 167.87 118.1 168.73 119.88 169.48 121.71 C 170.81 124.94 171.96 128.25 172.94 131.6 C 173.98 135.16 174.84 138.77 175.53 142.42 C 176.27 146.37 176.82 150.35 177.18 154.36 C 177.57 158.76 177.76 163.19 177.76 167.62 C 177.76 174.46 177.3 181.3 176.37 188.09 C 175.62 193.61 174.41 199.06 172.74 204.37 C 171.85 207.22 170.8 210.02 169.61 212.76 C 168.58 215.11 167.41 217.4 166.1 219.6 C 164.94 221.54 163.66 223.41 162.27 225.19 C 160.99 226.81 159.61 228.35 158.12 229.78 C 156.51 231.33 154.76 232.73 152.9 233.97 C 151.18 235.11 149.35 236.07 147.45 236.85 C 145.57 237.61 143.62 238.19 141.63 238.56 C 139.54 238.96 137.41 239.16 135.28 239.16 C 133.2 239.16 131.13 238.96 129.08 238.57 C 127.21 238.21 125.39 237.66 123.63 236.92 C 121.9 236.19 120.26 235.28 118.72 234.2 C 117.09 233.06 115.58 231.76 114.2 230.33 C 112.91 228.99 111.75 227.53 110.71 225.99 C 109.58 224.3 108.59 222.53 107.74 220.69 C 106.76 218.57 105.95 216.39 105.31 214.14 C 104.55 211.46 103.96 208.73 103.55 205.97 C 103.47 205.48 103.59 204.97 103.87 204.55 C 104.15 204.14 104.58 203.84 105.06 203.73 L 124.09 199.23 C 124.62 199.11 125.17 199.2 125.63 199.49 C 126.08 199.78 126.4 200.24 126.51 200.77 C 126.85 202.42 127.22 204.07 127.62 205.7 C 127.84 206.63 128.09 207.56 128.37 208.47 C 128.61 209.24 128.94 209.99 129.36 210.68 C 129.85 211.49 130.44 212.25 131.1 212.94 C 131.36 213.21 131.66 213.46 131.97 213.67 C 132.3 213.89 132.65 214.07 133.02 214.22 C 133.45 214.39 133.89 214.51 134.34 214.59 C 134.94 214.7 135.54 214.75 136.15 214.75 C 136.77 214.75 137.38 214.7 138 214.59 C 138.51 214.5 139.02 214.37 139.51 214.19 C 139.98 214.01 140.42 213.8 140.84 213.54 C 141.27 213.28 141.68 212.98 142.06 212.64 C 142.43 212.3 142.78 211.94 143.09 211.55 C 143.46 211.08 143.8 210.58 144.11 210.07 C 144.46 209.47 144.76 208.85 145.03 208.21 C 145.37 207.4 145.66 206.57 145.9 205.73 C 146.15 204.87 146.38 204 146.58 203.13 C 146.82 202.13 147.04 201.13 147.23 200.12 C 147.37 199.39 147.5 198.66 147.62 197.93 C 147.75 197.13 147.87 196.32 147.99 195.52 C 148.32 193.06 148.58 190.59 148.76 188.12 C 148.9 186.23 149 184.33 149.08 182.43 C 148.7 182.64 148.31 182.85 147.93 183.04 C 146.14 183.94 144.3 184.71 142.4 185.34 C 140.51 185.97 138.57 186.47 136.6 186.81 C 134.91 187.11 133.19 187.26 131.47 187.26 C 129.9 187.26 128.32 187.13 126.77 186.87 C 125.31 186.62 123.87 186.24 122.48 185.74 C 121.11 185.24 119.78 184.62 118.52 183.88 C 117.2 183.12 115.95 182.24 114.79 181.26 C 113.67 180.31 112.61 179.29 111.62 178.21 C 110.6 177.1 109.65 175.92 108.79 174.68 C 107.86 173.37 107.02 172.01 106.27 170.59 C 105.46 169.05 104.73 167.46 104.09 165.83 C 102.88 162.72 101.96 159.5 101.36 156.21 C 100.73 152.78 100.41 149.31 100.41 145.82 C 100.41 143.76 100.52 141.7 100.73 139.65 C 100.93 137.71 101.24 135.79 101.65 133.89 C 102.04 132.07 102.54 130.26 103.13 128.49 C 103.72 126.74 104.4 125.02 105.18 123.35 C 105.99 121.61 106.9 119.93 107.92 118.3 C 108.87 116.78 109.93 115.31 111.07 113.92 C 112.19 112.58 113.39 111.31 114.66 110.12 C 115.94 108.93 117.3 107.83 118.73 106.82 Z  M 117.09 227.56 C 115.96 226.39 114.94 225.11 114.03 223.76 C 113.02 222.25 112.13 220.66 111.37 219.01 C 110.48 217.09 109.74 215.09 109.16 213.05 C 108.61 211.12 108.16 209.17 107.8 207.19 L 123.03 203.59 C 123.25 204.61 123.49 205.63 123.73 206.64 C 123.97 207.65 124.24 208.64 124.54 209.63 C 124.88 210.72 125.34 211.77 125.94 212.75 C 126.58 213.82 127.35 214.81 128.22 215.71 C 128.68 216.19 129.19 216.62 129.75 216.99 C 130.31 217.37 130.91 217.69 131.54 217.94 C 132.22 218.21 132.93 218.41 133.66 218.53 C 134.48 218.68 135.31 218.75 136.15 218.75 C 136.99 218.75 137.83 218.68 138.66 218.54 C 139.43 218.41 140.18 218.21 140.91 217.93 C 141.61 217.67 142.28 217.35 142.92 216.96 C 143.56 216.57 144.17 216.12 144.73 215.61 C 145.27 215.13 145.76 214.61 146.21 214.04 C 146.71 213.42 147.16 212.77 147.56 212.09 C 148 211.33 148.39 210.55 148.72 209.75 C 149.12 208.8 149.46 207.83 149.74 206.84 C 150.01 205.92 150.25 204.99 150.48 204.05 C 150.73 203 150.95 201.94 151.16 200.88 C 151.31 200.11 151.44 199.35 151.57 198.58 C 151.71 197.74 151.83 196.9 151.95 196.06 C 152.3 193.52 152.57 190.97 152.75 188.41 C 153.09 183.7 153.25 178.99 153.23 174.27 C 151.16 176.38 148.76 178.14 146.12 179.47 C 144.51 180.28 142.85 180.98 141.14 181.55 C 139.43 182.12 137.68 182.56 135.9 182.87 C 134.44 183.13 132.96 183.26 131.47 183.26 C 130.12 183.26 128.77 183.15 127.43 182.92 C 126.21 182.72 125.01 182.4 123.84 181.98 C 122.7 181.56 121.59 181.05 120.53 180.43 C 119.42 179.78 118.36 179.03 117.37 178.2 C 116.38 177.36 115.44 176.47 114.57 175.51 C 113.67 174.52 112.83 173.48 112.06 172.38 C 111.23 171.21 110.48 169.99 109.81 168.72 C 109.06 167.31 108.4 165.86 107.82 164.38 C 106.7 161.5 105.85 158.53 105.29 155.49 C 104.71 152.3 104.41 149.06 104.41 145.82 C 104.41 143.89 104.51 141.97 104.71 140.06 C 104.89 138.27 105.18 136.5 105.56 134.74 C 105.92 133.06 106.38 131.39 106.93 129.76 C 107.47 128.15 108.09 126.57 108.81 125.04 C 109.55 123.45 110.38 121.91 111.31 120.42 C 112.17 119.04 113.12 117.72 114.16 116.47 C 115.16 115.26 116.24 114.12 117.39 113.05 C 118.54 111.98 119.76 110.99 121.04 110.08 C 122.31 109.18 123.65 108.38 125.04 107.69 C 126.41 107.01 127.82 106.44 129.27 105.99 C 130.76 105.52 132.29 105.17 133.83 104.94 C 135.51 104.69 137.21 104.57 138.91 104.57 C 140.58 104.57 142.25 104.68 143.9 104.9 C 145.33 105.1 146.74 105.4 148.13 105.81 C 149.39 106.18 150.63 106.65 151.82 107.21 C 152.97 107.75 154.07 108.38 155.11 109.09 C 156.17 109.81 157.16 110.62 158.09 111.49 C 159.09 112.44 160.01 113.45 160.86 114.53 C 161.8 115.74 162.66 117.01 163.42 118.35 C 164.31 119.92 165.1 121.55 165.78 123.22 C 167.05 126.33 168.16 129.5 169.1 132.72 C 170.1 136.16 170.93 139.64 171.6 143.16 C 172.32 146.98 172.85 150.84 173.19 154.71 C 173.57 159 173.76 163.31 173.76 167.62 C 173.76 174.28 173.31 180.94 172.41 187.55 C 171.69 192.85 170.52 198.07 168.92 203.18 C 168.07 205.89 167.08 208.56 165.94 211.16 C 164.98 213.36 163.89 215.49 162.66 217.55 C 161.59 219.35 160.41 221.07 159.12 222.72 C 157.96 224.2 156.7 225.6 155.35 226.9 C 153.91 228.28 152.35 229.53 150.69 230.63 C 149.19 231.63 147.6 232.47 145.94 233.14 C 144.31 233.81 142.61 234.31 140.88 234.63 C 139.04 234.99 137.16 235.16 135.28 235.16 C 133.45 235.16 131.63 234.99 129.84 234.64 C 128.24 234.34 126.68 233.86 125.19 233.23 C 123.72 232.61 122.32 231.84 121.01 230.92 C 119.6 229.93 118.28 228.81 117.09 227.56 Z  M 140.12 166.85 C 138.79 166.85 137.45 166.69 136.15 166.38 C 135.02 166.11 133.93 165.68 132.91 165.1 C 131.93 164.54 131.04 163.85 130.25 163.03 C 129.41 162.16 128.68 161.18 128.09 160.12 C 127.54 159.15 127.07 158.14 126.66 157.1 C 126.23 155.98 125.87 154.83 125.59 153.67 C 125.27 152.37 125.03 151.05 124.89 149.72 C 124.72 148.19 124.63 146.66 124.63 145.13 C 124.63 142.26 124.91 139.41 125.47 136.6 C 125.98 134.02 126.77 131.51 127.83 129.1 C 128.4 127.79 129.13 126.55 130.01 125.41 C 130.74 124.46 131.61 123.63 132.6 122.95 C 133.53 122.31 134.57 121.82 135.66 121.5 C 136.83 121.16 138.04 120.98 139.26 120.98 C 139.97 120.98 140.68 121.04 141.38 121.15 C 142.02 121.25 142.65 121.41 143.27 121.62 C 143.85 121.82 144.42 122.07 144.96 122.37 C 145.5 122.68 146.01 123.02 146.49 123.41 C 147.48 124.23 148.33 125.21 149 126.31 C 149.83 127.69 150.48 129.17 150.95 130.71 C 151.17 131.43 151.37 132.16 151.55 132.89 C 151.75 133.7 151.93 134.5 152.09 135.32 C 152.58 137.74 152.92 140.19 153.13 142.66 C 153.41 145.89 153.54 149.14 153.54 152.39 C 153.54 154.2 153.51 156.02 153.43 157.83 C 153.38 159.29 153.26 160.74 153.08 162.19 C 151.72 163.12 150.3 163.96 148.82 164.68 C 147.8 165.17 146.76 165.6 145.68 165.94 C 144.75 166.24 143.79 166.47 142.82 166.63 C 141.93 166.77 141.03 166.85 140.12 166.85 Z  M 140.12 162.85 C 139.1 162.85 138.08 162.73 137.08 162.49 C 136.32 162.31 135.58 162.02 134.89 161.63 C 134.24 161.26 133.65 160.8 133.13 160.26 C 132.53 159.63 132 158.92 131.58 158.16 C 131.12 157.35 130.73 156.51 130.39 155.65 C 130.02 154.7 129.71 153.72 129.47 152.72 C 129.19 151.59 128.99 150.43 128.86 149.27 C 128.71 147.9 128.63 146.51 128.63 145.13 C 128.63 142.53 128.89 139.93 129.39 137.38 C 129.85 135.09 130.55 132.85 131.49 130.7 C 131.93 129.69 132.5 128.73 133.18 127.85 C 133.65 127.23 134.22 126.69 134.87 126.25 C 135.45 125.84 136.1 125.54 136.78 125.34 C 137.58 125.1 138.42 124.98 139.26 124.98 C 139.76 124.98 140.26 125.02 140.76 125.1 C 141.17 125.16 141.57 125.26 141.97 125.4 C 142.33 125.52 142.68 125.68 143.01 125.87 C 143.34 126.05 143.66 126.27 143.95 126.51 C 144.59 127.03 145.14 127.67 145.57 128.38 C 146.23 129.47 146.75 130.64 147.12 131.86 C 147.32 132.52 147.5 133.18 147.67 133.85 C 147.85 134.6 148.02 135.35 148.17 136.1 C 148.62 138.38 148.95 140.68 149.15 142.99 C 149.41 146.12 149.54 149.25 149.54 152.39 C 149.54 154.15 149.51 155.91 149.44 157.67 C 149.41 158.4 149.36 159.14 149.3 159.87 C 148.57 160.31 147.82 160.71 147.06 161.09 C 146.22 161.5 145.35 161.84 144.47 162.13 C 143.72 162.37 142.95 162.55 142.17 162.68 C 141.49 162.79 140.81 162.85 140.12 162.85 Z " fill-rule="evenodd" fill="rgb(0,0,0)"/><path d=" M 165.31 275.81 L 112.69 275.81 L 112.69 251.74 L 165.31 251.74 L 165.31 275.81 Z  M 161.31 271.81 L 116.69 271.81 L 116.69 255.74 L 161.31 255.74 L 161.31 271.81 Z " fill-rule="evenodd" fill="rgb(0,0,0)"/><path d=" M 664.72 1034.84 C 662.84 1034.84 660.96 1035.01 659.12 1035.37 C 657.39 1035.69 655.69 1036.19 654.06 1036.86 C 652.4 1037.53 650.81 1038.37 649.31 1039.37 C 647.65 1040.47 646.09 1041.72 644.65 1043.1 C 643.3 1044.4 642.04 1045.8 640.88 1047.28 C 639.59 1048.93 638.41 1050.65 637.34 1052.45 C 636.11 1054.51 635.02 1056.64 634.06 1058.84 C 632.92 1061.44 631.93 1064.11 631.08 1066.82 C 630.72 1067.95 630.39 1069.08 630.09 1070.22 C 629.77 1071.41 629.47 1072.6 629.19 1073.8 C 628.21 1078.07 627.5 1082.39 627.04 1086.74 C 626.51 1091.94 626.24 1097.16 626.24 1102.38 C 626.24 1106.69 626.43 1111 626.81 1115.29 C 627.15 1119.16 627.68 1123.02 628.4 1126.84 C 629.07 1130.36 629.9 1133.84 630.9 1137.28 C 631.84 1140.5 632.95 1143.67 634.22 1146.78 C 634.9 1148.45 635.69 1150.08 636.58 1151.65 C 637.34 1152.99 638.2 1154.26 639.14 1155.47 C 639.99 1156.55 640.91 1157.56 641.91 1158.51 C 642.84 1159.38 643.83 1160.19 644.89 1160.91 C 645.93 1161.62 647.03 1162.25 648.18 1162.79 C 649.37 1163.35 650.61 1163.82 651.87 1164.19 C 653.26 1164.6 654.67 1164.9 656.1 1165.1 C 657.75 1165.32 659.42 1165.43 661.09 1165.43 C 662.79 1165.43 664.49 1165.31 666.17 1165.06 C 667.71 1164.83 669.24 1164.48 670.73 1164.01 C 672.18 1163.56 673.59 1162.99 674.96 1162.31 C 676.35 1161.62 677.69 1160.82 678.96 1159.92 C 680.24 1159.01 681.46 1158.02 682.61 1156.95 C 683.76 1155.88 684.84 1154.74 685.84 1153.53 C 686.88 1152.28 687.83 1150.96 688.69 1149.58 C 689.62 1148.09 690.45 1146.55 691.19 1144.96 C 691.91 1143.43 692.53 1141.85 693.07 1140.24 C 693.62 1138.61 694.08 1136.94 694.44 1135.26 C 694.82 1133.5 695.11 1131.73 695.29 1129.94 C 695.49 1128.03 695.59 1126.11 695.59 1124.18 C 695.59 1120.94 695.29 1117.7 694.71 1114.51 C 694.15 1111.47 693.3 1108.5 692.18 1105.62 C 691.6 1104.14 690.94 1102.69 690.19 1101.28 C 689.52 1100.01 688.77 1098.79 687.94 1097.62 C 687.17 1096.52 686.33 1095.48 685.43 1094.49 C 684.56 1093.53 683.62 1092.64 682.63 1091.8 C 681.64 1090.97 680.58 1090.22 679.47 1089.57 C 678.41 1088.95 677.3 1088.44 676.16 1088.02 C 674.99 1087.6 673.79 1087.28 672.57 1087.08 C 671.23 1086.85 669.88 1086.74 668.53 1086.74 C 667.04 1086.74 665.56 1086.87 664.1 1087.13 C 662.32 1087.44 660.57 1087.88 658.86 1088.45 C 657.15 1089.02 655.49 1089.72 653.88 1090.53 C 651.24 1091.86 648.84 1093.61 646.77 1095.72 C 646.73 1088.49 647.15 1081.25 648.03 1074.07 C 648.48 1070.38 649.22 1066.73 650.26 1063.16 C 650.79 1061.31 651.54 1059.53 652.49 1057.85 C 653.22 1056.55 654.16 1055.38 655.26 1054.39 C 655.83 1053.88 656.43 1053.43 657.08 1053.04 C 657.72 1052.65 658.39 1052.33 659.09 1052.07 C 659.82 1051.8 660.57 1051.59 661.34 1051.46 C 662.17 1051.32 663.01 1051.25 663.85 1051.25 C 664.69 1051.25 665.52 1051.32 666.34 1051.47 C 667.07 1051.59 667.78 1051.79 668.46 1052.06 C 669.09 1052.31 669.69 1052.63 670.25 1053.01 C 670.81 1053.38 671.32 1053.81 671.78 1054.29 C 672.65 1055.19 673.42 1056.18 674.06 1057.25 C 674.66 1058.23 675.12 1059.28 675.46 1060.37 C 675.76 1061.36 676.03 1062.35 676.27 1063.36 C 676.51 1064.37 676.75 1065.39 676.97 1066.41 L 692.2 1062.81 C 691.84 1060.83 691.39 1058.88 690.84 1056.95 C 690.26 1054.91 689.52 1052.91 688.63 1050.99 C 687.87 1049.34 686.98 1047.75 685.97 1046.24 C 685.06 1044.89 684.04 1043.61 682.91 1042.44 C 681.72 1041.19 680.4 1040.07 678.99 1039.08 C 677.68 1038.16 676.28 1037.39 674.81 1036.77 C 673.32 1036.14 671.76 1035.66 670.16 1035.36 C 668.37 1035.01 666.55 1034.84 664.72 1034.84 Z  M 664.72 1030.84 C 662.59 1030.84 660.46 1031.04 658.37 1031.44 C 656.38 1031.81 654.43 1032.39 652.56 1033.15 C 650.65 1033.93 648.82 1034.89 647.1 1036.03 C 645.24 1037.27 643.49 1038.67 641.88 1040.22 C 640.39 1041.65 639.01 1043.19 637.73 1044.81 C 636.34 1046.59 635.06 1048.46 633.9 1050.4 C 632.59 1052.6 631.42 1054.89 630.39 1057.24 C 629.2 1059.98 628.15 1062.78 627.26 1065.63 C 626.89 1066.8 626.55 1067.99 626.23 1069.18 C 625.89 1070.41 625.58 1071.66 625.29 1072.91 C 624.28 1077.33 623.53 1081.82 623.07 1086.33 C 622.51 1091.67 622.24 1097.02 622.24 1102.38 C 622.24 1106.81 622.43 1111.24 622.82 1115.64 C 623.18 1119.65 623.73 1123.63 624.47 1127.58 C 625.16 1131.23 626.02 1134.84 627.06 1138.4 C 628.04 1141.75 629.19 1145.06 630.52 1148.29 C 631.27 1150.12 632.13 1151.9 633.11 1153.63 C 633.96 1155.13 634.93 1156.57 635.99 1157.94 C 636.96 1159.17 638.02 1160.33 639.16 1161.41 C 640.24 1162.44 641.4 1163.37 642.63 1164.21 C 643.85 1165.04 645.14 1165.78 646.47 1166.41 C 647.85 1167.06 649.28 1167.6 650.74 1168.03 C 652.32 1168.5 653.93 1168.84 655.57 1169.06 C 657.4 1169.31 659.24 1169.43 661.09 1169.43 C 662.98 1169.43 664.88 1169.29 666.75 1169.02 C 668.51 1168.76 670.24 1168.36 671.93 1167.83 C 673.58 1167.31 675.19 1166.67 676.74 1165.89 C 678.32 1165.11 679.83 1164.2 681.27 1163.18 C 682.7 1162.17 684.06 1161.07 685.34 1159.88 C 686.61 1158.69 687.81 1157.42 688.93 1156.08 C 690.07 1154.69 691.13 1153.22 692.08 1151.7 C 693.1 1150.07 694.01 1148.39 694.82 1146.65 C 695.6 1144.98 696.28 1143.26 696.87 1141.51 C 697.46 1139.74 697.96 1137.93 698.35 1136.11 C 698.76 1134.21 699.07 1132.29 699.27 1130.35 C 699.48 1128.3 699.59 1126.24 699.59 1124.18 C 699.59 1120.69 699.27 1117.22 698.64 1113.79 C 698.04 1110.5 697.12 1107.28 695.91 1104.17 C 695.27 1102.54 694.54 1100.95 693.73 1099.41 C 692.98 1097.99 692.14 1096.63 691.21 1095.32 C 690.35 1094.08 689.4 1092.9 688.38 1091.79 C 687.39 1090.71 686.33 1089.69 685.21 1088.74 C 684.05 1087.76 682.8 1086.88 681.48 1086.12 C 680.22 1085.38 678.89 1084.76 677.52 1084.26 C 676.13 1083.76 674.69 1083.38 673.23 1083.13 C 671.68 1082.87 670.1 1082.74 668.53 1082.74 C 666.81 1082.74 665.09 1082.89 663.4 1083.19 C 661.43 1083.53 659.49 1084.03 657.6 1084.66 C 655.7 1085.29 653.86 1086.06 652.07 1086.96 C 651.69 1087.15 651.3 1087.36 650.92 1087.57 C 651.11 1083.22 651.47 1078.88 652 1074.56 C 652.42 1071.08 653.12 1067.64 654.1 1064.27 C 654.55 1062.72 655.18 1061.22 655.97 1059.82 C 656.49 1058.9 657.15 1058.07 657.94 1057.36 C 658.32 1057.03 658.72 1056.72 659.16 1056.46 C 659.58 1056.2 660.02 1055.99 660.49 1055.81 C 660.98 1055.63 661.49 1055.5 662 1055.41 C 662.61 1055.3 663.23 1055.25 663.85 1055.25 C 664.46 1055.25 665.06 1055.3 665.66 1055.41 C 666.11 1055.49 666.55 1055.61 666.98 1055.78 C 667.35 1055.93 667.7 1056.11 668.03 1056.33 C 668.34 1056.54 668.64 1056.79 668.9 1057.06 C 669.56 1057.75 670.15 1058.51 670.64 1059.32 C 671.06 1060.01 671.39 1060.76 671.63 1061.53 C 671.91 1062.45 672.16 1063.37 672.38 1064.3 C 672.78 1065.93 673.15 1067.58 673.49 1069.23 C 673.6 1069.76 673.92 1070.22 674.37 1070.51 C 674.83 1070.8 675.38 1070.89 675.91 1070.77 L 694.94 1066.27 C 695.42 1066.16 695.85 1065.86 696.13 1065.45 C 696.41 1065.03 696.53 1064.52 696.45 1064.03 C 696.04 1061.27 695.45 1058.54 694.69 1055.86 C 694.05 1053.61 693.24 1051.43 692.26 1049.31 C 691.41 1047.47 690.42 1045.7 689.29 1044.01 C 688.25 1042.47 687.09 1041.02 685.8 1039.67 C 684.42 1038.24 682.91 1036.94 681.28 1035.8 C 679.74 1034.72 678.1 1033.81 676.37 1033.08 C 674.61 1032.34 672.79 1031.79 670.92 1031.43 C 668.87 1031.04 666.8 1030.84 664.72 1030.84 Z  M 659.88 1103.15 C 661.21 1103.15 662.55 1103.31 663.85 1103.62 C 664.98 1103.89 666.07 1104.32 667.09 1104.9 C 668.07 1105.46 668.96 1106.15 669.75 1106.97 C 670.59 1107.84 671.32 1108.82 671.91 1109.88 C 672.46 1110.85 672.93 1111.86 673.34 1112.9 C 673.77 1114.02 674.13 1115.17 674.41 1116.33 C 674.73 1117.63 674.97 1118.95 675.11 1120.28 C 675.28 1121.81 675.37 1123.34 675.37 1124.87 C 675.37 1127.74 675.09 1130.59 674.53 1133.4 C 674.02 1135.98 673.23 1138.49 672.17 1140.9 C 671.6 1142.21 670.87 1143.45 669.99 1144.59 C 669.26 1145.54 668.39 1146.37 667.4 1147.05 C 666.47 1147.69 665.43 1148.18 664.34 1148.5 C 663.17 1148.84 661.96 1149.02 660.74 1149.02 C 660.03 1149.02 659.32 1148.96 658.62 1148.85 C 657.98 1148.75 657.35 1148.59 656.73 1148.38 C 656.15 1148.18 655.58 1147.93 655.04 1147.63 C 654.5 1147.32 653.99 1146.98 653.51 1146.59 C 652.52 1145.77 651.67 1144.79 651 1143.69 C 650.17 1142.31 649.52 1140.83 649.05 1139.29 C 648.83 1138.57 648.63 1137.84 648.45 1137.11 C 648.25 1136.3 648.07 1135.5 647.91 1134.68 C 647.42 1132.26 647.08 1129.81 646.87 1127.34 C 646.59 1124.11 646.46 1120.86 646.46 1117.61 C 646.46 1115.8 646.49 1113.98 646.57 1112.17 C 646.62 1110.71 646.74 1109.26 646.92 1107.81 C 648.28 1106.88 649.7 1106.04 651.18 1105.32 C 652.2 1104.83 653.24 1104.4 654.32 1104.06 C 655.25 1103.76 656.21 1103.53 657.18 1103.37 C 658.07 1103.23 658.97 1103.15 659.88 1103.15 Z  M 659.88 1107.15 C 660.9 1107.15 661.92 1107.27 662.92 1107.51 C 663.68 1107.69 664.42 1107.98 665.11 1108.37 C 665.76 1108.74 666.35 1109.2 666.87 1109.74 C 667.47 1110.37 668 1111.08 668.42 1111.84 C 668.88 1112.65 669.27 1113.49 669.61 1114.35 C 669.98 1115.3 670.29 1116.28 670.53 1117.28 C 670.81 1118.41 671.01 1119.57 671.14 1120.73 C 671.29 1122.1 671.37 1123.49 671.37 1124.87 C 671.37 1127.47 671.11 1130.07 670.61 1132.62 C 670.15 1134.91 669.45 1137.15 668.51 1139.3 C 668.07 1140.31 667.5 1141.27 666.82 1142.15 C 666.35 1142.77 665.78 1143.31 665.13 1143.75 C 664.55 1144.16 663.9 1144.46 663.22 1144.66 C 662.42 1144.9 661.58 1145.02 660.74 1145.02 C 660.24 1145.02 659.74 1144.98 659.24 1144.9 C 658.83 1144.84 658.43 1144.74 658.03 1144.6 C 657.67 1144.48 657.32 1144.32 656.99 1144.13 C 656.66 1143.95 656.34 1143.73 656.05 1143.49 C 655.41 1142.97 654.86 1142.33 654.43 1141.62 C 653.77 1140.53 653.25 1139.36 652.88 1138.14 C 652.68 1137.48 652.5 1136.82 652.33 1136.15 C 652.15 1135.4 651.98 1134.65 651.83 1133.9 C 651.38 1131.62 651.05 1129.32 650.85 1127.01 C 650.59 1123.88 650.46 1120.75 650.46 1117.61 C 650.46 1115.85 650.49 1114.09 650.56 1112.33 C 650.59 1111.6 650.64 1110.86 650.7 1110.13 C 651.43 1109.69 652.18 1109.29 652.94 1108.91 C 653.78 1108.5 654.65 1108.16 655.53 1107.87 C 656.28 1107.63 657.05 1107.45 657.83 1107.32 C 658.51 1107.21 659.19 1107.15 659.88 1107.15 Z " fill-rule="evenodd" fill="rgb(0,0,0)"/><path d=" M 634.69 994.19 L 687.31 994.19 L 687.31 1018.26 L 634.69 1018.26 L 634.69 994.19 Z  M 638.69 998.19 L 683.31 998.19 L 683.31 1014.26 L 638.69 1014.26 L 638.69 998.19 Z " fill-rule="evenodd" fill="rgb(0,0,0)"/><path d=" M 389.22 818.27 C 386.44 818.27 383.65 818.14 380.88 817.88 C 378.28 817.63 375.7 817.26 373.14 816.75 C 370.7 816.27 368.28 815.66 365.9 814.94 C 363.58 814.23 361.3 813.41 359.07 812.46 C 356.85 811.53 354.69 810.47 352.58 809.31 C 350.45 808.14 348.38 806.85 346.38 805.47 C 344.32 804.03 342.33 802.5 340.43 800.86 C 338.43 799.14 336.51 797.33 334.69 795.42 C 331.35 791.95 328.33 788.18 325.65 784.18 C 322.72 779.8 320.13 775.2 317.92 770.42 C 317.37 769.23 316.84 768.02 316.33 766.81 C 315.8 765.55 315.3 764.28 314.81 763.01 C 313.06 758.39 311.58 753.67 310.37 748.88 C 308.97 743.33 307.85 737.71 307 732.05 C 306.85 731.06 307.08 730.05 307.65 729.22 C 308.21 728.39 309.06 727.8 310.04 727.57 L 360.09 715.74 C 361.14 715.49 362.25 715.68 363.16 716.26 C 364.07 716.84 364.71 717.76 364.92 718.82 C 365.83 723.17 366.8 727.51 367.84 731.83 C 368.44 734.3 369.1 736.74 369.84 739.17 C 370.16 740.22 370.54 741.25 370.99 742.25 C 371.45 743.3 371.98 744.32 372.56 745.3 C 373.19 746.35 373.88 747.36 374.63 748.33 C 375.47 749.41 376.36 750.45 377.31 751.43 C 378.07 752.22 378.91 752.92 379.82 753.53 C 380.75 754.16 381.76 754.68 382.81 755.1 C 384.01 755.58 385.25 755.93 386.52 756.15 C 388.17 756.44 389.83 756.58 391.49 756.58 C 393.19 756.58 394.89 756.44 396.57 756.15 C 398.01 755.91 399.42 755.53 400.79 755.02 C 402.08 754.54 403.32 753.94 404.5 753.23 C 405.7 752.49 406.84 751.65 407.89 750.71 C 408.92 749.78 409.88 748.77 410.74 747.69 C 411.77 746.41 412.69 745.06 413.52 743.64 C 414.47 742.03 415.3 740.35 416.02 738.62 C 416.92 736.44 417.71 734.21 418.36 731.94 C 419.02 729.66 419.63 727.37 420.17 725.06 C 420.8 722.42 421.37 719.76 421.88 717.1 C 422.26 715.17 422.6 713.23 422.92 711.29 C 423.27 709.17 423.59 707.04 423.88 704.91 C 424.78 698.43 425.46 691.91 425.93 685.38 C 426.34 679.62 426.65 673.85 426.86 668.08 C 425.24 669.05 423.59 669.96 421.91 670.81 C 417.27 673.15 412.47 675.15 407.54 676.79 C 402.62 678.43 397.58 679.71 392.46 680.61 C 388.09 681.38 383.65 681.77 379.21 681.77 C 375.13 681.77 371.06 681.43 367.03 680.75 C 363.27 680.12 359.57 679.14 355.99 677.84 C 352.44 676.56 349.02 674.96 345.77 673.06 C 342.37 671.08 339.15 668.8 336.14 666.27 C 333.23 663.82 330.48 661.18 327.91 658.37 C 325.27 655.48 322.82 652.43 320.56 649.22 C 318.17 645.82 315.99 642.27 314.04 638.6 C 311.92 634.58 310.02 630.45 308.37 626.22 C 306.79 622.18 305.4 618.06 304.21 613.89 C 303.02 609.69 302.02 605.45 301.22 601.16 C 300.4 596.77 299.79 592.35 299.39 587.91 C 298.98 583.29 298.77 578.66 298.77 574.03 C 298.77 568.65 299.05 563.28 299.6 557.93 C 300.12 552.89 300.92 547.89 301.99 542.94 C 303.02 538.17 304.32 533.47 305.87 528.85 C 307.39 524.29 309.17 519.83 311.2 515.47 C 313.3 510.95 315.68 506.56 318.32 502.33 C 320.8 498.36 323.54 494.56 326.53 490.95 C 329.41 487.45 332.53 484.15 335.85 481.06 C 339.18 477.97 342.71 475.11 346.41 472.49 C 350.14 469.84 354.08 467.49 358.17 465.45 C 362.19 463.45 366.35 461.78 370.63 460.43 C 375.02 459.06 379.51 458.03 384.06 457.36 C 388.93 456.64 393.85 456.28 398.77 456.28 C 403.57 456.28 408.36 456.6 413.12 457.24 C 417.35 457.81 421.53 458.71 425.62 459.91 C 429.41 461.03 433.1 462.43 436.67 464.11 C 440.12 465.74 443.44 467.64 446.59 469.79 C 449.77 471.96 452.78 474.38 455.57 477.03 C 458.53 479.82 461.27 482.83 463.78 486.03 C 466.55 489.57 469.05 493.31 471.27 497.21 C 473.81 501.69 476.06 506.33 478.01 511.09 C 481.47 519.56 484.49 528.21 487.05 536.99 C 489.77 546.32 492.03 555.78 493.83 565.33 C 495.78 575.67 497.22 586.11 498.15 596.59 C 499.17 608.15 499.69 619.75 499.69 631.36 C 499.69 640.86 499.37 650.36 498.73 659.83 C 498.15 668.28 497.26 676.7 496.05 685.07 C 494.96 692.61 493.58 700.1 491.92 707.54 C 490.41 714.31 488.61 721.02 486.54 727.65 C 484.2 735.1 481.47 742.43 478.35 749.59 C 475.67 755.72 472.62 761.68 469.19 767.43 C 466.17 772.49 462.84 777.36 459.2 782 C 455.89 786.23 452.28 790.22 448.41 793.95 C 446.26 796.02 444.01 798 441.68 799.87 C 439.48 801.63 437.2 803.29 434.84 804.84 C 432.59 806.32 430.26 807.69 427.88 808.95 C 425.55 810.17 423.17 811.28 420.74 812.27 C 418.32 813.26 415.86 814.12 413.36 814.86 C 410.84 815.61 408.28 816.23 405.7 816.73 C 403.04 817.24 400.37 817.63 397.67 817.88 C 394.86 818.14 392.04 818.27 389.22 818.27 Z  M 389.22 810.27 C 386.69 810.27 384.16 810.15 381.64 809.91 C 379.3 809.69 376.98 809.36 374.69 808.9 C 372.51 808.47 370.35 807.93 368.23 807.29 C 366.18 806.66 364.16 805.93 362.18 805.09 C 360.22 804.26 358.31 803.33 356.44 802.31 C 354.55 801.26 352.72 800.13 350.94 798.89 C 349.11 797.62 347.34 796.25 345.64 794.79 C 343.84 793.24 342.11 791.61 340.46 789.89 C 337.45 786.75 334.72 783.35 332.29 779.73 C 329.59 775.7 327.22 771.47 325.18 767.07 C 324.67 765.96 324.18 764.84 323.71 763.71 C 323.22 762.54 322.74 761.36 322.29 760.17 C 320.65 755.84 319.26 751.42 318.13 746.93 C 317.09 742.82 316.22 738.67 315.5 734.5 L 357.94 724.46 C 358.62 727.55 359.32 730.64 360.07 733.71 C 360.7 736.32 361.4 738.92 362.18 741.49 C 362.6 742.86 363.1 744.2 363.68 745.5 C 364.27 746.84 364.94 748.14 365.69 749.4 C 366.49 750.72 367.36 752 368.3 753.22 C 369.31 754.54 370.4 755.79 371.55 756.99 C 372.71 758.18 373.99 759.26 375.37 760.18 C 376.78 761.12 378.27 761.91 379.84 762.53 C 381.56 763.22 383.34 763.72 385.16 764.03 C 387.25 764.4 389.37 764.58 391.49 764.58 C 393.64 764.58 395.79 764.4 397.91 764.04 C 399.84 763.71 401.74 763.2 403.58 762.52 C 405.34 761.86 407.04 761.04 408.65 760.06 C 410.28 759.07 411.81 757.93 413.23 756.66 C 414.59 755.44 415.85 754.11 416.99 752.68 C 418.25 751.1 419.4 749.43 420.42 747.68 C 421.56 745.75 422.55 743.75 423.41 741.68 C 424.43 739.23 425.31 736.72 426.05 734.16 C 426.74 731.76 427.38 729.34 427.96 726.91 C 428.61 724.15 429.2 721.39 429.74 718.61 C 430.12 716.61 430.48 714.6 430.81 712.59 C 431.17 710.4 431.5 708.2 431.81 706.01 C 432.72 699.35 433.43 692.66 433.91 685.95 C 434.72 674.61 435.15 663.24 435.18 651.87 C 430.14 656.58 424.46 660.56 418.3 663.67 C 414.01 665.83 409.57 667.68 405.02 669.2 C 400.46 670.72 395.8 671.9 391.07 672.73 C 387.16 673.42 383.19 673.77 379.21 673.77 C 375.57 673.77 371.95 673.47 368.36 672.86 C 365.08 672.31 361.85 671.46 358.71 670.32 C 355.62 669.2 352.64 667.81 349.8 666.15 C 346.8 664.4 343.95 662.39 341.29 660.15 C 338.65 657.92 336.15 655.53 333.82 652.98 C 331.41 650.34 329.16 647.54 327.1 644.62 C 324.9 641.49 322.9 638.23 321.11 634.85 C 319.13 631.11 317.36 627.25 315.82 623.31 C 314.33 619.5 313.03 615.62 311.91 611.69 C 310.78 607.74 309.84 603.74 309.09 599.69 C 308.32 595.56 307.74 591.38 307.36 587.19 C 306.97 582.81 306.77 578.42 306.77 574.03 C 306.77 568.93 307.03 563.83 307.56 558.76 C 308.05 554.01 308.8 549.29 309.81 544.63 C 310.78 540.15 312 535.73 313.45 531.39 C 314.88 527.12 316.55 522.93 318.45 518.84 C 320.42 514.62 322.64 510.52 325.11 506.57 C 327.4 502.9 329.94 499.38 332.69 496.04 C 335.36 492.82 338.23 489.77 341.3 486.93 C 344.37 484.08 347.62 481.43 351.03 479.01 C 354.43 476.61 358.01 474.47 361.74 472.61 C 365.37 470.8 369.15 469.28 373.02 468.07 C 377.01 466.82 381.09 465.88 385.22 465.27 C 389.71 464.61 394.24 464.28 398.77 464.28 C 403.21 464.28 407.65 464.58 412.05 465.17 C 415.88 465.69 419.66 466.5 423.36 467.59 C 426.75 468.59 430.06 469.85 433.26 471.35 C 436.33 472.8 439.28 474.48 442.08 476.4 C 444.91 478.33 447.59 480.48 450.08 482.84 C 452.74 485.36 455.22 488.07 457.48 490.96 C 460.01 494.19 462.29 497.6 464.31 501.16 C 466.68 505.34 468.78 509.67 470.6 514.12 C 473.96 522.33 476.88 530.71 479.37 539.23 C 482.02 548.31 484.22 557.51 485.97 566.81 C 487.87 576.9 489.28 587.07 490.18 597.3 C 491.18 608.63 491.69 619.99 491.69 631.36 C 491.69 640.68 491.37 650 490.74 659.29 C 490.19 667.54 489.31 675.75 488.13 683.93 C 487.07 691.26 485.73 698.56 484.12 705.79 C 482.65 712.35 480.91 718.85 478.9 725.26 C 476.65 732.44 474.02 739.49 471.01 746.39 C 468.48 752.22 465.57 757.88 462.32 763.34 C 459.47 768.11 456.33 772.69 452.9 777.06 C 449.82 781 446.47 784.72 442.86 788.18 C 440.88 790.09 438.81 791.91 436.67 793.63 C 434.67 795.24 432.59 796.74 430.45 798.15 C 428.41 799.49 426.31 800.73 424.15 801.87 C 422.06 802.97 419.91 803.97 417.72 804.87 C 415.55 805.75 413.33 806.53 411.09 807.19 C 408.81 807.87 406.51 808.43 404.18 808.88 C 401.78 809.34 399.36 809.68 396.93 809.91 C 394.37 810.15 391.79 810.27 389.22 810.27 Z  M 401.96 628.08 C 400.15 628.08 398.35 627.98 396.55 627.77 C 394.94 627.58 393.33 627.29 391.75 626.89 C 390.3 626.52 388.88 626.06 387.48 625.51 C 386.15 624.98 384.86 624.36 383.62 623.65 C 382.39 622.96 381.22 622.17 380.1 621.31 C 378.98 620.44 377.91 619.49 376.91 618.47 C 375.87 617.4 374.89 616.26 374.01 615.06 C 373.05 613.77 372.18 612.42 371.4 611.02 C 369.99 608.52 368.77 605.92 367.73 603.24 C 366.61 600.35 365.68 597.39 364.94 594.38 C 364.12 591.01 363.51 587.59 363.13 584.14 C 362.69 580.18 362.47 576.2 362.47 572.21 C 362.47 568.37 362.65 564.52 363.03 560.7 C 363.38 557.11 363.91 553.54 364.63 550.01 C 365.32 546.63 366.19 543.29 367.22 540.01 C 368.23 536.8 369.42 533.65 370.77 530.57 C 371.55 528.77 372.45 527.01 373.45 525.32 C 374.32 523.83 375.3 522.41 376.37 521.06 C 377.33 519.86 378.38 518.72 379.5 517.66 C 380.56 516.66 381.69 515.75 382.88 514.93 C 384.05 514.12 385.27 513.41 386.55 512.8 C 387.83 512.19 389.16 511.67 390.52 511.26 C 391.95 510.83 393.4 510.51 394.88 510.3 C 396.47 510.08 398.08 509.97 399.68 509.97 C 401.48 509.97 403.28 510.11 405.05 510.39 C 406.67 510.64 408.27 511.04 409.82 511.57 C 411.29 512.08 412.71 512.72 414.06 513.47 C 415.42 514.23 416.7 515.1 417.9 516.08 C 419.1 517.07 420.21 518.15 421.23 519.32 C 422.33 520.59 423.33 521.95 424.23 523.37 C 425.24 524.97 426.14 526.65 426.9 528.39 C 427.8 530.43 428.57 532.52 429.22 534.65 C 429.79 536.53 430.31 538.43 430.78 540.33 C 431.3 542.43 431.77 544.54 432.19 546.66 C 432.5 548.2 432.79 549.74 433.05 551.29 C 433.33 552.95 433.58 554.62 433.81 556.28 C 434.54 561.48 435.06 566.71 435.39 571.96 C 435.79 578.4 435.99 584.86 435.99 591.32 C 435.99 596.07 435.89 600.82 435.7 605.57 C 435.56 609.18 435.27 612.78 434.84 616.37 C 431.47 618.66 427.93 620.71 424.27 622.51 C 421.66 623.78 418.96 624.86 416.19 625.75 C 413.79 626.52 411.33 627.11 408.84 627.52 C 406.57 627.89 404.26 628.08 401.96 628.08 Z  M 401.96 620.08 C 400.46 620.08 398.96 619.99 397.48 619.82 C 396.21 619.67 394.95 619.44 393.71 619.13 C 392.59 618.85 391.5 618.5 390.44 618.08 C 389.45 617.69 388.5 617.23 387.58 616.7 C 386.68 616.19 385.82 615.62 385 614.98 C 384.16 614.33 383.37 613.63 382.63 612.87 C 381.84 612.07 381.11 611.21 380.44 610.3 C 379.68 609.28 378.99 608.22 378.37 607.11 C 377.15 604.93 376.09 602.67 375.19 600.35 C 374.2 597.78 373.37 595.15 372.71 592.48 C 371.97 589.45 371.43 586.37 371.08 583.26 C 370.67 579.59 370.47 575.9 370.47 572.21 C 370.47 568.63 370.64 565.04 370.99 561.47 C 371.31 558.16 371.81 554.87 372.47 551.61 C 373.11 548.5 373.9 545.43 374.85 542.41 C 375.78 539.48 376.86 536.59 378.09 533.77 C 378.75 532.26 379.5 530.8 380.34 529.38 C 381.02 528.21 381.79 527.1 382.63 526.05 C 383.36 525.14 384.15 524.28 384.99 523.47 C 385.75 522.76 386.56 522.11 387.42 521.52 C 388.24 520.95 389.11 520.45 390.01 520.02 C 390.92 519.58 391.86 519.21 392.83 518.92 C 393.86 518.61 394.92 518.38 395.99 518.23 C 397.21 518.06 398.45 517.97 399.68 517.97 C 401.07 517.97 402.45 518.08 403.81 518.29 C 404.97 518.47 406.11 518.76 407.21 519.14 C 408.23 519.49 409.22 519.93 410.16 520.46 C 411.1 520.98 411.99 521.59 412.82 522.27 C 413.67 522.97 414.46 523.73 415.18 524.56 C 416.02 525.53 416.78 526.56 417.47 527.64 C 418.27 528.91 418.97 530.24 419.58 531.61 C 420.35 533.35 421.01 535.14 421.56 536.97 C 422.09 538.72 422.57 540.48 423.01 542.26 C 423.5 544.24 423.95 546.23 424.35 548.23 C 424.64 549.69 424.91 551.15 425.16 552.62 C 425.42 554.21 425.67 555.79 425.89 557.39 C 426.59 562.39 427.09 567.41 427.4 572.45 C 427.79 578.73 427.99 585.03 427.99 591.32 C 427.99 595.96 427.89 600.61 427.71 605.25 C 427.62 607.41 427.48 609.57 427.29 611.73 C 425.17 613.03 422.99 614.23 420.75 615.32 C 418.49 616.42 416.16 617.36 413.76 618.13 C 411.73 618.78 409.65 619.28 407.54 619.62 C 405.7 619.93 403.83 620.08 401.96 620.08 Z " fill-rule="evenodd" fill="rgb(0,0,0)"/><path d=" M 466.93 904.03 L 331.07 904.03 L 331.07 843.25 L 466.93 843.25 L 466.93 904.03 Z  M 458.93 896.03 L 339.07 896.03 L 339.07 851.25 L 458.93 851.25 L 458.93 896.03 Z " fill-rule="evenodd" fill="rgb(0,0,0)"/></g></svg>