<?xml version="1.0" encoding="UTF-8" standalone="no"?><!-- Generator: Gravit.io --><svg xmlns="http://www.w3.org/2000/svg" xmlns:xlink="http://www.w3.org/1999/xlink" style="isolation:isolate" viewBox="0 0 800 1270" width="800pt" height="1270pt"><defs><clipPath id="_clipPath_HKGmStQfgrjS5PqXyMV0aYn0oMzk11CC"><rect width="800" height="1270"/></clipPath></defs><g clip-path="url(#_clipPath_HKGmStQfgrjS5PqXyMV0aYn0oMzk11CC)"><path d=" M 800 64 C 800 30.523 757.12 0 736 0 L 64 0 C 42.912 0 0 30.523 0 64 L 0 1206 C 0 1239.477 42.912 1270 64 1270 L 746 1270 C 767.12 1270 800 1239.477 800 1206 L 800 64 Z " fill-rule="evenodd" fill="rgb(0,0,0)"/><path d=" M 796 64 C 796 30.734 756.908 4 736 4 L 64 4 C 43.123 4 4 34.331 4 67.597 L 4 1206 C 4 1239.266 43.123 1266 64 1266 L 746 1266 C 766.908 1266 796 1239.266 796 1206 L 796 64 Z " fill-rule="evenodd" fill="rgb(255,255,255)"/><path d=" M 735 121.55 C 735 91.446 698.98 64 681.24 64 L 116.76 64 C 99.046 64 63 91.446 63 121.55 L 63 1148.45 C 63 1178.554 99.046 1206 116.76 1206 L 689.64 1206 C 707.38 1206 735 1178.554 735 1148.45 L 735 121.55 Z " fill-rule="evenodd" fill="rgb(0,114,188)"/><path d=" M 183.054 507.699 C 343.308 234.596 570.623 69.913 690.359 140.172 C 810.095 210.432 777.199 489.198 616.946 762.301 C 456.692 1035.404 229.377 1200.087 109.641 1129.828 C -10.095 1059.568 22.801 780.802 183.054 507.699 Z " fill="rgb(255,255,255)"/><defs><filter id="dTtQGgitNLqb6fRBB1giXZ56sbe2cZlY" x="-200%" y="-200%" width="400%" height="400%" filterUnits="objectBoundingBox" color-interpolation-filters="sRGB"><feGaussianBlur xmlns="http://www.w3.org/2000/svg" in="SourceGraphic" stdDeviation="0"/><feOffset xmlns="http://www.w3.org/2000/svg" dx="8" dy="8" result="pf_100_offsetBlur"/><feFlood xmlns="http://www.w3.org/2000/svg" flood-color="#000000" flood-opacity="1"/><feComposite xmlns="http://www.w3.org/2000/svg" in2="pf_100_offsetBlur" operator="in" result="pf_100_dropShadow"/><feBlend xmlns="http://www.w3.org/2000/svg" in="SourceGraphic" in2="pf_100_dropShadow" mode="normal"/></filter></defs><g filter="url(#dTtQGgitNLqb6fRBB1giXZ56sbe2cZlY)"><path d=" M 137.184 237.162 L 137.184 237.162 Q 122.825 237.162 112.099 230.156 L 112.099 230.156 L 112.099 230.156 Q 101.373 223.149 97.913 209.482 L 97.913 209.482 L 116.424 201.351 L 116.424 201.351 Q 119.365 209.655 124.295 213.202 L 124.295 213.202 L 124.295 213.202 Q 129.226 216.748 135.973 216.748 L 135.973 216.748 L 135.973 216.748 Q 142.547 216.748 146.872 211.904 L 146.872 211.904 L 146.872 211.904 Q 151.197 207.06 151.197 197.545 L 151.197 197.545 L 151.197 197.545 Q 151.197 185.262 144.017 181.024 L 144.017 181.024 L 144.017 181.024 Q 136.838 176.785 123.69 176.785 L 123.69 176.785 L 123.69 159.831 L 123.69 159.831 Q 134.762 159.831 141.941 154.295 L 141.941 154.295 L 141.941 154.295 Q 149.121 148.759 149.294 137.86 L 149.294 137.86 L 149.294 137.687 L 149.294 137.687 Q 149.294 130.767 144.969 126.788 L 144.969 126.788 L 144.969 126.788 Q 140.644 122.809 134.762 122.809 L 134.762 122.809 L 134.762 122.809 Q 129.572 122.809 125.074 126.01 L 125.074 126.01 L 125.074 126.01 Q 120.576 129.21 118.327 135.265 L 118.327 135.265 L 101.027 125.404 L 101.027 125.404 Q 106.736 113.467 116.078 108.018 L 116.078 108.018 L 116.078 108.018 Q 125.42 102.568 138.222 102.568 L 138.222 102.568 L 138.222 102.568 Q 147.391 102.568 155.522 106.461 L 155.522 106.461 L 155.522 106.461 Q 163.653 110.353 168.756 117.879 L 168.756 117.879 L 168.756 117.879 Q 173.86 125.404 173.86 135.784 L 173.86 135.784 L 173.86 135.784 Q 173.86 147.029 168.324 154.901 L 168.324 154.901 L 168.324 154.901 Q 162.788 162.772 152.062 166.405 L 152.062 166.405 L 152.062 166.405 Q 162.961 169.865 169.275 178.602 L 169.275 178.602 L 169.275 178.602 Q 175.59 187.338 175.59 199.967 L 175.59 199.967 L 175.59 199.967 Q 175.59 211.558 170.227 219.949 L 170.227 219.949 L 170.227 219.949 Q 164.864 228.339 156.127 232.751 L 156.127 232.751 L 156.127 232.751 Q 147.391 237.162 137.184 237.162 L 137.184 237.162 L 137.184 237.162 Z " fill="rgb(255,255,255)"/></g><defs><filter id="i8sofmiXDCwh2u1PXu8hqOa71CZV1pLU" x="-200%" y="-200%" width="400%" height="400%" filterUnits="objectBoundingBox" color-interpolation-filters="sRGB"><feGaussianBlur xmlns="http://www.w3.org/2000/svg" in="SourceGraphic" stdDeviation="0"/><feOffset xmlns="http://www.w3.org/2000/svg" dx="-8" dy="-8" result="pf_100_offsetBlur"/><feFlood xmlns="http://www.w3.org/2000/svg" flood-color="#000000" flood-opacity="1"/><feComposite xmlns="http://www.w3.org/2000/svg" in2="pf_100_offsetBlur" operator="in" result="pf_100_dropShadow"/><feBlend xmlns="http://www.w3.org/2000/svg" in="SourceGraphic" in2="pf_100_dropShadow" mode="normal"/></filter></defs><g filter="url(#i8sofmiXDCwh2u1PXu8hqOa71CZV1pLU)"><path d=" M 662.816 1032.838 L 662.816 1032.838 Q 677.175 1032.838 687.901 1039.845 L 687.901 1039.845 L 687.901 1039.845 Q 698.627 1046.851 702.087 1060.518 L 702.087 1060.518 L 683.576 1068.649 L 683.576 1068.649 Q 680.635 1060.345 675.705 1056.799 L 675.705 1056.799 L 675.705 1056.799 Q 670.774 1053.252 664.027 1053.252 L 664.027 1053.252 L 664.027 1053.252 Q 657.453 1053.252 653.128 1058.096 L 653.128 1058.096 L 653.128 1058.096 Q 648.803 1062.94 648.803 1072.455 L 648.803 1072.455 L 648.803 1072.455 Q 648.803 1084.738 655.983 1088.977 L 655.983 1088.977 L 655.983 1088.977 Q 663.162 1093.215 676.31 1093.215 L 676.31 1093.215 L 676.31 1110.169 L 676.31 1110.169 Q 665.238 1110.169 658.059 1115.705 L 658.059 1115.705 L 658.059 1115.705 Q 650.879 1121.241 650.706 1132.14 L 650.706 1132.14 L 650.706 1132.313 L 650.706 1132.313 Q 650.706 1139.233 655.031 1143.212 L 655.031 1143.212 L 655.031 1143.212 Q 659.356 1147.191 665.238 1147.191 L 665.238 1147.191 L 665.238 1147.191 Q 670.428 1147.191 674.926 1143.991 L 674.926 1143.991 L 674.926 1143.991 Q 679.424 1140.79 681.673 1134.735 L 681.673 1134.735 L 698.973 1144.596 L 698.973 1144.596 Q 693.264 1156.533 683.922 1161.983 L 683.922 1161.983 L 683.922 1161.983 Q 674.58 1167.432 661.778 1167.432 L 661.778 1167.432 L 661.778 1167.432 Q 652.609 1167.432 644.478 1163.54 L 644.478 1163.54 L 644.478 1163.54 Q 636.347 1159.647 631.244 1152.122 L 631.244 1152.122 L 631.244 1152.122 Q 626.14 1144.596 626.14 1134.216 L 626.14 1134.216 L 626.14 1134.216 Q 626.14 1122.971 631.676 1115.1 L 631.676 1115.1 L 631.676 1115.1 Q 637.212 1107.228 647.938 1103.595 L 647.938 1103.595 L 647.938 1103.595 Q 637.039 1100.135 630.725 1091.399 L 630.725 1091.399 L 630.725 1091.399 Q 624.41 1082.662 624.41 1070.033 L 624.41 1070.033 L 624.41 1070.033 Q 624.41 1058.442 629.773 1050.052 L 629.773 1050.052 L 629.773 1050.052 Q 635.136 1041.661 643.873 1037.25 L 643.873 1037.25 L 643.873 1037.25 Q 652.609 1032.838 662.816 1032.838 L 662.816 1032.838 L 662.816 1032.838 Z " fill="rgb(255,255,255)"/></g><defs><filter id="NxDx6jwYIymht7kwOGtQjEf5uNduaVuG" x="-200%" y="-200%" width="400%" height="400%" filterUnits="objectBoundingBox" color-interpolation-filters="sRGB"><feGaussianBlur xmlns="http://www.w3.org/2000/svg" in="SourceGraphic" stdDeviation="0"/><feOffset xmlns="http://www.w3.org/2000/svg" dx="16" dy="16" result="pf_100_offsetBlur"/><feFlood xmlns="http://www.w3.org/2000/svg" flood-color="#000000" flood-opacity="1"/><feComposite xmlns="http://www.w3.org/2000/svg" in2="pf_100_offsetBlur" operator="in" result="pf_100_dropShadow"/><feBlend xmlns="http://www.w3.org/2000/svg" in="SourceGraphic" in2="pf_100_dropShadow" mode="normal"/></filter></defs><g filter="url(#NxDx6jwYIymht7kwOGtQjEf5uNduaVuG)"><path d=" M 394.222 814.27 L 394.222 814.27 Q 356.458 814.27 328.247 795.843 L 328.247 795.843 L 328.247 795.843 Q 300.037 777.415 290.938 741.47 L 290.938 741.47 L 339.622 720.085 L 339.622 720.085 Q 347.357 741.925 360.325 751.253 L 360.325 751.253 L 360.325 751.253 Q 373.292 760.58 391.037 760.58 L 391.037 760.58 L 391.037 760.58 Q 408.328 760.58 419.703 747.84 L 419.703 747.84 L 419.703 747.84 Q 431.078 735.1 431.078 710.075 L 431.078 710.075 L 431.078 710.075 Q 431.078 677.77 412.195 666.623 L 412.195 666.623 L 412.195 666.623 Q 393.313 655.475 358.732 655.475 L 358.732 655.475 L 358.732 610.885 L 358.732 610.885 Q 387.852 610.885 406.735 596.325 L 406.735 596.325 L 406.735 596.325 Q 425.617 581.765 426.073 553.1 L 426.073 553.1 L 426.073 552.645 L 426.073 552.645 Q 426.073 534.445 414.698 523.98 L 414.698 523.98 L 414.698 523.98 Q 403.323 513.515 387.852 513.515 L 387.852 513.515 L 387.852 513.515 Q 374.203 513.515 362.372 521.933 L 362.372 521.933 L 362.372 521.933 Q 350.542 530.35 344.627 546.275 L 344.627 546.275 L 299.127 520.34 L 299.127 520.34 Q 314.143 488.945 338.713 474.613 L 338.713 474.613 L 338.713 474.613 Q 363.282 460.28 396.953 460.28 L 396.953 460.28 L 396.953 460.28 Q 421.068 460.28 442.453 470.518 L 442.453 470.518 L 442.453 470.518 Q 463.838 480.755 477.26 500.548 L 477.26 500.548 L 477.26 500.548 Q 490.682 520.34 490.682 547.64 L 490.682 547.64 L 490.682 547.64 Q 490.682 577.215 476.122 597.918 L 476.122 597.918 L 476.122 597.918 Q 461.563 618.62 433.352 628.175 L 433.352 628.175 L 433.352 628.175 Q 462.018 637.275 478.625 660.253 L 478.625 660.253 L 478.625 660.253 Q 495.233 683.23 495.233 716.445 L 495.233 716.445 L 495.233 716.445 Q 495.233 746.93 481.127 768.998 L 481.127 768.998 L 481.127 768.998 Q 467.023 791.065 444.045 802.668 L 444.045 802.668 L 444.045 802.668 Q 421.068 814.27 394.222 814.27 L 394.222 814.27 L 394.222 814.27 Z " fill="rgb(0,114,188)"/></g><path d=" M 170.65 214.95 C 171.28 213.54 171.8 212.08 172.22 210.6 C 172.67 208.98 173.01 207.34 173.22 205.67 C 173.47 203.78 173.59 201.87 173.59 199.97 C 173.59 197.89 173.44 195.81 173.15 193.75 C 172.9 191.97 172.51 190.2 171.97 188.48 C 171.48 186.9 170.87 185.36 170.13 183.88 C 169.42 182.44 168.59 181.07 167.65 179.77 C 166.69 178.44 165.62 177.18 164.45 176.01 C 163.31 174.88 162.08 173.84 160.78 172.9 C 159.43 171.93 158 171.08 156.51 170.35 C 154.88 169.54 153.19 168.86 151.46 168.31 C 150.63 168.05 150.07 167.29 150.06 166.42 C 150.05 165.56 150.6 164.79 151.42 164.51 C 153.18 163.92 154.89 163.2 156.55 162.36 C 157.98 161.64 159.35 160.8 160.64 159.86 C 161.83 159 162.94 158.04 163.97 157 C 164.97 155.99 165.87 154.91 166.69 153.75 C 167.51 152.59 168.23 151.36 168.85 150.08 C 169.49 148.76 170.03 147.38 170.45 145.98 C 170.92 144.44 171.26 142.88 171.48 141.29 C 171.73 139.47 171.86 137.63 171.86 135.78 C 171.86 134.1 171.74 132.42 171.52 130.75 C 171.32 129.27 171 127.82 170.58 126.39 C 170.19 125.06 169.69 123.77 169.1 122.52 C 168.53 121.29 167.86 120.12 167.1 119 C 166.3 117.82 165.43 116.7 164.48 115.63 C 163.58 114.61 162.61 113.65 161.58 112.76 C 160.55 111.88 159.46 111.06 158.33 110.32 C 157.15 109.56 155.92 108.87 154.66 108.26 C 153.38 107.65 152.07 107.11 150.73 106.65 C 149.42 106.19 148.08 105.81 146.73 105.5 C 145.36 105.19 143.97 104.96 142.58 104.81 C 141.13 104.65 139.68 104.57 138.22 104.57 C 136.09 104.57 133.96 104.69 131.84 104.95 C 129.98 105.17 128.13 105.52 126.32 105.98 C 124.66 106.41 123.03 106.95 121.45 107.6 C 119.94 108.21 118.49 108.93 117.09 109.75 C 115.71 110.55 114.4 111.46 113.18 112.47 C 111.87 113.55 110.64 114.72 109.52 115.99 C 108.26 117.4 107.11 118.9 106.08 120.48 C 105.21 121.82 104.4 123.19 103.66 124.6 L 117.36 132.41 C 117.54 132.03 117.73 131.66 117.93 131.29 C 118.44 130.33 119.02 129.41 119.67 128.55 C 120.27 127.74 120.94 126.98 121.66 126.27 C 122.36 125.58 123.11 124.95 123.91 124.38 C 124.75 123.79 125.63 123.25 126.54 122.79 C 127.4 122.35 128.29 121.98 129.2 121.68 C 130.09 121.39 131 121.18 131.93 121.03 C 132.87 120.88 133.81 120.81 134.76 120.81 C 135.85 120.81 136.94 120.91 138.01 121.1 C 139.03 121.28 140.02 121.57 140.98 121.94 C 141.94 122.32 142.87 122.78 143.74 123.33 C 144.66 123.92 145.52 124.58 146.32 125.32 C 147.11 126.04 147.82 126.85 148.43 127.72 C 149.04 128.59 149.56 129.53 149.97 130.51 C 150.41 131.57 150.73 132.67 150.94 133.79 C 151.18 135.08 151.29 136.38 151.29 137.69 L 151.29 137.86 C 151.29 137.87 151.29 137.88 151.29 137.89 C 151.26 139.89 151.04 141.89 150.62 143.85 C 150.27 145.5 149.73 147.11 149.01 148.65 C 148.34 150.05 147.51 151.38 146.53 152.59 C 145.54 153.81 144.41 154.92 143.16 155.88 C 141.94 156.82 140.64 157.65 139.28 158.36 C 137.86 159.1 136.38 159.72 134.85 160.21 C 133.18 160.75 131.46 161.15 129.72 161.4 C 128.39 161.59 127.04 161.72 125.69 161.78 L 125.69 174.81 C 127.24 174.85 128.79 174.94 130.34 175.08 C 132.11 175.24 133.88 175.5 135.63 175.86 C 137.43 176.23 139.2 176.73 140.93 177.36 C 142.36 177.88 143.73 178.53 145.03 179.3 C 145.72 179.71 146.37 180.16 146.98 180.67 C 147.59 181.18 148.15 181.73 148.67 182.33 C 149.2 182.95 149.68 183.61 150.11 184.31 C 150.57 185.06 150.97 185.84 151.31 186.65 C 151.94 188.14 152.39 189.69 152.67 191.28 C 153.02 193.35 153.2 195.45 153.2 197.54 C 153.2 199.28 153.08 201.01 152.85 202.72 C 152.66 204.11 152.35 205.47 151.93 206.8 C 151.53 208.04 151.02 209.24 150.39 210.38 C 149.82 211.4 149.14 212.36 148.36 213.24 C 147.56 214.13 146.68 214.94 145.72 215.66 C 144.81 216.33 143.84 216.9 142.82 217.36 C 141.78 217.82 140.7 218.16 139.6 218.39 C 138.4 218.63 137.19 218.75 135.97 218.75 C 134.73 218.75 133.49 218.66 132.26 218.48 C 131.13 218.32 130.02 218.06 128.93 217.72 C 127.89 217.4 126.88 216.99 125.91 216.5 C 124.94 216.02 124.01 215.46 123.13 214.83 C 122.23 214.18 121.4 213.46 120.65 212.66 C 119.8 211.76 119.02 210.79 118.32 209.76 C 117.59 208.68 116.94 207.55 116.37 206.38 C 115.99 205.61 115.64 204.82 115.31 204.03 L 100.3 210.62 C 100.79 212.25 101.38 213.85 102.07 215.41 C 102.88 217.22 103.86 218.96 105 220.58 C 106.08 222.13 107.31 223.56 108.66 224.87 C 110.06 226.21 111.57 227.42 113.19 228.48 C 114.83 229.55 116.55 230.5 118.34 231.31 C 120.15 232.14 122.02 232.84 123.93 233.39 C 125.96 233.97 128.04 234.41 130.13 234.69 C 132.47 235 134.83 235.16 137.18 235.16 C 138.82 235.16 140.46 235.07 142.08 234.89 C 143.62 234.71 145.15 234.44 146.66 234.09 C 148.14 233.74 149.6 233.31 151.02 232.79 C 152.46 232.26 153.86 231.65 155.23 230.97 C 156.59 230.28 157.9 229.5 159.16 228.64 C 160.39 227.8 161.55 226.88 162.65 225.89 C 163.75 224.89 164.79 223.81 165.75 222.67 C 166.76 221.46 167.7 220.2 168.54 218.87 C 169.34 217.62 170.05 216.31 170.65 214.95 Z  M 111 231.83 C 112.81 233.01 114.71 234.06 116.67 234.95 C 118.66 235.86 120.72 236.62 122.82 237.23 C 125.04 237.87 127.31 238.35 129.6 238.66 C 132.12 238.99 134.65 239.16 137.18 239.16 C 138.97 239.16 140.76 239.06 142.53 238.86 C 144.23 238.67 145.92 238.37 147.58 237.98 C 149.21 237.6 150.82 237.12 152.39 236.54 C 153.98 235.97 155.52 235.3 157.03 234.54 C 158.55 233.77 160.02 232.9 161.42 231.94 C 162.79 231 164.1 229.97 165.33 228.85 C 166.57 227.73 167.74 226.52 168.82 225.24 C 169.94 223.9 170.97 222.5 171.91 221.03 C 172.82 219.6 173.62 218.12 174.3 216.58 C 175.01 214.99 175.6 213.35 176.07 211.67 C 176.58 209.87 176.95 208.04 177.19 206.19 C 177.46 204.12 177.59 202.05 177.59 199.97 C 177.59 197.7 177.43 195.44 177.11 193.19 C 176.83 191.2 176.39 189.23 175.79 187.3 C 175.24 185.51 174.55 183.77 173.72 182.1 C 172.91 180.47 171.96 178.91 170.9 177.43 C 169.8 175.92 168.59 174.5 167.28 173.18 C 165.99 171.89 164.59 170.71 163.1 169.65 C 161.58 168.55 159.96 167.59 158.28 166.76 C 158.01 166.62 157.74 166.49 157.46 166.37 C 157.76 166.22 158.06 166.08 158.35 165.93 C 159.97 165.11 161.53 164.16 162.99 163.09 C 164.35 162.11 165.63 161.01 166.81 159.81 C 167.97 158.65 169.02 157.39 169.96 156.05 C 170.9 154.71 171.73 153.3 172.45 151.83 C 173.18 150.31 173.79 148.74 174.28 147.14 C 174.8 145.4 175.19 143.63 175.44 141.84 C 175.72 139.83 175.86 137.81 175.86 135.78 C 175.86 133.92 175.73 132.05 175.48 130.2 C 175.25 128.53 174.9 126.88 174.42 125.26 C 173.97 123.73 173.4 122.25 172.72 120.81 C 172.06 119.4 171.29 118.05 170.41 116.76 C 169.52 115.43 168.53 114.17 167.48 112.98 C 166.45 111.82 165.35 110.74 164.19 109.73 C 163.02 108.73 161.8 107.81 160.51 106.97 C 159.19 106.11 157.81 105.34 156.39 104.66 C 154.97 103.98 153.53 103.38 152.05 102.87 C 150.59 102.36 149.11 101.94 147.61 101.6 C 146.09 101.26 144.56 101 143.02 100.83 C 141.42 100.66 139.82 100.57 138.22 100.57 C 135.93 100.57 133.64 100.7 131.36 100.98 C 129.33 101.22 127.31 101.6 125.32 102.11 C 123.49 102.58 121.69 103.18 119.94 103.89 C 118.26 104.58 116.63 105.38 115.07 106.29 C 113.51 107.2 112.03 108.23 110.63 109.38 C 109.17 110.59 107.8 111.91 106.53 113.32 C 105.14 114.88 103.87 116.55 102.73 118.3 C 101.42 120.3 100.25 122.39 99.22 124.54 C 99 125 98.97 125.52 99.12 126 C 99.27 126.48 99.6 126.89 100.04 127.14 L 117.34 137 C 117.85 137.29 118.46 137.35 119.01 137.14 C 119.56 136.94 120 136.51 120.2 135.96 C 120.56 135 120.98 134.07 121.46 133.17 C 121.87 132.39 122.35 131.65 122.87 130.94 C 123.35 130.3 123.89 129.69 124.46 129.12 C 125.01 128.58 125.6 128.09 126.23 127.64 C 126.91 127.16 127.62 126.73 128.36 126.35 C 129.03 126.01 129.72 125.72 130.44 125.49 C 131.13 125.26 131.83 125.09 132.55 124.98 C 133.28 124.87 134.02 124.81 134.76 124.81 C 135.61 124.81 136.46 124.89 137.3 125.04 C 138.06 125.17 138.81 125.39 139.53 125.67 C 140.25 125.95 140.94 126.3 141.6 126.71 C 142.31 127.17 142.99 127.68 143.61 128.26 C 144.19 128.79 144.71 129.38 145.16 130.02 C 145.6 130.66 145.98 131.34 146.28 132.05 C 146.61 132.84 146.85 133.67 147.01 134.51 C 147.2 135.56 147.29 136.62 147.29 137.69 L 147.29 137.84 C 147.26 139.58 147.07 141.32 146.71 143.02 C 146.42 144.37 145.98 145.68 145.39 146.93 C 144.86 148.06 144.2 149.11 143.42 150.08 C 142.62 151.06 141.72 151.94 140.72 152.71 C 139.69 153.51 138.59 154.21 137.43 154.81 C 136.21 155.45 134.94 155.98 133.63 156.4 C 132.17 156.87 130.67 157.22 129.15 157.44 C 127.34 157.7 125.52 157.83 123.69 157.83 C 123.16 157.83 122.65 158.04 122.28 158.42 C 121.9 158.79 121.69 159.3 121.69 159.83 L 121.69 176.79 C 121.69 177.32 121.9 177.82 122.28 178.2 C 122.65 178.57 123.16 178.79 123.69 178.79 C 125.79 178.79 127.89 178.88 129.98 179.07 C 131.61 179.21 133.23 179.45 134.83 179.78 C 136.44 180.11 138.02 180.56 139.56 181.12 C 140.76 181.56 141.91 182.1 143 182.75 C 143.5 183.04 143.97 183.37 144.42 183.75 C 144.86 184.11 145.26 184.51 145.64 184.95 C 146.03 185.4 146.38 185.89 146.7 186.4 C 147.05 186.98 147.36 187.58 147.63 188.21 C 148.13 189.41 148.5 190.67 148.72 191.96 C 149.04 193.8 149.2 195.67 149.2 197.54 C 149.2 199.1 149.09 200.65 148.88 202.19 C 148.73 203.34 148.47 204.48 148.11 205.59 C 147.8 206.58 147.39 207.54 146.89 208.45 C 146.47 209.21 145.96 209.92 145.38 210.57 C 144.76 211.27 144.07 211.89 143.33 212.45 C 142.66 212.94 141.94 213.37 141.19 213.7 C 140.42 214.04 139.62 214.3 138.8 214.46 C 137.87 214.65 136.92 214.75 135.97 214.75 C 134.92 214.75 133.87 214.67 132.83 214.52 C 131.92 214.39 131.01 214.18 130.12 213.91 C 129.29 213.64 128.48 213.32 127.7 212.93 C 126.92 212.54 126.17 212.09 125.46 211.58 C 124.78 211.08 124.14 210.53 123.56 209.91 C 122.85 209.17 122.21 208.36 121.63 207.52 C 121.01 206.59 120.45 205.63 119.96 204.63 C 119.34 203.35 118.79 202.03 118.31 200.68 C 118.12 200.16 117.73 199.74 117.22 199.52 C 116.71 199.29 116.13 199.3 115.62 199.52 L 97.11 207.65 C 96.68 207.84 96.32 208.18 96.12 208.6 C 95.91 209.03 95.86 209.51 95.97 209.97 C 96.59 212.39 97.4 214.75 98.42 217.03 C 99.33 219.08 100.43 221.04 101.72 222.88 C 102.95 224.63 104.34 226.26 105.89 227.75 C 107.46 229.27 109.17 230.63 111 231.83 Z " fill-rule="evenodd" fill="rgb(0,0,0)"/><path d=" M 662.82 1034.84 C 661.18 1034.84 659.54 1034.93 657.92 1035.11 C 656.38 1035.29 654.85 1035.56 653.34 1035.91 C 651.86 1036.26 650.4 1036.69 648.98 1037.21 C 647.54 1037.74 646.14 1038.35 644.77 1039.03 C 643.41 1039.72 642.1 1040.5 640.84 1041.36 C 639.61 1042.2 638.45 1043.12 637.35 1044.11 C 636.25 1045.11 635.21 1046.19 634.25 1047.33 C 633.24 1048.54 632.3 1049.8 631.46 1051.13 C 630.66 1052.38 629.95 1053.69 629.35 1055.05 C 628.72 1056.46 628.2 1057.92 627.78 1059.4 C 627.33 1061.02 626.99 1062.66 626.78 1064.33 C 626.53 1066.22 626.41 1068.13 626.41 1070.03 C 626.41 1072.11 626.56 1074.19 626.85 1076.25 C 627.1 1078.03 627.49 1079.8 628.03 1081.52 C 628.52 1083.1 629.13 1084.64 629.87 1086.12 C 630.58 1087.56 631.41 1088.93 632.35 1090.23 C 633.31 1091.56 634.38 1092.82 635.55 1093.99 C 636.69 1095.12 637.92 1096.16 639.22 1097.1 C 640.57 1098.07 642 1098.92 643.49 1099.65 C 645.12 1100.46 646.81 1101.14 648.54 1101.69 C 649.37 1101.95 649.93 1102.71 649.94 1103.58 C 649.95 1104.44 649.4 1105.21 648.58 1105.49 C 646.82 1106.08 645.11 1106.8 643.45 1107.64 C 642.02 1108.36 640.65 1109.2 639.36 1110.14 C 638.17 1111 637.06 1111.96 636.03 1113 C 635.03 1114.01 634.13 1115.09 633.31 1116.25 C 632.49 1117.41 631.77 1118.64 631.15 1119.92 C 630.51 1121.24 629.97 1122.62 629.55 1124.02 C 629.08 1125.56 628.74 1127.12 628.52 1128.71 C 628.27 1130.53 628.14 1132.37 628.14 1134.22 C 628.14 1135.9 628.26 1137.58 628.48 1139.25 C 628.68 1140.73 629 1142.18 629.42 1143.61 C 629.81 1144.94 630.31 1146.23 630.9 1147.48 C 631.47 1148.71 632.14 1149.88 632.9 1151 C 633.7 1152.18 634.57 1153.3 635.52 1154.37 C 636.42 1155.39 637.39 1156.35 638.42 1157.24 C 639.45 1158.12 640.54 1158.94 641.67 1159.68 C 642.85 1160.44 644.08 1161.13 645.34 1161.74 C 646.62 1162.35 647.93 1162.89 649.27 1163.35 C 650.58 1163.81 651.92 1164.19 653.27 1164.5 C 654.64 1164.81 656.03 1165.04 657.42 1165.19 C 658.87 1165.35 660.32 1165.43 661.78 1165.43 C 663.91 1165.43 666.04 1165.31 668.16 1165.05 C 670.02 1164.83 671.87 1164.48 673.68 1164.02 C 675.34 1163.59 676.97 1163.05 678.55 1162.4 C 680.06 1161.79 681.51 1161.07 682.91 1160.25 C 684.29 1159.45 685.6 1158.54 686.82 1157.53 C 688.13 1156.45 689.36 1155.28 690.48 1154.01 C 691.74 1152.6 692.89 1151.1 693.92 1149.52 C 694.79 1148.18 695.6 1146.81 696.34 1145.4 L 682.64 1137.59 C 682.46 1137.97 682.27 1138.34 682.07 1138.71 C 681.56 1139.67 680.98 1140.59 680.33 1141.45 C 679.73 1142.26 679.06 1143.02 678.34 1143.73 C 677.64 1144.42 676.89 1145.05 676.09 1145.62 C 675.25 1146.21 674.37 1146.75 673.46 1147.21 C 672.6 1147.65 671.71 1148.02 670.8 1148.32 C 669.91 1148.61 669 1148.82 668.07 1148.97 C 667.14 1149.12 666.19 1149.19 665.24 1149.19 C 664.15 1149.19 663.06 1149.09 661.99 1148.9 C 660.97 1148.72 659.98 1148.43 659.02 1148.06 C 658.06 1147.68 657.13 1147.22 656.26 1146.67 C 655.34 1146.08 654.48 1145.42 653.68 1144.68 C 652.89 1143.96 652.18 1143.15 651.57 1142.28 C 650.96 1141.41 650.44 1140.47 650.03 1139.49 C 649.59 1138.43 649.27 1137.33 649.06 1136.21 C 648.82 1134.92 648.71 1133.62 648.71 1132.31 L 648.71 1132.14 C 648.71 1132.13 648.71 1132.12 648.71 1132.11 C 648.74 1130.11 648.96 1128.11 649.38 1126.15 C 649.73 1124.5 650.27 1122.89 650.99 1121.35 C 651.66 1119.95 652.49 1118.62 653.47 1117.41 C 654.46 1116.19 655.59 1115.08 656.84 1114.12 C 658.06 1113.18 659.36 1112.35 660.72 1111.64 C 662.14 1110.9 663.62 1110.28 665.15 1109.79 C 666.82 1109.25 668.54 1108.85 670.28 1108.6 C 671.61 1108.41 672.96 1108.28 674.31 1108.22 L 674.31 1095.19 C 672.76 1095.15 671.21 1095.06 669.66 1094.92 C 667.89 1094.76 666.12 1094.5 664.37 1094.14 C 662.57 1093.77 660.8 1093.27 659.07 1092.64 C 657.64 1092.12 656.27 1091.47 654.97 1090.7 C 654.28 1090.29 653.63 1089.84 653.02 1089.33 C 652.41 1088.82 651.85 1088.27 651.33 1087.67 C 650.8 1087.05 650.32 1086.39 649.89 1085.69 C 649.43 1084.94 649.03 1084.16 648.69 1083.35 C 648.06 1081.86 647.61 1080.31 647.33 1078.72 C 646.98 1076.65 646.8 1074.55 646.8 1072.46 C 646.8 1070.72 646.92 1068.99 647.15 1067.28 C 647.34 1065.89 647.65 1064.53 648.07 1063.2 C 648.47 1061.96 648.98 1060.76 649.61 1059.62 C 650.18 1058.6 650.86 1057.64 651.64 1056.76 C 652.44 1055.87 653.32 1055.06 654.28 1054.34 C 655.19 1053.67 656.16 1053.1 657.18 1052.64 C 658.22 1052.18 659.3 1051.84 660.4 1051.61 C 661.6 1051.37 662.81 1051.25 664.03 1051.25 C 665.27 1051.25 666.51 1051.34 667.74 1051.52 C 668.87 1051.68 669.98 1051.94 671.07 1052.28 C 672.11 1052.6 673.12 1053.01 674.09 1053.5 C 675.06 1053.98 675.99 1054.54 676.87 1055.17 C 677.77 1055.82 678.6 1056.54 679.35 1057.34 C 680.2 1058.24 680.98 1059.21 681.68 1060.24 C 682.41 1061.32 683.06 1062.45 683.63 1063.62 C 684.01 1064.39 684.36 1065.18 684.69 1065.97 L 699.7 1059.38 C 699.21 1057.75 698.62 1056.15 697.93 1054.59 C 697.12 1052.78 696.14 1051.04 695 1049.42 C 693.92 1047.87 692.69 1046.44 691.34 1045.13 C 689.94 1043.79 688.43 1042.58 686.81 1041.52 C 685.17 1040.45 683.45 1039.5 681.66 1038.69 C 679.85 1037.86 677.98 1037.16 676.07 1036.61 C 674.04 1036.03 671.96 1035.59 669.87 1035.31 C 667.53 1035 665.17 1034.84 662.82 1034.84 Z  M 662.82 1030.84 C 661.03 1030.84 659.24 1030.94 657.47 1031.14 C 655.77 1031.33 654.08 1031.63 652.42 1032.02 C 650.79 1032.4 649.18 1032.88 647.61 1033.46 C 646.02 1034.03 644.48 1034.7 642.97 1035.46 C 641.45 1036.23 639.98 1037.1 638.58 1038.06 C 637.21 1039 635.9 1040.03 634.67 1041.15 C 633.43 1042.27 632.26 1043.48 631.18 1044.76 C 630.06 1046.1 629.03 1047.5 628.09 1048.97 C 627.18 1050.4 626.38 1051.88 625.7 1053.42 C 624.99 1055.01 624.4 1056.65 623.93 1058.33 C 623.42 1060.13 623.05 1061.96 622.81 1063.81 C 622.54 1065.88 622.41 1067.95 622.41 1070.03 C 622.41 1072.3 622.57 1074.56 622.89 1076.81 C 623.17 1078.8 623.61 1080.77 624.21 1082.7 C 624.76 1084.49 625.45 1086.23 626.28 1087.9 C 627.09 1089.53 628.04 1091.09 629.1 1092.57 C 630.2 1094.08 631.41 1095.5 632.72 1096.82 C 634.01 1098.11 635.41 1099.29 636.9 1100.35 C 638.42 1101.45 640.04 1102.41 641.72 1103.24 C 641.99 1103.38 642.26 1103.51 642.54 1103.63 C 642.24 1103.78 641.94 1103.92 641.65 1104.07 C 640.03 1104.89 638.47 1105.84 637.01 1106.91 C 635.65 1107.89 634.37 1108.99 633.19 1110.19 C 632.03 1111.35 630.98 1112.61 630.04 1113.95 C 629.1 1115.29 628.27 1116.7 627.55 1118.17 C 626.82 1119.69 626.21 1121.26 625.72 1122.86 C 625.2 1124.6 624.81 1126.37 624.56 1128.16 C 624.28 1130.17 624.14 1132.19 624.14 1134.22 C 624.14 1136.08 624.27 1137.95 624.52 1139.8 C 624.75 1141.47 625.1 1143.12 625.58 1144.74 C 626.03 1146.27 626.6 1147.75 627.28 1149.19 C 627.94 1150.6 628.71 1151.95 629.59 1153.24 C 630.48 1154.57 631.47 1155.83 632.52 1157.02 C 633.55 1158.18 634.65 1159.26 635.81 1160.27 C 636.98 1161.27 638.2 1162.19 639.49 1163.03 C 640.81 1163.89 642.19 1164.66 643.61 1165.34 C 645.03 1166.02 646.47 1166.62 647.95 1167.13 C 649.41 1167.64 650.89 1168.06 652.39 1168.4 C 653.91 1168.74 655.44 1169 656.98 1169.17 C 658.58 1169.34 660.18 1169.43 661.78 1169.43 C 664.07 1169.43 666.36 1169.3 668.64 1169.02 C 670.67 1168.78 672.69 1168.4 674.68 1167.89 C 676.51 1167.42 678.31 1166.82 680.06 1166.11 C 681.74 1165.42 683.37 1164.62 684.93 1163.71 C 686.49 1162.8 687.97 1161.77 689.37 1160.62 C 690.83 1159.41 692.2 1158.09 693.47 1156.68 C 694.86 1155.12 696.13 1153.45 697.27 1151.7 C 698.58 1149.7 699.75 1147.61 700.78 1145.46 C 701 1145 701.03 1144.48 700.88 1144 C 700.73 1143.52 700.4 1143.11 699.96 1142.86 L 682.66 1133 C 682.15 1132.71 681.54 1132.65 680.99 1132.86 C 680.44 1133.06 680 1133.49 679.8 1134.04 C 679.44 1135 679.02 1135.93 678.54 1136.83 C 678.13 1137.61 677.65 1138.35 677.13 1139.06 C 676.65 1139.7 676.11 1140.31 675.54 1140.88 C 674.99 1141.42 674.4 1141.91 673.77 1142.36 C 673.09 1142.84 672.38 1143.27 671.64 1143.65 C 670.97 1143.99 670.28 1144.28 669.56 1144.51 C 668.87 1144.74 668.17 1144.91 667.45 1145.02 C 666.72 1145.13 665.98 1145.19 665.24 1145.19 C 664.39 1145.19 663.54 1145.11 662.7 1144.96 C 661.94 1144.83 661.19 1144.61 660.47 1144.33 C 659.75 1144.05 659.06 1143.7 658.4 1143.29 C 657.69 1142.83 657.01 1142.32 656.39 1141.74 C 655.81 1141.21 655.29 1140.62 654.84 1139.98 C 654.4 1139.34 654.02 1138.66 653.72 1137.95 C 653.39 1137.16 653.15 1136.33 652.99 1135.49 C 652.8 1134.44 652.71 1133.38 652.71 1132.31 L 652.71 1132.16 C 652.74 1130.42 652.93 1128.68 653.29 1126.98 C 653.58 1125.63 654.02 1124.32 654.61 1123.07 C 655.14 1121.94 655.8 1120.89 656.58 1119.92 C 657.38 1118.94 658.28 1118.06 659.28 1117.29 C 660.31 1116.49 661.41 1115.79 662.57 1115.19 C 663.79 1114.55 665.06 1114.02 666.37 1113.6 C 667.83 1113.13 669.33 1112.78 670.85 1112.56 C 672.66 1112.3 674.48 1112.17 676.31 1112.17 C 676.84 1112.17 677.35 1111.96 677.72 1111.58 C 678.1 1111.21 678.31 1110.7 678.31 1110.17 L 678.31 1093.21 C 678.31 1092.68 678.1 1092.18 677.72 1091.8 C 677.35 1091.43 676.84 1091.21 676.31 1091.21 C 674.21 1091.21 672.11 1091.12 670.02 1090.93 C 668.39 1090.79 666.77 1090.55 665.17 1090.22 C 663.56 1089.89 661.98 1089.44 660.44 1088.88 C 659.24 1088.44 658.09 1087.9 657 1087.25 C 656.5 1086.96 656.03 1086.63 655.58 1086.25 C 655.14 1085.89 654.74 1085.49 654.36 1085.05 C 653.97 1084.6 653.62 1084.11 653.3 1083.6 C 652.95 1083.02 652.64 1082.42 652.37 1081.79 C 651.87 1080.59 651.5 1079.33 651.28 1078.04 C 650.96 1076.2 650.8 1074.33 650.8 1072.46 C 650.8 1070.9 650.91 1069.35 651.12 1067.81 C 651.27 1066.66 651.53 1065.52 651.89 1064.41 C 652.2 1063.42 652.61 1062.46 653.11 1061.55 C 653.53 1060.79 654.04 1060.08 654.62 1059.43 C 655.24 1058.73 655.93 1058.11 656.67 1057.55 C 657.34 1057.06 658.06 1056.63 658.81 1056.3 C 659.58 1055.96 660.38 1055.7 661.2 1055.54 C 662.13 1055.35 663.08 1055.25 664.03 1055.25 C 665.08 1055.25 666.13 1055.33 667.17 1055.48 C 668.08 1055.61 668.99 1055.82 669.88 1056.09 C 670.71 1056.36 671.52 1056.68 672.3 1057.07 C 673.08 1057.46 673.83 1057.91 674.54 1058.42 C 675.22 1058.92 675.86 1059.47 676.44 1060.09 C 677.15 1060.83 677.79 1061.64 678.37 1062.48 C 678.99 1063.41 679.55 1064.37 680.04 1065.37 C 680.66 1066.65 681.21 1067.97 681.69 1069.32 C 681.88 1069.84 682.27 1070.26 682.78 1070.48 C 683.29 1070.71 683.87 1070.7 684.38 1070.48 L 702.89 1062.35 C 703.32 1062.16 703.68 1061.82 703.88 1061.4 C 704.09 1060.97 704.14 1060.49 704.03 1060.03 C 703.41 1057.61 702.6 1055.25 701.58 1052.97 C 700.67 1050.92 699.57 1048.96 698.28 1047.12 C 697.05 1045.37 695.66 1043.74 694.11 1042.25 C 692.54 1040.73 690.83 1039.37 689 1038.17 C 687.19 1036.99 685.29 1035.94 683.33 1035.05 C 681.34 1034.14 679.28 1033.38 677.18 1032.77 C 674.96 1032.13 672.69 1031.65 670.4 1031.34 C 667.88 1031.01 665.35 1030.84 662.82 1030.84 Z " fill-rule="evenodd" fill="rgb(0,0,0)"/><path d=" M 394.22 810.27 C 398.57 810.27 402.92 810.02 407.25 809.53 C 411.35 809.07 415.42 808.36 419.44 807.41 C 423.38 806.49 427.25 805.33 431.05 803.94 C 434.87 802.55 438.61 800.93 442.24 799.1 C 445.88 797.26 449.38 795.19 452.74 792.89 C 456.01 790.66 459.11 788.21 462.04 785.56 C 464.99 782.88 467.76 780.01 470.33 776.95 C 473.02 773.75 475.5 770.37 477.76 766.84 C 479.9 763.5 481.78 760 483.39 756.37 C 485.07 752.6 486.47 748.71 487.58 744.74 C 488.79 740.43 489.68 736.05 490.26 731.61 C 490.91 726.58 491.23 721.52 491.23 716.45 C 491.23 710.92 490.84 705.4 490.07 699.92 C 489.4 695.16 488.35 690.46 486.93 685.87 C 485.62 681.64 483.97 677.53 482.01 673.57 C 480.11 669.73 477.89 666.06 475.38 662.6 C 472.8 659.03 469.94 655.67 466.83 652.56 C 463.79 649.52 460.5 646.74 457.01 644.23 C 453.4 641.65 449.59 639.37 445.61 637.41 C 436.39 632.86 426.5 629.82 416.31 628.39 C 426.54 626.62 436.46 623.34 445.72 618.66 C 449.54 616.73 453.2 614.5 456.66 611.98 C 459.83 609.67 462.81 607.11 465.57 604.32 C 468.24 601.63 470.67 598.72 472.85 595.62 C 475.04 592.5 476.97 589.22 478.63 585.79 C 480.35 582.25 481.78 578.58 482.93 574.81 C 484.17 570.72 485.08 566.53 485.67 562.3 C 486.34 557.44 486.68 552.54 486.68 547.64 C 486.68 543.15 486.38 538.67 485.77 534.22 C 485.23 530.28 484.39 526.39 483.27 522.58 C 482.21 519.02 480.89 515.56 479.32 512.21 C 477.77 508.93 475.98 505.79 473.95 502.79 C 471.82 499.65 469.48 496.64 466.96 493.8 C 464.55 491.08 461.95 488.52 459.2 486.14 C 456.45 483.78 453.55 481.6 450.52 479.62 C 447.38 477.58 444.11 475.74 440.73 474.13 C 437.32 472.5 433.83 471.06 430.27 469.82 C 426.78 468.6 423.21 467.58 419.6 466.76 C 415.95 465.94 412.27 465.32 408.55 464.91 C 404.7 464.49 400.83 464.28 396.95 464.28 C 391.29 464.28 385.64 464.62 380.01 465.29 C 375.07 465.88 370.16 466.8 365.34 468.04 C 360.92 469.18 356.58 470.62 352.36 472.34 C 348.35 473.97 344.46 475.89 340.73 478.07 C 337.06 480.21 333.56 482.65 330.28 485.35 C 326.79 488.23 323.53 491.36 320.52 494.74 C 317.17 498.49 314.11 502.49 311.36 506.7 C 308.83 510.59 306.5 514.61 304.39 518.73 L 342.66 540.55 C 343.29 539.14 343.97 537.76 344.69 536.4 C 346 533.94 347.5 531.59 349.17 529.36 C 350.72 527.28 352.42 525.33 354.27 523.52 C 356.07 521.75 358 520.13 360.05 518.67 C 362.2 517.15 364.46 515.78 366.8 514.58 C 369 513.46 371.27 512.51 373.62 511.75 C 375.9 511.01 378.23 510.45 380.59 510.08 C 383 509.7 385.42 509.52 387.85 509.52 C 390.64 509.52 393.43 509.77 396.17 510.26 C 398.76 510.73 401.3 511.45 403.75 512.41 C 406.21 513.36 408.56 514.55 410.78 515.96 C 413.14 517.45 415.35 519.15 417.41 521.04 C 419.41 522.88 421.21 524.93 422.77 527.16 C 424.33 529.38 425.64 531.76 426.69 534.26 C 427.81 536.95 428.64 539.76 429.16 542.63 C 429.77 545.93 430.07 549.28 430.07 552.65 L 430.07 553.1 C 430.07 553.12 430.07 553.14 430.07 553.16 C 430.03 555.9 429.85 558.64 429.55 561.36 C 429.28 563.8 428.88 566.23 428.34 568.63 C 427.86 570.81 427.25 572.97 426.54 575.09 C 425.86 577.08 425.07 579.03 424.18 580.93 C 423.31 582.75 422.34 584.52 421.27 586.23 C 420.22 587.91 419.07 589.52 417.83 591.06 C 416.58 592.61 415.24 594.08 413.81 595.47 C 412.35 596.9 410.8 598.24 409.18 599.49 C 406.03 601.92 402.67 604.07 399.14 605.9 C 395.47 607.81 391.65 609.41 387.71 610.68 C 383.37 612.08 378.93 613.11 374.42 613.76 C 370.55 614.32 366.64 614.67 362.73 614.81 L 362.73 651.52 C 367.2 651.61 371.66 651.85 376.1 652.25 C 380.73 652.67 385.33 653.34 389.89 654.28 C 394.56 655.24 399.16 656.54 403.65 658.18 C 407.32 659.52 410.86 661.19 414.23 663.18 C 415.97 664.21 417.63 665.38 419.18 666.67 C 420.72 667.96 422.16 669.37 423.47 670.89 C 424.83 672.46 426.06 674.15 427.15 675.93 C 428.32 677.84 429.34 679.84 430.22 681.91 C 430.6 682.81 430.95 683.72 431.28 684.64 C 431.62 685.61 431.94 686.6 432.23 687.59 C 433.18 690.83 433.87 694.14 434.29 697.5 C 434.81 701.67 435.08 705.87 435.08 710.08 C 435.08 714.57 434.77 719.07 434.17 723.53 C 433.68 727.09 432.89 730.61 431.8 734.05 C 430.78 737.23 429.46 740.3 427.85 743.22 C 426.41 745.83 424.67 748.28 422.69 750.5 C 420.64 752.79 418.37 754.87 415.91 756.7 C 413.61 758.41 411.14 759.86 408.52 761.03 C 405.89 762.2 403.14 763.08 400.32 763.65 C 397.26 764.27 394.15 764.58 391.04 764.58 C 387.83 764.58 384.63 764.35 381.46 763.89 C 378.55 763.47 375.69 762.82 372.89 761.94 C 370.22 761.11 367.63 760.06 365.13 758.81 C 362.64 757.57 360.25 756.13 357.99 754.5 C 355.71 752.86 353.58 751 351.65 748.96 C 349.45 746.64 347.45 744.14 345.66 741.49 C 343.77 738.71 342.09 735.79 340.61 732.77 C 339.44 730.37 338.36 727.93 337.37 725.44 L 295.69 743.75 C 296.25 745.68 296.85 747.6 297.51 749.5 C 298.45 752.23 299.52 754.92 300.71 757.55 C 301.82 760.03 303.05 762.45 304.39 764.82 C 305.67 767.07 307.05 769.26 308.54 771.39 C 309.99 773.46 311.54 775.46 313.18 777.38 C 314.81 779.29 316.53 781.12 318.33 782.86 C 320.16 784.63 322.07 786.31 324.05 787.89 C 326.11 789.52 328.24 791.06 330.44 792.49 C 334.8 795.35 339.38 797.87 344.13 800.04 C 348.95 802.24 353.93 804.08 359.02 805.55 C 364.43 807.11 369.94 808.27 375.52 809.02 C 381.72 809.85 387.97 810.27 394.22 810.27 Z  M 394.22 818.27 C 398.88 818.27 403.52 818.01 408.15 817.48 C 412.57 816.98 416.95 816.22 421.28 815.2 C 425.52 814.2 429.7 812.95 433.79 811.46 C 437.91 809.96 441.93 808.21 445.85 806.24 C 449.8 804.24 453.61 801.99 457.26 799.49 C 460.82 797.06 464.21 794.38 467.41 791.49 C 470.63 788.57 473.65 785.43 476.45 782.1 C 479.37 778.63 482.06 774.97 484.5 771.15 C 486.85 767.47 488.93 763.61 490.7 759.62 C 492.54 755.5 494.07 751.24 495.29 746.9 C 496.6 742.22 497.57 737.46 498.19 732.64 C 498.88 727.27 499.23 721.86 499.23 716.45 C 499.23 710.54 498.82 704.65 497.99 698.8 C 497.26 693.62 496.12 688.5 494.57 683.5 C 493.13 678.87 491.33 674.36 489.18 670.01 C 487.08 665.78 484.63 661.74 481.87 657.91 C 479.04 653.99 475.9 650.31 472.48 646.9 C 469.13 643.55 465.51 640.48 461.66 637.73 C 457.7 634.89 453.52 632.39 449.15 630.23 C 447.62 629.48 446.08 628.77 444.52 628.09 C 446.14 627.36 447.74 626.6 449.33 625.8 C 453.53 623.68 457.56 621.22 461.37 618.45 C 464.89 615.89 468.19 613.04 471.26 609.95 C 474.24 606.94 476.96 603.68 479.39 600.22 C 481.83 596.75 483.99 593.09 485.83 589.28 C 487.73 585.36 489.32 581.3 490.58 577.13 C 491.94 572.64 492.95 568.05 493.6 563.4 C 494.32 558.17 494.68 552.91 494.68 547.64 C 494.68 542.79 494.35 537.94 493.7 533.14 C 493.1 528.8 492.18 524.51 490.94 520.31 C 489.77 516.36 488.3 512.52 486.55 508.8 C 484.83 505.15 482.83 501.64 480.57 498.3 C 478.24 494.87 475.7 491.6 472.95 488.49 C 470.3 485.5 467.45 482.69 464.42 480.08 C 461.4 477.48 458.22 475.09 454.88 472.92 C 451.45 470.69 447.87 468.68 444.18 466.91 C 440.51 465.15 436.75 463.6 432.91 462.26 C 429.12 460.95 425.27 459.84 421.36 458.96 C 417.42 458.07 413.44 457.4 409.42 456.96 C 405.28 456.51 401.12 456.28 396.95 456.28 C 390.97 456.28 385 456.63 379.07 457.34 C 373.76 457.98 368.51 458.96 363.34 460.3 C 358.57 461.53 353.89 463.08 349.34 464.93 C 344.98 466.71 340.76 468.79 336.7 471.16 C 332.65 473.52 328.8 476.2 325.19 479.18 C 321.39 482.31 317.83 485.73 314.55 489.41 C 310.93 493.46 307.62 497.78 304.66 502.34 C 301.26 507.56 298.21 512.99 295.52 518.61 C 295.08 519.53 295.01 520.57 295.31 521.53 C 295.61 522.5 296.27 523.31 297.15 523.82 L 342.65 549.75 C 343.67 550.33 344.89 550.44 345.99 550.03 C 347.1 549.63 347.97 548.77 348.38 547.67 C 349.33 545.09 350.46 542.59 351.75 540.17 C 352.87 538.07 354.15 536.05 355.57 534.15 C 356.88 532.4 358.32 530.75 359.88 529.23 C 361.37 527.76 362.98 526.41 364.69 525.19 C 366.52 523.89 368.44 522.72 370.44 521.7 C 372.26 520.77 374.15 519.99 376.09 519.36 C 377.97 518.75 379.89 518.29 381.83 517.98 C 383.83 517.67 385.84 517.52 387.85 517.52 C 390.16 517.52 392.47 517.72 394.75 518.13 C 396.83 518.51 398.88 519.09 400.85 519.86 C 402.82 520.63 404.71 521.59 406.5 522.72 C 408.45 523.95 410.29 525.36 411.99 526.92 C 413.57 528.38 414.99 530 416.22 531.76 C 417.45 533.5 418.48 535.38 419.3 537.34 C 420.21 539.51 420.87 541.76 421.29 544.06 C 421.81 546.9 422.07 549.77 422.07 552.65 L 422.07 553.07 C 422.03 555.54 421.87 558.01 421.6 560.47 C 421.36 562.63 421 564.77 420.53 566.89 C 420.11 568.8 419.58 570.68 418.96 572.53 C 418.38 574.22 417.71 575.89 416.95 577.5 C 416.22 579.04 415.4 580.54 414.49 581.98 C 413.61 583.39 412.65 584.74 411.6 586.04 C 410.56 587.34 409.43 588.57 408.23 589.74 C 406.99 590.95 405.67 592.09 404.29 593.16 C 401.52 595.3 398.56 597.19 395.45 598.81 C 392.18 600.51 388.77 601.94 385.26 603.07 C 381.35 604.32 377.34 605.25 373.27 605.84 C 368.46 606.54 363.6 606.89 358.73 606.89 C 357.67 606.89 356.65 607.31 355.9 608.06 C 355.15 608.81 354.73 609.82 354.73 610.89 L 354.73 655.48 C 354.73 656.54 355.15 657.55 355.9 658.3 C 356.65 659.05 357.67 659.48 358.73 659.48 C 364.29 659.48 369.85 659.72 375.39 660.22 C 379.72 660.61 384.02 661.24 388.28 662.12 C 392.57 663 396.79 664.19 400.91 665.7 C 404.12 666.87 407.22 668.33 410.16 670.07 C 411.53 670.88 412.84 671.8 414.06 672.82 C 415.26 673.82 416.39 674.92 417.41 676.11 C 418.49 677.36 419.46 678.69 420.32 680.1 C 421.28 681.68 422.13 683.32 422.85 685.02 C 423.17 685.78 423.46 686.54 423.74 687.32 C 424.03 688.15 424.3 688.99 424.55 689.83 C 425.38 692.67 425.98 695.56 426.35 698.49 C 426.84 702.34 427.08 706.2 427.08 710.08 C 427.08 714.21 426.8 718.35 426.24 722.45 C 425.82 725.56 425.13 728.63 424.17 731.62 C 423.32 734.3 422.2 736.89 420.84 739.35 C 419.69 741.44 418.31 743.4 416.72 745.18 C 415.03 747.06 413.16 748.77 411.13 750.28 C 409.31 751.64 407.34 752.8 405.26 753.72 C 403.17 754.66 400.98 755.36 398.74 755.81 C 396.2 756.32 393.62 756.58 391.04 756.58 C 388.22 756.58 385.4 756.38 382.61 755.97 C 380.12 755.61 377.67 755.06 375.28 754.31 C 373.02 753.6 370.82 752.71 368.71 751.66 C 366.6 750.6 364.57 749.38 362.66 748.01 C 360.79 746.66 359.05 745.14 357.46 743.46 C 355.56 741.45 353.83 739.29 352.28 737.01 C 350.61 734.53 349.11 731.95 347.8 729.26 C 346.13 725.85 344.66 722.33 343.39 718.75 C 343.02 717.7 342.23 716.86 341.21 716.41 C 340.19 715.97 339.03 715.98 338.01 716.42 L 289.33 737.81 C 288.46 738.19 287.76 738.86 287.34 739.71 C 286.93 740.56 286.83 741.53 287.06 742.45 C 287.89 745.71 288.85 748.93 289.95 752.11 C 290.97 755.07 292.13 757.99 293.42 760.84 C 294.63 763.54 295.97 766.18 297.43 768.76 C 298.83 771.23 300.35 773.64 301.98 775.97 C 303.58 778.25 305.28 780.46 307.09 782.57 C 308.89 784.68 310.78 786.7 312.77 788.62 C 314.78 790.56 316.89 792.41 319.07 794.15 C 321.32 795.94 323.65 797.62 326.06 799.19 C 330.76 802.26 335.69 804.98 340.8 807.31 C 345.98 809.68 351.33 811.66 356.8 813.24 C 362.59 814.91 368.49 816.15 374.45 816.95 C 381.01 817.83 387.61 818.27 394.22 818.27 Z " fill-rule="evenodd" fill="rgb(0,0,0)"/></g></svg>