<?xml version="1.0" encoding="UTF-8" standalone="no"?><!-- Generator: Gravit.io --><svg xmlns="http://www.w3.org/2000/svg" xmlns:xlink="http://www.w3.org/1999/xlink" style="isolation:isolate" viewBox="0 0 800 1270" width="800pt" height="1270pt"><defs><clipPath id="_clipPath_YeTalssEZPK3K924m8RrW3J1ygH2vzOD"><rect width="800" height="1270"/></clipPath></defs><g clip-path="url(#_clipPath_YeTalssEZPK3K924m8RrW3J1ygH2vzOD)"><path d=" M 800 64 C 800 30.523 757.12 0 736 0 L 64 0 C 42.912 0 0 30.523 0 64 L 0 1206 C 0 1239.477 42.912 1270 64 1270 L 746 1270 C 767.12 1270 800 1239.477 800 1206 L 800 64 Z " fill-rule="evenodd" fill="rgb(0,0,0)"/><path d=" M 796 64 C 796 30.734 756.908 4 736 4 L 64 4 C 43.123 4 4 34.331 4 67.597 L 4 1206 C 4 1239.266 43.123 1266 64 1266 L 746 1266 C 766.908 1266 796 1239.266 796 1206 L 796 64 Z " fill-rule="evenodd" fill="rgb(255,255,255)"/><path d=" M 736 121.55 C 736 91.446 699.98 64 682.24 64 L 117.76 64 C 100.046 64 64 91.446 64 121.55 L 64 1148.45 C 64 1178.554 100.046 1206 117.76 1206 L 690.64 1206 C 708.38 1206 736 1178.554 736 1148.45 L 736 121.55 Z " fill-rule="evenodd" fill="rgb(80,170,68)"/><path d=" M 183.054 507.699 C 343.308 234.596 570.623 69.913 690.359 140.172 C 810.095 210.432 777.199 489.198 616.946 762.301 C 456.692 1035.404 229.377 1200.087 109.641 1129.828 C -10.095 1059.568 22.801 780.802 183.054 507.699 Z " fill="rgb(255,255,255)"/><defs><filter id="E4AkUH7prR7iRHKiTn8ayXba80vwQJ7V" x="-200%" y="-200%" width="400%" height="400%" filterUnits="objectBoundingBox" color-interpolation-filters="sRGB"><feGaussianBlur xmlns="http://www.w3.org/2000/svg" in="SourceGraphic" stdDeviation="0"/><feOffset xmlns="http://www.w3.org/2000/svg" dx="8" dy="8" result="pf_100_offsetBlur"/><feFlood xmlns="http://www.w3.org/2000/svg" flood-color="#000000" flood-opacity="1"/><feComposite xmlns="http://www.w3.org/2000/svg" in2="pf_100_offsetBlur" operator="in" result="pf_100_dropShadow"/><feBlend xmlns="http://www.w3.org/2000/svg" in="SourceGraphic" in2="pf_100_dropShadow" mode="normal"/></filter></defs><g filter="url(#E4AkUH7prR7iRHKiTn8ayXba80vwQJ7V)"><path d=" M 116.251 234.74 L 116.251 234.74 Q 118.327 210.001 125.939 183.186 L 125.939 183.186 L 125.939 183.186 Q 133.551 156.371 146.18 125.923 L 146.18 125.923 L 103.968 125.923 L 105.871 104.99 L 175.936 104.99 L 175.936 122.982 L 175.936 122.982 Q 160.885 152.392 152.581 181.543 L 152.581 181.543 L 152.581 181.543 Q 144.277 210.693 144.277 234.74 L 144.277 234.74 L 116.251 234.74 L 116.251 234.74 Z " fill="rgb(255,255,255)"/></g><defs><filter id="m6HZkLXXrBanXcbTtJfl2O54bAdafdwm" x="-200%" y="-200%" width="400%" height="400%" filterUnits="objectBoundingBox" color-interpolation-filters="sRGB"><feGaussianBlur xmlns="http://www.w3.org/2000/svg" in="SourceGraphic" stdDeviation="0"/><feOffset xmlns="http://www.w3.org/2000/svg" dx="-8" dy="-8" result="pf_100_offsetBlur"/><feFlood xmlns="http://www.w3.org/2000/svg" flood-color="#000000" flood-opacity="1"/><feComposite xmlns="http://www.w3.org/2000/svg" in2="pf_100_offsetBlur" operator="in" result="pf_100_dropShadow"/><feBlend xmlns="http://www.w3.org/2000/svg" in="SourceGraphic" in2="pf_100_dropShadow" mode="normal"/></filter></defs><g filter="url(#m6HZkLXXrBanXcbTtJfl2O54bAdafdwm)"><path d=" M 683.749 1035.26 L 683.749 1035.26 Q 681.673 1059.999 674.061 1086.814 L 674.061 1086.814 L 674.061 1086.814 Q 666.449 1113.629 653.82 1144.077 L 653.82 1144.077 L 696.032 1144.077 L 694.129 1165.01 L 624.064 1165.01 L 624.064 1147.018 L 624.064 1147.018 Q 639.115 1117.608 647.419 1088.458 L 647.419 1088.458 L 647.419 1088.458 Q 655.723 1059.307 655.723 1035.26 L 655.723 1035.26 L 683.749 1035.26 L 683.749 1035.26 Z " fill="rgb(255,255,255)"/></g><defs><filter id="EvPO0aQN24QIjVo4n0JuTdNl0TfFPuDw" x="-200%" y="-200%" width="400%" height="400%" filterUnits="objectBoundingBox" color-interpolation-filters="sRGB"><feGaussianBlur xmlns="http://www.w3.org/2000/svg" in="SourceGraphic" stdDeviation="0"/><feOffset xmlns="http://www.w3.org/2000/svg" dx="16" dy="16" result="pf_100_offsetBlur"/><feFlood xmlns="http://www.w3.org/2000/svg" flood-color="#000000" flood-opacity="1"/><feComposite xmlns="http://www.w3.org/2000/svg" in2="pf_100_offsetBlur" operator="in" result="pf_100_dropShadow"/><feBlend xmlns="http://www.w3.org/2000/svg" in="SourceGraphic" in2="pf_100_dropShadow" mode="normal"/></filter></defs><g filter="url(#EvPO0aQN24QIjVo4n0JuTdNl0TfFPuDw)"><path d=" M 339.167 806.9 L 339.167 806.9 Q 344.627 741.835 364.648 671.31 L 364.648 671.31 L 364.648 671.31 Q 384.667 600.785 417.882 520.705 L 417.882 520.705 L 306.862 520.705 L 311.867 465.65 L 496.143 465.65 L 496.143 512.97 L 496.143 512.97 Q 456.558 590.32 434.718 666.988 L 434.718 666.988 L 434.718 666.988 Q 412.877 743.655 412.877 806.9 L 412.877 806.9 L 339.167 806.9 L 339.167 806.9 Z " fill="rgb(80,170,68)"/></g><path d=" M 127.86 183.73 C 125.35 192.59 123.24 201.55 121.54 210.6 C 120.16 217.93 119.13 225.32 118.44 232.74 L 142.29 232.74 C 142.31 231.57 142.34 230.39 142.38 229.22 C 142.46 227.29 142.56 225.36 142.71 223.43 C 142.82 221.99 142.94 220.54 143.09 219.11 C 143.24 217.61 143.41 216.12 143.6 214.63 C 144.26 209.34 145.15 204.08 146.24 198.86 C 147.5 192.85 148.98 186.9 150.66 180.99 C 153.44 171.24 156.71 161.64 160.47 152.22 C 164.5 142.11 168.99 132.19 173.94 122.5 L 173.94 106.99 L 107.7 106.99 L 106.16 123.92 L 146.18 123.92 C 146.85 123.92 147.47 124.26 147.84 124.81 C 148.21 125.37 148.28 126.07 148.03 126.69 C 143.84 136.8 139.91 147.01 136.27 157.33 C 133.19 166.04 130.39 174.84 127.86 183.73 Z  M 146.28 234.74 C 146.28 232.95 146.31 231.16 146.38 229.37 C 146.45 227.49 146.56 225.61 146.7 223.73 C 146.8 222.32 146.93 220.91 147.07 219.51 C 147.22 218.05 147.38 216.59 147.57 215.13 C 148.22 209.95 149.08 204.79 150.16 199.68 C 151.4 193.77 152.85 187.9 154.5 182.09 C 157.24 172.47 160.47 162.99 164.18 153.7 C 168.23 143.56 172.74 133.61 177.72 123.89 C 177.86 123.61 177.94 123.3 177.94 122.98 L 177.94 102.99 L 104.04 102.99 L 101.78 127.92 L 143.19 127.92 C 139.4 137.19 135.83 146.55 132.5 155.99 C 129.39 164.78 126.56 173.67 124.01 182.64 C 121.47 191.61 119.33 200.69 117.61 209.86 C 116.07 218.03 114.95 226.28 114.26 234.57 C 114.21 235.13 114.4 235.68 114.78 236.09 C 115.16 236.51 115.69 236.74 116.25 236.74 L 144.28 236.74 C 144.81 236.74 145.32 236.53 145.69 236.15 C 146.07 235.78 146.28 235.27 146.28 234.74 Z " fill-rule="evenodd" fill="rgb(0,0,0)"/><path d=" M 685.74 1035.43 C 685.05 1043.72 683.93 1051.97 682.39 1060.14 C 680.67 1069.31 678.53 1078.39 675.99 1087.36 C 673.44 1096.33 670.61 1105.22 667.5 1114.01 C 664.17 1123.45 660.6 1132.81 656.81 1142.08 L 698.22 1142.08 L 695.96 1167.01 L 622.06 1167.01 L 622.06 1147.02 C 622.06 1146.7 622.14 1146.39 622.28 1146.11 C 627.26 1136.39 631.77 1126.44 635.82 1116.3 C 639.53 1107.01 642.76 1097.53 645.5 1087.91 C 648.23 1078.33 650.37 1068.59 651.9 1058.74 C 653.11 1050.97 653.72 1043.12 653.72 1035.26 C 653.72 1034.73 653.93 1034.22 654.31 1033.85 C 654.68 1033.47 655.19 1033.26 655.72 1033.26 L 683.75 1033.26 C 684.31 1033.26 684.84 1033.49 685.22 1033.91 C 685.6 1034.32 685.79 1034.87 685.74 1035.43 Z  M 681.56 1037.26 C 680.87 1044.68 679.84 1052.07 678.46 1059.4 C 676.76 1068.45 674.65 1077.41 672.14 1086.27 C 669.61 1095.16 666.81 1103.96 663.73 1112.67 C 660.09 1122.99 656.16 1133.2 651.97 1143.31 C 651.72 1143.93 651.79 1144.63 652.16 1145.19 C 652.53 1145.74 653.15 1146.08 653.82 1146.08 L 693.84 1146.08 L 692.3 1163.01 L 626.06 1163.01 L 626.06 1147.5 C 631.01 1137.81 635.5 1127.89 639.53 1117.78 C 643.29 1108.36 646.56 1098.76 649.34 1089.01 C 652.12 1079.27 654.29 1069.36 655.85 1059.36 C 657 1052.05 657.62 1044.66 657.71 1037.26 L 681.56 1037.26 Z " fill-rule="evenodd" fill="rgb(0,0,0)"/><path d=" M 408.9 802.9 C 408.94 799.41 409.02 795.91 409.15 792.42 C 409.35 787.36 409.63 782.3 410.01 777.24 C 410.29 773.46 410.62 769.68 411.01 765.91 C 411.4 761.99 411.85 758.07 412.34 754.16 C 412.71 751.24 413.1 748.33 413.52 745.41 C 413.96 742.42 414.42 739.42 414.9 736.43 C 416.73 725.19 418.9 714.01 421.42 702.9 C 424.23 690.48 427.38 678.14 430.87 665.89 C 432.14 661.44 433.45 656.99 434.8 652.56 C 436.17 648.08 437.57 643.6 439.02 639.14 C 445.91 617.92 453.67 597 462.28 576.42 C 471.42 554.58 481.38 533.09 492.14 512.01 L 492.14 469.65 L 315.52 469.65 L 311.24 516.71 L 417.88 516.71 C 419.22 516.71 420.47 517.37 421.21 518.48 C 421.95 519.59 422.09 521 421.58 522.24 C 410.54 548.84 400.22 575.73 390.63 602.88 C 382.52 625.81 375.14 649 368.5 672.4 C 361.87 695.73 356.32 719.34 351.84 743.17 C 348.12 762.94 345.35 782.87 343.53 802.9 L 408.9 802.9 Z  M 416.88 806.9 C 416.88 802.17 416.97 797.45 417.15 792.73 C 417.34 787.76 417.62 782.8 417.99 777.84 C 418.27 774.13 418.59 770.42 418.97 766.71 C 419.35 762.86 419.79 759.01 420.28 755.16 C 420.64 752.29 421.03 749.42 421.44 746.56 C 421.87 743.61 422.32 740.66 422.8 737.72 C 424.6 726.64 426.74 715.62 429.22 704.67 C 432 692.39 435.12 680.19 438.56 668.08 C 439.82 663.68 441.12 659.28 442.45 654.89 C 443.81 650.45 445.2 646.02 446.63 641.61 C 453.45 620.6 461.13 599.88 469.66 579.51 C 478.84 557.56 488.86 535.97 499.7 514.79 C 499.99 514.23 500.14 513.6 500.14 512.97 L 500.14 461.65 L 308.21 461.65 L 302.48 524.71 L 411.9 524.71 C 401.67 549.63 392.06 574.81 383.08 600.21 C 374.92 623.31 367.49 646.65 360.8 670.22 C 354.11 693.78 348.5 717.63 343.98 741.69 C 339.94 763.15 337.01 784.81 335.18 806.57 C 335.09 807.68 335.47 808.78 336.22 809.61 C 336.98 810.43 338.05 810.9 339.17 810.9 L 412.88 810.9 C 413.94 810.9 414.96 810.48 415.71 809.73 C 416.46 808.98 416.88 807.96 416.88 806.9 Z " fill-rule="evenodd" fill="rgb(0,0,0)"/></g></svg>