<?xml version="1.0" encoding="UTF-8" standalone="no"?><!-- Generator: Gravit.io --><svg xmlns="http://www.w3.org/2000/svg" xmlns:xlink="http://www.w3.org/1999/xlink" style="isolation:isolate" viewBox="0 0 800 1270" width="800pt" height="1270pt"><defs><clipPath id="_clipPath_3DaiqMfOUEzcEOYT3zWQN6PNxCOrXAiP"><rect width="800" height="1270"/></clipPath></defs><g clip-path="url(#_clipPath_3DaiqMfOUEzcEOYT3zWQN6PNxCOrXAiP)"><g><path d=" M 800 64 C 800 30.523 757.12 0 736 0 L 64 0 C 42.912 0 0 30.523 0 64 L 0 1206 C 0 1239.477 42.912 1270 64 1270 L 746 1270 C 767.12 1270 800 1239.477 800 1206 L 800 64 Z " fill-rule="evenodd" fill="rgb(0,0,0)"/><path d=" M 796 64 C 796 30.734 756.908 4 736 4 L 64 4 C 43.123 4 4 34.331 4 67.597 L 4 1206 C 4 1239.266 43.123 1266 64 1266 L 746 1266 C 766.908 1266 796 1239.266 796 1206 L 796 64 Z " fill-rule="evenodd" fill="rgb(255,255,255)"/><path d=" M 736 121.55 C 736 91.446 699.98 64 682.24 64 L 117.76 64 C 100.046 64 64 91.446 64 121.55 L 64 1148.45 C 64 1178.554 100.046 1206 117.76 1206 L 690.64 1206 C 708.38 1206 736 1178.554 736 1148.45 L 736 121.55 Z " fill-rule="evenodd" fill="rgb(237,28,36)"/><path d=" M 183.054 507.699 C 343.308 234.596 570.623 69.913 690.359 140.172 C 810.095 210.432 777.199 489.198 616.946 762.301 C 456.692 1035.404 229.377 1200.087 109.641 1129.828 C -10.095 1059.568 22.801 780.802 183.054 507.699 Z " fill="rgb(255,255,255)"/></g><g><defs><filter id="i0L0yPXVF6KSXCHZ0ZZ2kfRKNQ8eWuWQ" x="-200%" y="-200%" width="400%" height="400%" filterUnits="objectBoundingBox" color-interpolation-filters="sRGB"><feGaussianBlur xmlns="http://www.w3.org/2000/svg" in="SourceGraphic" stdDeviation="0"/><feOffset xmlns="http://www.w3.org/2000/svg" dx="16" dy="16" result="pf_100_offsetBlur"/><feFlood xmlns="http://www.w3.org/2000/svg" flood-color="#000000" flood-opacity="1"/><feComposite xmlns="http://www.w3.org/2000/svg" in2="pf_100_offsetBlur" operator="in" result="pf_100_dropShadow"/><feBlend xmlns="http://www.w3.org/2000/svg" in="SourceGraphic" in2="pf_100_dropShadow" mode="normal"/></filter></defs><g filter="url(#i0L0yPXVF6KSXCHZ0ZZ2kfRKNQ8eWuWQ)"><path d=" M 433.639 811.639 L 280.128 800.256 L 345.083 660.699 L 376.544 714.323 C 422.244 680.901 514.464 602.849 565.535 531.361 C 568.46 606.111 490.411 708.045 402.179 758.016 L 433.639 811.639 Z " fill="rgb(237,28,36)"/></g><defs><filter id="o0cx3sSTqApBMi7Jkb8DV8vKthCJDR6R" x="-200%" y="-200%" width="400%" height="400%" filterUnits="objectBoundingBox" color-interpolation-filters="sRGB"><feGaussianBlur xmlns="http://www.w3.org/2000/svg" in="SourceGraphic" stdDeviation="0"/><feOffset xmlns="http://www.w3.org/2000/svg" dx="16" dy="16" result="pf_100_offsetBlur"/><feFlood xmlns="http://www.w3.org/2000/svg" flood-color="#000000" flood-opacity="1"/><feComposite xmlns="http://www.w3.org/2000/svg" in2="pf_100_offsetBlur" operator="in" result="pf_100_dropShadow"/><feBlend xmlns="http://www.w3.org/2000/svg" in="SourceGraphic" in2="pf_100_dropShadow" mode="normal"/></filter></defs><g filter="url(#o0cx3sSTqApBMi7Jkb8DV8vKthCJDR6R)"><path d=" M 366.361 458.361 L 519.872 469.744 L 454.917 609.301 L 423.456 555.677 C 377.756 589.099 285.536 667.151 234.465 738.639 C 231.54 663.889 309.589 561.955 397.821 511.984 L 366.361 458.361 Z " fill="rgb(237,28,36)"/></g><path d=" M 440.95 816.19 L 274.06 803.82 L 344.67 652.1 L 377.74 708.46 C 382.96 704.59 388.12 700.66 393.22 696.65 C 400.77 690.74 408.24 684.72 415.62 678.61 C 432.93 664.28 449.83 649.47 466.31 634.18 C 475.19 625.95 483.93 617.56 492.53 609.02 C 501.18 600.42 509.66 591.64 517.95 582.69 C 526.06 573.95 533.93 564.98 541.55 555.82 C 551.11 544.35 560.11 532.44 568.53 520.11 C 569.25 525.2 569.62 530.33 569.61 535.47 C 569.61 540.39 569.3 545.29 568.7 550.17 C 568.08 555.24 567.19 560.28 566.04 565.26 C 564.85 570.45 563.42 575.59 561.76 580.65 C 560.03 585.93 558.09 591.13 555.95 596.25 C 553.73 601.56 551.32 606.8 548.73 611.94 C 546.05 617.26 543.2 622.5 540.19 627.64 C 533.91 638.34 527.03 648.69 519.58 658.62 C 511.86 668.94 503.63 678.86 494.9 688.35 C 486.04 698.01 476.7 707.23 466.93 715.98 C 457.19 724.71 447.01 732.95 436.43 740.65 C 427.16 747.4 417.57 753.68 407.67 759.47 L 440.95 816.19 Z  M 561.29 543.85 C 561.16 545.63 560.98 547.42 560.76 549.19 C 560.17 553.99 559.33 558.75 558.25 563.46 C 557.11 568.42 555.74 573.33 554.15 578.16 C 552.49 583.23 550.63 588.24 548.57 593.16 C 546.42 598.3 544.09 603.37 541.58 608.34 C 538.98 613.51 536.22 618.6 533.29 623.59 C 527.16 634.04 520.45 644.13 513.18 653.82 C 505.62 663.93 497.55 673.64 489.01 682.94 C 480.32 692.41 471.17 701.44 461.59 710.02 C 452.05 718.58 442.08 726.64 431.72 734.18 C 421.6 741.56 411.08 748.35 400.2 754.54 C 399.27 755.07 398.59 755.95 398.31 756.98 C 398.04 758.01 398.19 759.12 398.73 760.04 L 426.33 807.09 L 286.2 796.69 L 345.49 669.3 L 373.09 716.35 C 373.67 717.32 374.63 718.01 375.73 718.24 C 376.84 718.47 378 718.22 378.91 717.55 C 385.4 712.78 391.82 707.92 398.16 702.95 C 405.76 696.99 413.28 690.93 420.72 684.77 C 438.15 670.35 455.17 655.44 471.75 640.05 C 480.7 631.75 489.5 623.3 498.16 614.69 C 506.9 606.02 515.45 597.16 523.82 588.13 C 532.02 579.28 539.99 570.21 547.7 560.94 C 552.36 555.34 556.89 549.65 561.29 543.85 Z " fill-rule="evenodd" fill="rgb(0,0,0)"/><path d=" M 359.05 453.81 L 525.94 466.18 L 455.33 617.9 L 422.26 561.54 C 417.04 565.41 411.88 569.34 406.78 573.35 C 399.23 579.26 391.76 585.28 384.38 591.39 C 367.07 605.72 350.17 620.53 333.69 635.82 C 324.81 644.05 316.07 652.44 307.47 660.98 C 298.82 669.58 290.34 678.36 282.05 687.31 C 273.94 696.05 266.07 705.02 258.45 714.18 C 248.89 725.65 239.89 737.56 231.47 749.89 C 230.75 744.8 230.38 739.67 230.39 734.53 C 230.39 729.61 230.7 724.71 231.3 719.83 C 231.92 714.76 232.81 709.72 233.96 704.74 C 235.15 699.55 236.58 694.41 238.24 689.35 C 239.97 684.07 241.91 678.87 244.05 673.75 C 246.27 668.44 248.68 663.2 251.27 658.06 C 253.95 652.74 256.8 647.5 259.81 642.36 C 266.09 631.66 272.97 621.31 280.42 611.38 C 288.14 601.06 296.37 591.14 305.1 581.65 C 313.96 571.99 323.3 562.77 333.07 554.02 C 342.81 545.29 352.99 537.05 363.57 529.35 C 372.84 522.6 382.43 516.32 392.33 510.53 L 359.05 453.81 Z  M 238.71 726.15 C 238.84 724.37 239.02 722.59 239.24 720.81 C 239.83 716.01 240.67 711.25 241.75 706.54 C 242.89 701.58 244.26 696.67 245.85 691.84 C 247.51 686.77 249.37 681.76 251.43 676.84 C 253.58 671.7 255.91 666.63 258.42 661.66 C 261.02 656.49 263.78 651.4 266.71 646.41 C 272.84 635.96 279.55 625.87 286.82 616.18 C 294.38 606.07 302.45 596.36 310.99 587.06 C 319.68 577.59 328.83 568.56 338.41 559.98 C 347.95 551.42 357.92 543.36 368.28 535.82 C 378.4 528.44 388.92 521.65 399.8 515.46 C 400.73 514.93 401.41 514.05 401.69 513.02 C 401.96 511.99 401.81 510.88 401.27 509.96 L 373.67 462.91 L 513.8 473.31 L 454.51 600.7 L 426.91 553.65 C 426.33 552.68 425.37 551.99 424.27 551.76 C 423.16 551.53 422 551.78 421.09 552.45 C 414.6 557.22 408.18 562.08 401.84 567.05 C 394.24 573.01 386.72 579.07 379.28 585.23 C 361.85 599.65 344.83 614.56 328.25 629.95 C 319.3 638.25 310.5 646.7 301.84 655.31 C 293.1 663.98 284.55 672.84 276.18 681.87 C 267.98 690.72 260.01 699.79 252.3 709.06 C 247.64 714.66 243.11 720.35 238.71 726.15 Z " fill-rule="evenodd" fill="rgb(0,0,0)"/></g><g><defs><filter id="BLFcRMxSZRiij4uLbRelo0DGqDITnuol" x="-200%" y="-200%" width="400%" height="400%" filterUnits="objectBoundingBox" color-interpolation-filters="sRGB"><feGaussianBlur xmlns="http://www.w3.org/2000/svg" in="SourceGraphic" stdDeviation="0"/><feOffset xmlns="http://www.w3.org/2000/svg" dx="8" dy="8" result="pf_100_offsetBlur"/><feFlood xmlns="http://www.w3.org/2000/svg" flood-color="#000000" flood-opacity="1"/><feComposite xmlns="http://www.w3.org/2000/svg" in2="pf_100_offsetBlur" operator="in" result="pf_100_dropShadow"/><feBlend xmlns="http://www.w3.org/2000/svg" in="SourceGraphic" in2="pf_100_dropShadow" mode="normal"/></filter></defs><g filter="url(#BLFcRMxSZRiij4uLbRelo0DGqDITnuol)"><path d=" M 181.887 248.278 L 115.717 243.371 L 143.716 183.217 L 157.277 206.331 C 176.975 191.924 216.726 158.28 238.74 127.466 C 240.001 159.687 206.358 203.625 168.326 225.164 L 181.887 248.278 Z " fill="rgb(255,255,255)"/></g><defs><filter id="wb8n9obb7ZJpMnUn1uQRxrVtbObFDLeE" x="-200%" y="-200%" width="400%" height="400%" filterUnits="objectBoundingBox" color-interpolation-filters="sRGB"><feGaussianBlur xmlns="http://www.w3.org/2000/svg" in="SourceGraphic" stdDeviation="0"/><feOffset xmlns="http://www.w3.org/2000/svg" dx="8" dy="8" result="pf_100_offsetBlur"/><feFlood xmlns="http://www.w3.org/2000/svg" flood-color="#000000" flood-opacity="1"/><feComposite xmlns="http://www.w3.org/2000/svg" in2="pf_100_offsetBlur" operator="in" result="pf_100_dropShadow"/><feBlend xmlns="http://www.w3.org/2000/svg" in="SourceGraphic" in2="pf_100_dropShadow" mode="normal"/></filter></defs><g filter="url(#wb8n9obb7ZJpMnUn1uQRxrVtbObFDLeE)"><path d=" M 152.887 96 L 219.057 100.907 L 191.059 161.062 L 177.498 137.948 C 157.799 152.354 118.048 185.998 96.034 216.812 C 94.774 184.591 128.416 140.653 166.448 119.114 L 152.887 96 Z " fill="rgb(255,255,255)"/></g><path d=" M 185.54 250.55 L 112.68 245.15 L 143.51 178.92 L 157.88 203.4 C 160.04 201.79 162.18 200.16 164.3 198.5 C 167.55 195.95 170.76 193.36 173.94 190.72 C 181.4 184.55 188.69 178.17 195.78 171.58 C 203.48 164.48 210.9 157.08 218.03 149.4 C 221.52 145.64 224.91 141.78 228.19 137.83 C 231.3 134.1 234.28 130.25 237.12 126.3 C 237.62 125.6 238.51 125.3 239.33 125.56 C 240.15 125.81 240.72 126.57 240.74 127.43 L 240.77 129.2 C 240.77 129.22 240.77 129.23 240.77 129.25 C 240.74 133.6 240.22 137.92 239.23 142.15 C 238.15 146.73 236.69 151.21 234.86 155.55 C 232.9 160.21 230.62 164.74 228.05 169.11 C 225.34 173.73 222.37 178.2 219.15 182.49 C 212.42 191.47 204.8 199.77 196.42 207.25 C 192.21 211.02 187.82 214.58 183.25 217.9 C 179.33 220.76 175.26 223.43 171.07 225.89 L 185.54 250.55 Z  M 236.55 133.78 C 236.32 136.29 235.91 138.78 235.33 141.23 C 234.31 145.6 232.92 149.87 231.17 153.99 C 229.28 158.5 227.09 162.87 224.61 167.08 C 221.97 171.57 219.08 175.92 215.95 180.09 C 209.37 188.86 201.94 196.97 193.75 204.27 C 189.65 207.95 185.36 211.42 180.9 214.67 C 176.55 217.84 172.02 220.76 167.34 223.43 C 166.87 223.69 166.53 224.13 166.39 224.65 C 166.26 225.16 166.33 225.71 166.6 226.18 L 178.23 246 L 118.75 241.59 L 143.92 187.52 L 155.55 207.34 C 155.84 207.83 156.32 208.17 156.87 208.29 C 157.43 208.4 158 208.28 158.46 207.94 C 161.26 205.89 164.03 203.79 166.76 201.64 C 170.04 199.08 173.29 196.46 176.5 193.8 C 184.01 187.59 191.35 181.15 198.5 174.52 C 206.27 167.34 213.76 159.87 220.96 152.12 C 224.5 148.31 227.94 144.39 231.26 140.39 C 233.07 138.22 234.83 136.02 236.55 133.78 Z " fill-rule="evenodd" fill="rgb(0,0,0)"/><path d=" M 149.23 93.72 L 222.09 99.13 L 191.26 165.36 L 176.9 140.88 C 174.74 142.49 172.6 144.12 170.48 145.78 C 167.23 148.33 164.01 150.92 160.83 153.56 C 153.37 159.73 146.09 166.11 138.99 172.69 C 131.3 179.8 123.88 187.2 116.75 194.88 C 113.26 198.64 109.87 202.5 106.58 206.45 C 103.47 210.18 100.49 214.03 97.66 217.98 C 97.16 218.68 96.26 218.98 95.44 218.72 C 94.62 218.47 94.05 217.71 94.03 216.85 L 94 215.08 C 94 215.06 94 215.04 94 215.03 C 94.03 210.68 94.55 206.36 95.55 202.13 C 96.62 197.55 98.08 193.07 99.91 188.73 C 101.88 184.06 104.15 179.53 106.72 175.17 C 109.43 170.55 112.41 166.08 115.62 161.79 C 122.36 152.8 129.97 144.51 138.35 137.03 C 142.56 133.26 146.96 129.7 151.52 126.38 C 155.45 123.51 159.51 120.85 163.7 118.39 L 149.23 93.72 Z  M 98.23 210.5 C 98.46 207.99 98.86 205.5 99.44 203.04 C 100.46 198.68 101.85 194.41 103.6 190.29 C 105.49 185.78 107.69 181.41 110.17 177.2 C 112.81 172.7 115.7 168.36 118.82 164.19 C 125.4 155.41 132.84 147.31 141.02 140.01 C 145.13 136.33 149.42 132.86 153.88 129.61 C 158.23 126.44 162.76 123.51 167.44 120.85 C 167.9 120.59 168.24 120.15 168.38 119.63 C 168.52 119.11 168.44 118.56 168.17 118.1 L 156.54 98.28 L 216.02 102.69 L 190.85 156.76 L 179.22 136.94 C 178.94 136.45 178.46 136.1 177.9 135.99 C 177.35 135.87 176.77 136 176.31 136.33 C 173.51 138.39 170.74 140.49 168.01 142.63 C 164.73 145.2 161.49 147.82 158.28 150.47 C 150.76 156.69 143.43 163.12 136.28 169.76 C 128.51 176.94 121.01 184.41 113.81 192.16 C 110.27 195.97 106.84 199.89 103.51 203.89 C 101.7 206.06 99.94 208.26 98.23 210.5 Z " fill-rule="evenodd" fill="rgb(0,0,0)"/></g><g><defs><filter id="oOAEyIOxYbZEGOBtBfk6Q4xDRmyNTIrc" x="-200%" y="-200%" width="400%" height="400%" filterUnits="objectBoundingBox" color-interpolation-filters="sRGB"><feGaussianBlur xmlns="http://www.w3.org/2000/svg" in="SourceGraphic" stdDeviation="0"/><feOffset xmlns="http://www.w3.org/2000/svg" dx="-8" dy="-8" result="pf_100_offsetBlur"/><feFlood xmlns="http://www.w3.org/2000/svg" flood-color="#000000" flood-opacity="1"/><feComposite xmlns="http://www.w3.org/2000/svg" in2="pf_100_offsetBlur" operator="in" result="pf_100_dropShadow"/><feBlend xmlns="http://www.w3.org/2000/svg" in="SourceGraphic" in2="pf_100_dropShadow" mode="normal"/></filter></defs><g filter="url(#oOAEyIOxYbZEGOBtBfk6Q4xDRmyNTIrc)"><path d=" M 618.087 1021.7 L 684.257 1026.607 L 656.259 1086.762 L 642.698 1063.648 C 622.999 1078.054 583.248 1111.698 561.234 1142.512 C 559.974 1110.291 593.616 1066.353 631.648 1044.814 L 618.087 1021.7 Z " fill="rgb(255,255,255)"/></g><defs><filter id="q0XXoZmAlvOK5t4fFfFSxKdJGLcErnsh" x="-200%" y="-200%" width="400%" height="400%" filterUnits="objectBoundingBox" color-interpolation-filters="sRGB"><feGaussianBlur xmlns="http://www.w3.org/2000/svg" in="SourceGraphic" stdDeviation="0"/><feOffset xmlns="http://www.w3.org/2000/svg" dx="-8" dy="-8" result="pf_100_offsetBlur"/><feFlood xmlns="http://www.w3.org/2000/svg" flood-color="#000000" flood-opacity="1"/><feComposite xmlns="http://www.w3.org/2000/svg" in2="pf_100_offsetBlur" operator="in" result="pf_100_dropShadow"/><feBlend xmlns="http://www.w3.org/2000/svg" in="SourceGraphic" in2="pf_100_dropShadow" mode="normal"/></filter></defs><g filter="url(#q0XXoZmAlvOK5t4fFfFSxKdJGLcErnsh)"><path d=" M 647.087 1173.978 L 580.917 1169.071 L 608.916 1108.917 L 622.477 1132.031 C 642.175 1117.624 681.926 1083.98 703.94 1053.166 C 705.201 1085.387 671.558 1129.325 633.526 1150.864 L 647.087 1173.978 Z " fill="rgb(255,255,255)"/></g><path d=" M 614.43 1019.42 L 687.29 1024.83 L 656.46 1091.06 L 642.1 1066.58 C 639.94 1068.19 637.8 1069.82 635.68 1071.48 C 632.43 1074.03 629.21 1076.62 626.03 1079.26 C 618.57 1085.43 611.29 1091.81 604.19 1098.39 C 596.5 1105.5 589.08 1112.9 581.95 1120.58 C 578.46 1124.34 575.07 1128.2 571.78 1132.15 C 568.67 1135.88 565.69 1139.73 562.86 1143.68 C 562.36 1144.38 561.46 1144.68 560.64 1144.42 C 559.82 1144.17 559.25 1143.41 559.23 1142.55 L 559.2 1140.78 C 559.2 1140.76 559.2 1140.74 559.2 1140.73 C 559.23 1136.38 559.75 1132.06 560.75 1127.83 C 561.82 1123.25 563.28 1118.77 565.11 1114.43 C 567.08 1109.76 569.35 1105.23 571.92 1100.87 C 574.63 1096.25 577.61 1091.78 580.82 1087.49 C 587.56 1078.5 595.17 1070.21 603.55 1062.73 C 607.76 1058.96 612.16 1055.4 616.72 1052.08 C 620.65 1049.21 624.71 1046.55 628.9 1044.09 L 614.43 1019.42 Z  M 563.43 1136.2 C 563.66 1133.69 564.06 1131.2 564.64 1128.74 C 565.66 1124.38 567.05 1120.11 568.8 1115.99 C 570.69 1111.48 572.89 1107.11 575.37 1102.9 C 578.01 1098.4 580.9 1094.06 584.02 1089.89 C 590.6 1081.11 598.04 1073.01 606.22 1065.71 C 610.33 1062.03 614.62 1058.56 619.08 1055.31 C 623.43 1052.14 627.96 1049.21 632.64 1046.55 C 633.1 1046.29 633.44 1045.85 633.58 1045.33 C 633.72 1044.81 633.64 1044.26 633.37 1043.8 L 621.74 1023.98 L 681.22 1028.39 L 656.05 1082.46 L 644.42 1062.64 C 644.14 1062.15 643.66 1061.8 643.1 1061.69 C 642.55 1061.57 641.97 1061.7 641.51 1062.03 C 638.71 1064.09 635.94 1066.19 633.21 1068.33 C 629.93 1070.9 626.69 1073.52 623.48 1076.17 C 615.96 1082.39 608.63 1088.82 601.48 1095.46 C 593.71 1102.64 586.21 1110.11 579.01 1117.86 C 575.47 1121.67 572.04 1125.59 568.71 1129.59 C 566.9 1131.76 565.14 1133.96 563.43 1136.2 Z " fill-rule="evenodd" fill="rgb(0,0,0)"/><path d=" M 650.74 1176.25 L 577.88 1170.85 L 608.71 1104.62 L 623.08 1129.1 C 625.24 1127.49 627.38 1125.86 629.5 1124.2 C 632.75 1121.65 635.96 1119.06 639.14 1116.42 C 646.6 1110.25 653.89 1103.87 660.98 1097.28 C 668.68 1090.18 676.1 1082.78 683.23 1075.1 C 686.72 1071.34 690.11 1067.48 693.39 1063.53 C 696.5 1059.8 699.48 1055.95 702.32 1052 C 702.82 1051.3 703.71 1051 704.53 1051.26 C 705.35 1051.51 705.92 1052.27 705.94 1053.13 L 705.97 1054.9 C 705.97 1054.92 705.97 1054.93 705.97 1054.95 C 705.94 1059.3 705.42 1063.62 704.43 1067.85 C 703.35 1072.43 701.89 1076.91 700.06 1081.25 C 698.1 1085.91 695.82 1090.44 693.25 1094.81 C 690.54 1099.43 687.57 1103.9 684.35 1108.19 C 677.62 1117.17 670 1125.47 661.62 1132.95 C 657.41 1136.72 653.02 1140.28 648.45 1143.6 C 644.53 1146.46 640.46 1149.13 636.27 1151.59 L 650.74 1176.25 Z  M 701.75 1059.48 C 701.52 1061.99 701.11 1064.48 700.53 1066.93 C 699.51 1071.3 698.12 1075.57 696.37 1079.69 C 694.48 1084.2 692.29 1088.57 689.81 1092.78 C 687.17 1097.27 684.28 1101.62 681.15 1105.79 C 674.57 1114.56 667.14 1122.67 658.95 1129.97 C 654.85 1133.65 650.56 1137.12 646.1 1140.37 C 641.75 1143.54 637.22 1146.46 632.54 1149.13 C 632.07 1149.39 631.73 1149.83 631.59 1150.35 C 631.46 1150.86 631.53 1151.41 631.8 1151.88 L 643.43 1171.7 L 583.95 1167.29 L 609.12 1113.22 L 620.75 1133.04 C 621.04 1133.53 621.52 1133.87 622.07 1133.99 C 622.63 1134.1 623.2 1133.98 623.66 1133.64 C 626.46 1131.59 629.23 1129.49 631.96 1127.34 C 635.24 1124.78 638.49 1122.16 641.7 1119.5 C 649.21 1113.29 656.55 1106.85 663.7 1100.22 C 671.47 1093.04 678.96 1085.57 686.16 1077.82 C 689.7 1074.01 693.14 1070.09 696.46 1066.09 C 698.27 1063.92 700.03 1061.72 701.75 1059.48 Z " fill-rule="evenodd" fill="rgb(0,0,0)"/></g></g></svg>