<?xml version="1.0" encoding="UTF-8" standalone="no"?><!-- Generator: Gravit.io --><svg xmlns="http://www.w3.org/2000/svg" xmlns:xlink="http://www.w3.org/1999/xlink" style="isolation:isolate" viewBox="0 0 800 1270" width="800pt" height="1270pt"><defs><clipPath id="_clipPath_3OfRBCueFto0iNEKSOznKXjPyx5F0lSO"><rect width="800" height="1270"/></clipPath></defs><g clip-path="url(#_clipPath_3OfRBCueFto0iNEKSOznKXjPyx5F0lSO)"><path d=" M 800 64 C 800 30.523 757.12 0 736 0 L 64 0 C 42.912 0 0 30.523 0 64 L 0 1206 C 0 1239.477 42.912 1270 64 1270 L 746 1270 C 767.12 1270 800 1239.477 800 1206 L 800 64 Z " fill-rule="evenodd" fill="rgb(0,0,0)"/><path d=" M 796 64 C 796 30.734 756.908 4 736 4 L 64 4 C 43.123 4 4 34.331 4 67.597 L 4 1206 C 4 1239.266 43.123 1266 64 1266 L 746 1266 C 766.908 1266 796 1239.266 796 1206 L 796 64 Z " fill-rule="evenodd" fill="rgb(255,255,255)"/><path d=" M 736 121.55 C 736 91.446 699.98 64 682.24 64 L 117.76 64 C 100.046 64 64 91.446 64 121.55 L 64 1148.45 C 64 1178.554 100.046 1206 117.76 1206 L 690.64 1206 C 708.38 1206 736 1178.554 736 1148.45 L 736 121.55 Z " fill-rule="evenodd" fill="rgb(0,114,187)"/><path d=" M 183.054 507.699 C 343.308 234.596 570.623 69.913 690.359 140.172 C 810.095 210.432 777.199 489.198 616.946 762.301 C 456.692 1035.404 229.377 1200.087 109.641 1129.828 C -10.095 1059.568 22.801 780.802 183.054 507.699 Z " fill="rgb(255,255,255)"/><g><defs><filter id="KgEvkQzy5ZltT7HFP95hQYF4XxhPJKoP" x="-200%" y="-200%" width="400%" height="400%" filterUnits="objectBoundingBox" color-interpolation-filters="sRGB"><feGaussianBlur xmlns="http://www.w3.org/2000/svg" in="SourceGraphic" stdDeviation="0"/><feOffset xmlns="http://www.w3.org/2000/svg" dx="-8" dy="-8" result="pf_100_offsetBlur"/><feFlood xmlns="http://www.w3.org/2000/svg" flood-color="#000000" flood-opacity="1"/><feComposite xmlns="http://www.w3.org/2000/svg" in2="pf_100_offsetBlur" operator="in" result="pf_100_dropShadow"/><feBlend xmlns="http://www.w3.org/2000/svg" in="SourceGraphic" in2="pf_100_dropShadow" mode="normal"/></filter></defs><g filter="url(#KgEvkQzy5ZltT7HFP95hQYF4XxhPJKoP)"><path d=" M 609.572 1149.307 C 632.687 1156.488 659.758 1145.368 673.857 1121.337 L 673.857 1121.337 C 687.956 1097.307 684.455 1068.251 666.91 1051.576 L 609.572 1149.307 Z  M 591.09 1138.463 C 573.545 1121.789 570.044 1092.733 584.143 1068.702 C 598.242 1044.672 625.313 1033.552 648.428 1040.733 L 591.09 1138.463 Z  M 691.8 1131.864 C 669.166 1170.443 622.651 1185.254 587.991 1164.919 C 553.33 1144.584 543.566 1096.754 566.2 1058.175 C 588.834 1019.597 635.349 1004.786 670.009 1025.121 C 704.67 1045.456 714.434 1093.286 691.8 1131.864 L 691.8 1131.864 Z " fill-rule="evenodd" fill="rgb(255,255,255)"/></g><path d=" M 668.29 1050.13 C 673.57 1055.19 677.71 1061.31 680.43 1068.1 C 683.19 1075.01 684.6 1082.39 684.57 1089.83 C 684.56 1095.39 683.82 1100.92 682.35 1106.29 C 680.82 1111.92 678.54 1117.32 675.58 1122.35 C 672.77 1127.16 669.35 1131.59 665.43 1135.54 C 661.68 1139.31 657.46 1142.6 652.89 1145.31 C 648.47 1147.93 643.73 1149.97 638.79 1151.38 C 633.96 1152.75 628.96 1153.45 623.94 1153.46 C 618.87 1153.47 613.83 1152.71 608.98 1151.22 C 608.4 1151.04 607.93 1150.6 607.71 1150.03 C 607.49 1149.46 607.54 1148.82 607.85 1148.29 L 665.19 1050.56 C 665.49 1050.04 666.03 1049.68 666.63 1049.6 C 667.24 1049.51 667.85 1049.71 668.29 1050.13 Z  M 667.32 1054.83 C 671.34 1059.12 674.53 1064.13 676.71 1069.59 C 679.29 1076.02 680.6 1082.89 680.57 1089.82 C 680.57 1095.03 679.87 1100.21 678.5 1105.24 C 677.05 1110.53 674.91 1115.6 672.13 1120.33 C 669.49 1124.84 666.28 1129.01 662.59 1132.72 C 659.08 1136.25 655.13 1139.33 650.85 1141.87 C 646.73 1144.32 642.31 1146.22 637.7 1147.53 C 633.22 1148.8 628.59 1149.45 623.94 1149.46 C 620.12 1149.47 616.31 1149 612.61 1148.08 L 667.32 1054.83 Z  M 589.71 1139.91 C 584.43 1134.85 580.29 1128.73 577.57 1121.94 C 574.81 1115.03 573.4 1107.65 573.43 1100.21 C 573.44 1094.65 574.18 1089.12 575.65 1083.75 C 577.18 1078.12 579.46 1072.72 582.42 1067.69 C 585.23 1062.88 588.65 1058.45 592.57 1054.5 C 596.32 1050.73 600.54 1047.44 605.11 1044.73 C 609.53 1042.11 614.27 1040.07 619.21 1038.66 C 624.04 1037.29 629.04 1036.59 634.06 1036.58 C 639.13 1036.57 644.17 1037.33 649.02 1038.82 C 649.6 1039 650.07 1039.44 650.29 1040.01 C 650.51 1040.58 650.46 1041.22 650.15 1041.74 L 592.81 1139.48 C 592.51 1140 591.97 1140.36 591.37 1140.44 C 590.76 1140.53 590.15 1140.33 589.71 1139.91 Z  M 590.68 1135.21 C 586.66 1130.92 583.47 1125.91 581.29 1120.45 C 578.71 1114.02 577.4 1107.15 577.43 1100.22 C 577.43 1095.01 578.13 1089.83 579.5 1084.8 C 580.95 1079.51 583.09 1074.44 585.87 1069.71 C 588.51 1065.2 591.72 1061.03 595.41 1057.32 C 598.92 1053.79 602.87 1050.71 607.15 1048.17 C 611.27 1045.72 615.69 1043.82 620.3 1042.51 C 624.78 1041.24 629.41 1040.59 634.06 1040.58 C 637.88 1040.57 641.69 1041.04 645.39 1041.96 L 590.68 1135.21 Z  M 693.52 1132.88 C 689.62 1139.55 684.88 1145.7 679.43 1151.19 C 674.23 1156.42 668.38 1160.97 662.04 1164.74 C 655.91 1168.37 649.34 1171.2 642.49 1173.15 C 635.8 1175.05 628.88 1176.03 621.92 1176.04 C 615.87 1176.05 609.85 1175.27 604 1173.73 C 598.03 1172.15 592.3 1169.77 586.98 1166.64 C 581.42 1163.38 576.36 1159.35 571.93 1154.67 C 567.61 1150.07 563.92 1144.91 560.97 1139.33 C 558 1133.71 555.75 1127.75 554.27 1121.57 C 552.75 1115.25 551.99 1108.78 552 1102.29 C 552.01 1094.58 553.04 1086.9 555.08 1079.45 C 557.21 1071.64 560.37 1064.14 564.48 1057.16 C 568.38 1050.49 573.12 1044.34 578.57 1038.85 C 583.77 1033.62 589.62 1029.07 595.96 1025.3 C 602.09 1021.67 608.66 1018.84 615.51 1016.89 C 622.2 1014.99 629.12 1014.01 636.08 1014 C 642.13 1013.99 648.15 1014.77 654 1016.31 C 659.97 1017.89 665.7 1020.27 671.02 1023.4 C 676.58 1026.66 681.64 1030.69 686.07 1035.37 C 690.39 1039.97 694.08 1045.13 697.03 1050.71 C 700 1056.33 702.25 1062.29 703.73 1068.47 C 705.25 1074.78 706.01 1081.26 706 1087.75 C 705.99 1095.46 704.96 1103.14 702.92 1110.59 C 700.79 1118.4 697.63 1125.9 693.52 1132.88 Z  M 690.07 1130.85 C 686.34 1137.24 681.81 1143.12 676.59 1148.37 C 671.63 1153.36 666.05 1157.7 659.99 1161.3 C 654.17 1164.76 647.91 1167.45 641.39 1169.3 C 635.06 1171.1 628.5 1172.03 621.91 1172.04 C 616.21 1172.05 610.53 1171.32 605.02 1169.87 C 599.4 1168.38 594.01 1166.13 589 1163.19 C 583.77 1160.13 579.01 1156.33 574.85 1151.92 C 570.77 1147.59 567.29 1142.72 564.51 1137.46 C 561.7 1132.14 559.56 1126.49 558.16 1120.63 C 556.72 1114.63 555.99 1108.47 556 1102.3 C 556.01 1094.94 557 1087.61 558.93 1080.51 C 560.97 1073.03 564 1065.86 567.93 1059.19 C 571.66 1052.8 576.19 1046.92 581.41 1041.67 C 586.37 1036.68 591.95 1032.34 598.01 1028.74 C 603.83 1025.28 610.09 1022.59 616.61 1020.74 C 622.94 1018.94 629.5 1018.01 636.09 1018 C 641.79 1017.99 647.47 1018.72 652.98 1020.17 C 658.6 1021.66 663.99 1023.91 669 1026.85 C 674.23 1029.91 678.99 1033.71 683.15 1038.12 C 687.23 1042.45 690.71 1047.32 693.49 1052.58 C 696.3 1057.9 698.44 1063.55 699.84 1069.41 C 701.28 1075.41 702.01 1081.57 702 1087.74 C 701.99 1095.1 701 1102.43 699.07 1109.53 C 697.03 1117.01 694 1124.18 690.07 1130.85 Z " fill-rule="evenodd" fill="rgb(0,0,0)"/></g><g><defs><filter id="FHb71D3t9b9bSfjjQO9zATysHi5GJf4X" x="-200%" y="-200%" width="400%" height="400%" filterUnits="objectBoundingBox" color-interpolation-filters="sRGB"><feGaussianBlur xmlns="http://www.w3.org/2000/svg" in="SourceGraphic" stdDeviation="0"/><feOffset xmlns="http://www.w3.org/2000/svg" dx="8" dy="8" result="pf_100_offsetBlur"/><feFlood xmlns="http://www.w3.org/2000/svg" flood-color="#000000" flood-opacity="1"/><feComposite xmlns="http://www.w3.org/2000/svg" in2="pf_100_offsetBlur" operator="in" result="pf_100_dropShadow"/><feBlend xmlns="http://www.w3.org/2000/svg" in="SourceGraphic" in2="pf_100_dropShadow" mode="normal"/></filter></defs><g filter="url(#FHb71D3t9b9bSfjjQO9zATysHi5GJf4X)"><path d=" M 190.428 120.733 C 167.313 113.552 140.242 124.672 126.143 148.702 L 126.143 148.702 C 112.044 172.733 115.545 201.789 133.09 218.463 L 190.428 120.733 Z  M 208.91 131.576 C 226.455 148.251 229.956 177.307 215.857 201.337 C 201.758 225.368 174.687 236.488 151.572 229.307 L 208.91 131.576 Z  M 108.2 138.175 C 130.834 99.597 177.349 84.786 212.009 105.121 C 246.67 125.456 256.434 173.286 233.8 211.864 C 211.166 250.443 164.651 265.254 129.991 244.919 C 95.33 224.584 85.566 176.754 108.2 138.175 L 108.2 138.175 Z " fill-rule="evenodd" fill="rgb(255,255,255)"/></g><path d=" M 131.71 219.91 C 126.43 214.85 122.29 208.73 119.57 201.94 C 116.81 195.03 115.4 187.65 115.43 180.21 C 115.44 174.65 116.18 169.12 117.65 163.75 C 119.18 158.12 121.46 152.72 124.42 147.69 C 127.23 142.88 130.65 138.45 134.57 134.5 C 138.32 130.73 142.54 127.44 147.11 124.73 C 151.53 122.11 156.27 120.07 161.21 118.66 C 166.04 117.29 171.04 116.59 176.06 116.58 C 181.13 116.57 186.17 117.33 191.02 118.82 C 191.6 119 192.07 119.44 192.29 120.01 C 192.51 120.58 192.46 121.22 192.15 121.74 L 134.81 219.48 C 134.51 220 133.97 220.36 133.37 220.44 C 132.76 220.53 132.15 220.33 131.71 219.91 Z  M 132.68 215.21 C 128.66 210.92 125.47 205.91 123.29 200.45 C 120.71 194.02 119.4 187.15 119.43 180.22 C 119.43 175.01 120.13 169.83 121.5 164.8 C 122.95 159.51 125.09 154.44 127.87 149.71 C 130.51 145.2 133.72 141.03 137.41 137.32 C 140.92 133.79 144.87 130.71 149.15 128.17 C 153.27 125.72 157.69 123.82 162.3 122.51 C 166.78 121.24 171.41 120.59 176.06 120.58 C 179.88 120.57 183.69 121.04 187.39 121.96 L 132.68 215.21 Z  M 210.29 130.13 C 215.57 135.19 219.71 141.31 222.43 148.1 C 225.19 155.01 226.6 162.39 226.57 169.83 C 226.56 175.39 225.82 180.92 224.35 186.29 C 222.82 191.92 220.54 197.32 217.58 202.35 C 214.77 207.16 211.35 211.59 207.43 215.54 C 203.68 219.31 199.46 222.6 194.89 225.31 C 190.47 227.93 185.73 229.97 180.79 231.38 C 175.96 232.75 170.96 233.45 165.94 233.46 C 160.87 233.47 155.83 232.71 150.98 231.22 C 150.4 231.04 149.93 230.6 149.71 230.03 C 149.49 229.46 149.54 228.82 149.85 228.29 L 207.19 130.56 C 207.49 130.04 208.03 129.68 208.63 129.6 C 209.24 129.51 209.85 129.71 210.29 130.13 Z  M 209.32 134.83 C 213.34 139.12 216.53 144.13 218.71 149.59 C 221.29 156.02 222.6 162.89 222.57 169.82 C 222.57 175.03 221.87 180.21 220.5 185.24 C 219.05 190.53 216.91 195.6 214.13 200.33 C 211.49 204.84 208.28 209.01 204.59 212.72 C 201.08 216.25 197.13 219.33 192.85 221.87 C 188.73 224.32 184.31 226.22 179.7 227.53 C 175.22 228.8 170.59 229.45 165.94 229.46 C 162.12 229.47 158.31 229 154.61 228.08 L 209.32 134.83 Z  M 106.48 137.16 C 110.38 130.49 115.12 124.34 120.57 118.85 C 125.77 113.62 131.62 109.07 137.96 105.3 C 144.09 101.67 150.66 98.84 157.51 96.89 C 164.2 94.99 171.12 94.01 178.08 94 C 184.13 93.99 190.15 94.77 196 96.31 C 201.97 97.89 207.7 100.27 213.02 103.4 C 218.58 106.66 223.64 110.69 228.07 115.37 C 232.39 119.97 236.08 125.13 239.03 130.71 C 242 136.33 244.25 142.29 245.73 148.47 C 247.25 154.78 248.01 161.26 248 167.75 C 247.99 175.46 246.96 183.14 244.92 190.59 C 242.79 198.4 239.63 205.9 235.52 212.88 C 231.62 219.55 226.88 225.7 221.43 231.19 C 216.23 236.42 210.38 240.97 204.04 244.74 C 197.91 248.37 191.34 251.2 184.49 253.15 C 177.8 255.05 170.88 256.03 163.92 256.04 C 157.87 256.05 151.85 255.27 146 253.73 C 140.03 252.15 134.3 249.77 128.98 246.64 C 123.42 243.38 118.36 239.35 113.93 234.67 C 109.61 230.07 105.92 224.91 102.97 219.33 C 100 213.71 97.75 207.75 96.27 201.57 C 94.75 195.25 93.99 188.78 94 182.29 C 94.01 174.58 95.04 166.9 97.08 159.45 C 99.21 151.64 102.37 144.14 106.48 137.16 Z  M 109.93 139.19 C 113.66 132.8 118.19 126.92 123.41 121.67 C 128.37 116.68 133.95 112.34 140.01 108.74 C 145.83 105.28 152.09 102.59 158.61 100.74 C 164.94 98.94 171.5 98.01 178.09 98 C 183.79 97.99 189.47 98.72 194.98 100.17 C 200.6 101.66 205.99 103.91 211 106.85 C 216.23 109.91 220.99 113.71 225.15 118.12 C 229.23 122.45 232.71 127.32 235.49 132.58 C 238.3 137.9 240.44 143.55 241.84 149.41 C 243.28 155.41 244.01 161.57 244 167.74 C 243.99 175.1 243 182.43 241.07 189.53 C 239.03 197.01 236 204.18 232.07 210.85 C 228.34 217.24 223.81 223.12 218.59 228.37 C 213.63 233.36 208.05 237.7 201.99 241.3 C 196.17 244.76 189.91 247.45 183.39 249.3 C 177.06 251.1 170.5 252.03 163.91 252.04 C 158.21 252.05 152.53 251.32 147.02 249.87 C 141.4 248.38 136.01 246.13 131 243.19 C 125.77 240.13 121.01 236.33 116.85 231.92 C 112.77 227.59 109.29 222.72 106.51 217.46 C 103.7 212.14 101.56 206.49 100.16 200.63 C 98.72 194.63 97.99 188.47 98 182.3 C 98.01 174.94 99 167.61 100.93 160.51 C 102.97 153.03 106 145.86 109.93 139.19 Z " fill-rule="evenodd" fill="rgb(0,0,0)"/></g><g><defs><filter id="3BfNLJPWTW7PWlmFxSAENXnfGKjeW6j2" x="-200%" y="-200%" width="400%" height="400%" filterUnits="objectBoundingBox" color-interpolation-filters="sRGB"><feGaussianBlur xmlns="http://www.w3.org/2000/svg" in="SourceGraphic" stdDeviation="0"/><feOffset xmlns="http://www.w3.org/2000/svg" dx="16" dy="16" result="pf_100_offsetBlur"/><feFlood xmlns="http://www.w3.org/2000/svg" flood-color="#000000" flood-opacity="1"/><feComposite xmlns="http://www.w3.org/2000/svg" in2="pf_100_offsetBlur" operator="in" result="pf_100_dropShadow"/><feBlend xmlns="http://www.w3.org/2000/svg" in="SourceGraphic" in2="pf_100_dropShadow" mode="normal"/></filter></defs><g filter="url(#3BfNLJPWTW7PWlmFxSAENXnfGKjeW6j2)"><path d=" M 445.332 508.33 C 391.397 491.575 328.23 517.522 295.334 573.593 L 295.334 573.593 C 262.437 629.664 270.604 697.461 311.543 736.368 L 445.332 508.33 Z  M 488.457 533.632 C 529.396 572.539 537.563 640.336 504.666 696.407 C 471.77 752.478 408.603 778.425 354.668 761.67 L 488.457 533.632 Z  M 253.467 549.03 C 306.279 459.014 414.815 424.454 495.689 471.903 C 576.562 519.351 599.345 630.954 546.533 720.97 C 493.721 810.986 385.185 845.546 304.311 798.098 C 223.438 750.649 200.655 639.046 253.467 549.03 L 253.467 549.03 Z " fill-rule="evenodd" fill="rgb(0,114,187)"/></g><path d=" M 448.78 510.35 L 314.99 738.39 C 314.38 739.44 313.31 740.16 312.1 740.33 C 310.89 740.5 309.67 740.11 308.78 739.27 C 302.65 733.43 297.18 726.94 292.46 719.91 C 287.76 712.9 283.79 705.41 280.63 697.58 C 277.43 689.66 275.02 681.45 273.43 673.06 C 271.81 664.51 270.99 655.82 271 647.12 C 271.02 634.2 272.75 621.34 276.15 608.88 C 279.72 595.8 285.01 583.25 291.88 571.57 C 298.42 560.4 306.35 550.1 315.48 540.92 C 324.19 532.16 333.98 524.53 344.6 518.23 C 354.86 512.14 365.86 507.4 377.34 504.15 C 388.55 500.96 400.14 499.32 411.8 499.3 C 423.57 499.28 435.27 501.04 446.51 504.51 C 447.68 504.87 448.62 505.74 449.06 506.88 C 449.5 508.02 449.4 509.3 448.78 510.35 Z  M 439.26 510.77 L 310.71 729.89 C 306.43 725.42 302.55 720.59 299.11 715.45 C 294.71 708.9 291 701.9 288.05 694.58 C 285.05 687.15 282.78 679.44 281.29 671.57 C 279.76 663.51 278.99 655.33 279 647.13 C 279.01 634.92 280.65 622.77 283.87 610.99 C 287.25 598.59 292.27 586.69 298.78 575.62 C 304.98 565.02 312.5 555.26 321.15 546.56 C 329.39 538.28 338.64 531.07 348.68 525.11 C 358.35 519.37 368.72 514.91 379.53 511.84 C 390.03 508.85 400.89 507.32 411.81 507.3 C 421.07 507.28 430.3 508.45 439.26 510.77 Z  M 491.22 530.73 C 497.35 536.57 502.82 543.06 507.54 550.09 C 512.24 557.1 516.21 564.59 519.37 572.42 C 522.57 580.34 524.98 588.55 526.57 596.94 C 528.19 605.49 529.01 614.18 529 622.88 C 528.98 635.8 527.25 648.66 523.85 661.12 C 520.28 674.2 514.99 686.75 508.12 698.43 C 501.58 709.6 493.65 719.9 484.52 729.08 C 475.81 737.84 466.02 745.47 455.4 751.77 C 445.14 757.86 434.14 762.6 422.66 765.85 C 411.45 769.04 399.86 770.68 388.2 770.7 C 376.43 770.72 364.73 768.96 353.49 765.49 C 352.32 765.13 351.38 764.26 350.94 763.12 C 350.5 761.98 350.6 760.7 351.22 759.65 L 485.01 531.61 C 485.62 530.56 486.69 529.84 487.9 529.67 C 489.11 529.5 490.33 529.89 491.22 530.73 Z  M 489.29 540.11 C 493.57 544.58 497.45 549.41 500.89 554.55 C 505.29 561.1 509 568.1 511.95 575.42 C 514.95 582.85 517.22 590.56 518.71 598.43 C 520.24 606.49 521.01 614.67 521 622.87 C 520.99 635.08 519.35 647.23 516.13 659.01 C 512.75 671.41 507.73 683.31 501.22 694.38 C 495.02 704.98 487.5 714.74 478.85 723.44 C 470.61 731.72 461.36 738.93 451.32 744.89 C 441.65 750.63 431.28 755.09 420.47 758.16 C 409.97 761.15 399.11 762.68 388.19 762.7 C 378.93 762.72 369.7 761.55 360.74 759.23 L 489.29 540.11 Z  M 250.02 547.01 C 259.1 531.48 270.12 517.17 282.81 504.41 C 294.91 492.24 308.5 481.66 323.26 472.9 C 337.5 464.44 352.78 457.87 368.71 453.34 C 384.26 448.92 400.35 446.65 416.52 446.62 C 430.58 446.6 444.58 448.4 458.17 451.98 C 472.04 455.65 485.34 461.19 497.71 468.45 C 510.62 476.03 522.39 485.39 532.67 496.28 C 542.72 506.96 551.29 518.95 558.15 531.92 C 565.05 544.98 570.28 558.85 573.72 573.21 C 577.25 587.89 579.02 602.93 579 618.03 C 578.98 635.97 576.57 653.84 571.85 671.15 C 566.89 689.32 559.53 706.76 549.98 722.99 C 540.9 738.52 529.88 752.83 517.19 765.59 C 505.09 777.76 491.5 788.34 476.74 797.1 C 462.5 805.56 447.22 812.13 431.29 816.66 C 415.74 821.08 399.65 823.35 383.48 823.38 C 369.42 823.4 355.42 821.6 341.83 818.02 C 327.96 814.35 314.66 808.81 302.29 801.55 C 289.38 793.97 277.61 784.61 267.33 773.72 C 257.28 763.04 248.71 751.05 241.85 738.08 C 234.95 725.02 229.72 711.15 226.28 696.79 C 222.75 682.11 220.98 667.07 221 651.97 C 221.02 634.03 223.43 616.16 228.15 598.85 C 233.11 580.68 240.47 563.24 250.02 547.01 Z  M 256.92 551.05 C 265.66 536.11 276.27 522.33 288.48 510.05 C 300.1 498.36 313.16 488.19 327.34 479.78 C 340.99 471.67 355.63 465.37 370.9 461.04 C 385.75 456.81 401.1 454.65 416.54 454.62 C 429.9 454.6 443.21 456.32 456.13 459.71 C 469.29 463.2 481.92 468.46 493.66 475.35 C 505.92 482.54 517.09 491.43 526.85 501.77 C 536.41 511.92 544.56 523.32 551.07 535.66 C 557.66 548.12 562.65 561.37 565.94 575.08 C 569.32 589.14 571.02 603.56 571 618.02 C 570.98 635.26 568.67 652.41 564.13 669.04 C 559.36 686.53 552.28 703.32 543.08 718.95 C 534.34 733.89 523.73 747.67 511.52 759.95 C 499.9 771.64 486.84 781.81 472.66 790.22 C 459.01 798.33 444.37 804.63 429.1 808.96 C 414.25 813.19 398.9 815.35 383.46 815.38 C 370.1 815.4 356.79 813.68 343.87 810.29 C 330.71 806.8 318.08 801.54 306.34 794.65 C 294.08 787.46 282.91 778.57 273.15 768.23 C 263.59 758.08 255.44 746.68 248.93 734.34 C 242.34 721.88 237.35 708.63 234.06 694.92 C 230.68 680.86 228.98 666.44 229 651.98 C 229.02 634.74 231.33 617.59 235.87 600.96 C 240.64 583.47 247.72 566.68 256.92 551.05 Z " fill-rule="evenodd" fill="rgb(0,0,0)"/></g></g></svg>