<?xml version="1.0" encoding="UTF-8" standalone="no"?><!-- Generator: Gravit.io --><svg xmlns="http://www.w3.org/2000/svg" xmlns:xlink="http://www.w3.org/1999/xlink" style="isolation:isolate" viewBox="0 0 800 1270" width="800pt" height="1270pt"><defs><clipPath id="_clipPath_moWj4rxT9ZXdKsjddqz9My6vyjmvrpKo"><rect width="800" height="1270"/></clipPath></defs><g clip-path="url(#_clipPath_moWj4rxT9ZXdKsjddqz9My6vyjmvrpKo)"><g><path d=" M 800 64 C 800 30.523 757.12 0 736 0 L 64 0 C 42.912 0 0 30.523 0 64 L 0 1206 C 0 1239.477 42.912 1270 64 1270 L 746 1270 C 767.12 1270 800 1239.477 800 1206 L 800 64 Z " fill-rule="evenodd" fill="rgb(0,0,0)"/><path d=" M 796 64 C 796 30.734 756.908 4 736 4 L 64 4 C 43.123 4 4 34.331 4 67.597 L 4 1206 C 4 1239.266 43.123 1266 64 1266 L 746 1266 C 766.908 1266 796 1239.266 796 1206 L 796 64 Z " fill-rule="evenodd" fill="rgb(255,255,255)"/><path d=" M 736 121.55 C 736 91.446 699.98 64 682.24 64 L 117.76 64 C 100.046 64 64 91.446 64 121.55 L 64 1148.45 C 64 1178.554 100.046 1206 117.76 1206 L 690.64 1206 C 708.38 1206 736 1178.554 736 1148.45 L 736 121.55 Z " fill-rule="evenodd" fill="rgb(237,29,37)"/><path d=" M 183.054 507.699 C 343.308 234.596 570.623 69.913 690.359 140.172 C 810.095 210.432 777.199 489.198 616.946 762.301 C 456.692 1035.404 229.377 1200.087 109.641 1129.828 C -10.095 1059.568 22.801 780.802 183.054 507.699 Z " fill="rgb(255,255,255)"/></g><g><path d=" M 214.499 526.167 C 364.825 269.942 569.991 110.687 672.372 170.753 L 400 635 L 214.499 526.167 L 214.499 526.167 Z " fill="rgb(237,29,37)"/><path d=" M 214.499 526.167 C 64.173 782.392 25.247 1039.18 127.628 1099.247 L 127.628 1099.247 L 400 635 L 214.499 526.167 L 214.499 526.167 Z " fill="rgb(255,222,22)"/><path d=" M 400 635 L 672.372 170.753 C 774.753 230.82 735.827 487.608 585.501 743.833 L 400 635 L 400 635 Z " fill="rgb(1,115,188)"/><path d=" M 400 635 L 127.628 1099.247 L 127.628 1099.247 C 230.009 1159.313 435.175 1000.058 585.501 743.833 L 400 635 L 400 635 Z " fill="rgb(81,170,68)"/></g><g><path d=" M 118.961 156.572 C 144.257 113.463 180.138 87.468 199.038 98.559 C 217.938 109.649 212.745 153.651 187.45 196.76 C 162.154 239.868 126.273 265.863 107.373 254.773 C 88.473 243.683 93.666 199.68 118.961 156.572 Z " fill="rgb(255,255,255)"/><g><path d=" M 123.925 159.487 C 147.653 119.042 180.038 93.904 196.199 103.386 L 153.206 176.666 L 123.925 159.487 L 123.925 159.487 Z " fill="rgb(237,29,37)"/><path d=" M 123.925 159.487 C 100.196 199.931 94.052 240.464 110.212 249.946 L 110.212 249.946 L 153.206 176.666 L 123.925 159.487 L 123.925 159.487 Z " fill="rgb(255,222,22)"/><path d=" M 153.206 176.666 L 196.199 103.386 C 212.359 112.867 206.215 153.4 182.486 193.845 L 153.206 176.666 L 153.206 176.666 Z " fill="rgb(1,115,188)"/><path d=" M 153.206 176.666 L 110.212 249.946 L 110.212 249.946 C 126.373 259.427 158.758 234.289 182.486 193.845 L 153.206 176.666 L 153.206 176.666 Z " fill="rgb(81,170,68)"/></g></g><g><path d=" M 681.05 1113.46 C 655.754 1156.568 619.873 1182.563 600.973 1171.473 C 582.073 1160.383 587.266 1116.38 612.561 1073.272 C 637.857 1030.163 673.738 1004.168 692.638 1015.259 C 711.538 1026.349 706.345 1070.351 681.05 1113.46 Z " fill="rgb(255,255,255)"/><g><path d=" M 676.086 1110.545 C 652.358 1150.989 619.973 1176.127 603.812 1166.646 L 646.806 1093.366 L 676.086 1110.545 L 676.086 1110.545 Z " fill="rgb(237,29,37)"/><path d=" M 676.086 1110.545 C 699.815 1070.1 705.959 1029.567 689.799 1020.086 L 689.799 1020.086 L 646.806 1093.366 L 676.086 1110.545 L 676.086 1110.545 Z " fill="rgb(255,222,22)"/><path d=" M 646.806 1093.366 L 603.812 1166.646 C 587.652 1157.164 593.796 1116.631 617.525 1076.187 L 646.806 1093.366 L 646.806 1093.366 Z " fill="rgb(1,115,188)"/><path d=" M 646.806 1093.366 L 689.799 1020.086 L 689.799 1020.086 C 673.638 1010.604 641.253 1035.742 617.525 1076.187 L 646.806 1093.366 L 646.806 1093.366 Z " fill="rgb(81,170,68)"/></g></g></g></svg>